G04 #@! TF.GenerationSoftware,KiCad,Pcbnew,8.0.4*
G04 #@! TF.CreationDate,2024-07-24T18:14:05+02:00*
G04 #@! TF.ProjectId,ESP32-C3-V3,45535033-322d-4433-932d-56332e6b6963,rev?*
G04 #@! TF.SameCoordinates,Original*
G04 #@! TF.FileFunction,Copper,L1,Top*
G04 #@! TF.FilePolarity,Positive*
%FSLAX46Y46*%
G04 Gerber Fmt 4.6, Leading zero omitted, Abs format (unit mm)*
G04 Created by KiCad (PCBNEW 8.0.4) date 2024-07-24 18:14:05*
%MOMM*%
%LPD*%
G01*
G04 APERTURE LIST*
G04 Aperture macros list*
%AMRoundRect*
0 Rectangle with rounded corners*
0 $1 Rounding radius*
0 $2 $3 $4 $5 $6 $7 $8 $9 X,Y pos of 4 corners*
0 Add a 4 corners polygon primitive as box body*
4,1,4,$2,$3,$4,$5,$6,$7,$8,$9,$2,$3,0*
0 Add four circle primitives for the rounded corners*
1,1,$1+$1,$2,$3*
1,1,$1+$1,$4,$5*
1,1,$1+$1,$6,$7*
1,1,$1+$1,$8,$9*
0 Add four rect primitives between the rounded corners*
20,1,$1+$1,$2,$3,$4,$5,0*
20,1,$1+$1,$4,$5,$6,$7,0*
20,1,$1+$1,$6,$7,$8,$9,0*
20,1,$1+$1,$8,$9,$2,$3,0*%
G04 Aperture macros list end*
G04 #@! TA.AperFunction,EtchedComponent*
%ADD10C,0.000000*%
G04 #@! TD*
G04 #@! TA.AperFunction,SMDPad,CuDef*
%ADD11RoundRect,0.140000X-0.170000X0.140000X-0.170000X-0.140000X0.170000X-0.140000X0.170000X0.140000X0*%
G04 #@! TD*
G04 #@! TA.AperFunction,SMDPad,CuDef*
%ADD12RoundRect,0.135000X-0.185000X0.135000X-0.185000X-0.135000X0.185000X-0.135000X0.185000X0.135000X0*%
G04 #@! TD*
G04 #@! TA.AperFunction,SMDPad,CuDef*
%ADD13RoundRect,0.140000X-0.140000X-0.170000X0.140000X-0.170000X0.140000X0.170000X-0.140000X0.170000X0*%
G04 #@! TD*
G04 #@! TA.AperFunction,SMDPad,CuDef*
%ADD14RoundRect,0.140000X0.170000X-0.140000X0.170000X0.140000X-0.170000X0.140000X-0.170000X-0.140000X0*%
G04 #@! TD*
G04 #@! TA.AperFunction,SMDPad,CuDef*
%ADD15RoundRect,0.200000X0.200000X0.275000X-0.200000X0.275000X-0.200000X-0.275000X0.200000X-0.275000X0*%
G04 #@! TD*
G04 #@! TA.AperFunction,SMDPad,CuDef*
%ADD16R,0.700000X0.600000*%
G04 #@! TD*
G04 #@! TA.AperFunction,SMDPad,CuDef*
%ADD17RoundRect,0.218750X-0.256250X0.218750X-0.256250X-0.218750X0.256250X-0.218750X0.256250X0.218750X0*%
G04 #@! TD*
G04 #@! TA.AperFunction,SMDPad,CuDef*
%ADD18R,1.140000X0.600000*%
G04 #@! TD*
G04 #@! TA.AperFunction,SMDPad,CuDef*
%ADD19R,1.140000X0.300000*%
G04 #@! TD*
G04 #@! TA.AperFunction,ComponentPad*
%ADD20O,2.100000X1.000000*%
G04 #@! TD*
G04 #@! TA.AperFunction,ComponentPad*
%ADD21O,1.800000X1.000000*%
G04 #@! TD*
G04 #@! TA.AperFunction,SMDPad,CuDef*
%ADD22RoundRect,0.135000X-0.135000X-0.185000X0.135000X-0.185000X0.135000X0.185000X-0.135000X0.185000X0*%
G04 #@! TD*
G04 #@! TA.AperFunction,ComponentPad*
%ADD23RoundRect,0.250000X0.350000X0.625000X-0.350000X0.625000X-0.350000X-0.625000X0.350000X-0.625000X0*%
G04 #@! TD*
G04 #@! TA.AperFunction,ComponentPad*
%ADD24O,1.200000X1.750000*%
G04 #@! TD*
G04 #@! TA.AperFunction,SMDPad,CuDef*
%ADD25RoundRect,0.135000X0.135000X0.185000X-0.135000X0.185000X-0.135000X-0.185000X0.135000X-0.185000X0*%
G04 #@! TD*
G04 #@! TA.AperFunction,SMDPad,CuDef*
%ADD26RoundRect,0.135000X0.185000X-0.135000X0.185000X0.135000X-0.185000X0.135000X-0.185000X-0.135000X0*%
G04 #@! TD*
G04 #@! TA.AperFunction,SMDPad,CuDef*
%ADD27RoundRect,0.140000X0.140000X0.170000X-0.140000X0.170000X-0.140000X-0.170000X0.140000X-0.170000X0*%
G04 #@! TD*
G04 #@! TA.AperFunction,SMDPad,CuDef*
%ADD28RoundRect,0.250000X-0.250000X0.250000X-0.250000X-0.250000X0.250000X-0.250000X0.250000X0.250000X0*%
G04 #@! TD*
G04 #@! TA.AperFunction,SMDPad,CuDef*
%ADD29RoundRect,0.150000X0.150000X0.700000X-0.150000X0.700000X-0.150000X-0.700000X0.150000X-0.700000X0*%
G04 #@! TD*
G04 #@! TA.AperFunction,SMDPad,CuDef*
%ADD30RoundRect,0.250000X0.250000X1.100000X-0.250000X1.100000X-0.250000X-1.100000X0.250000X-1.100000X0*%
G04 #@! TD*
G04 #@! TA.AperFunction,SMDPad,CuDef*
%ADD31RoundRect,0.150000X-0.587500X-0.150000X0.587500X-0.150000X0.587500X0.150000X-0.587500X0.150000X0*%
G04 #@! TD*
G04 #@! TA.AperFunction,SMDPad,CuDef*
%ADD32R,1.500000X1.500000*%
G04 #@! TD*
G04 #@! TA.AperFunction,SMDPad,CuDef*
%ADD33R,1.400000X1.600000*%
G04 #@! TD*
G04 #@! TA.AperFunction,ConnectorPad*
%ADD34R,0.500000X0.500000*%
G04 #@! TD*
G04 #@! TA.AperFunction,ComponentPad*
%ADD35R,0.500000X0.900000*%
G04 #@! TD*
G04 #@! TA.AperFunction,SMDPad,CuDef*
%ADD36RoundRect,0.150000X-0.150000X0.512500X-0.150000X-0.512500X0.150000X-0.512500X0.150000X0.512500X0*%
G04 #@! TD*
G04 #@! TA.AperFunction,SMDPad,CuDef*
%ADD37RoundRect,0.062500X0.337500X0.062500X-0.337500X0.062500X-0.337500X-0.062500X0.337500X-0.062500X0*%
G04 #@! TD*
G04 #@! TA.AperFunction,SMDPad,CuDef*
%ADD38RoundRect,0.062500X0.062500X0.337500X-0.062500X0.337500X-0.062500X-0.337500X0.062500X-0.337500X0*%
G04 #@! TD*
G04 #@! TA.AperFunction,SMDPad,CuDef*
%ADD39R,3.700000X3.700000*%
G04 #@! TD*
G04 #@! TA.AperFunction,SMDPad,CuDef*
%ADD40R,1.400000X1.200000*%
G04 #@! TD*
G04 #@! TA.AperFunction,SMDPad,CuDef*
%ADD41RoundRect,0.150000X0.150000X-0.675000X0.150000X0.675000X-0.150000X0.675000X-0.150000X-0.675000X0*%
G04 #@! TD*
G04 #@! TA.AperFunction,SMDPad,CuDef*
%ADD42RoundRect,0.150000X0.512500X0.150000X-0.512500X0.150000X-0.512500X-0.150000X0.512500X-0.150000X0*%
G04 #@! TD*
G04 #@! TA.AperFunction,ViaPad*
%ADD43C,0.500000*%
G04 #@! TD*
G04 #@! TA.AperFunction,Conductor*
%ADD44C,0.300000*%
G04 #@! TD*
G04 #@! TA.AperFunction,Conductor*
%ADD45C,0.400000*%
G04 #@! TD*
G04 #@! TA.AperFunction,Conductor*
%ADD46C,0.250000*%
G04 #@! TD*
G04 #@! TA.AperFunction,Conductor*
%ADD47C,0.200000*%
G04 #@! TD*
G04 #@! TA.AperFunction,Conductor*
%ADD48C,0.350000*%
G04 #@! TD*
G04 #@! TA.AperFunction,Conductor*
%ADD49C,0.180000*%
G04 #@! TD*
G04 #@! TA.AperFunction,Conductor*
%ADD50C,0.342400*%
G04 #@! TD*
G04 #@! TA.AperFunction,Conductor*
%ADD51C,0.550000*%
G04 #@! TD*
G04 #@! TA.AperFunction,Conductor*
%ADD52C,0.500000*%
G04 #@! TD*
G04 #@! TA.AperFunction,Conductor*
%ADD53C,0.450000*%
G04 #@! TD*
G04 #@! TA.AperFunction,Conductor*
%ADD54C,0.267200*%
G04 #@! TD*
G04 APERTURE END LIST*
D10*
G04 #@! TA.AperFunction,EtchedComponent*
G04 #@! TO.C,AE1*
G36*
X60325000Y1950000D02*
G01*
X57685000Y1950000D01*
X57685000Y-50000D01*
X60325000Y-50000D01*
X60325000Y-2750000D01*
X57685000Y-2750000D01*
X57685000Y-4750000D01*
X60325000Y-4750000D01*
X60325000Y-9750000D01*
X55168215Y-9750000D01*
X54925000Y-9750000D01*
X54925000Y-9325156D01*
X55028957Y-9325156D01*
X55041065Y-9367819D01*
X55045419Y-9375731D01*
X55078203Y-9413674D01*
X55120605Y-9437742D01*
X55168215Y-9447583D01*
X55216622Y-9442847D01*
X55261416Y-9423185D01*
X55298186Y-9388245D01*
X55315092Y-9355353D01*
X55322982Y-9307267D01*
X55316408Y-9257682D01*
X55296313Y-9212372D01*
X55263643Y-9177112D01*
X55231417Y-9160218D01*
X55183158Y-9151778D01*
X55133632Y-9158309D01*
X55088447Y-9178868D01*
X55053213Y-9212511D01*
X55042600Y-9231122D01*
X55029700Y-9276637D01*
X55028957Y-9325156D01*
X54925000Y-9325156D01*
X54925000Y-8850000D01*
X59825000Y-8850000D01*
X59825000Y-7450000D01*
X54925000Y-7450000D01*
X54925000Y-6950000D01*
X59825000Y-6950000D01*
X59825000Y-5250000D01*
X57185000Y-5250000D01*
X57185000Y-2250000D01*
X59825000Y-2250000D01*
X59825000Y-550000D01*
X57185000Y-550000D01*
X57185000Y2450000D01*
X59825000Y2450000D01*
X59825000Y4150000D01*
X55885000Y4150000D01*
X55885000Y4650000D01*
X60325000Y4650000D01*
X60325000Y1950000D01*
G37*
G04 #@! TD.AperFunction*
G04 #@! TD*
D11*
G04 #@! TO.P,C3,1*
G04 #@! TO.N,Net-(AE1-A)*
X54200000Y-7320000D03*
G04 #@! TO.P,C3,2*
G04 #@! TO.N,GND*
X54200000Y-8280000D03*
G04 #@! TD*
D12*
G04 #@! TO.P,R3,1*
G04 #@! TO.N,Net-(U1-CC2)*
X40400000Y-10890000D03*
G04 #@! TO.P,R3,2*
G04 #@! TO.N,GND*
X40400000Y-11910000D03*
G04 #@! TD*
D11*
G04 #@! TO.P,C5,1*
G04 #@! TO.N,GND*
X48400000Y-920000D03*
G04 #@! TO.P,C5,2*
G04 #@! TO.N,+3.3V*
X48400000Y-1880000D03*
G04 #@! TD*
D12*
G04 #@! TO.P,R14,1*
G04 #@! TO.N,VCC*
X34400000Y360000D03*
G04 #@! TO.P,R14,2*
G04 #@! TO.N,Net-(D3-A)*
X34400000Y-660000D03*
G04 #@! TD*
G04 #@! TO.P,R9,1*
G04 #@! TO.N,+3.3V*
X59300000Y9710000D03*
G04 #@! TO.P,R9,2*
G04 #@! TO.N,MCU_SDA*
X59300000Y8690000D03*
G04 #@! TD*
G04 #@! TO.P,R5,1*
G04 #@! TO.N,Net-(R13-Pad2)*
X51700000Y-2790000D03*
G04 #@! TO.P,R5,2*
G04 #@! TO.N,ADC*
X51700000Y-3810000D03*
G04 #@! TD*
D13*
G04 #@! TO.P,C1,1*
G04 #@! TO.N,+3.3V*
X50920000Y-9200000D03*
G04 #@! TO.P,C1,2*
G04 #@! TO.N,GND*
X51880000Y-9200000D03*
G04 #@! TD*
D14*
G04 #@! TO.P,C12,1*
G04 #@! TO.N,Net-(U3-XTAL_N)*
X45700000Y-11180000D03*
G04 #@! TO.P,C12,2*
G04 #@! TO.N,GND*
X45700000Y-10220000D03*
G04 #@! TD*
D15*
G04 #@! TO.P,R20,1*
G04 #@! TO.N,Net-(R13-Pad2)*
X39725000Y10700000D03*
G04 #@! TO.P,R20,2*
G04 #@! TO.N,GND*
X38075000Y10700000D03*
G04 #@! TD*
D12*
G04 #@! TO.P,R12,1*
G04 #@! TO.N,Rot*
X42800000Y-3590000D03*
G04 #@! TO.P,R12,2*
G04 #@! TO.N,Net-(D1-RK)*
X42800000Y-4610000D03*
G04 #@! TD*
D11*
G04 #@! TO.P,C11,1*
G04 #@! TO.N,+3.3V*
X44000000Y-3620000D03*
G04 #@! TO.P,C11,2*
G04 #@! TO.N,GND*
X44000000Y-4580000D03*
G04 #@! TD*
D14*
G04 #@! TO.P,C13,1*
G04 #@! TO.N,ADC*
X52700000Y-3760000D03*
G04 #@! TO.P,C13,2*
G04 #@! TO.N,GND*
X52700000Y-2800000D03*
G04 #@! TD*
D16*
G04 #@! TO.P,D1,1,RK*
G04 #@! TO.N,Net-(D1-RK)*
X41900000Y-5790000D03*
G04 #@! TO.P,D1,2,A*
G04 #@! TO.N,+3.3V*
X40900000Y-5790000D03*
G04 #@! TO.P,D1,3,BK*
G04 #@! TO.N,Net-(D1-BK)*
X40900000Y-7190000D03*
G04 #@! TO.P,D1,4,GK*
G04 #@! TO.N,Net-(D1-GK)*
X41900000Y-7190000D03*
G04 #@! TD*
D17*
G04 #@! TO.P,D2,1,K*
G04 #@! TO.N,Net-(D2-K)*
X35660000Y9447500D03*
G04 #@! TO.P,D2,2,A*
G04 #@! TO.N,Net-(D2-A)*
X35660000Y7872500D03*
G04 #@! TD*
D11*
G04 #@! TO.P,C6,1*
G04 #@! TO.N,Net-(U3-LNA_IN)*
X51200000Y-7320000D03*
G04 #@! TO.P,C6,2*
G04 #@! TO.N,GND*
X51200000Y-8280000D03*
G04 #@! TD*
D18*
G04 #@! TO.P,U1,A1,GND*
G04 #@! TO.N,GND*
X39070000Y-4210000D03*
G04 #@! TO.P,U1,A4,VBUS*
G04 #@! TO.N,VCC*
X39070000Y-5010000D03*
D19*
G04 #@! TO.P,U1,A5,CC1*
G04 #@! TO.N,Net-(U1-CC1)*
X39070000Y-6160000D03*
G04 #@! TO.P,U1,A6,D+*
G04 #@! TO.N,USB_D+*
X39070000Y-7160000D03*
G04 #@! TO.P,U1,A7,D-*
G04 #@! TO.N,USB_D-*
X39070000Y-7660000D03*
G04 #@! TO.P,U1,A8,SBU1*
G04 #@! TO.N,unconnected-(U1-SBU1-PadA8)*
X39070000Y-8660000D03*
D18*
G04 #@! TO.P,U1,A9,VBUS*
G04 #@! TO.N,VCC*
X39070000Y-9810000D03*
G04 #@! TO.P,U1,A12,GND*
G04 #@! TO.N,GND*
X39070000Y-10610000D03*
G04 #@! TO.P,U1,B1,GND*
X39070000Y-10610000D03*
G04 #@! TO.P,U1,B4,VBUS*
G04 #@! TO.N,VCC*
X39070000Y-9810000D03*
D19*
G04 #@! TO.P,U1,B5,CC2*
G04 #@! TO.N,Net-(U1-CC2)*
X39070000Y-9160000D03*
G04 #@! TO.P,U1,B6,D+*
G04 #@! TO.N,USB_D+*
X39070000Y-8160000D03*
G04 #@! TO.P,U1,B7,D-*
G04 #@! TO.N,USB_D-*
X39070000Y-6660000D03*
G04 #@! TO.P,U1,B8,SBU2*
G04 #@! TO.N,unconnected-(U1-SBU2-PadB8)*
X39070000Y-5660000D03*
D18*
G04 #@! TO.P,U1,B9,VBUS*
G04 #@! TO.N,VCC*
X39070000Y-5010000D03*
G04 #@! TO.P,U1,B12,GND*
G04 #@! TO.N,GND*
X39070000Y-4210000D03*
D20*
G04 #@! TO.P,U1,S1,SHIELD*
X38500000Y-3090000D03*
D21*
X34320000Y-3090000D03*
D20*
X38500000Y-11730000D03*
D21*
X34320000Y-11730000D03*
G04 #@! TD*
D22*
G04 #@! TO.P,R4,1*
G04 #@! TO.N,+BATT*
X45490000Y4350000D03*
G04 #@! TO.P,R4,2*
G04 #@! TO.N,Net-(U5-Vin)*
X46510000Y4350000D03*
G04 #@! TD*
D23*
G04 #@! TO.P,J2,1,Pin_1*
G04 #@! TO.N,Earth*
X46900000Y8750000D03*
D24*
G04 #@! TO.P,J2,2,Pin_2*
G04 #@! TO.N,+BATT*
X44900000Y8750000D03*
G04 #@! TD*
D25*
G04 #@! TO.P,R8,1*
G04 #@! TO.N,Gr\u00FCn*
X44000000Y-7800000D03*
G04 #@! TO.P,R8,2*
G04 #@! TO.N,Net-(D1-GK)*
X42980000Y-7800000D03*
G04 #@! TD*
D26*
G04 #@! TO.P,R1,1*
G04 #@! TO.N,+3.3V*
X52500000Y-11500000D03*
G04 #@! TO.P,R1,2*
G04 #@! TO.N,EXTI*
X52500000Y-10480000D03*
G04 #@! TD*
D27*
G04 #@! TO.P,C8,1*
G04 #@! TO.N,VCC*
X43680000Y-1700000D03*
G04 #@! TO.P,C8,2*
G04 #@! TO.N,GND*
X42720000Y-1700000D03*
G04 #@! TD*
D25*
G04 #@! TO.P,R16,1*
G04 #@! TO.N,GND*
X41810000Y-1700000D03*
G04 #@! TO.P,R16,2*
G04 #@! TO.N,Net-(U4-PROG)*
X40790000Y-1700000D03*
G04 #@! TD*
G04 #@! TO.P,R13,1*
G04 #@! TO.N,+BATT*
X41910000Y10500000D03*
G04 #@! TO.P,R13,2*
G04 #@! TO.N,Net-(R13-Pad2)*
X40890000Y10500000D03*
G04 #@! TD*
D26*
G04 #@! TO.P,R19,1*
G04 #@! TO.N,+3.3V*
X53700000Y-6410000D03*
G04 #@! TO.P,R19,2*
G04 #@! TO.N,CHIP_EN*
X53700000Y-5390000D03*
G04 #@! TD*
D25*
G04 #@! TO.P,L1,1,1*
G04 #@! TO.N,Net-(AE1-A)*
X53210000Y-7400000D03*
G04 #@! TO.P,L1,2,2*
G04 #@! TO.N,Net-(U3-LNA_IN)*
X52190000Y-7400000D03*
G04 #@! TD*
D28*
G04 #@! TO.P,D4,1,K*
G04 #@! TO.N,V_LDO*
X37900000Y2150000D03*
G04 #@! TO.P,D4,2,A*
G04 #@! TO.N,VCC*
X37900000Y-350000D03*
G04 #@! TD*
D29*
G04 #@! TO.P,J1,1,Pin_1*
G04 #@! TO.N,VCC_Sensor*
X55900000Y6800000D03*
G04 #@! TO.P,J1,2,Pin_2*
G04 #@! TO.N,MCU_SDA*
X54650000Y6800000D03*
G04 #@! TO.P,J1,3,Pin_3*
G04 #@! TO.N,MCU_SCL*
X53400000Y6800000D03*
G04 #@! TO.P,J1,4,Pin_4*
G04 #@! TO.N,GND*
X52150000Y6800000D03*
D30*
G04 #@! TO.P,J1,MP,MP*
X57750000Y10000000D03*
X50300000Y10000000D03*
G04 #@! TD*
D25*
G04 #@! TO.P,R15,1*
G04 #@! TO.N,VCC*
X38410000Y-1700000D03*
G04 #@! TO.P,R15,2*
G04 #@! TO.N,GND*
X37390000Y-1700000D03*
G04 #@! TD*
D26*
G04 #@! TO.P,R2,1*
G04 #@! TO.N,Net-(U1-CC1)*
X40990000Y-4610000D03*
G04 #@! TO.P,R2,2*
G04 #@! TO.N,GND*
X40990000Y-3590000D03*
G04 #@! TD*
D17*
G04 #@! TO.P,D3,1,K*
G04 #@! TO.N,Net-(D3-K)*
X35700000Y1187500D03*
G04 #@! TO.P,D3,2,A*
G04 #@! TO.N,Net-(D3-A)*
X35700000Y-387500D03*
G04 #@! TD*
D12*
G04 #@! TO.P,R11,1*
G04 #@! TO.N,VCC*
X34400000Y8620000D03*
G04 #@! TO.P,R11,2*
G04 #@! TO.N,Net-(D2-A)*
X34400000Y7600000D03*
G04 #@! TD*
D26*
G04 #@! TO.P,R10,1*
G04 #@! TO.N,+3.3V*
X59300000Y6690000D03*
G04 #@! TO.P,R10,2*
G04 #@! TO.N,MCU_SCL*
X59300000Y7710000D03*
G04 #@! TD*
D31*
G04 #@! TO.P,Q1,1,G*
G04 #@! TO.N,VCC*
X39525000Y9200000D03*
G04 #@! TO.P,Q1,2,S*
G04 #@! TO.N,V_LDO*
X39525000Y7300000D03*
G04 #@! TO.P,Q1,3,D*
G04 #@! TO.N,+BATT*
X41400000Y8250000D03*
G04 #@! TD*
D32*
G04 #@! TO.P,SW2,1,1*
G04 #@! TO.N,GND*
X53100000Y4700000D03*
D33*
X53100000Y-1300000D03*
G04 #@! TO.P,SW2,2,2*
G04 #@! TO.N,Net-(U3-GPIO9)*
X49800000Y4700000D03*
X49800000Y-1300000D03*
G04 #@! TD*
D14*
G04 #@! TO.P,C14,1*
G04 #@! TO.N,CHIP_EN*
X53700000Y-3760000D03*
G04 #@! TO.P,C14,2*
G04 #@! TO.N,GND*
X53700000Y-2800000D03*
G04 #@! TD*
D34*
G04 #@! TO.P,AE1,1,A*
G04 #@! TO.N,Net-(AE1-A)*
X55175000Y-7200000D03*
D35*
G04 #@! TO.P,AE1,2,GND*
G04 #@! TO.N,GND*
X55175000Y-9300000D03*
G04 #@! TD*
D12*
G04 #@! TO.P,R6,1*
G04 #@! TO.N,+3.3V*
X46600000Y-890000D03*
G04 #@! TO.P,R6,2*
G04 #@! TO.N,GPIO8*
X46600000Y-1910000D03*
G04 #@! TD*
D13*
G04 #@! TO.P,C9,1*
G04 #@! TO.N,+BATT*
X44820000Y5800000D03*
G04 #@! TO.P,C9,2*
G04 #@! TO.N,GND*
X45780000Y5800000D03*
G04 #@! TD*
D25*
G04 #@! TO.P,R7,1*
G04 #@! TO.N,Blau*
X44010000Y-6490000D03*
G04 #@! TO.P,R7,2*
G04 #@! TO.N,Net-(D1-BK)*
X42990000Y-6490000D03*
G04 #@! TD*
G04 #@! TO.P,R18,1*
G04 #@! TO.N,V_LDO*
X38010000Y7100000D03*
G04 #@! TO.P,R18,2*
G04 #@! TO.N,Net-(U2-EN)*
X36990000Y7100000D03*
G04 #@! TD*
D36*
G04 #@! TO.P,U5,1,VT*
G04 #@! TO.N,unconnected-(U5-VT-Pad1)*
X48050000Y2887500D03*
G04 #@! TO.P,U5,2,GND*
G04 #@! TO.N,Earth*
X47100000Y2887500D03*
G04 #@! TO.P,U5,3,Vin*
G04 #@! TO.N,Net-(U5-Vin)*
X46150000Y2887500D03*
G04 #@! TO.P,U5,4,VM*
G04 #@! TO.N,GND*
X46150000Y612500D03*
G04 #@! TO.P,U5,5,VM*
X48050000Y612500D03*
G04 #@! TD*
D11*
G04 #@! TO.P,C7,1*
G04 #@! TO.N,GND*
X51250000Y-5420000D03*
G04 #@! TO.P,C7,2*
G04 #@! TO.N,+3.3V*
X51250000Y-6380000D03*
G04 #@! TD*
D37*
G04 #@! TO.P,U3,1,LNA_IN*
G04 #@! TO.N,Net-(U3-LNA_IN)*
X50050000Y-7250000D03*
G04 #@! TO.P,U3,2,VDD3P3*
G04 #@! TO.N,+3.3V*
X50050000Y-6750000D03*
G04 #@! TO.P,U3,3,VDD3P3*
X50050000Y-6250000D03*
G04 #@! TO.P,U3,4,XTAL_32K_P*
G04 #@! TO.N,unconnected-(U3-XTAL_32K_P-Pad4)*
X50050000Y-5750000D03*
G04 #@! TO.P,U3,5,XTAL_32K_N*
G04 #@! TO.N,unconnected-(U3-XTAL_32K_N-Pad5)*
X50050000Y-5250000D03*
G04 #@! TO.P,U3,6,GPIO2*
G04 #@! TO.N,EXTI*
X50050000Y-4750000D03*
G04 #@! TO.P,U3,7,CHIP_EN*
G04 #@! TO.N,CHIP_EN*
X50050000Y-4250000D03*
G04 #@! TO.P,U3,8,GPIO3*
G04 #@! TO.N,ADC*
X50050000Y-3750000D03*
D38*
G04 #@! TO.P,U3,9,MTMS*
G04 #@! TO.N,MCU_SCL*
X49350000Y-3050000D03*
G04 #@! TO.P,U3,10,MTDI*
G04 #@! TO.N,MCU_SDA*
X48850000Y-3050000D03*
G04 #@! TO.P,U3,11,VDD3P3_RTC*
G04 #@! TO.N,+3.3V*
X48350000Y-3050000D03*
G04 #@! TO.P,U3,12,MTCK*
G04 #@! TO.N,Gr\u00FCn*
X47850000Y-3050000D03*
G04 #@! TO.P,U3,13,MTDO*
G04 #@! TO.N,unconnected-(U3-MTDO-Pad13)*
X47350000Y-3050000D03*
G04 #@! TO.P,U3,14,GPIO8*
G04 #@! TO.N,GPIO8*
X46850000Y-3050000D03*
G04 #@! TO.P,U3,15,GPIO9*
G04 #@! TO.N,Net-(U3-GPIO9)*
X46350000Y-3050000D03*
G04 #@! TO.P,U3,16,GPIO10*
G04 #@! TO.N,VCC_Sensor*
X45850000Y-3050000D03*
D37*
G04 #@! TO.P,U3,17,VDD3P3_CPU*
G04 #@! TO.N,+3.3V*
X45150000Y-3750000D03*
G04 #@! TO.P,U3,18,VDD_SPI*
G04 #@! TO.N,unconnected-(U3-VDD_SPI-Pad18)*
X45150000Y-4250000D03*
G04 #@! TO.P,U3,19,SPIHD*
G04 #@! TO.N,unconnected-(U3-SPIHD-Pad19)*
X45150000Y-4750000D03*
G04 #@! TO.P,U3,20,SPIWP*
G04 #@! TO.N,unconnected-(U3-SPIWP-Pad20)*
X45150000Y-5250000D03*
G04 #@! TO.P,U3,21,SPICS0*
G04 #@! TO.N,unconnected-(U3-SPICS0-Pad21)*
X45150000Y-5750000D03*
G04 #@! TO.P,U3,22,SPICLK*
G04 #@! TO.N,unconnected-(U3-SPICLK-Pad22)*
X45150000Y-6250000D03*
G04 #@! TO.P,U3,23,SPID*
G04 #@! TO.N,unconnected-(U3-SPID-Pad23)*
X45150000Y-6750000D03*
G04 #@! TO.P,U3,24,SPIQ*
G04 #@! TO.N,unconnected-(U3-SPIQ-Pad24)*
X45150000Y-7250000D03*
D38*
G04 #@! TO.P,U3,25,GPIO18*
G04 #@! TO.N,USB_D-*
X45850000Y-7950000D03*
G04 #@! TO.P,U3,26,GPIO19*
G04 #@! TO.N,USB_D+*
X46350000Y-7950000D03*
G04 #@! TO.P,U3,27,U0RXD*
G04 #@! TO.N,Rot*
X46850000Y-7950000D03*
G04 #@! TO.P,U3,28,U0TXD*
G04 #@! TO.N,Blau*
X47350000Y-7950000D03*
G04 #@! TO.P,U3,29,XTAL_N*
G04 #@! TO.N,Net-(U3-XTAL_N)*
X47850000Y-7950000D03*
G04 #@! TO.P,U3,30,XTAL_P*
G04 #@! TO.N,Net-(U3-XTAL_P)*
X48350000Y-7950000D03*
G04 #@! TO.P,U3,31,VDDA*
G04 #@! TO.N,+3.3V*
X48850000Y-7950000D03*
G04 #@! TO.P,U3,32,VDDA*
X49350000Y-7950000D03*
D39*
G04 #@! TO.P,U3,33,GND*
G04 #@! TO.N,GND*
X47600000Y-5500000D03*
G04 #@! TD*
D11*
G04 #@! TO.P,C2,1*
G04 #@! TO.N,GND*
X52200000Y-5420000D03*
G04 #@! TO.P,C2,2*
G04 #@! TO.N,+3.3V*
X52200000Y-6380000D03*
G04 #@! TD*
D13*
G04 #@! TO.P,C4,1*
G04 #@! TO.N,Net-(U5-Vin)*
X47400000Y4350000D03*
G04 #@! TO.P,C4,2*
G04 #@! TO.N,Earth*
X48360000Y4350000D03*
G04 #@! TD*
D40*
G04 #@! TO.P,Y1,1,OSC1*
G04 #@! TO.N,Net-(U3-XTAL_P)*
X49400000Y-9850000D03*
G04 #@! TO.P,Y1,2,GND*
G04 #@! TO.N,GND*
X47200000Y-9850000D03*
G04 #@! TO.P,Y1,3,OSC2*
G04 #@! TO.N,Net-(U3-XTAL_N)*
X47200000Y-11550000D03*
G04 #@! TO.P,Y1,4,GND*
G04 #@! TO.N,GND*
X49400000Y-11550000D03*
G04 #@! TD*
D11*
G04 #@! TO.P,C10,1*
G04 #@! TO.N,Net-(U3-XTAL_P)*
X50900000Y-10520000D03*
G04 #@! TO.P,C10,2*
G04 #@! TO.N,GND*
X50900000Y-11480000D03*
G04 #@! TD*
D41*
G04 #@! TO.P,U4,1,NC*
G04 #@! TO.N,unconnected-(U4-NC-Pad1)*
X39695000Y-25000D03*
G04 #@! TO.P,U4,2,PROG*
G04 #@! TO.N,Net-(U4-PROG)*
X40965000Y-25000D03*
G04 #@! TO.P,U4,3,GND*
G04 #@! TO.N,GND*
X42235000Y-25000D03*
G04 #@! TO.P,U4,4,VCC*
G04 #@! TO.N,VCC*
X43505000Y-25000D03*
G04 #@! TO.P,U4,5,BAT*
G04 #@! TO.N,+BATT*
X43505000Y5225000D03*
G04 #@! TO.P,U4,6,CHRGT*
G04 #@! TO.N,Net-(D3-K)*
X42235000Y5225000D03*
G04 #@! TO.P,U4,7,CHRG*
G04 #@! TO.N,Net-(D2-K)*
X40965000Y5225000D03*
G04 #@! TO.P,U4,8,NTC*
G04 #@! TO.N,unconnected-(U4-NTC-Pad8)*
X39695000Y5225000D03*
G04 #@! TD*
D42*
G04 #@! TO.P,U2,1,Vin*
G04 #@! TO.N,V_LDO*
X36837500Y3860000D03*
G04 #@! TO.P,U2,2,GND*
G04 #@! TO.N,GND*
X36837500Y4810000D03*
G04 #@! TO.P,U2,3,EN*
G04 #@! TO.N,Net-(U2-EN)*
X36837500Y5760000D03*
G04 #@! TO.P,U2,4,NC*
G04 #@! TO.N,unconnected-(U2-NC-Pad4)*
X34562500Y5760000D03*
G04 #@! TO.P,U2,5,Vout*
G04 #@! TO.N,+3.3V*
X34562500Y3860000D03*
G04 #@! TD*
D43*
G04 #@! TO.N,GND*
X42500000Y-12000000D03*
X51400000Y10300000D03*
X47400000Y1100000D03*
X33600000Y-6500000D03*
X57740000Y-11060000D03*
X47700000Y-6900000D03*
X35700000Y-12055240D03*
X42700000Y1100000D03*
X33550459Y10656566D03*
X46300000Y-6000000D03*
X46300000Y-4200000D03*
X47400000Y0D03*
X47700000Y-5100000D03*
X48700000Y-100000D03*
X38100000Y5500000D03*
X46100000Y5200000D03*
X54300000Y2700000D03*
X48700000Y1100000D03*
X53500000Y-8200000D03*
X46700000Y1100000D03*
X48900000Y-6000000D03*
X37499990Y11177366D03*
X48900000Y-6900000D03*
X48900000Y-4200000D03*
X56339962Y-12000000D03*
X52100000Y-1100000D03*
X52400000Y8000000D03*
X58599986Y11168255D03*
X44519904Y11100000D03*
X35800000Y5300000D03*
X46300000Y-5100000D03*
X41800000Y1100000D03*
X35900000Y4560000D03*
X59779962Y-12000000D03*
X34199904Y11178791D03*
X35700000Y3760000D03*
X44200000Y-5100000D03*
X46700000Y0D03*
X52100000Y-8200000D03*
X45800000Y6700000D03*
X45600000Y1100000D03*
X33600000Y336566D03*
X47700000Y-4200000D03*
X54900000Y11100000D03*
X35800000Y6160000D03*
X41800000Y1800000D03*
X48000000Y11100000D03*
X51599865Y-12041666D03*
X46019962Y-12000000D03*
X54300000Y-11060000D03*
X45600000Y-100000D03*
X56660000Y5600000D03*
X53100000Y3700000D03*
X42700000Y1800000D03*
X46300000Y-6900000D03*
X54300000Y-740000D03*
X48900000Y-5100000D03*
X52900000Y-5200000D03*
X60100000Y5600000D03*
X38100000Y4800000D03*
X44900000Y-10400000D03*
X48400000Y-11600000D03*
X54300000Y-4300000D03*
X33700000Y-10000000D03*
X38100000Y6200000D03*
X51400000Y-9800000D03*
X51400000Y11100000D03*
X41800000Y-3400000D03*
X47700000Y-6000000D03*
X60100000Y9600000D03*
G04 #@! TO.N,EXTI*
X51700000Y-10500000D03*
X50800000Y-4700000D03*
G04 #@! TO.N,+3.3V*
X35000000Y4600000D03*
X40500000Y-6400000D03*
X34300000Y3000000D03*
X34300000Y2300000D03*
X47400000Y-900000D03*
X35000000Y2300000D03*
X60000000Y8200000D03*
X46100000Y-600000D03*
X34300000Y4600000D03*
X35700000Y3000000D03*
X44600000Y-3300000D03*
X35000000Y3000000D03*
X52900000Y-6200000D03*
X34300000Y1600000D03*
X51700000Y-11200000D03*
X35700000Y2300000D03*
X50100000Y-8400000D03*
G04 #@! TO.N,MCU_SCL*
X53400000Y8000000D03*
X56800000Y7500000D03*
G04 #@! TO.N,Net-(U3-GPIO9)*
X49800000Y-200000D03*
X45799999Y-2100000D03*
G04 #@! TO.N,Blau*
X44100000Y-5800000D03*
X47500000Y-8800000D03*
G04 #@! TO.N,Rot*
X46800000Y-8800000D03*
X42100000Y-4100000D03*
G04 #@! TO.N,VCC_Sensor*
X49300000Y1700000D03*
X45100000Y-2500000D03*
X52700000Y1600000D03*
X44800000Y-1200000D03*
G04 #@! TO.N,Net-(R13-Pad2)*
X51900000Y-1900000D03*
X50500000Y1000000D03*
G04 #@! TD*
D44*
G04 #@! TO.N,GND*
X37390000Y-1980000D02*
X38500000Y-3090000D01*
D45*
X37499990Y11177366D02*
X37597634Y11177366D01*
D46*
X52100000Y-8200000D02*
X52070000Y-8230000D01*
D47*
X54180000Y-8200000D02*
X54200000Y-8180000D01*
X39070000Y-3660000D02*
X38500000Y-3090000D01*
D46*
X45780000Y5520000D02*
X46100000Y5200000D01*
X51400000Y10300000D02*
X50825000Y10300000D01*
D47*
X53700000Y-1900000D02*
X53100000Y-1300000D01*
D46*
X53100000Y3700000D02*
X53100000Y4700000D01*
D47*
X51330000Y-8200000D02*
X51300000Y-8230000D01*
D46*
X50825000Y10300000D02*
X50575000Y10050000D01*
D47*
X41180000Y-3400000D02*
X40990000Y-3590000D01*
D46*
X45700000Y-10220000D02*
X46830000Y-10220000D01*
D47*
X40400000Y-11910000D02*
X38680000Y-11910000D01*
X48400000Y-11600000D02*
X48685000Y-11600000D01*
D48*
X42235000Y-1215000D02*
X42720000Y-1700000D01*
D47*
X52300000Y-1300000D02*
X53100000Y-1300000D01*
X51038199Y-11480000D02*
X50900000Y-11480000D01*
D45*
X37597634Y11177366D02*
X38075000Y10700000D01*
D49*
X44000000Y-4900000D02*
X44200000Y-5100000D01*
D46*
X52070000Y-8230000D02*
X51300000Y-8230000D01*
D47*
X51780000Y-9420000D02*
X51780000Y-9200000D01*
D46*
X52150000Y7750000D02*
X52150000Y6800000D01*
X45780000Y5800000D02*
X45780000Y5520000D01*
D48*
X42235000Y-25000D02*
X42235000Y-1275000D01*
D47*
X53500000Y-8200000D02*
X54180000Y-8200000D01*
X51400000Y-9800000D02*
X51780000Y-9420000D01*
D46*
X44900000Y-10400000D02*
X45680000Y-10400000D01*
X58599986Y11168255D02*
X58599986Y10624986D01*
X52400000Y8000000D02*
X52150000Y7750000D01*
D47*
X47480000Y0D02*
X48400000Y-920000D01*
D49*
X44000000Y-4580000D02*
X44000000Y-4900000D01*
D46*
X45800000Y6700000D02*
X45780000Y6680000D01*
X46830000Y-10220000D02*
X47200000Y-9850000D01*
X58599986Y10624986D02*
X58025000Y10050000D01*
D44*
X37390000Y-1700000D02*
X37390000Y-1980000D01*
D47*
X39070000Y-11160000D02*
X38500000Y-11730000D01*
D48*
X42235000Y-1275000D02*
X41810000Y-1700000D01*
D47*
X52700000Y-2800000D02*
X52700000Y-1700000D01*
D46*
X45680000Y-10400000D02*
X45700000Y-10420000D01*
D47*
X52680000Y-5420000D02*
X51250000Y-5420000D01*
X52900000Y-5200000D02*
X52680000Y-5420000D01*
X47400000Y0D02*
X47480000Y0D01*
X48685000Y-11600000D02*
X49085000Y-11200000D01*
X52100000Y-1100000D02*
X52300000Y-1300000D01*
X39070000Y-10610000D02*
X39070000Y-11160000D01*
X51599865Y-12041666D02*
X51038199Y-11480000D01*
X41800000Y-3400000D02*
X41180000Y-3400000D01*
X39070000Y-4210000D02*
X39070000Y-3660000D01*
D46*
X45780000Y6680000D02*
X45780000Y5800000D01*
D47*
X38680000Y-11910000D02*
X38500000Y-11730000D01*
D46*
X38610000Y-2980000D02*
X38500000Y-3090000D01*
D47*
X52700000Y-1700000D02*
X53100000Y-1300000D01*
X53700000Y-2800000D02*
X53700000Y-1900000D01*
D48*
X42235000Y-25000D02*
X42235000Y-1215000D01*
D47*
G04 #@! TO.N,EXTI*
X50050000Y-4750000D02*
X50750000Y-4750000D01*
X52480000Y-10500000D02*
X52500000Y-10480000D01*
X51700000Y-10500000D02*
X52480000Y-10500000D01*
X50750000Y-4750000D02*
X50800000Y-4700000D01*
D50*
G04 #@! TO.N,Net-(AE1-A)*
X54200000Y-7220000D02*
X55155000Y-7220000D01*
X54170000Y-7250000D02*
X54200000Y-7220000D01*
X55155000Y-7220000D02*
X55175000Y-7200000D01*
X53310000Y-7250000D02*
X54170000Y-7250000D01*
G04 #@! TO.N,Net-(U3-LNA_IN)*
X50050000Y-7250000D02*
X51280000Y-7250000D01*
X51300000Y-7270000D02*
X52270000Y-7270000D01*
X51280000Y-7250000D02*
X51300000Y-7270000D01*
X52270000Y-7270000D02*
X52290000Y-7250000D01*
D51*
G04 #@! TO.N,Net-(U5-Vin)*
X46150000Y3990000D02*
X46150000Y2887500D01*
X47400000Y4350000D02*
X46510000Y4350000D01*
X46510000Y4350000D02*
X46150000Y3990000D01*
D45*
G04 #@! TO.N,VCC*
X34400000Y360000D02*
X34440000Y400000D01*
D44*
X38287000Y-9587000D02*
X37600000Y-8900000D01*
D52*
X43505000Y-1525000D02*
X43680000Y-1700000D01*
D45*
X39400000Y9200000D02*
X38837000Y8637000D01*
D52*
X38410000Y-1700000D02*
X38037000Y-1327000D01*
X40100000Y-4654000D02*
X40100000Y-3200000D01*
X40100000Y-2600000D02*
X39200000Y-1700000D01*
D44*
X38590000Y-5010000D02*
X39070000Y-5010000D01*
X37600000Y-8900000D02*
X37600000Y-6000000D01*
D48*
X33514760Y8409379D02*
X33514760Y1245240D01*
D44*
X37600000Y-6000000D02*
X38590000Y-5010000D01*
D52*
X37400000Y-350000D02*
X37900000Y-350000D01*
D44*
X38847000Y-9587000D02*
X38287000Y-9587000D01*
D52*
X43505000Y-25000D02*
X43505000Y-1525000D01*
X40700000Y-2600000D02*
X43200000Y-2600000D01*
X40100000Y-3200000D02*
X40450000Y-2850000D01*
X39744000Y-5010000D02*
X40100000Y-4654000D01*
X40450000Y-2850000D02*
X40700000Y-2600000D01*
D48*
X33725381Y8620000D02*
X33514760Y8409379D01*
D52*
X43680000Y-2120000D02*
X43680000Y-1700000D01*
D48*
X34400000Y8620000D02*
X33725381Y8620000D01*
D53*
X37600000Y-8900000D02*
X36500000Y-7800000D01*
D52*
X38037000Y-487000D02*
X37900000Y-350000D01*
X38037000Y-1327000D02*
X38037000Y-487000D01*
D45*
X38837000Y8637000D02*
X34417000Y8637000D01*
D52*
X39200000Y-1700000D02*
X38410000Y-1700000D01*
D45*
X34440000Y400000D02*
X37150000Y400000D01*
D52*
X39070000Y-5010000D02*
X39744000Y-5010000D01*
X40700000Y-2600000D02*
X40100000Y-2600000D01*
D45*
X39525000Y9200000D02*
X39400000Y9200000D01*
D48*
X33514760Y1245240D02*
X34400000Y360000D01*
D52*
X36500000Y-7800000D02*
X36500000Y-1250000D01*
X36500000Y-1250000D02*
X37400000Y-350000D01*
D44*
X39070000Y-9810000D02*
X38847000Y-9587000D01*
D45*
X34417000Y8637000D02*
X34400000Y8620000D01*
X37150000Y400000D02*
X37900000Y-350000D01*
D52*
X43200000Y-2600000D02*
X43680000Y-2120000D01*
D44*
G04 #@! TO.N,Net-(D2-A)*
X34400000Y7600000D02*
X35387500Y7600000D01*
X35387500Y7600000D02*
X35660000Y7872500D01*
D46*
G04 #@! TO.N,+3.3V*
X46100000Y-600000D02*
X46310000Y-600000D01*
D47*
X47400000Y-900000D02*
X47547102Y-900000D01*
X48350000Y-3050000D02*
X48350000Y-1930000D01*
D46*
X44980000Y-3580000D02*
X45150000Y-3750000D01*
X44880000Y-3580000D02*
X44980000Y-3580000D01*
D47*
X48350000Y-1930000D02*
X48400000Y-1880000D01*
X40500000Y-6400000D02*
X40500000Y-6190000D01*
X47547102Y-900000D02*
X48400000Y-1752898D01*
D46*
X44000000Y-3580000D02*
X44980000Y-3580000D01*
D47*
X48400000Y-1752898D02*
X48400000Y-1880000D01*
X50050000Y-6250000D02*
X50050000Y-6750000D01*
X40500000Y-6190000D02*
X40900000Y-5790000D01*
D46*
X60000000Y8861042D02*
X60000000Y8200000D01*
D47*
X51700000Y-11200000D02*
X52000000Y-11500000D01*
X50900000Y-9200000D02*
X50100000Y-8400000D01*
D46*
X60000000Y7390000D02*
X59300000Y6690000D01*
D47*
X50920000Y-9200000D02*
X50900000Y-9200000D01*
X52850000Y-6250000D02*
X50050000Y-6250000D01*
X50100000Y-8400000D02*
X49650000Y-7950000D01*
X49350000Y-7950000D02*
X48850000Y-7950000D01*
D46*
X46310000Y-600000D02*
X46600000Y-890000D01*
X60000000Y8200000D02*
X60000000Y7390000D01*
X44600000Y-3300000D02*
X44880000Y-3580000D01*
D47*
X53490000Y-6200000D02*
X53700000Y-6410000D01*
D46*
X59300000Y9710000D02*
X59300000Y9561042D01*
D47*
X52900000Y-6200000D02*
X52850000Y-6250000D01*
D46*
X59300000Y9561042D02*
X60000000Y8861042D01*
D47*
X49650000Y-7950000D02*
X49350000Y-7950000D01*
X52000000Y-11500000D02*
X52500000Y-11500000D01*
X52900000Y-6200000D02*
X53490000Y-6200000D01*
X41000000Y-5890000D02*
X40900000Y-5790000D01*
D48*
G04 #@! TO.N,Net-(D2-K)*
X40310000Y7940000D02*
X40965000Y7285000D01*
X36014500Y9802000D02*
X40303882Y9802000D01*
X40310000Y8540882D02*
X40310000Y7940000D01*
X40564500Y8795382D02*
X40310000Y8540882D01*
X40965000Y7285000D02*
X40965000Y5225000D01*
X40564500Y9541382D02*
X40564500Y8795382D01*
X40303882Y9802000D02*
X40564500Y9541382D01*
X35660000Y9447500D02*
X36014500Y9802000D01*
D47*
G04 #@! TO.N,Net-(U1-CC1)*
X40100000Y-5900000D02*
X40100000Y-5500000D01*
X40100000Y-5500000D02*
X40990000Y-4610000D01*
X39840000Y-6160000D02*
X40100000Y-5900000D01*
X39070000Y-6160000D02*
X39840000Y-6160000D01*
G04 #@! TO.N,Net-(U1-CC2)*
X39744000Y-9160000D02*
X39070000Y-9160000D01*
X40400000Y-10890000D02*
X40400000Y-9816000D01*
X40400000Y-9816000D02*
X39744000Y-9160000D01*
G04 #@! TO.N,CHIP_EN*
X51429311Y-4374999D02*
X52884999Y-4374999D01*
X53085001Y-4374999D02*
X52884999Y-4374999D01*
X50198000Y-4102000D02*
X51156312Y-4102000D01*
X51156312Y-4102000D02*
X51429311Y-4374999D01*
X50050000Y-4250000D02*
X50198000Y-4102000D01*
X52884999Y-4374999D02*
X53000000Y-4490000D01*
X53700000Y-3760000D02*
X53085001Y-4374999D01*
X53000000Y-4490000D02*
X53700000Y-5190000D01*
D54*
G04 #@! TO.N,USB_D+*
X39504800Y-8145200D02*
X39712576Y-8145200D01*
X39490000Y-8160000D02*
X39504800Y-8145200D01*
X40502576Y-8935200D02*
X45864800Y-8935200D01*
X38239400Y-8070600D02*
X38328800Y-8160000D01*
X39070000Y-8160000D02*
X39490000Y-8160000D01*
X39070000Y-7160000D02*
X38328800Y-7160000D01*
X38328800Y-7160000D02*
X38239400Y-7249400D01*
X46350000Y-8450000D02*
X46350000Y-7950000D01*
X38328800Y-8160000D02*
X39070000Y-8160000D01*
X38239400Y-7249400D02*
X38239400Y-8070600D01*
X45864800Y-8935200D02*
X46350000Y-8450000D01*
X39712576Y-8145200D02*
X40502576Y-8935200D01*
G04 #@! TO.N,USB_D-*
X39504800Y-7674800D02*
X39907424Y-7674800D01*
X41913298Y-7839083D02*
X42033298Y-7839083D01*
X42633298Y-8464800D02*
X42900000Y-8464800D01*
X42900000Y-8464800D02*
X45635200Y-8464800D01*
X40182727Y-7950103D02*
X39907424Y-7674800D01*
X39070000Y-6660000D02*
X39811200Y-6660000D01*
X39900600Y-6749400D02*
X39900600Y-7667976D01*
X39900600Y-7667976D02*
X39907424Y-7674800D01*
X39490000Y-7660000D02*
X39504800Y-7674800D01*
X45850000Y-8250000D02*
X45850000Y-7950000D01*
X42513298Y-8464800D02*
X42633298Y-8464800D01*
X45635200Y-8464800D02*
X45850000Y-8250000D01*
X42273298Y-8079083D02*
X42273298Y-8224800D01*
X41433298Y-8464800D02*
X40697424Y-8464800D01*
X41673298Y-8224800D02*
X41673298Y-8079083D01*
X39070000Y-7660000D02*
X39490000Y-7660000D01*
X40697424Y-8464800D02*
X40182727Y-7950103D01*
X39811200Y-6660000D02*
X39900600Y-6749400D01*
X42273298Y-8224800D02*
G75*
G03*
X42513298Y-8464802I240002J0D01*
G01*
X41673298Y-8079083D02*
G75*
G02*
X41913298Y-7839098I240002J-17D01*
G01*
X42033298Y-7839083D02*
G75*
G02*
X42273317Y-8079083I2J-240017D01*
G01*
X41433298Y-8464800D02*
G75*
G03*
X41673300Y-8224800I2J240000D01*
G01*
D45*
G04 #@! TO.N,Net-(U4-PROG)*
X40965000Y-1525000D02*
X40790000Y-1700000D01*
X40965000Y-25000D02*
X40965000Y-1525000D01*
D52*
G04 #@! TO.N,Net-(D3-K)*
X42235000Y4400001D02*
X42235000Y5225000D01*
X35700000Y1187500D02*
X39022499Y1187500D01*
X39022499Y1187500D02*
X42235000Y4400001D01*
D47*
G04 #@! TO.N,MCU_SCL*
X53400000Y8000000D02*
X53400000Y6800000D01*
X54077000Y6123000D02*
X53400000Y6800000D01*
X50450000Y-3050000D02*
X51400000Y-2100000D01*
X49350000Y-3050000D02*
X50450000Y-3050000D01*
X57000000Y7700000D02*
X56800000Y7500000D01*
X51400000Y1046000D02*
X54077000Y3723000D01*
X54077000Y3723000D02*
X54077000Y6123000D01*
X59290000Y7700000D02*
X57000000Y7700000D01*
X59300000Y7710000D02*
X59290000Y7700000D01*
X51400000Y-2100000D02*
X51400000Y1046000D01*
G04 #@! TO.N,GPIO8*
X46850000Y-2160000D02*
X46600000Y-1910000D01*
X46850000Y-3050000D02*
X46850000Y-2160000D01*
G04 #@! TO.N,Net-(U3-GPIO9)*
X49800000Y-200000D02*
X49800000Y-1300000D01*
X45799999Y-2100000D02*
X46350000Y-2650001D01*
X46350000Y-2650001D02*
X46350000Y-3050000D01*
X49800000Y4700000D02*
X49800000Y-200000D01*
G04 #@! TO.N,Net-(D1-BK)*
X40910000Y-7190000D02*
X41610000Y-6490000D01*
X41610000Y-6490000D02*
X42990000Y-6490000D01*
X40900000Y-7190000D02*
X40910000Y-7190000D01*
G04 #@! TO.N,MCU_SDA*
X58700000Y8090000D02*
X59300000Y8690000D01*
X48850000Y-3050000D02*
X48850000Y-2650001D01*
X54890000Y8090000D02*
X58700000Y8090000D01*
X52100000Y8600000D02*
X54000000Y8600000D01*
X51400000Y1508448D02*
X51400000Y7900000D01*
X51400000Y7900000D02*
X52100000Y8600000D01*
X54650000Y7850000D02*
X54650000Y6800000D01*
X51073000Y-1964552D02*
X51073000Y1181448D01*
X54000000Y8600000D02*
X54650000Y7950000D01*
X50637552Y-2400000D02*
X51073000Y-1964552D01*
X54890000Y8090000D02*
X54650000Y7850000D01*
X48850000Y-2650001D02*
X49100001Y-2400000D01*
X54650000Y7950000D02*
X54650000Y6800000D01*
X49100001Y-2400000D02*
X50637552Y-2400000D01*
X51073000Y1181448D02*
X51400000Y1508448D01*
G04 #@! TO.N,Net-(D1-GK)*
X42370000Y-7190000D02*
X42980000Y-7800000D01*
X41900000Y-7190000D02*
X42370000Y-7190000D01*
D49*
G04 #@! TO.N,Net-(D1-RK)*
X42800000Y-4610000D02*
X41900000Y-5510000D01*
X41900000Y-5510000D02*
X41900000Y-5790000D01*
D45*
G04 #@! TO.N,Net-(D3-A)*
X34400000Y-660000D02*
X35427500Y-660000D01*
X35427500Y-660000D02*
X35700000Y-387500D01*
D47*
G04 #@! TO.N,Gr\u00FCn*
X43400000Y-7200000D02*
X44000000Y-7800000D01*
X43487000Y-6151312D02*
X43487000Y-6828688D01*
X46925688Y-1400000D02*
X45373000Y-1400000D01*
X43400000Y-6915688D02*
X43400000Y-7200000D01*
X45373000Y-1400000D02*
X43400000Y-3373000D01*
X43400000Y-3373000D02*
X43400000Y-6064312D01*
X43400000Y-6064312D02*
X43487000Y-6151312D01*
X47850000Y-2324312D02*
X46925688Y-1400000D01*
X43487000Y-6828688D02*
X43400000Y-6915688D01*
X47850000Y-3050000D02*
X47850000Y-2324312D01*
G04 #@! TO.N,Blau*
X47350000Y-8650000D02*
X47500000Y-8800000D01*
X44010000Y-5890000D02*
X44010000Y-6490000D01*
X44100000Y-5800000D02*
X44010000Y-5890000D01*
X47350000Y-7950000D02*
X47350000Y-8650000D01*
G04 #@! TO.N,Rot*
X46850000Y-8750000D02*
X46850000Y-7950000D01*
X46800000Y-8800000D02*
X46850000Y-8750000D01*
D49*
X42100000Y-4100000D02*
X42290000Y-4100000D01*
X42290000Y-4100000D02*
X42800000Y-3590000D01*
D47*
G04 #@! TO.N,Net-(U3-XTAL_P)*
X48350000Y-8300000D02*
X50570000Y-10520000D01*
X48350000Y-7950000D02*
X48350000Y-8300000D01*
X50570000Y-10520000D02*
X50900000Y-10520000D01*
G04 #@! TO.N,Net-(U3-XTAL_N)*
X45920000Y-11400000D02*
X45700000Y-11180000D01*
X47200000Y-11550000D02*
X47050000Y-11400000D01*
X47050000Y-11400000D02*
X45920000Y-11400000D01*
X47850000Y-7950000D02*
X47850000Y-8356224D01*
X48200000Y-10550000D02*
X47200000Y-11550000D01*
X48200000Y-8706224D02*
X48200000Y-10550000D01*
X47850000Y-8356224D02*
X48200000Y-8706224D01*
D52*
G04 #@! TO.N,Net-(U2-EN)*
X36837500Y5760000D02*
X36837500Y6947500D01*
X36837500Y6947500D02*
X36990000Y7100000D01*
D47*
G04 #@! TO.N,VCC_Sensor*
X52700000Y1600000D02*
X52700000Y1883552D01*
X44800000Y1400000D02*
X45100000Y1700000D01*
X45850000Y-3050000D02*
X45650000Y-3050000D01*
X45650000Y-3050000D02*
X45100000Y-2500000D01*
X45100000Y1700000D02*
X49300000Y1700000D01*
X44800000Y-1200000D02*
X44800000Y1400000D01*
X54500000Y5500000D02*
X55449999Y5500000D01*
X54404000Y5404000D02*
X54500000Y5500000D01*
X55449999Y5500000D02*
X55900000Y5950001D01*
X55900000Y5950001D02*
X55900000Y6800000D01*
X54404000Y3587552D02*
X54404000Y5404000D01*
X52700000Y1883552D02*
X54404000Y3587552D01*
D46*
G04 #@! TO.N,ADC*
X51640000Y-3750000D02*
X51700000Y-3810000D01*
X52700000Y-3760000D02*
X51750000Y-3760000D01*
X51750000Y-3760000D02*
X51700000Y-3810000D01*
X50050000Y-3750000D02*
X51640000Y-3750000D01*
D47*
G04 #@! TO.N,Net-(R13-Pad2)*
X51900000Y-2590000D02*
X51700000Y-2790000D01*
D46*
X50900000Y1506252D02*
X50500000Y1106252D01*
X50500000Y1106252D02*
X50500000Y1000000D01*
X43500000Y11100000D02*
X44100000Y10500000D01*
D45*
X39725000Y10700000D02*
X39925000Y10500000D01*
D46*
X50900000Y7333138D02*
X50900000Y1506252D01*
X47733138Y10500000D02*
X50900000Y7333138D01*
X44100000Y10500000D02*
X47733138Y10500000D01*
D47*
X51900000Y-1900000D02*
X51900000Y-2590000D01*
D46*
X40890000Y10500000D02*
X41490000Y11100000D01*
D45*
X39925000Y10500000D02*
X40890000Y10500000D01*
D46*
X41490000Y11100000D02*
X43500000Y11100000D01*
G04 #@! TD*
G04 #@! TA.AperFunction,Conductor*
G04 #@! TO.N,GND*
G36*
X48900000Y-300000D02*
G01*
X46366392Y-300000D01*
X46338342Y-271950D01*
X46225304Y-214354D01*
X46225303Y-214353D01*
X46225300Y-214352D01*
X46100003Y-194508D01*
X46099997Y-194508D01*
X45974699Y-214352D01*
X45974698Y-214352D01*
X45899337Y-252751D01*
X45861658Y-271950D01*
X45861657Y-271951D01*
X45861652Y-271954D01*
X45833606Y-300000D01*
X45400000Y-300000D01*
X45400000Y1300000D01*
X48900000Y1300000D01*
X48900000Y-300000D01*
G37*
G04 #@! TD.AperFunction*
G04 #@! TD*
G04 #@! TA.AperFunction,Conductor*
G04 #@! TO.N,Earth*
G36*
X48191726Y9680315D02*
G01*
X48212368Y9663681D01*
X48863681Y9012368D01*
X48897166Y8951045D01*
X48900000Y8924687D01*
X48900000Y2051500D01*
X48880315Y1984461D01*
X48827511Y1938706D01*
X48776000Y1927500D01*
X48444307Y1927500D01*
X48377268Y1947185D01*
X48331513Y1999989D01*
X48321569Y2069147D01*
X48350594Y2132703D01*
X48356626Y2139181D01*
X48359542Y2142097D01*
X48432903Y2215458D01*
X48474808Y2310366D01*
X48477500Y2333568D01*
X48477500Y3441432D01*
X48474808Y3464634D01*
X48432903Y3559542D01*
X48359542Y3632903D01*
X48359539Y3632905D01*
X48359538Y3632905D01*
X48264635Y3674808D01*
X48241433Y3677500D01*
X48241432Y3677500D01*
X47876862Y3677500D01*
X47841791Y3687798D01*
X47807637Y3662565D01*
X47740461Y3632905D01*
X47740456Y3632902D01*
X47667098Y3559544D01*
X47667095Y3559539D01*
X47625192Y3464637D01*
X47625192Y3464635D01*
X47622500Y3441434D01*
X47622500Y2333567D01*
X47625192Y2310366D01*
X47625192Y2310364D01*
X47667095Y2215462D01*
X47667098Y2215457D01*
X47743374Y2139181D01*
X47776859Y2077858D01*
X47771875Y2008166D01*
X47730003Y1952233D01*
X47664539Y1927816D01*
X47655693Y1927500D01*
X46824000Y1927500D01*
X46756961Y1947185D01*
X46711206Y1999989D01*
X46700000Y2051500D01*
X46700000Y3776000D01*
X46719685Y3843039D01*
X46772489Y3888794D01*
X46824000Y3900000D01*
X47757552Y3900000D01*
X47790364Y3890365D01*
X47800000Y3900000D01*
X47800000Y4103736D01*
X47802382Y4127924D01*
X47807500Y4153652D01*
X47807500Y4546348D01*
X47802383Y4572075D01*
X47800000Y4596266D01*
X47800000Y5500000D01*
X46424000Y5500000D01*
X46356961Y5519685D01*
X46311206Y5572489D01*
X46300000Y5624000D01*
X46300000Y9576000D01*
X46319685Y9643039D01*
X46372489Y9688794D01*
X46424000Y9700000D01*
X48124687Y9700000D01*
X48191726Y9680315D01*
G37*
G04 #@! TD.AperFunction*
G04 #@! TD*
G04 #@! TA.AperFunction,Conductor*
G04 #@! TO.N,V_LDO*
G36*
X40137878Y7680315D02*
G01*
X40158520Y7663681D01*
X40463681Y7358520D01*
X40497166Y7297197D01*
X40500000Y7270839D01*
X40500000Y3250229D01*
X40480315Y3183190D01*
X40463681Y3162548D01*
X38937453Y1636319D01*
X38876130Y1602834D01*
X38849772Y1600000D01*
X36624000Y1600000D01*
X36556961Y1619685D01*
X36511206Y1672489D01*
X36500000Y1724000D01*
X36500000Y3500000D01*
X36324000Y3500000D01*
X36256961Y3519685D01*
X36211206Y3572489D01*
X36200000Y3624000D01*
X36200000Y4176000D01*
X36219685Y4243039D01*
X36272489Y4288794D01*
X36324000Y4300000D01*
X38600000Y4300000D01*
X38600000Y5941434D01*
X39267500Y5941434D01*
X39267500Y4508567D01*
X39270192Y4485366D01*
X39270192Y4485364D01*
X39301546Y4414354D01*
X39312097Y4390458D01*
X39385458Y4317097D01*
X39480366Y4275192D01*
X39503568Y4272500D01*
X39503569Y4272500D01*
X39886431Y4272500D01*
X39886432Y4272500D01*
X39909634Y4275192D01*
X40004542Y4317097D01*
X40077903Y4390458D01*
X40119808Y4485366D01*
X40122500Y4508568D01*
X40122500Y5941432D01*
X40119808Y5964634D01*
X40077903Y6059542D01*
X40004542Y6132903D01*
X40004539Y6132905D01*
X40004538Y6132905D01*
X39909635Y6174808D01*
X39886433Y6177500D01*
X39886432Y6177500D01*
X39503568Y6177500D01*
X39503566Y6177500D01*
X39480365Y6174808D01*
X39480363Y6174808D01*
X39385461Y6132905D01*
X39385456Y6132902D01*
X39312098Y6059544D01*
X39312095Y6059539D01*
X39270192Y5964637D01*
X39270192Y5964635D01*
X39267500Y5941434D01*
X38600000Y5941434D01*
X38600000Y6600000D01*
X38144432Y6600000D01*
X38125035Y6601527D01*
X38110970Y6603755D01*
X38100001Y6605492D01*
X38099999Y6605492D01*
X38089029Y6603755D01*
X38074964Y6601527D01*
X38055568Y6600000D01*
X37624000Y6600000D01*
X37556961Y6619685D01*
X37511206Y6672489D01*
X37500000Y6724000D01*
X37500000Y7576000D01*
X37519685Y7643039D01*
X37572489Y7688794D01*
X37624000Y7700000D01*
X40070839Y7700000D01*
X40137878Y7680315D01*
G37*
G04 #@! TD.AperFunction*
G04 #@! TD*
G04 #@! TA.AperFunction,Conductor*
G04 #@! TO.N,GND*
G36*
X38114587Y6469440D02*
G01*
X38114602Y6469440D01*
X38114636Y6469436D01*
X38134033Y6467909D01*
X38136806Y6467800D01*
X38144421Y6467500D01*
X38144432Y6467500D01*
X38343500Y6467500D01*
X38410539Y6447815D01*
X38456294Y6395011D01*
X38467500Y6343500D01*
X38467500Y4556500D01*
X38447815Y4489461D01*
X38395011Y4443706D01*
X38343500Y4432500D01*
X36323997Y4432500D01*
X36295834Y4429473D01*
X36244321Y4418266D01*
X36185718Y4388931D01*
X36132916Y4343176D01*
X36132913Y4343173D01*
X36092554Y4280375D01*
X36092553Y4280373D01*
X36072866Y4213329D01*
X36067500Y4176004D01*
X36067500Y4139991D01*
X36056935Y4089907D01*
X36050192Y4074636D01*
X36047500Y4051434D01*
X36047500Y3668567D01*
X36050192Y3645365D01*
X36063972Y3614155D01*
X36071703Y3590430D01*
X36073350Y3582859D01*
X36068366Y3513167D01*
X36058509Y3500000D01*
X35525609Y3500000D01*
X35521286Y3504989D01*
X35517292Y3514828D01*
X35505857Y3546875D01*
X35505610Y3551190D01*
X35503212Y3555896D01*
X35501838Y3558794D01*
X35501115Y3560165D01*
X35501112Y3560173D01*
X35499168Y3563857D01*
X35498429Y3565284D01*
X35489474Y3582859D01*
X35457626Y3645365D01*
X35450853Y3658658D01*
X35438865Y3695554D01*
X35431730Y3740603D01*
X35431730Y3779399D01*
X35438865Y3824448D01*
X35450851Y3861342D01*
X35481768Y3922019D01*
X35488984Y3934182D01*
X35489690Y3935412D01*
X35489702Y3935429D01*
X35507448Y3972870D01*
X35527133Y4039909D01*
X35532500Y4077240D01*
X35532500Y4736000D01*
X35529472Y4764166D01*
X35518266Y4815677D01*
X35488931Y4874280D01*
X35488930Y4874282D01*
X35463892Y4903176D01*
X35443176Y4927084D01*
X35443173Y4927086D01*
X35443172Y4927087D01*
X35400000Y4954833D01*
X35400000Y6460000D01*
X36400000Y6460000D01*
X36400000Y6209528D01*
X36387511Y6198706D01*
X36336000Y6187500D01*
X36283566Y6187500D01*
X36260365Y6184808D01*
X36260363Y6184808D01*
X36165461Y6142905D01*
X36165456Y6142902D01*
X36092098Y6069544D01*
X36092095Y6069539D01*
X36050192Y5974637D01*
X36050192Y5974635D01*
X36047500Y5951434D01*
X36047500Y5568567D01*
X36050192Y5545366D01*
X36050192Y5545364D01*
X36092095Y5450462D01*
X36092097Y5450458D01*
X36165458Y5377097D01*
X36260366Y5335192D01*
X36283568Y5332500D01*
X36283569Y5332500D01*
X37391431Y5332500D01*
X37391432Y5332500D01*
X37414634Y5335192D01*
X37470820Y5360000D01*
X37700000Y5360000D01*
X37700000Y6467500D01*
X38055579Y6467500D01*
X38062717Y6467782D01*
X38065967Y6467909D01*
X38085363Y6469436D01*
X38085397Y6469440D01*
X38085413Y6469440D01*
X38087787Y6469627D01*
X38087802Y6469440D01*
X38112198Y6469440D01*
X38112213Y6469627D01*
X38114587Y6469440D01*
G37*
G04 #@! TD.AperFunction*
G04 #@! TD*
G04 #@! TA.AperFunction,Conductor*
G04 #@! TO.N,GND*
G36*
X43200000Y884910D02*
G01*
X43195461Y882905D01*
X43195456Y882902D01*
X43122098Y809544D01*
X43122095Y809539D01*
X43080192Y714637D01*
X43080192Y714635D01*
X43077500Y691434D01*
X43077500Y-741433D01*
X43080192Y-764634D01*
X43080192Y-764636D01*
X43116935Y-847851D01*
X43127500Y-897936D01*
X43127500Y-1475301D01*
X43127500Y-1574699D01*
X43153226Y-1670710D01*
X43200000Y-1751723D01*
X43200000Y-2066131D01*
X43166132Y-2100000D01*
X41400000Y-2100000D01*
X41400000Y2200000D01*
X43200000Y2200000D01*
X43200000Y884910D01*
G37*
G04 #@! TD.AperFunction*
G04 #@! TD*
G04 #@! TA.AperFunction,Conductor*
G04 #@! TO.N,+3.3V*
G36*
X35343039Y4840315D02*
G01*
X35388794Y4787511D01*
X35400000Y4736000D01*
X35400000Y4077240D01*
X35380315Y4010201D01*
X35376321Y4004358D01*
X35371951Y3998343D01*
X35314352Y3885302D01*
X35314352Y3885301D01*
X35294508Y3760004D01*
X35294508Y3759997D01*
X35314352Y3634700D01*
X35314352Y3634699D01*
X35314354Y3634696D01*
X35371950Y3521658D01*
X35371952Y3521656D01*
X35376318Y3515646D01*
X35399798Y3449840D01*
X35400000Y3442761D01*
X35400000Y3300000D01*
X36076000Y3300000D01*
X36143039Y3280315D01*
X36188794Y3227511D01*
X36200000Y3176000D01*
X36200000Y1866641D01*
X36180315Y1799602D01*
X36127511Y1753847D01*
X36058353Y1743903D01*
X36052498Y1745170D01*
X35996819Y1752500D01*
X35403187Y1752500D01*
X35352750Y1745861D01*
X35352748Y1745860D01*
X35242085Y1694256D01*
X35155744Y1607915D01*
X35104138Y1497247D01*
X35097500Y1446820D01*
X35097500Y928186D01*
X35101187Y900181D01*
X35090419Y831146D01*
X35044037Y778892D01*
X34978247Y760000D01*
X34479162Y760000D01*
X34412123Y779685D01*
X34391481Y796319D01*
X33853579Y1334221D01*
X33820094Y1395544D01*
X33817260Y1421902D01*
X33817260Y4736000D01*
X33836945Y4803039D01*
X33889749Y4848794D01*
X33941260Y4860000D01*
X35276000Y4860000D01*
X35343039Y4840315D01*
G37*
G04 #@! TD.AperFunction*
G04 #@! TD*
G04 #@! TA.AperFunction,Conductor*
G04 #@! TO.N,+BATT*
G36*
X42843039Y10827815D02*
G01*
X42888794Y10775011D01*
X42900000Y10723500D01*
X42900000Y9800000D01*
X45376000Y9800000D01*
X45443039Y9780315D01*
X45488794Y9727511D01*
X45500000Y9676000D01*
X45500000Y7824000D01*
X45480315Y7756961D01*
X45427511Y7711206D01*
X45376000Y7700000D01*
X45200000Y7700000D01*
X45200000Y5000000D01*
X45676000Y5000000D01*
X45743039Y4980315D01*
X45788794Y4927511D01*
X45800000Y4876000D01*
X45800000Y4222007D01*
X45783387Y4160007D01*
X45774931Y4145362D01*
X45774930Y4145361D01*
X45763542Y4102859D01*
X45747500Y4042990D01*
X45747500Y4042988D01*
X45747500Y4024000D01*
X45727815Y3956961D01*
X45675011Y3911206D01*
X45623500Y3900000D01*
X43024000Y3900000D01*
X42956961Y3919685D01*
X42911206Y3972489D01*
X42900000Y4024000D01*
X42900000Y6800000D01*
X41391500Y6800000D01*
X41324461Y6819685D01*
X41278706Y6872489D01*
X41267500Y6924000D01*
X41267500Y7324823D01*
X41267500Y7324825D01*
X41246885Y7401761D01*
X41246883Y7401764D01*
X41246883Y7401766D01*
X41246882Y7401767D01*
X41207063Y7470733D01*
X41207060Y7470739D01*
X41150739Y7527060D01*
X40936319Y7741480D01*
X40902834Y7802803D01*
X40900000Y7829161D01*
X40900000Y9928500D01*
X40919685Y9995539D01*
X40972489Y10041294D01*
X41024000Y10052500D01*
X41050857Y10052500D01*
X41050858Y10052501D01*
X41127423Y10067730D01*
X41214252Y10125748D01*
X41272270Y10212577D01*
X41287500Y10289144D01*
X41287500Y10489049D01*
X41307185Y10556088D01*
X41323819Y10576730D01*
X41558270Y10811181D01*
X41619593Y10844666D01*
X41645951Y10847500D01*
X42776000Y10847500D01*
X42843039Y10827815D01*
G37*
G04 #@! TD.AperFunction*
G04 #@! TD*
G04 #@! TA.AperFunction,Conductor*
G04 #@! TO.N,GND*
G36*
X33530069Y698418D02*
G01*
X33536772Y692191D01*
X33843181Y385782D01*
X33876666Y324459D01*
X33879500Y298101D01*
X33879500Y185684D01*
X33885931Y136829D01*
X33935935Y29596D01*
X34027267Y-61736D01*
X34024443Y-64559D01*
X34055183Y-103042D01*
X34062352Y-172542D01*
X34030808Y-234886D01*
X34027101Y-238098D01*
X34027267Y-238264D01*
X33935935Y-329595D01*
X33885931Y-436828D01*
X33879500Y-485683D01*
X33879500Y-834316D01*
X33885931Y-883171D01*
X33920757Y-957854D01*
X33935935Y-990404D01*
X34019596Y-1074065D01*
X34126827Y-1124068D01*
X34175683Y-1130500D01*
X34175684Y-1130500D01*
X34624317Y-1130500D01*
X34650043Y-1127113D01*
X34673173Y-1124068D01*
X34780404Y-1074065D01*
X34780404Y-1074064D01*
X34784579Y-1072118D01*
X34836984Y-1060500D01*
X35480225Y-1060500D01*
X35480227Y-1060500D01*
X35582088Y-1033207D01*
X35582090Y-1033205D01*
X35589938Y-1031103D01*
X35590304Y-1032472D01*
X35625358Y-1025500D01*
X35932163Y-1025500D01*
X35999202Y-1045185D01*
X36044957Y-1097989D01*
X36054901Y-1167147D01*
X36051938Y-1181592D01*
X36049500Y-1190689D01*
X36049500Y-1190691D01*
X36049500Y-7859309D01*
X36080201Y-7973886D01*
X36139511Y-8076613D01*
X36223387Y-8160489D01*
X36292900Y-8200622D01*
X36318579Y-8220327D01*
X37338737Y-9240485D01*
X37435763Y-9296503D01*
X37492541Y-9311716D01*
X37548127Y-9343809D01*
X37780500Y-9576182D01*
X37813985Y-9637505D01*
X37809001Y-9707197D01*
X37767129Y-9763130D01*
X37754820Y-9771250D01*
X37643565Y-9835484D01*
X37643562Y-9835486D01*
X37535486Y-9943562D01*
X37535482Y-9943568D01*
X37459061Y-10075932D01*
X37459060Y-10075935D01*
X37419500Y-10223576D01*
X37419500Y-10376424D01*
X37459060Y-10524065D01*
X37535484Y-10656435D01*
X37643565Y-10764516D01*
X37775935Y-10840940D01*
X37923576Y-10880500D01*
X37923578Y-10880500D01*
X38076422Y-10880500D01*
X38076424Y-10880500D01*
X38224065Y-10840940D01*
X38356435Y-10764516D01*
X38464516Y-10656435D01*
X38540940Y-10524065D01*
X38573538Y-10402405D01*
X38609903Y-10342746D01*
X38672750Y-10312217D01*
X38693313Y-10310500D01*
X39659750Y-10310500D01*
X39659751Y-10310499D01*
X39683965Y-10305683D01*
X39718229Y-10298868D01*
X39718229Y-10298867D01*
X39718231Y-10298867D01*
X39784552Y-10254552D01*
X39828867Y-10188231D01*
X39828867Y-10188229D01*
X39828868Y-10188229D01*
X39840499Y-10129752D01*
X39840500Y-10129750D01*
X39840500Y-10124000D01*
X39860185Y-10056961D01*
X39912989Y-10011206D01*
X39964500Y-10000000D01*
X39975500Y-10000000D01*
X40042539Y-10019685D01*
X40088294Y-10072489D01*
X40099500Y-10124000D01*
X40099500Y-10359677D01*
X40079815Y-10426716D01*
X40027911Y-10472056D01*
X40019598Y-10475932D01*
X39935935Y-10559595D01*
X39885931Y-10666828D01*
X39879500Y-10715683D01*
X39879500Y-11064316D01*
X39885931Y-11113171D01*
X39885932Y-11113173D01*
X39935935Y-11220404D01*
X40019596Y-11304065D01*
X40126827Y-11354068D01*
X40175683Y-11360500D01*
X40175684Y-11360500D01*
X40624317Y-11360500D01*
X40640601Y-11358356D01*
X40673173Y-11354068D01*
X40780404Y-11304065D01*
X40864065Y-11220404D01*
X40914068Y-11113173D01*
X40920500Y-11064316D01*
X40920500Y-10715684D01*
X40920170Y-10713181D01*
X40914068Y-10666828D01*
X40914068Y-10666827D01*
X40864065Y-10559596D01*
X40780404Y-10475935D01*
X40780401Y-10475932D01*
X40772089Y-10472056D01*
X40719652Y-10425881D01*
X40700500Y-10359677D01*
X40700500Y-10124000D01*
X40720185Y-10056961D01*
X40772989Y-10011206D01*
X40824500Y-10000000D01*
X46900000Y-10000000D01*
X46900000Y-9332982D01*
X46919685Y-9265943D01*
X46972489Y-9220188D01*
X46989063Y-9214006D01*
X46989063Y-9214005D01*
X46989069Y-9214004D01*
X47082962Y-9153662D01*
X47150001Y-9133979D01*
X47217037Y-9153662D01*
X47310931Y-9214004D01*
X47401123Y-9240486D01*
X47435225Y-9250499D01*
X47435227Y-9250500D01*
X47435228Y-9250500D01*
X47564773Y-9250500D01*
X47564773Y-9250499D01*
X47668008Y-9220188D01*
X47689066Y-9214005D01*
X47689066Y-9214004D01*
X47689069Y-9214004D01*
X47708461Y-9201541D01*
X47775498Y-9181856D01*
X47842538Y-9201539D01*
X47888294Y-9254343D01*
X47899500Y-9305856D01*
X47899500Y-10374167D01*
X47879815Y-10441206D01*
X47863181Y-10461848D01*
X47611848Y-10713181D01*
X47550525Y-10746666D01*
X47524167Y-10749500D01*
X46480247Y-10749500D01*
X46421770Y-10761131D01*
X46421769Y-10761132D01*
X46355446Y-10805448D01*
X46343876Y-10822765D01*
X46290264Y-10867569D01*
X46220939Y-10876276D01*
X46157911Y-10846121D01*
X46153094Y-10841554D01*
X46068316Y-10756776D01*
X46020573Y-10734513D01*
X45959487Y-10706028D01*
X45959485Y-10706027D01*
X45959486Y-10706027D01*
X45909901Y-10699500D01*
X45490105Y-10699500D01*
X45474386Y-10701569D01*
X45440513Y-10706028D01*
X45440511Y-10706029D01*
X45440509Y-10706029D01*
X45331683Y-10756776D01*
X45246776Y-10841683D01*
X45196027Y-10950514D01*
X45189500Y-11000097D01*
X45189500Y-11359894D01*
X45189501Y-11359900D01*
X45196028Y-11409487D01*
X45196029Y-11409489D01*
X45196029Y-11409490D01*
X45228992Y-11480179D01*
X45246776Y-11518316D01*
X45331684Y-11603224D01*
X45440513Y-11653972D01*
X45490099Y-11660500D01*
X45736971Y-11660499D01*
X45798969Y-11677111D01*
X45804005Y-11680018D01*
X45804008Y-11680020D01*
X45804010Y-11680020D01*
X45804011Y-11680021D01*
X45880438Y-11700500D01*
X46175500Y-11700500D01*
X46242539Y-11720185D01*
X46288294Y-11772989D01*
X46299500Y-11824500D01*
X46299500Y-12171796D01*
X46279815Y-12238835D01*
X46227011Y-12284590D01*
X46175606Y-12295796D01*
X33995528Y-12306194D01*
X33965404Y-12302506D01*
X33851135Y-12273996D01*
X33826288Y-12264886D01*
X33708281Y-12206663D01*
X33685933Y-12192487D01*
X33582968Y-12110548D01*
X33564137Y-12091954D01*
X33480903Y-11990029D01*
X33466447Y-11967862D01*
X33406741Y-11850603D01*
X33397318Y-11825874D01*
X33391684Y-11804448D01*
X33363850Y-11698601D01*
X33359892Y-11672452D01*
X33354360Y-11544821D01*
X33354247Y-11539838D01*
X33354203Y-11521840D01*
X33354453Y-11513710D01*
X33356590Y-11480179D01*
X33356588Y-11480172D01*
X33355679Y-11470465D01*
X33356017Y-11470433D01*
X33354043Y-11454920D01*
X33325091Y604213D01*
X33344615Y671299D01*
X33397309Y717180D01*
X33466443Y727290D01*
X33530069Y698418D01*
G37*
G04 #@! TD.AperFunction*
G04 #@! TA.AperFunction,Conductor*
G36*
X50725836Y-7641385D02*
G01*
X50746478Y-7658018D01*
X50746775Y-7658315D01*
X50746776Y-7658316D01*
X50831684Y-7743224D01*
X50940513Y-7793972D01*
X50990099Y-7800500D01*
X51409900Y-7800499D01*
X51459487Y-7793972D01*
X51568316Y-7743224D01*
X51572863Y-7738676D01*
X51634181Y-7705192D01*
X51703873Y-7710173D01*
X51759808Y-7752043D01*
X51772924Y-7773949D01*
X51775933Y-7780401D01*
X51775934Y-7780403D01*
X51775935Y-7780404D01*
X51859596Y-7864065D01*
X51966827Y-7914068D01*
X52015683Y-7920500D01*
X52015684Y-7920500D01*
X52364317Y-7920500D01*
X52380601Y-7918356D01*
X52413173Y-7914068D01*
X52520404Y-7864065D01*
X52604065Y-7780404D01*
X52604065Y-7780403D01*
X52611736Y-7772733D01*
X52614564Y-7775561D01*
X52652977Y-7744843D01*
X52722474Y-7737635D01*
X52784835Y-7769143D01*
X52788093Y-7772903D01*
X52788264Y-7772733D01*
X52795935Y-7780404D01*
X52879596Y-7864065D01*
X52986827Y-7914068D01*
X53035683Y-7920500D01*
X53035684Y-7920500D01*
X53384317Y-7920500D01*
X53400601Y-7918356D01*
X53433173Y-7914068D01*
X53540404Y-7864065D01*
X53624065Y-7780404D01*
X53627073Y-7773952D01*
X53673243Y-7721514D01*
X53740437Y-7702361D01*
X53807318Y-7722575D01*
X53827136Y-7738676D01*
X53831684Y-7743224D01*
X53940513Y-7793972D01*
X53990099Y-7800500D01*
X54409900Y-7800499D01*
X54459487Y-7793972D01*
X54459489Y-7793971D01*
X54459816Y-7793928D01*
X54528851Y-7804694D01*
X54581107Y-7851075D01*
X54600000Y-7916867D01*
X54600000Y-8800000D01*
X55326000Y-8800000D01*
X55393039Y-8819685D01*
X55438794Y-8872489D01*
X55450000Y-8924000D01*
X55450000Y-9676000D01*
X55430315Y-9743039D01*
X55377511Y-9788794D01*
X55326000Y-9800000D01*
X54650000Y-9800000D01*
X54650000Y-10550000D01*
X60318274Y-10550000D01*
X60385313Y-10569685D01*
X60431068Y-10622489D01*
X60442273Y-10673944D01*
X60442393Y-10950500D01*
X60442668Y-11587137D01*
X60441711Y-11602565D01*
X60425794Y-11729950D01*
X60419756Y-11755633D01*
X60378944Y-11871939D01*
X60367612Y-11895761D01*
X60303126Y-12000793D01*
X60287008Y-12021680D01*
X60201758Y-12110696D01*
X60181589Y-12127700D01*
X60079436Y-12196669D01*
X60056124Y-12209021D01*
X59941699Y-12254816D01*
X59916302Y-12261958D01*
X59795135Y-12282450D01*
X59774564Y-12284186D01*
X48224606Y-12294047D01*
X48157550Y-12274420D01*
X48111750Y-12221655D01*
X48100500Y-12170047D01*
X48100500Y-11125833D01*
X48120185Y-11058794D01*
X48136819Y-11038152D01*
X48280906Y-10894065D01*
X48440460Y-10734511D01*
X48465642Y-10690893D01*
X48516209Y-10642679D01*
X48584817Y-10629457D01*
X48620484Y-10638335D01*
X48621771Y-10638868D01*
X48680247Y-10650499D01*
X48680250Y-10650500D01*
X48680252Y-10650500D01*
X50119750Y-10650500D01*
X50184677Y-10637585D01*
X50254269Y-10643812D01*
X50296550Y-10671521D01*
X50329540Y-10704511D01*
X50385489Y-10760460D01*
X50385492Y-10760462D01*
X50385791Y-10760691D01*
X50386079Y-10761050D01*
X50391237Y-10766208D01*
X50390672Y-10766772D01*
X50422691Y-10806666D01*
X50446776Y-10858316D01*
X50531684Y-10943224D01*
X50640513Y-10993972D01*
X50690099Y-11000500D01*
X51109900Y-11000499D01*
X51114501Y-10999893D01*
X51183535Y-11010658D01*
X51235791Y-11057037D01*
X51254677Y-11124306D01*
X51253424Y-11140477D01*
X51244867Y-11199997D01*
X51244867Y-11199999D01*
X51263302Y-11328225D01*
X51300415Y-11409490D01*
X51317118Y-11446063D01*
X51364032Y-11500205D01*
X51400532Y-11542330D01*
X51401951Y-11543967D01*
X51510931Y-11614004D01*
X51635225Y-11650499D01*
X51635227Y-11650500D01*
X51635228Y-11650500D01*
X51674167Y-11650500D01*
X51741206Y-11670185D01*
X51761848Y-11686819D01*
X51815489Y-11740460D01*
X51815491Y-11740461D01*
X51815495Y-11740464D01*
X51871831Y-11772989D01*
X51884011Y-11780021D01*
X51960438Y-11800500D01*
X51960440Y-11800500D01*
X51968497Y-11801561D01*
X51968116Y-11804448D01*
X52021708Y-11820185D01*
X52042350Y-11836819D01*
X52119596Y-11914065D01*
X52226827Y-11964068D01*
X52275683Y-11970500D01*
X52275684Y-11970500D01*
X52724317Y-11970500D01*
X52744354Y-11967862D01*
X52773173Y-11964068D01*
X52880404Y-11914065D01*
X52964065Y-11830404D01*
X53014068Y-11723173D01*
X53020500Y-11674316D01*
X53020500Y-11325684D01*
X53014068Y-11276827D01*
X52964065Y-11169596D01*
X52880404Y-11085935D01*
X52872733Y-11078264D01*
X52875561Y-11075435D01*
X52844843Y-11037023D01*
X52837635Y-10967526D01*
X52869143Y-10905165D01*
X52872903Y-10901906D01*
X52872733Y-10901736D01*
X52916153Y-10858316D01*
X52964065Y-10810404D01*
X53014068Y-10703173D01*
X53020500Y-10654316D01*
X53020500Y-10305684D01*
X53014068Y-10256827D01*
X52964065Y-10149596D01*
X52880404Y-10065935D01*
X52773173Y-10015932D01*
X52773171Y-10015931D01*
X52773172Y-10015931D01*
X52724317Y-10009500D01*
X52724316Y-10009500D01*
X52275684Y-10009500D01*
X52275683Y-10009500D01*
X52226828Y-10015931D01*
X52119594Y-10065935D01*
X52087849Y-10097680D01*
X52026525Y-10131164D01*
X51956833Y-10126178D01*
X51933132Y-10114313D01*
X51889066Y-10085994D01*
X51764774Y-10049500D01*
X51764772Y-10049500D01*
X51635228Y-10049500D01*
X51635226Y-10049500D01*
X51510936Y-10085993D01*
X51440733Y-10131109D01*
X51373693Y-10150792D01*
X51306654Y-10131106D01*
X51286015Y-10114475D01*
X51268315Y-10096775D01*
X51206036Y-10067734D01*
X51159487Y-10046028D01*
X51159485Y-10046027D01*
X51159486Y-10046027D01*
X51109901Y-10039500D01*
X50690105Y-10039500D01*
X50674386Y-10041569D01*
X50640513Y-10046028D01*
X50640511Y-10046029D01*
X50640502Y-10046031D01*
X50637685Y-10047345D01*
X50634159Y-10047880D01*
X50631401Y-10048684D01*
X50631293Y-10048315D01*
X50568606Y-10057830D01*
X50504825Y-10029304D01*
X50497610Y-10022639D01*
X50336819Y-9861848D01*
X50303334Y-9800525D01*
X50300500Y-9774167D01*
X50300500Y-9671402D01*
X50320185Y-9604363D01*
X50372989Y-9558608D01*
X50442147Y-9548664D01*
X50505703Y-9577689D01*
X50512181Y-9583721D01*
X50581684Y-9653224D01*
X50690513Y-9703972D01*
X50740099Y-9710500D01*
X51099900Y-9710499D01*
X51149487Y-9703972D01*
X51258316Y-9653224D01*
X51343224Y-9568316D01*
X51393972Y-9459487D01*
X51400500Y-9409901D01*
X51400499Y-8990100D01*
X51393972Y-8940513D01*
X51343224Y-8831684D01*
X51258316Y-8746776D01*
X51149487Y-8696028D01*
X51149485Y-8696027D01*
X51149486Y-8696027D01*
X51099902Y-8689500D01*
X51099901Y-8689500D01*
X50865833Y-8689500D01*
X50798794Y-8669815D01*
X50778152Y-8653181D01*
X50589381Y-8464410D01*
X50555896Y-8403087D01*
X50554324Y-8394375D01*
X50536697Y-8271774D01*
X50521460Y-8238411D01*
X50482882Y-8153937D01*
X50398049Y-8056033D01*
X50289069Y-7985996D01*
X50289065Y-7985994D01*
X50289064Y-7985994D01*
X50164774Y-7949500D01*
X50164772Y-7949500D01*
X50125833Y-7949500D01*
X50058794Y-7929815D01*
X50038152Y-7913181D01*
X49958352Y-7833381D01*
X49924867Y-7772058D01*
X49929851Y-7702366D01*
X49971723Y-7646433D01*
X50037187Y-7622016D01*
X50046033Y-7621700D01*
X50658797Y-7621700D01*
X50725836Y-7641385D01*
G37*
G04 #@! TD.AperFunction*
G04 #@! TA.AperFunction,Conductor*
G36*
X37471537Y-1014836D02*
G01*
X37503454Y-1026005D01*
X37560229Y-1066725D01*
X37585978Y-1131677D01*
X37586500Y-1143046D01*
X37586500Y-1386309D01*
X37588235Y-1392783D01*
X37609533Y-1472272D01*
X37617200Y-1500885D01*
X37617200Y-1500886D01*
X37617201Y-1500887D01*
X37676511Y-1603614D01*
X37676513Y-1603616D01*
X37903181Y-1830284D01*
X37936666Y-1891607D01*
X37939500Y-1917965D01*
X37939500Y-1924316D01*
X37945931Y-1973171D01*
X37945932Y-1973173D01*
X37995935Y-2080404D01*
X38079596Y-2164065D01*
X38186827Y-2214068D01*
X38235683Y-2220500D01*
X38235684Y-2220500D01*
X38584317Y-2220500D01*
X38600601Y-2218356D01*
X38633173Y-2214068D01*
X38740404Y-2164065D01*
X38740404Y-2164064D01*
X38744579Y-2162118D01*
X38796984Y-2150500D01*
X38962035Y-2150500D01*
X39029074Y-2170185D01*
X39049716Y-2186819D01*
X39689350Y-2826453D01*
X39722835Y-2887776D01*
X39717851Y-2957468D01*
X39709056Y-2976134D01*
X39680201Y-3026112D01*
X39680200Y-3026117D01*
X39649500Y-3140691D01*
X39649500Y-4385500D01*
X39629815Y-4452539D01*
X39577011Y-4498294D01*
X39525500Y-4509500D01*
X38693313Y-4509500D01*
X38626274Y-4489815D01*
X38580519Y-4437011D01*
X38573538Y-4417594D01*
X38572874Y-4415117D01*
X38540940Y-4295935D01*
X38464516Y-4163565D01*
X38356435Y-4055484D01*
X38224065Y-3979060D01*
X38076424Y-3939500D01*
X37923576Y-3939500D01*
X37775935Y-3979060D01*
X37775932Y-3979061D01*
X37643568Y-4055482D01*
X37643562Y-4055486D01*
X37535486Y-4163562D01*
X37535482Y-4163568D01*
X37459061Y-4295932D01*
X37459061Y-4295933D01*
X37459060Y-4295935D01*
X37419500Y-4443576D01*
X37419500Y-4596424D01*
X37459060Y-4744065D01*
X37535484Y-4876435D01*
X37643565Y-4984516D01*
X37775935Y-5060940D01*
X37779403Y-5061869D01*
X37781998Y-5063451D01*
X37783442Y-5064049D01*
X37783348Y-5064274D01*
X37839063Y-5098231D01*
X37869594Y-5161077D01*
X37861302Y-5230452D01*
X37834993Y-5269325D01*
X37319532Y-5784785D01*
X37319528Y-5784791D01*
X37281627Y-5850438D01*
X37273387Y-5864709D01*
X37273386Y-5864712D01*
X37249500Y-5953856D01*
X37249500Y-7648390D01*
X37229815Y-7715429D01*
X37177011Y-7761184D01*
X37107853Y-7771128D01*
X37044297Y-7742103D01*
X37037819Y-7736071D01*
X36986819Y-7685071D01*
X36953334Y-7623748D01*
X36950500Y-7597390D01*
X36950500Y-1487964D01*
X36970185Y-1420925D01*
X36986815Y-1400287D01*
X37342904Y-1044197D01*
X37404227Y-1010713D01*
X37471537Y-1014836D01*
G37*
G04 #@! TD.AperFunction*
G04 #@! TA.AperFunction,Conductor*
G36*
X49165164Y-3622159D02*
G01*
X49168871Y-3624541D01*
X49184880Y-3635238D01*
X49184883Y-3635240D01*
X49184887Y-3635241D01*
X49200236Y-3638294D01*
X49261599Y-3650500D01*
X49325500Y-3650499D01*
X49392538Y-3670183D01*
X49438294Y-3722986D01*
X49449500Y-3774497D01*
X49449500Y-3838398D01*
X49464760Y-3915119D01*
X49475446Y-3931111D01*
X49496323Y-3997788D01*
X49477837Y-4065168D01*
X49475446Y-4068889D01*
X49464759Y-4084882D01*
X49449500Y-4161596D01*
X49449500Y-4338398D01*
X49464760Y-4415119D01*
X49475446Y-4431111D01*
X49496323Y-4497788D01*
X49477837Y-4565168D01*
X49475446Y-4568889D01*
X49464759Y-4584882D01*
X49449500Y-4661596D01*
X49449500Y-4838398D01*
X49464760Y-4915119D01*
X49475446Y-4931111D01*
X49496323Y-4997788D01*
X49477837Y-5065168D01*
X49475446Y-5068889D01*
X49464759Y-5084882D01*
X49449500Y-5161596D01*
X49449500Y-5338398D01*
X49464760Y-5415119D01*
X49475446Y-5431111D01*
X49496323Y-5497788D01*
X49477837Y-5565168D01*
X49475446Y-5568889D01*
X49464759Y-5584882D01*
X49449500Y-5661596D01*
X49449500Y-5838398D01*
X49464760Y-5915119D01*
X49475446Y-5931111D01*
X49496323Y-5997788D01*
X49477837Y-6065168D01*
X49475446Y-6068889D01*
X49464759Y-6084882D01*
X49449500Y-6161596D01*
X49449500Y-6338398D01*
X49464760Y-6415119D01*
X49475446Y-6431111D01*
X49496323Y-6497788D01*
X49477837Y-6565168D01*
X49475446Y-6568889D01*
X49464759Y-6584882D01*
X49449500Y-6661596D01*
X49449500Y-6838398D01*
X49464760Y-6915119D01*
X49475446Y-6931111D01*
X49496323Y-6997788D01*
X49477837Y-7065168D01*
X49475446Y-7068889D01*
X49464759Y-7084882D01*
X49449500Y-7161596D01*
X49449500Y-7225500D01*
X49429815Y-7292539D01*
X49377011Y-7338294D01*
X49325502Y-7349500D01*
X49261601Y-7349500D01*
X49184880Y-7364760D01*
X49168889Y-7375446D01*
X49102212Y-7396323D01*
X49034832Y-7377837D01*
X49031111Y-7375446D01*
X49015117Y-7364759D01*
X48938403Y-7349500D01*
X48761601Y-7349500D01*
X48684880Y-7364760D01*
X48668889Y-7375446D01*
X48602212Y-7396323D01*
X48534832Y-7377837D01*
X48531111Y-7375446D01*
X48515117Y-7364759D01*
X48438403Y-7349500D01*
X48261601Y-7349500D01*
X48184880Y-7364760D01*
X48168889Y-7375446D01*
X48102212Y-7396323D01*
X48034832Y-7377837D01*
X48031111Y-7375446D01*
X48015117Y-7364759D01*
X47938403Y-7349500D01*
X47761601Y-7349500D01*
X47684880Y-7364760D01*
X47668889Y-7375446D01*
X47602212Y-7396323D01*
X47534832Y-7377837D01*
X47531111Y-7375446D01*
X47515117Y-7364759D01*
X47438403Y-7349500D01*
X47261601Y-7349500D01*
X47184880Y-7364760D01*
X47168889Y-7375446D01*
X47102212Y-7396323D01*
X47034832Y-7377837D01*
X47031111Y-7375446D01*
X47015117Y-7364759D01*
X46938403Y-7349500D01*
X46761601Y-7349500D01*
X46684880Y-7364760D01*
X46668889Y-7375446D01*
X46602212Y-7396323D01*
X46534832Y-7377837D01*
X46531111Y-7375446D01*
X46515117Y-7364759D01*
X46438403Y-7349500D01*
X46261601Y-7349500D01*
X46184880Y-7364760D01*
X46168889Y-7375446D01*
X46102212Y-7396323D01*
X46034832Y-7377837D01*
X46031111Y-7375446D01*
X46015117Y-7364759D01*
X45938403Y-7349500D01*
X45874499Y-7349500D01*
X45807460Y-7329815D01*
X45761705Y-7277011D01*
X45750499Y-7225500D01*
X45750499Y-7161601D01*
X45750351Y-7160858D01*
X45735240Y-7084883D01*
X45735239Y-7084881D01*
X45735238Y-7084878D01*
X45724555Y-7068891D01*
X45703676Y-7002214D01*
X45722160Y-6934833D01*
X45724517Y-6931164D01*
X45735240Y-6915117D01*
X45750500Y-6838401D01*
X45750499Y-6661600D01*
X45735240Y-6584883D01*
X45735239Y-6584881D01*
X45735238Y-6584878D01*
X45724555Y-6568891D01*
X45703676Y-6502214D01*
X45722160Y-6434833D01*
X45724517Y-6431164D01*
X45735240Y-6415117D01*
X45750500Y-6338401D01*
X45750499Y-6161600D01*
X45735240Y-6084883D01*
X45735239Y-6084881D01*
X45735238Y-6084878D01*
X45724555Y-6068891D01*
X45703676Y-6002214D01*
X45722160Y-5934833D01*
X45724517Y-5931164D01*
X45735240Y-5915117D01*
X45750500Y-5838401D01*
X45750499Y-5661600D01*
X45735240Y-5584883D01*
X45735239Y-5584881D01*
X45735238Y-5584878D01*
X45724555Y-5568891D01*
X45703676Y-5502214D01*
X45722160Y-5434833D01*
X45724517Y-5431164D01*
X45735240Y-5415117D01*
X45750500Y-5338401D01*
X45750499Y-5161600D01*
X45735240Y-5084883D01*
X45735239Y-5084881D01*
X45735238Y-5084878D01*
X45724555Y-5068891D01*
X45703676Y-5002214D01*
X45722160Y-4934833D01*
X45724517Y-4931164D01*
X45735240Y-4915117D01*
X45750500Y-4838401D01*
X45750499Y-4661600D01*
X45735240Y-4584883D01*
X45735239Y-4584881D01*
X45735238Y-4584878D01*
X45724555Y-4568891D01*
X45703676Y-4502214D01*
X45722160Y-4434833D01*
X45724517Y-4431164D01*
X45735240Y-4415117D01*
X45750500Y-4338401D01*
X45750499Y-4161600D01*
X45735240Y-4084883D01*
X45735239Y-4084881D01*
X45735238Y-4084878D01*
X45724555Y-4068891D01*
X45703676Y-4002214D01*
X45722160Y-3934833D01*
X45724517Y-3931164D01*
X45735240Y-3915117D01*
X45750500Y-3838401D01*
X45750500Y-3774497D01*
X45770183Y-3707461D01*
X45822986Y-3661705D01*
X45874497Y-3650499D01*
X45938400Y-3650499D01*
X46015117Y-3635240D01*
X46031107Y-3624555D01*
X46097783Y-3603676D01*
X46165164Y-3622159D01*
X46168871Y-3624541D01*
X46184880Y-3635238D01*
X46184883Y-3635240D01*
X46184887Y-3635241D01*
X46200236Y-3638294D01*
X46261599Y-3650500D01*
X46438400Y-3650499D01*
X46515117Y-3635240D01*
X46531107Y-3624555D01*
X46597783Y-3603676D01*
X46665164Y-3622159D01*
X46668871Y-3624541D01*
X46684880Y-3635238D01*
X46684883Y-3635240D01*
X46684887Y-3635241D01*
X46700236Y-3638294D01*
X46761599Y-3650500D01*
X46938400Y-3650499D01*
X47015117Y-3635240D01*
X47031107Y-3624555D01*
X47097783Y-3603676D01*
X47165164Y-3622159D01*
X47168871Y-3624541D01*
X47184880Y-3635238D01*
X47184883Y-3635240D01*
X47184887Y-3635241D01*
X47200236Y-3638294D01*
X47261599Y-3650500D01*
X47438400Y-3650499D01*
X47515117Y-3635240D01*
X47531107Y-3624555D01*
X47597783Y-3603676D01*
X47665164Y-3622159D01*
X47668871Y-3624541D01*
X47684880Y-3635238D01*
X47684883Y-3635240D01*
X47684887Y-3635241D01*
X47700236Y-3638294D01*
X47761599Y-3650500D01*
X47938400Y-3650499D01*
X48015117Y-3635240D01*
X48031107Y-3624555D01*
X48097783Y-3603676D01*
X48165164Y-3622159D01*
X48168871Y-3624541D01*
X48184880Y-3635238D01*
X48184883Y-3635240D01*
X48184887Y-3635241D01*
X48200236Y-3638294D01*
X48261599Y-3650500D01*
X48438400Y-3650499D01*
X48515117Y-3635240D01*
X48531107Y-3624555D01*
X48597783Y-3603676D01*
X48665164Y-3622159D01*
X48668871Y-3624541D01*
X48684880Y-3635238D01*
X48684883Y-3635240D01*
X48684887Y-3635241D01*
X48700236Y-3638294D01*
X48761599Y-3650500D01*
X48938400Y-3650499D01*
X49015117Y-3635240D01*
X49031107Y-3624555D01*
X49097783Y-3603676D01*
X49165164Y-3622159D01*
G37*
G04 #@! TD.AperFunction*
G04 #@! TA.AperFunction,Conductor*
G36*
X54519334Y3175402D02*
G01*
X54575267Y3133530D01*
X54599684Y3068066D01*
X54600000Y3059220D01*
X54600000Y-6723131D01*
X54580315Y-6790170D01*
X54527511Y-6835925D01*
X54459817Y-6846071D01*
X54433782Y-6842644D01*
X54409901Y-6839500D01*
X54409897Y-6839500D01*
X54312497Y-6839500D01*
X54245458Y-6819815D01*
X54199703Y-6767011D01*
X54189759Y-6697853D01*
X54200115Y-6663096D01*
X54214068Y-6633173D01*
X54214068Y-6633172D01*
X54220500Y-6584316D01*
X54220500Y-6235683D01*
X54214068Y-6186828D01*
X54205396Y-6168231D01*
X54164065Y-6079596D01*
X54080404Y-5995935D01*
X54072733Y-5988264D01*
X54075561Y-5985435D01*
X54044843Y-5947023D01*
X54037635Y-5877526D01*
X54069143Y-5815165D01*
X54072903Y-5811906D01*
X54072733Y-5811736D01*
X54115022Y-5769447D01*
X54164065Y-5720404D01*
X54214068Y-5613173D01*
X54220500Y-5564316D01*
X54220500Y-5215684D01*
X54220499Y-5215680D01*
X54214068Y-5166828D01*
X54211631Y-5161601D01*
X54164065Y-5059596D01*
X54080404Y-4975935D01*
X53973173Y-4925932D01*
X53973171Y-4925931D01*
X53973172Y-4925931D01*
X53924317Y-4919500D01*
X53924316Y-4919500D01*
X53905833Y-4919500D01*
X53838794Y-4899815D01*
X53818152Y-4883181D01*
X53497651Y-4562680D01*
X53464166Y-4501357D01*
X53469150Y-4431665D01*
X53497646Y-4387324D01*
X53608154Y-4276815D01*
X53669475Y-4243333D01*
X53695833Y-4240499D01*
X53909895Y-4240499D01*
X53909900Y-4240499D01*
X53959487Y-4233972D01*
X54068316Y-4183224D01*
X54153224Y-4098316D01*
X54203972Y-3989487D01*
X54210500Y-3939901D01*
X54210499Y-3580100D01*
X54203972Y-3530513D01*
X54153224Y-3421684D01*
X54068316Y-3336776D01*
X53959487Y-3286028D01*
X53959485Y-3286027D01*
X53959486Y-3286027D01*
X53909901Y-3279500D01*
X53490105Y-3279500D01*
X53474386Y-3281569D01*
X53440513Y-3286028D01*
X53440511Y-3286029D01*
X53440509Y-3286029D01*
X53331683Y-3336776D01*
X53287681Y-3380779D01*
X53226358Y-3414264D01*
X53156666Y-3409280D01*
X53112319Y-3380779D01*
X53068316Y-3336776D01*
X53037791Y-3322542D01*
X52959487Y-3286028D01*
X52959485Y-3286027D01*
X52959486Y-3286027D01*
X52909901Y-3279500D01*
X52490105Y-3279500D01*
X52474386Y-3281569D01*
X52440513Y-3286028D01*
X52440511Y-3286029D01*
X52440509Y-3286029D01*
X52331685Y-3336775D01*
X52270278Y-3398182D01*
X52208954Y-3431666D01*
X52182597Y-3434500D01*
X52170331Y-3434500D01*
X52103292Y-3414815D01*
X52082650Y-3398181D01*
X52072733Y-3388264D01*
X52075561Y-3385435D01*
X52044843Y-3347023D01*
X52037635Y-3277526D01*
X52069143Y-3215165D01*
X52072903Y-3211906D01*
X52072733Y-3211736D01*
X52112695Y-3171774D01*
X52164065Y-3120404D01*
X52214068Y-3013173D01*
X52220500Y-2964316D01*
X52220500Y-2615684D01*
X52214068Y-2566827D01*
X52212117Y-2562644D01*
X52200500Y-2510240D01*
X52200500Y-2287386D01*
X52220185Y-2220347D01*
X52230778Y-2206194D01*
X52282882Y-2146063D01*
X52336697Y-2028226D01*
X52355133Y-1900000D01*
X52336697Y-1771774D01*
X52282882Y-1653937D01*
X52198049Y-1556033D01*
X52089069Y-1485996D01*
X52089065Y-1485994D01*
X52089064Y-1485994D01*
X51964774Y-1449500D01*
X51964772Y-1449500D01*
X51835228Y-1449500D01*
X51826360Y-1449500D01*
X51826360Y-1446239D01*
X51772963Y-1438550D01*
X51720169Y-1392783D01*
X51700500Y-1325767D01*
X51700500Y870168D01*
X51720185Y937207D01*
X51736815Y957845D01*
X52137425Y1358456D01*
X52198746Y1391939D01*
X52268437Y1386955D01*
X52318818Y1351975D01*
X52401951Y1256033D01*
X52510931Y1185996D01*
X52635225Y1149501D01*
X52635227Y1149500D01*
X52635228Y1149500D01*
X52764773Y1149500D01*
X52764773Y1149501D01*
X52889069Y1185996D01*
X52998049Y1256033D01*
X53082882Y1353937D01*
X53136697Y1471774D01*
X53155133Y1600000D01*
X53136697Y1728226D01*
X53120087Y1764595D01*
X53110145Y1833752D01*
X53139171Y1897307D01*
X53145187Y1903770D01*
X54388320Y3146903D01*
X54449642Y3180386D01*
X54519334Y3175402D01*
G37*
G04 #@! TD.AperFunction*
G04 #@! TA.AperFunction,Conductor*
G36*
X51389748Y-4675498D02*
G01*
X51389749Y-4675499D01*
X51468873Y-4675499D01*
X52709166Y-4675499D01*
X52776205Y-4695184D01*
X52796847Y-4711818D01*
X53150361Y-5065332D01*
X53183846Y-5126655D01*
X53185619Y-5169196D01*
X53179500Y-5215680D01*
X53179500Y-5564316D01*
X53185931Y-5613172D01*
X53186689Y-5615771D01*
X53186682Y-5618878D01*
X53187170Y-5622579D01*
X53186675Y-5622644D01*
X53186551Y-5685641D01*
X53148660Y-5744344D01*
X53085047Y-5773243D01*
X53032709Y-5769447D01*
X52964774Y-5749500D01*
X52964772Y-5749500D01*
X52835228Y-5749500D01*
X52835226Y-5749500D01*
X52710935Y-5785994D01*
X52710932Y-5785995D01*
X52710931Y-5785996D01*
X52628886Y-5838723D01*
X52601951Y-5856033D01*
X52601949Y-5856034D01*
X52590708Y-5869007D01*
X52531929Y-5906779D01*
X52468948Y-5906841D01*
X52468893Y-5907266D01*
X52465692Y-5906844D01*
X52462303Y-5906848D01*
X52459489Y-5906028D01*
X52409901Y-5899500D01*
X51990105Y-5899500D01*
X51974386Y-5901569D01*
X51940513Y-5906028D01*
X51940511Y-5906029D01*
X51940509Y-5906029D01*
X51872202Y-5937882D01*
X51819797Y-5949500D01*
X51630203Y-5949500D01*
X51577799Y-5937882D01*
X51512142Y-5907266D01*
X51509485Y-5906027D01*
X51509487Y-5906027D01*
X51459901Y-5899500D01*
X51040105Y-5899500D01*
X51024386Y-5901569D01*
X50990513Y-5906028D01*
X50990511Y-5906029D01*
X50990509Y-5906029D01*
X50922202Y-5937882D01*
X50869797Y-5949500D01*
X50774500Y-5949500D01*
X50707461Y-5929815D01*
X50661706Y-5877011D01*
X50650500Y-5825501D01*
X50650499Y-5661601D01*
X50650498Y-5661596D01*
X50635240Y-5584883D01*
X50635239Y-5584881D01*
X50635238Y-5584878D01*
X50624555Y-5568891D01*
X50603676Y-5502214D01*
X50622160Y-5434833D01*
X50624517Y-5431164D01*
X50635240Y-5415117D01*
X50650499Y-5338404D01*
X50650500Y-5338404D01*
X50650500Y-5274500D01*
X50670185Y-5207461D01*
X50722989Y-5161706D01*
X50774500Y-5150500D01*
X50864773Y-5150500D01*
X50864773Y-5150499D01*
X50989069Y-5114004D01*
X51098049Y-5043967D01*
X51182882Y-4946063D01*
X51236697Y-4828226D01*
X51243652Y-4779845D01*
X51272676Y-4716292D01*
X51331453Y-4678517D01*
X51382582Y-4674555D01*
X51389748Y-4675498D01*
G37*
G04 #@! TD.AperFunction*
G04 #@! TA.AperFunction,Conductor*
G36*
X44506175Y-4058919D02*
G01*
X44544415Y-4117395D01*
X44548158Y-4155507D01*
X44549500Y-4155507D01*
X44549500Y-4338398D01*
X44564760Y-4415119D01*
X44575446Y-4431111D01*
X44596323Y-4497788D01*
X44577837Y-4565168D01*
X44575446Y-4568889D01*
X44564759Y-4584882D01*
X44549500Y-4661596D01*
X44549500Y-4838398D01*
X44564760Y-4915119D01*
X44575446Y-4931111D01*
X44596323Y-4997788D01*
X44577837Y-5065168D01*
X44575446Y-5068889D01*
X44564759Y-5084882D01*
X44549500Y-5161596D01*
X44549500Y-5326276D01*
X44529815Y-5393315D01*
X44477011Y-5439070D01*
X44407853Y-5449014D01*
X44358463Y-5430592D01*
X44289069Y-5385996D01*
X44289065Y-5385994D01*
X44289064Y-5385994D01*
X44164774Y-5349500D01*
X44164772Y-5349500D01*
X44035228Y-5349500D01*
X44035226Y-5349500D01*
X43910933Y-5385994D01*
X43910932Y-5385994D01*
X43891538Y-5398459D01*
X43824499Y-5418143D01*
X43757460Y-5398458D01*
X43711705Y-5345653D01*
X43700500Y-5294143D01*
X43700500Y-4224499D01*
X43720185Y-4157460D01*
X43772989Y-4111705D01*
X43824495Y-4100499D01*
X44209900Y-4100499D01*
X44259487Y-4093972D01*
X44368316Y-4043224D01*
X44368319Y-4043220D01*
X44373313Y-4040892D01*
X44442390Y-4030400D01*
X44506175Y-4058919D01*
G37*
G04 #@! TD.AperFunction*
G04 #@! TA.AperFunction,Conductor*
G36*
X42312708Y-3070185D02*
G01*
X42358463Y-3122989D01*
X42368407Y-3192147D01*
X42341782Y-3250447D01*
X42342157Y-3250710D01*
X42340734Y-3252741D01*
X42339382Y-3255703D01*
X42336474Y-3258825D01*
X42335936Y-3259594D01*
X42335935Y-3259595D01*
X42335935Y-3259596D01*
X42334967Y-3261672D01*
X42285931Y-3366828D01*
X42279500Y-3415683D01*
X42279500Y-3525500D01*
X42259815Y-3592539D01*
X42207011Y-3638294D01*
X42155500Y-3649500D01*
X42035226Y-3649500D01*
X41910935Y-3685994D01*
X41910932Y-3685995D01*
X41910931Y-3685996D01*
X41877531Y-3707461D01*
X41801950Y-3756033D01*
X41717118Y-3853937D01*
X41717117Y-3853938D01*
X41663302Y-3971774D01*
X41644867Y-4100000D01*
X41654044Y-4163828D01*
X41644100Y-4232987D01*
X41598345Y-4285791D01*
X41531306Y-4305475D01*
X41464266Y-4285790D01*
X41443625Y-4269156D01*
X41370404Y-4195935D01*
X41343143Y-4183223D01*
X41263173Y-4145932D01*
X41263171Y-4145931D01*
X41263172Y-4145931D01*
X41214317Y-4139500D01*
X41214316Y-4139500D01*
X40765684Y-4139500D01*
X40765683Y-4139500D01*
X40716824Y-4145932D01*
X40709198Y-4148155D01*
X40639329Y-4148016D01*
X40580626Y-4110125D01*
X40551727Y-4046512D01*
X40550500Y-4029109D01*
X40550500Y-3437965D01*
X40570185Y-3370926D01*
X40586819Y-3350284D01*
X40681401Y-3255703D01*
X40810490Y-3126614D01*
X40810490Y-3126613D01*
X40820699Y-3116405D01*
X40820703Y-3116399D01*
X40850288Y-3086816D01*
X40911612Y-3053333D01*
X40937966Y-3050500D01*
X42245669Y-3050500D01*
X42312708Y-3070185D01*
G37*
G04 #@! TD.AperFunction*
G04 #@! TA.AperFunction,Conductor*
G36*
X41400000Y-2100000D02*
G01*
X43062897Y-2100000D01*
X43049717Y-2113180D01*
X42988394Y-2146666D01*
X42962035Y-2149500D01*
X41366486Y-2149500D01*
X41299447Y-2129815D01*
X41253692Y-2077011D01*
X41243748Y-2007853D01*
X41253496Y-1975133D01*
X41254068Y-1973172D01*
X41260500Y-1924316D01*
X41260500Y-1845559D01*
X41280185Y-1778520D01*
X41285235Y-1771336D01*
X41285478Y-1770914D01*
X41285480Y-1770913D01*
X41289464Y-1764012D01*
X41338207Y-1679587D01*
X41365500Y-1577727D01*
X41365500Y-996543D01*
X41385185Y-929504D01*
X41400000Y-911118D01*
X41400000Y-2100000D01*
G37*
G04 #@! TD.AperFunction*
G04 #@! TA.AperFunction,Conductor*
G36*
X42625544Y4050929D02*
G01*
X42681477Y4009057D01*
X42703376Y3961105D01*
X42710397Y3928826D01*
X42712890Y3918628D01*
X42712891Y3918625D01*
X42755899Y3837917D01*
X42755901Y3837914D01*
X42801660Y3785105D01*
X42807255Y3779395D01*
X42819246Y3767157D01*
X42819247Y3767156D01*
X42819249Y3767155D01*
X42899059Y3722512D01*
X42899063Y3722510D01*
X42966102Y3702825D01*
X43024000Y3694500D01*
X43024004Y3694500D01*
X45550500Y3694500D01*
X45617539Y3674815D01*
X45663294Y3622011D01*
X45674500Y3570500D01*
X45674500Y3560913D01*
X45661902Y3506455D01*
X45659427Y3501393D01*
X45659425Y3501389D01*
X45649500Y3433261D01*
X45649500Y2341740D01*
X45659426Y2273609D01*
X45659427Y2273607D01*
X45684172Y2222989D01*
X45705697Y2178960D01*
X45717456Y2110087D01*
X45690112Y2045790D01*
X45632348Y2006483D01*
X45594296Y2000500D01*
X45060438Y2000500D01*
X45009486Y1986848D01*
X44984010Y1980021D01*
X44958126Y1965077D01*
X44925305Y1946127D01*
X44920535Y1943374D01*
X44915486Y1940459D01*
X44615489Y1640460D01*
X44559541Y1584513D01*
X44559535Y1584505D01*
X44519982Y1515996D01*
X44519979Y1515991D01*
X44499500Y1439561D01*
X44499500Y-812611D01*
X44479815Y-879650D01*
X44469214Y-893812D01*
X44417120Y-953932D01*
X44417117Y-953938D01*
X44363302Y-1071774D01*
X44344867Y-1200000D01*
X44360586Y-1309330D01*
X44355022Y-1348025D01*
X44392149Y-1391390D01*
X44417118Y-1446063D01*
X44464622Y-1500887D01*
X44501951Y-1543967D01*
X44556419Y-1578971D01*
X44602173Y-1631774D01*
X44612117Y-1700932D01*
X44583093Y-1764488D01*
X44577060Y-1770967D01*
X44372180Y-1975847D01*
X44310857Y-2009332D01*
X44241165Y-2004348D01*
X44185232Y-1962476D01*
X44160815Y-1897012D01*
X44160499Y-1888192D01*
X44160499Y-1490100D01*
X44156416Y-1459084D01*
X44162274Y-1421522D01*
X44125466Y-1379382D01*
X44110844Y-1348025D01*
X44103224Y-1331684D01*
X44018316Y-1246776D01*
X44018315Y-1246775D01*
X44009429Y-1240553D01*
X44011692Y-1237321D01*
X43974606Y-1204617D01*
X43955500Y-1138487D01*
X43955500Y-912052D01*
X43968099Y-857592D01*
X43979478Y-834316D01*
X43995573Y-801393D01*
X44005500Y-733260D01*
X44005500Y683260D01*
X44003291Y698418D01*
X43995573Y751392D01*
X43994329Y753937D01*
X43944198Y856483D01*
X43944196Y856485D01*
X43944196Y856486D01*
X43861485Y939197D01*
X43756391Y990574D01*
X43688261Y1000500D01*
X43688260Y1000500D01*
X43321740Y1000500D01*
X43321739Y1000500D01*
X43253608Y990574D01*
X43200000Y964367D01*
X43200000Y2200000D01*
X41400000Y2200000D01*
X41400000Y860682D01*
X41321485Y939197D01*
X41216391Y990574D01*
X41148261Y1000500D01*
X41148260Y1000500D01*
X40781740Y1000500D01*
X40781739Y1000500D01*
X40713608Y990574D01*
X40608514Y939197D01*
X40525803Y856486D01*
X40474426Y751392D01*
X40464500Y683261D01*
X40464500Y-733260D01*
X40474426Y-801391D01*
X40525801Y-906482D01*
X40525802Y-906483D01*
X40528178Y-908859D01*
X40530391Y-912911D01*
X40531773Y-914847D01*
X40531539Y-915013D01*
X40561665Y-970179D01*
X40564500Y-996543D01*
X40564500Y-1108020D01*
X40544815Y-1175059D01*
X40492907Y-1220401D01*
X40459596Y-1235934D01*
X40375935Y-1319595D01*
X40325931Y-1426828D01*
X40319500Y-1475683D01*
X40319500Y-1883035D01*
X40299815Y-1950074D01*
X40247011Y-1995829D01*
X40177853Y-2005773D01*
X40114297Y-1976748D01*
X40107819Y-1970716D01*
X39476616Y-1339513D01*
X39476614Y-1339511D01*
X39424339Y-1309330D01*
X39373888Y-1280201D01*
X39361780Y-1276957D01*
X39349673Y-1273713D01*
X39349670Y-1273712D01*
X39311478Y-1263478D01*
X39259309Y-1249500D01*
X39259308Y-1249500D01*
X38796984Y-1249500D01*
X38744579Y-1237882D01*
X38707091Y-1220401D01*
X38633173Y-1185932D01*
X38633171Y-1185931D01*
X38633172Y-1185931D01*
X38595313Y-1180947D01*
X38531417Y-1152680D01*
X38492947Y-1094355D01*
X38487500Y-1058008D01*
X38487500Y-942154D01*
X38507185Y-875115D01*
X38511730Y-868520D01*
X38552793Y-812882D01*
X38580654Y-733260D01*
X38597646Y-684701D01*
X38597646Y-684699D01*
X38600500Y-654269D01*
X38600500Y-45730D01*
X38597646Y-15300D01*
X38597646Y-15298D01*
X38552793Y112881D01*
X38552792Y112883D01*
X38547281Y120350D01*
X38472150Y222150D01*
X38362882Y302793D01*
X38362880Y302794D01*
X38234700Y347647D01*
X38204270Y350500D01*
X38204266Y350500D01*
X37817255Y350500D01*
X37750216Y370185D01*
X37729574Y386819D01*
X37591074Y525319D01*
X37557589Y586642D01*
X37562573Y656334D01*
X37604445Y712267D01*
X37669909Y736684D01*
X37678755Y737000D01*
X39070500Y737000D01*
X39137539Y717315D01*
X39183294Y664511D01*
X39194500Y613000D01*
X39194500Y-733260D01*
X39204426Y-801391D01*
X39255803Y-906485D01*
X39338514Y-989196D01*
X39338515Y-989196D01*
X39338517Y-989198D01*
X39443607Y-1040573D01*
X39468487Y-1044198D01*
X39511739Y-1050500D01*
X39511740Y-1050500D01*
X39878261Y-1050500D01*
X39900971Y-1047191D01*
X39946393Y-1040573D01*
X40051483Y-989198D01*
X40134198Y-906483D01*
X40185573Y-801393D01*
X40195500Y-733260D01*
X40195500Y683260D01*
X40193291Y698418D01*
X40185573Y751392D01*
X40184329Y753937D01*
X40134198Y856483D01*
X40134196Y856485D01*
X40134196Y856486D01*
X40051485Y939197D01*
X39946391Y990574D01*
X39878261Y1000500D01*
X39878260Y1000500D01*
X39771963Y1000500D01*
X39704924Y1020185D01*
X39659169Y1072989D01*
X39649225Y1142147D01*
X39678250Y1205703D01*
X39684282Y1212181D01*
X40813841Y2341740D01*
X42494531Y4022430D01*
X42555852Y4055913D01*
X42625544Y4050929D01*
G37*
G04 #@! TD.AperFunction*
G04 #@! TA.AperFunction,Conductor*
G36*
X48974696Y1379815D02*
G01*
X49001369Y1356704D01*
X49001949Y1356035D01*
X49001951Y1356033D01*
X49110931Y1285996D01*
X49235225Y1249501D01*
X49235227Y1249500D01*
X49373640Y1249500D01*
X49373640Y1246231D01*
X49426977Y1238578D01*
X49479795Y1192839D01*
X49499500Y1125805D01*
X49499500Y187389D01*
X49479815Y120350D01*
X49469214Y106188D01*
X49417120Y46068D01*
X49417117Y46062D01*
X49363302Y-71774D01*
X49345852Y-193147D01*
X49316827Y-256703D01*
X49258049Y-294477D01*
X49223114Y-299500D01*
X49080247Y-299500D01*
X49021770Y-311131D01*
X49021769Y-311132D01*
X48955447Y-355447D01*
X48911132Y-421769D01*
X48911131Y-421770D01*
X48899500Y-480247D01*
X48899500Y-1323307D01*
X48879815Y-1390346D01*
X48827011Y-1436101D01*
X48757853Y-1446045D01*
X48723096Y-1435689D01*
X48659486Y-1406027D01*
X48609902Y-1399500D01*
X48609901Y-1399500D01*
X48522935Y-1399500D01*
X48455896Y-1379815D01*
X48435254Y-1363181D01*
X47846505Y-774432D01*
X47821393Y-738266D01*
X47782882Y-653937D01*
X47698049Y-556033D01*
X47589069Y-485996D01*
X47589065Y-485994D01*
X47589064Y-485994D01*
X47464774Y-449500D01*
X47464772Y-449500D01*
X47335228Y-449500D01*
X47335226Y-449500D01*
X47210933Y-485994D01*
X47210932Y-485994D01*
X47160779Y-518226D01*
X47093740Y-537910D01*
X47026700Y-518225D01*
X47006060Y-501591D01*
X46980404Y-475935D01*
X46923714Y-449500D01*
X46873173Y-425932D01*
X46873171Y-425931D01*
X46873172Y-425931D01*
X46824317Y-419500D01*
X46824316Y-419500D01*
X46641189Y-419500D01*
X46574150Y-399815D01*
X46553508Y-383181D01*
X46509864Y-339537D01*
X46509862Y-339535D01*
X46448957Y-304371D01*
X46443663Y-300000D01*
X48900000Y-300000D01*
X48900000Y1300000D01*
X45400000Y1300000D01*
X45400000Y-300000D01*
X45763853Y-300000D01*
X45717118Y-353937D01*
X45717117Y-353938D01*
X45663302Y-471774D01*
X45644867Y-600000D01*
X45663302Y-728225D01*
X45717117Y-846061D01*
X45717118Y-846063D01*
X45758913Y-894298D01*
X45787937Y-957854D01*
X45777993Y-1027013D01*
X45732237Y-1079816D01*
X45665199Y-1099500D01*
X45329049Y-1099500D01*
X45262010Y-1079815D01*
X45216255Y-1027012D01*
X45194953Y-980368D01*
X45182882Y-953937D01*
X45182880Y-953935D01*
X45182879Y-953932D01*
X45130786Y-893812D01*
X45101762Y-830256D01*
X45100500Y-812611D01*
X45100500Y1224167D01*
X45120185Y1291206D01*
X45136819Y1311848D01*
X45188152Y1363181D01*
X45249475Y1396666D01*
X45275833Y1399500D01*
X48907657Y1399500D01*
X48974696Y1379815D01*
G37*
G04 #@! TD.AperFunction*
G04 #@! TA.AperFunction,Conductor*
G36*
X52915613Y8279815D02*
G01*
X52961368Y8227011D01*
X52971312Y8157853D01*
X52965164Y8136920D01*
X52965801Y8136733D01*
X52963302Y8128227D01*
X52944867Y8000000D01*
X52963302Y7871775D01*
X52963303Y7871771D01*
X52978582Y7838317D01*
X52988526Y7769158D01*
X52966706Y7714753D01*
X52960803Y7706487D01*
X52909426Y7601392D01*
X52899500Y7533261D01*
X52899500Y6066740D01*
X52909426Y5998609D01*
X52960803Y5893515D01*
X53043514Y5810804D01*
X53043515Y5810804D01*
X53043517Y5810802D01*
X53148607Y5759427D01*
X53177646Y5755196D01*
X53216739Y5749500D01*
X53216740Y5749500D01*
X53583259Y5749500D01*
X53583260Y5749500D01*
X53634623Y5756984D01*
X53703798Y5747172D01*
X53756688Y5701517D01*
X53776500Y5634515D01*
X53776500Y3898833D01*
X53756815Y3831794D01*
X53740181Y3811152D01*
X51912181Y1983152D01*
X51850858Y1949667D01*
X51781166Y1954651D01*
X51725233Y1996523D01*
X51700816Y2061987D01*
X51700500Y2070833D01*
X51700500Y7724167D01*
X51720185Y7791206D01*
X51736819Y7811848D01*
X52188152Y8263181D01*
X52249475Y8296666D01*
X52275833Y8299500D01*
X52848574Y8299500D01*
X52915613Y8279815D01*
G37*
G04 #@! TD.AperFunction*
G04 #@! TA.AperFunction,Conductor*
G36*
X47613988Y10154815D02*
G01*
X47634630Y10138181D01*
X47655630Y10117181D01*
X47689115Y10055858D01*
X47684131Y9986166D01*
X47642259Y9930233D01*
X47576795Y9905816D01*
X47567949Y9905500D01*
X46423992Y9905500D01*
X46380313Y9900803D01*
X46328825Y9889603D01*
X46318627Y9887110D01*
X46318624Y9887109D01*
X46237916Y9844101D01*
X46237913Y9844099D01*
X46185104Y9798340D01*
X46167160Y9780758D01*
X46167154Y9780751D01*
X46122511Y9700941D01*
X46122509Y9700936D01*
X46102826Y9633904D01*
X46094500Y9575997D01*
X46094500Y5623993D01*
X46099197Y5580314D01*
X46110397Y5528826D01*
X46112890Y5518628D01*
X46112891Y5518625D01*
X46155899Y5437917D01*
X46155901Y5437914D01*
X46201660Y5385105D01*
X46204641Y5382063D01*
X46219246Y5367157D01*
X46219247Y5367156D01*
X46219249Y5367155D01*
X46299059Y5322512D01*
X46299063Y5322510D01*
X46366102Y5302825D01*
X46424000Y5294500D01*
X47470500Y5294500D01*
X47537539Y5274815D01*
X47583294Y5222011D01*
X47594500Y5170500D01*
X47594500Y4984500D01*
X47574815Y4917461D01*
X47522011Y4871706D01*
X47470500Y4860500D01*
X47220105Y4860500D01*
X47170511Y4853972D01*
X47148489Y4843703D01*
X47134368Y4837118D01*
X47081965Y4825500D01*
X46843372Y4825500D01*
X46790967Y4837118D01*
X46781836Y4841376D01*
X46733173Y4864068D01*
X46733171Y4864069D01*
X46733172Y4864069D01*
X46684317Y4870500D01*
X46684316Y4870500D01*
X46335684Y4870500D01*
X46335683Y4870500D01*
X46286827Y4864069D01*
X46286826Y4864069D01*
X46177308Y4812999D01*
X46108231Y4802507D01*
X46044447Y4831027D01*
X46006208Y4889504D01*
X46001615Y4912126D01*
X46000803Y4919684D01*
X46000280Y4922087D01*
X45989602Y4971175D01*
X45988694Y4974889D01*
X45987110Y4981373D01*
X45944100Y5062085D01*
X45898345Y5114889D01*
X45898339Y5114896D01*
X45880757Y5132840D01*
X45880756Y5132841D01*
X45880754Y5132843D01*
X45880752Y5132844D01*
X45880750Y5132846D01*
X45800940Y5177489D01*
X45800935Y5177491D01*
X45733903Y5197174D01*
X45733899Y5197175D01*
X45733898Y5197175D01*
X45676000Y5205500D01*
X45675996Y5205500D01*
X45529500Y5205500D01*
X45462461Y5225185D01*
X45416706Y5277989D01*
X45405500Y5329500D01*
X45405500Y7398535D01*
X45425185Y7465574D01*
X45474858Y7508617D01*
X45474525Y7509241D01*
X45477263Y7510701D01*
X45477989Y7511329D01*
X45480107Y7512217D01*
X45481367Y7512889D01*
X45481373Y7512890D01*
X45562085Y7555900D01*
X45614889Y7601655D01*
X45632843Y7619246D01*
X45677490Y7699063D01*
X45697175Y7766102D01*
X45705500Y7824000D01*
X45705500Y9676000D01*
X45700803Y9719684D01*
X45696897Y9737636D01*
X45689602Y9771175D01*
X45689348Y9772211D01*
X45687110Y9781373D01*
X45644100Y9862085D01*
X45598345Y9914889D01*
X45598339Y9914896D01*
X45580757Y9932840D01*
X45580756Y9932841D01*
X45580754Y9932843D01*
X45580752Y9932844D01*
X45580750Y9932846D01*
X45563883Y9942280D01*
X45514984Y9992187D01*
X45500830Y10060608D01*
X45525913Y10125819D01*
X45582271Y10167118D01*
X45624417Y10174500D01*
X47546949Y10174500D01*
X47613988Y10154815D01*
G37*
G04 #@! TD.AperFunction*
G04 #@! TA.AperFunction,Conductor*
G36*
X35400000Y5037766D02*
G01*
X35333897Y5057176D01*
X35275228Y5065612D01*
X35211673Y5094638D01*
X35173900Y5153417D01*
X35173902Y5223287D01*
X35211677Y5282064D01*
X35238415Y5299748D01*
X35281483Y5320802D01*
X35364198Y5403517D01*
X35400000Y5476752D01*
X35400000Y5037766D01*
G37*
G04 #@! TD.AperFunction*
G04 #@! TA.AperFunction,Conductor*
G36*
X58831707Y7379815D02*
G01*
X58852349Y7363182D01*
X58919596Y7295935D01*
X58919597Y7295935D01*
X58927267Y7288265D01*
X58924443Y7285442D01*
X58955183Y7246958D01*
X58962352Y7177458D01*
X58930808Y7115114D01*
X58927101Y7111902D01*
X58927267Y7111736D01*
X58835935Y7020405D01*
X58785931Y6913172D01*
X58779500Y6864317D01*
X58779500Y6515684D01*
X58785931Y6466829D01*
X58815777Y6402825D01*
X58835935Y6359596D01*
X58919596Y6275935D01*
X59026827Y6225932D01*
X59075683Y6219500D01*
X59075684Y6219500D01*
X59524317Y6219500D01*
X59540601Y6221644D01*
X59573173Y6225932D01*
X59680404Y6275935D01*
X59764065Y6359596D01*
X59814068Y6466827D01*
X59820500Y6515684D01*
X59820500Y6698811D01*
X59840185Y6765850D01*
X59856819Y6786492D01*
X60222906Y7152579D01*
X60284229Y7186064D01*
X60353921Y7181080D01*
X60409854Y7139208D01*
X60434271Y7073744D01*
X60434587Y7064952D01*
X60435316Y5382063D01*
X60415660Y5315015D01*
X60362876Y5269237D01*
X60310404Y5258012D01*
X55963392Y5289976D01*
X55896499Y5310153D01*
X55851134Y5363292D01*
X55841699Y5432522D01*
X55871191Y5495863D01*
X55876614Y5501645D01*
X56105073Y5730105D01*
X56143641Y5753354D01*
X56142741Y5755196D01*
X56256482Y5810801D01*
X56339196Y5893515D01*
X56339198Y5893517D01*
X56390573Y5998607D01*
X56400500Y6066740D01*
X56400500Y6994144D01*
X56420185Y7061183D01*
X56472989Y7106938D01*
X56542147Y7116882D01*
X56591537Y7098460D01*
X56610931Y7085996D01*
X56610934Y7085995D01*
X56610933Y7085995D01*
X56735225Y7049501D01*
X56735227Y7049500D01*
X56735228Y7049500D01*
X56864773Y7049500D01*
X56864773Y7049501D01*
X56989069Y7085996D01*
X57098049Y7156033D01*
X57182882Y7253937D01*
X57208644Y7310347D01*
X57216255Y7327012D01*
X57262010Y7379816D01*
X57329049Y7399500D01*
X58764668Y7399500D01*
X58831707Y7379815D01*
G37*
G04 #@! TD.AperFunction*
G04 #@! TA.AperFunction,Conductor*
G36*
X37700000Y5360000D02*
G01*
X37595681Y5360000D01*
X37639198Y5403517D01*
X37690573Y5508607D01*
X37700000Y5573309D01*
X37700000Y5360000D01*
G37*
G04 #@! TD.AperFunction*
G04 #@! TA.AperFunction,Conductor*
G36*
X37700000Y5946692D02*
G01*
X37690573Y6011393D01*
X37639198Y6116483D01*
X37639196Y6116485D01*
X37639196Y6116486D01*
X37572863Y6182819D01*
X37539378Y6244142D01*
X37544362Y6313834D01*
X37586234Y6369767D01*
X37651698Y6394184D01*
X37660544Y6394500D01*
X37700000Y6394500D01*
X37700000Y5946692D01*
G37*
G04 #@! TD.AperFunction*
G04 #@! TA.AperFunction,Conductor*
G36*
X39877539Y8679815D02*
G01*
X39923294Y8627011D01*
X39934500Y8575500D01*
X39934500Y8029500D01*
X39914815Y7962461D01*
X39862011Y7916706D01*
X39810500Y7905500D01*
X37623992Y7905500D01*
X37580313Y7900803D01*
X37528825Y7889603D01*
X37518627Y7887110D01*
X37518624Y7887109D01*
X37437916Y7844101D01*
X37437913Y7844099D01*
X37385104Y7798340D01*
X37367160Y7780758D01*
X37367154Y7780751D01*
X37322511Y7700941D01*
X37319811Y7694513D01*
X37317487Y7695490D01*
X37286008Y7646518D01*
X37222450Y7617499D01*
X37188634Y7617299D01*
X37173256Y7619323D01*
X37164316Y7620500D01*
X36815684Y7620500D01*
X36815683Y7620500D01*
X36766828Y7614069D01*
X36659595Y7564065D01*
X36575935Y7480405D01*
X36525931Y7373172D01*
X36519500Y7324317D01*
X36519500Y7317966D01*
X36499815Y7250927D01*
X36483181Y7230285D01*
X36477012Y7224117D01*
X36417701Y7121388D01*
X36417700Y7121383D01*
X36387000Y7006809D01*
X36387000Y6460000D01*
X35400000Y6460000D01*
X35400000Y6043249D01*
X35364198Y6116483D01*
X35364196Y6116485D01*
X35364196Y6116486D01*
X35281485Y6199197D01*
X35176391Y6250574D01*
X35108261Y6260500D01*
X35108260Y6260500D01*
X34016740Y6260500D01*
X34014260Y6260500D01*
X33947221Y6280185D01*
X33901466Y6332989D01*
X33890260Y6384500D01*
X33890260Y7051605D01*
X33909945Y7118644D01*
X33962749Y7164399D01*
X34031907Y7174343D01*
X34066658Y7163990D01*
X34126827Y7135932D01*
X34163469Y7131108D01*
X34175683Y7129500D01*
X34175684Y7129500D01*
X34624317Y7129500D01*
X34640601Y7131644D01*
X34673173Y7135932D01*
X34780404Y7185935D01*
X34807650Y7213181D01*
X34868973Y7246666D01*
X34895331Y7249500D01*
X35266289Y7249500D01*
X35285686Y7247974D01*
X35298574Y7245932D01*
X35370750Y7234500D01*
X35370754Y7234500D01*
X35949251Y7234500D01*
X36047417Y7250048D01*
X36047418Y7250049D01*
X36047420Y7250049D01*
X36165751Y7310342D01*
X36259658Y7404249D01*
X36319951Y7522580D01*
X36319951Y7522582D01*
X36319952Y7522583D01*
X36335500Y7620749D01*
X36335500Y8112500D01*
X36355185Y8179539D01*
X36407989Y8225294D01*
X36459500Y8236500D01*
X38889725Y8236500D01*
X38889727Y8236500D01*
X38991588Y8263793D01*
X39082913Y8316520D01*
X39429574Y8663181D01*
X39490897Y8696666D01*
X39517255Y8699500D01*
X39810500Y8699500D01*
X39877539Y8679815D01*
G37*
G04 #@! TD.AperFunction*
G04 #@! TA.AperFunction,Conductor*
G36*
X59811965Y11417232D02*
G01*
X59837122Y11414642D01*
X59955798Y11389998D01*
X59981419Y11381689D01*
X59995187Y11375500D01*
X60089963Y11332900D01*
X60113187Y11319254D01*
X60208645Y11248166D01*
X60228366Y11229833D01*
X60261533Y11191481D01*
X60306215Y11139814D01*
X60321515Y11117650D01*
X60330888Y11100302D01*
X60378086Y11012943D01*
X60388240Y10987994D01*
X60420863Y10873546D01*
X60425390Y10846989D01*
X60432782Y10723931D01*
X60433005Y10716536D01*
X60433007Y10710316D01*
X60432859Y10704229D01*
X60431047Y10667133D01*
X60432102Y10657430D01*
X60431164Y10657329D01*
X60433037Y10643320D01*
X60433668Y9187117D01*
X60414012Y9120069D01*
X60361228Y9074291D01*
X60292074Y9064318D01*
X60228506Y9093315D01*
X60221987Y9099382D01*
X59856819Y9464550D01*
X59823334Y9525873D01*
X59820500Y9552231D01*
X59820500Y9884317D01*
X59814068Y9933172D01*
X59793402Y9977490D01*
X59764065Y10040404D01*
X59680404Y10124065D01*
X59573173Y10174068D01*
X59573171Y10174069D01*
X59573172Y10174069D01*
X59524317Y10180500D01*
X59524316Y10180500D01*
X59075684Y10180500D01*
X59075683Y10180500D01*
X59026828Y10174069D01*
X58919595Y10124065D01*
X58835935Y10040405D01*
X58785931Y9933172D01*
X58779500Y9884317D01*
X58779500Y9535684D01*
X58785931Y9486829D01*
X58835935Y9379596D01*
X58927267Y9288264D01*
X58924443Y9285441D01*
X58955183Y9246958D01*
X58962352Y9177458D01*
X58930808Y9115114D01*
X58927101Y9111902D01*
X58927267Y9111736D01*
X58835935Y9020405D01*
X58785931Y8913172D01*
X58779500Y8864317D01*
X58779500Y8645833D01*
X58759815Y8578794D01*
X58743181Y8558152D01*
X58611848Y8426819D01*
X58550525Y8393334D01*
X58524167Y8390500D01*
X54850438Y8390500D01*
X54813204Y8380523D01*
X54774009Y8370021D01*
X54766501Y8366910D01*
X54765156Y8370156D01*
X54712811Y8357554D01*
X54646825Y8380523D01*
X54631249Y8393722D01*
X54184514Y8840458D01*
X54184511Y8840460D01*
X54176963Y8844818D01*
X54176963Y8844819D01*
X54115989Y8880021D01*
X54115990Y8880021D01*
X54090513Y8886848D01*
X54039562Y8900500D01*
X52060438Y8900500D01*
X52009486Y8886848D01*
X51984010Y8880021D01*
X51923036Y8844819D01*
X51923037Y8844818D01*
X51915488Y8840460D01*
X51915485Y8840458D01*
X51215489Y8140460D01*
X51159541Y8084513D01*
X51159535Y8084505D01*
X51119982Y8015996D01*
X51119979Y8015991D01*
X51099500Y7939561D01*
X51099500Y7893327D01*
X51079815Y7826288D01*
X51027011Y7780533D01*
X50957853Y7770589D01*
X50894297Y7799614D01*
X50887819Y7805646D01*
X47933002Y10760463D01*
X47933000Y10760465D01*
X47894952Y10782432D01*
X47858778Y10803318D01*
X47817384Y10814409D01*
X47775991Y10825500D01*
X47775990Y10825500D01*
X44286189Y10825500D01*
X44219150Y10845185D01*
X44198508Y10861819D01*
X43847920Y11212407D01*
X43814435Y11273730D01*
X43819419Y11343422D01*
X43861291Y11399355D01*
X43926755Y11423772D01*
X43935638Y11424088D01*
X59811965Y11417232D01*
G37*
G04 #@! TD.AperFunction*
G04 #@! TA.AperFunction,Conductor*
G36*
X39110470Y11426171D02*
G01*
X39177500Y11406457D01*
X39223232Y11353634D01*
X39233145Y11284471D01*
X39204093Y11220928D01*
X39198102Y11214495D01*
X39196953Y11213347D01*
X39196951Y11213343D01*
X39139352Y11100302D01*
X39124500Y11006525D01*
X39124500Y10393477D01*
X39135996Y10320897D01*
X39127041Y10251604D01*
X39082045Y10198152D01*
X39015293Y10177513D01*
X39013523Y10177500D01*
X35965064Y10177500D01*
X35869563Y10151911D01*
X35869562Y10151911D01*
X35783308Y10102112D01*
X35721309Y10085500D01*
X35370749Y10085500D01*
X35272582Y10069953D01*
X35214593Y10040405D01*
X35154249Y10009658D01*
X35154248Y10009657D01*
X35154243Y10009654D01*
X35060346Y9915757D01*
X35060343Y9915752D01*
X35060342Y9915751D01*
X35044325Y9884316D01*
X35000047Y9797418D01*
X34984500Y9699252D01*
X34984500Y9195748D01*
X34986852Y9180897D01*
X34977897Y9111604D01*
X34932901Y9058152D01*
X34866149Y9037513D01*
X34864379Y9037500D01*
X34800528Y9037500D01*
X34748123Y9049118D01*
X34673173Y9084068D01*
X34673171Y9084069D01*
X34673172Y9084069D01*
X34624317Y9090500D01*
X34624316Y9090500D01*
X34175684Y9090500D01*
X34175683Y9090500D01*
X34126828Y9084069D01*
X34019595Y9034065D01*
X34017350Y9031819D01*
X34012981Y9029434D01*
X34010710Y9027843D01*
X34010532Y9028097D01*
X33956027Y8998334D01*
X33929669Y8995500D01*
X33675944Y8995500D01*
X33643033Y8986682D01*
X33643033Y8986681D01*
X33580443Y8969910D01*
X33580442Y8969910D01*
X33580440Y8969909D01*
X33490873Y8918197D01*
X33422973Y8901724D01*
X33356946Y8924577D01*
X33313755Y8979498D01*
X33304873Y9025286D01*
X33304794Y9058152D01*
X33300625Y10794602D01*
X33304148Y10824248D01*
X33311237Y10853348D01*
X33331195Y10935276D01*
X33339569Y10958923D01*
X33342001Y10964066D01*
X33391223Y11068176D01*
X33404178Y11089643D01*
X33476781Y11186274D01*
X33493793Y11204692D01*
X33584350Y11284718D01*
X33604729Y11299341D01*
X33709548Y11359501D01*
X33732454Y11369721D01*
X33847230Y11407544D01*
X33871727Y11412944D01*
X33997439Y11427545D01*
X34011794Y11428373D01*
X39110470Y11426171D01*
G37*
G04 #@! TD.AperFunction*
G04 #@! TD*
M02*
