G04 #@! TF.GenerationSoftware,KiCad,Pcbnew,8.0.4*
G04 #@! TF.CreationDate,2024-07-24T18:14:05+02:00*
G04 #@! TF.ProjectId,ESP32-C3-V3,45535033-322d-4433-932d-56332e6b6963,rev?*
G04 #@! TF.SameCoordinates,Original*
G04 #@! TF.FileFunction,Copper,L3,Inr*
G04 #@! TF.FilePolarity,Positive*
%FSLAX46Y46*%
G04 Gerber Fmt 4.6, Leading zero omitted, Abs format (unit mm)*
G04 Created by KiCad (PCBNEW 8.0.4) date 2024-07-24 18:14:05*
%MOMM*%
%LPD*%
G01*
G04 APERTURE LIST*
G04 Aperture macros list*
%AMRoundRect*
0 Rectangle with rounded corners*
0 $1 Rounding radius*
0 $2 $3 $4 $5 $6 $7 $8 $9 X,Y pos of 4 corners*
0 Add a 4 corners polygon primitive as box body*
4,1,4,$2,$3,$4,$5,$6,$7,$8,$9,$2,$3,0*
0 Add four circle primitives for the rounded corners*
1,1,$1+$1,$2,$3*
1,1,$1+$1,$4,$5*
1,1,$1+$1,$6,$7*
1,1,$1+$1,$8,$9*
0 Add four rect primitives between the rounded corners*
20,1,$1+$1,$2,$3,$4,$5,0*
20,1,$1+$1,$4,$5,$6,$7,0*
20,1,$1+$1,$6,$7,$8,$9,0*
20,1,$1+$1,$8,$9,$2,$3,0*%
G04 Aperture macros list end*
G04 #@! TA.AperFunction,ComponentPad*
%ADD10O,2.100000X1.000000*%
G04 #@! TD*
G04 #@! TA.AperFunction,ComponentPad*
%ADD11O,1.800000X1.000000*%
G04 #@! TD*
G04 #@! TA.AperFunction,ComponentPad*
%ADD12RoundRect,0.250000X0.350000X0.625000X-0.350000X0.625000X-0.350000X-0.625000X0.350000X-0.625000X0*%
G04 #@! TD*
G04 #@! TA.AperFunction,ComponentPad*
%ADD13O,1.200000X1.750000*%
G04 #@! TD*
G04 #@! TA.AperFunction,ComponentPad*
%ADD14R,0.500000X0.900000*%
G04 #@! TD*
G04 #@! TA.AperFunction,ViaPad*
%ADD15C,0.500000*%
G04 #@! TD*
G04 #@! TA.AperFunction,Conductor*
%ADD16C,0.200000*%
G04 #@! TD*
G04 #@! TA.AperFunction,Conductor*
%ADD17C,0.250000*%
G04 #@! TD*
G04 APERTURE END LIST*
D10*
G04 #@! TO.N,GND*
G04 #@! TO.C,U1*
X38500000Y-3090000D03*
D11*
X34320000Y-3090000D03*
D10*
X38500000Y-11730000D03*
D11*
X34320000Y-11730000D03*
G04 #@! TD*
D12*
G04 #@! TO.N,Earth*
G04 #@! TO.C,J2*
X46900000Y8750000D03*
D13*
G04 #@! TO.N,+BATT*
X44900000Y8750000D03*
G04 #@! TD*
D14*
G04 #@! TO.N,GND*
G04 #@! TO.C,AE1*
X55175000Y-9300000D03*
G04 #@! TD*
D15*
G04 #@! TO.N,GND*
X42500000Y-12000000D03*
X51400000Y10300000D03*
X47400000Y1100000D03*
X33600000Y-6500000D03*
X57740000Y-11060000D03*
X47700000Y-6900000D03*
X35700000Y-12055240D03*
X42700000Y1100000D03*
X33550459Y10656566D03*
X46300000Y-6000000D03*
X46300000Y-4200000D03*
X47400000Y0D03*
X47700000Y-5100000D03*
X48700000Y-100000D03*
X38100000Y5500000D03*
X46100000Y5200000D03*
X54300000Y2700000D03*
X48700000Y1100000D03*
X53500000Y-8200000D03*
X46700000Y1100000D03*
X48900000Y-6000000D03*
X37499990Y11177366D03*
X48900000Y-6900000D03*
X48900000Y-4200000D03*
X56339962Y-12000000D03*
X52100000Y-1100000D03*
X52400000Y8000000D03*
X58599986Y11168255D03*
X44519904Y11100000D03*
X35800000Y5300000D03*
X46300000Y-5100000D03*
X41800000Y1100000D03*
X35900000Y4560000D03*
X59779962Y-12000000D03*
X34199904Y11178791D03*
X35700000Y3760000D03*
X44200000Y-5100000D03*
X46700000Y0D03*
X52100000Y-8200000D03*
X45800000Y6700000D03*
X45600000Y1100000D03*
X33600000Y336566D03*
X47700000Y-4200000D03*
X54900000Y11100000D03*
X35800000Y6160000D03*
X41800000Y1800000D03*
X48000000Y11100000D03*
X51599865Y-12041666D03*
X46019962Y-12000000D03*
X54300000Y-11060000D03*
X45600000Y-100000D03*
X56660000Y5600000D03*
X53100000Y3700000D03*
X42700000Y1800000D03*
X46300000Y-6900000D03*
X54300000Y-740000D03*
X48900000Y-5100000D03*
X52900000Y-5200000D03*
X60100000Y5600000D03*
X38100000Y4800000D03*
X44900000Y-10400000D03*
X48400000Y-11600000D03*
X54300000Y-4300000D03*
X33700000Y-10000000D03*
X38100000Y6200000D03*
X51400000Y-9800000D03*
X51400000Y11100000D03*
X41800000Y-3400000D03*
X47700000Y-6000000D03*
X60100000Y9600000D03*
G04 #@! TO.N,EXTI*
X51700000Y-10500000D03*
X50800000Y-4700000D03*
G04 #@! TO.N,+3.3V*
X35000000Y4600000D03*
X40500000Y-6400000D03*
X34300000Y3000000D03*
X34300000Y2300000D03*
X47400000Y-900000D03*
X35000000Y2300000D03*
X60000000Y8200000D03*
X46100000Y-600000D03*
X34300000Y4600000D03*
X35700000Y3000000D03*
X44600000Y-3300000D03*
X35000000Y3000000D03*
X52900000Y-6200000D03*
X34300000Y1600000D03*
X51700000Y-11200000D03*
X35700000Y2300000D03*
X50100000Y-8400000D03*
G04 #@! TO.N,MCU_SCL*
X53400000Y8000000D03*
X56800000Y7500000D03*
G04 #@! TO.N,Net-(U3-GPIO9)*
X49800000Y-200000D03*
X45799999Y-2100000D03*
G04 #@! TO.N,Blau*
X44100000Y-5800000D03*
X47500000Y-8800000D03*
G04 #@! TO.N,Rot*
X46800000Y-8800000D03*
X42100000Y-4100000D03*
G04 #@! TO.N,VCC_Sensor*
X49300000Y1700000D03*
X45100000Y-2500000D03*
X52700000Y1600000D03*
X44800000Y-1200000D03*
G04 #@! TO.N,Net-(R13-Pad2)*
X51900000Y-1900000D03*
X50500000Y1000000D03*
G04 #@! TD*
D16*
G04 #@! TO.N,Blau*
X47500000Y-8792893D02*
X47500000Y-8800000D01*
X46107107Y-7400000D02*
X47500000Y-8792893D01*
X45700000Y-7400000D02*
X46107107Y-7400000D01*
X44100000Y-5800000D02*
X45700000Y-7400000D01*
D17*
G04 #@! TO.N,Net-(R13-Pad2)*
X50800000Y-800000D02*
X50800000Y700000D01*
X51900000Y-1900000D02*
X50800000Y-800000D01*
X50800000Y700000D02*
X50500000Y1000000D01*
G04 #@! TD*
G04 #@! TA.AperFunction,Conductor*
G04 #@! TO.N,+3.3V*
G36*
X36988918Y11427087D02*
G01*
X37055949Y11407373D01*
X37101681Y11354550D01*
X37111594Y11285387D01*
X37111337Y11283690D01*
X37094498Y11177370D01*
X37094498Y11177363D01*
X37114342Y11052066D01*
X37114342Y11052065D01*
X37118986Y11042951D01*
X37171940Y10939024D01*
X37171942Y10939022D01*
X37171944Y10939019D01*
X37261642Y10849321D01*
X37261644Y10849320D01*
X37261648Y10849316D01*
X37374686Y10791720D01*
X37374687Y10791720D01*
X37374689Y10791719D01*
X37499987Y10771874D01*
X37499990Y10771874D01*
X37499993Y10771874D01*
X37625290Y10791719D01*
X37625291Y10791719D01*
X37625292Y10791720D01*
X37625294Y10791720D01*
X37738332Y10849316D01*
X37828040Y10939024D01*
X37885636Y11052062D01*
X37885636Y11052064D01*
X37885637Y11052065D01*
X37885637Y11052066D01*
X37905482Y11177363D01*
X37905482Y11177368D01*
X37889565Y11277865D01*
X37888712Y11283249D01*
X37897666Y11352541D01*
X37942663Y11405993D01*
X38009414Y11426633D01*
X38011127Y11426646D01*
X44033227Y11424046D01*
X44100256Y11404332D01*
X44145989Y11351509D01*
X44155902Y11282346D01*
X44143658Y11243753D01*
X44134257Y11225303D01*
X44134256Y11225301D01*
X44114412Y11100004D01*
X44114412Y11099997D01*
X44134256Y10974700D01*
X44134256Y10974699D01*
X44134258Y10974696D01*
X44191854Y10861658D01*
X44191856Y10861656D01*
X44191858Y10861653D01*
X44281556Y10771955D01*
X44281558Y10771954D01*
X44281562Y10771950D01*
X44394600Y10714354D01*
X44394601Y10714354D01*
X44394603Y10714353D01*
X44519901Y10694508D01*
X44519904Y10694508D01*
X44519907Y10694508D01*
X44645204Y10714353D01*
X44645205Y10714353D01*
X44645206Y10714354D01*
X44645208Y10714354D01*
X44758246Y10771950D01*
X44847954Y10861658D01*
X44905550Y10974696D01*
X44905550Y10974698D01*
X44905551Y10974699D01*
X44905551Y10974700D01*
X44925396Y11099997D01*
X44925396Y11100004D01*
X44905551Y11225301D01*
X44905551Y11225302D01*
X44898022Y11240078D01*
X44896364Y11243331D01*
X44883469Y11311999D01*
X44909745Y11376740D01*
X44966852Y11416997D01*
X45006900Y11423625D01*
X47512558Y11422544D01*
X47579586Y11402831D01*
X47625319Y11350007D01*
X47635232Y11280844D01*
X47622989Y11242253D01*
X47614353Y11225304D01*
X47614352Y11225301D01*
X47594508Y11100004D01*
X47594508Y11099997D01*
X47614352Y10974700D01*
X47614352Y10974699D01*
X47614354Y10974696D01*
X47671950Y10861658D01*
X47671952Y10861656D01*
X47671954Y10861653D01*
X47761652Y10771955D01*
X47761654Y10771954D01*
X47761658Y10771950D01*
X47874696Y10714354D01*
X47874697Y10714354D01*
X47874699Y10714353D01*
X47999997Y10694508D01*
X48000000Y10694508D01*
X48000003Y10694508D01*
X48125300Y10714353D01*
X48125301Y10714353D01*
X48125302Y10714354D01*
X48125304Y10714354D01*
X48238342Y10771950D01*
X48328050Y10861658D01*
X48385646Y10974696D01*
X48385646Y10974698D01*
X48385647Y10974699D01*
X48385647Y10974700D01*
X48405492Y11099997D01*
X48405492Y11100004D01*
X48385647Y11225301D01*
X48385646Y11225303D01*
X48385646Y11225304D01*
X48377227Y11241826D01*
X48364330Y11310493D01*
X48390604Y11375234D01*
X48447710Y11415493D01*
X48487763Y11422122D01*
X50911808Y11421075D01*
X50978839Y11401361D01*
X51024571Y11348538D01*
X51034484Y11279375D01*
X51022240Y11240783D01*
X51014354Y11225306D01*
X51014352Y11225301D01*
X50994508Y11100004D01*
X50994508Y11099997D01*
X51014352Y10974700D01*
X51014352Y10974699D01*
X51014354Y10974696D01*
X51071950Y10861658D01*
X51071952Y10861656D01*
X51071954Y10861653D01*
X51145926Y10787681D01*
X51179411Y10726358D01*
X51174427Y10656666D01*
X51145926Y10612319D01*
X51071954Y10538348D01*
X51071951Y10538343D01*
X51014352Y10425302D01*
X51014352Y10425301D01*
X50994508Y10300004D01*
X50994508Y10299997D01*
X51014352Y10174700D01*
X51014352Y10174699D01*
X51014354Y10174696D01*
X51071950Y10061658D01*
X51071952Y10061656D01*
X51071954Y10061653D01*
X51161652Y9971955D01*
X51161654Y9971954D01*
X51161658Y9971950D01*
X51274696Y9914354D01*
X51274697Y9914354D01*
X51274699Y9914353D01*
X51399997Y9894508D01*
X51400000Y9894508D01*
X51400003Y9894508D01*
X51525300Y9914353D01*
X51525301Y9914353D01*
X51525302Y9914354D01*
X51525304Y9914354D01*
X51638342Y9971950D01*
X51728050Y10061658D01*
X51785646Y10174696D01*
X51785646Y10174698D01*
X51785647Y10174699D01*
X51785647Y10174700D01*
X51805492Y10299997D01*
X51805492Y10300004D01*
X51785647Y10425301D01*
X51785647Y10425302D01*
X51785646Y10425304D01*
X51728050Y10538342D01*
X51728046Y10538346D01*
X51728045Y10538348D01*
X51654074Y10612319D01*
X51620589Y10673642D01*
X51625573Y10743334D01*
X51654074Y10787681D01*
X51728045Y10861653D01*
X51728050Y10861658D01*
X51785646Y10974696D01*
X51785646Y10974698D01*
X51785647Y10974699D01*
X51785647Y10974700D01*
X51805492Y11099997D01*
X51805492Y11100004D01*
X51785647Y11225301D01*
X51785646Y11225305D01*
X51777975Y11240360D01*
X51765079Y11309029D01*
X51791356Y11373770D01*
X51848463Y11414026D01*
X51888509Y11420654D01*
X54411040Y11419565D01*
X54478069Y11399851D01*
X54523802Y11347028D01*
X54533715Y11277865D01*
X54521471Y11239272D01*
X54514353Y11225303D01*
X54514352Y11225301D01*
X54494508Y11100004D01*
X54494508Y11099997D01*
X54514352Y10974700D01*
X54514352Y10974699D01*
X54514354Y10974696D01*
X54571950Y10861658D01*
X54571952Y10861656D01*
X54571954Y10861653D01*
X54661652Y10771955D01*
X54661654Y10771954D01*
X54661658Y10771950D01*
X54774696Y10714354D01*
X54774697Y10714354D01*
X54774699Y10714353D01*
X54899997Y10694508D01*
X54900000Y10694508D01*
X54900003Y10694508D01*
X55025300Y10714353D01*
X55025301Y10714353D01*
X55025302Y10714354D01*
X55025304Y10714354D01*
X55138342Y10771950D01*
X55228050Y10861658D01*
X55285646Y10974696D01*
X55285646Y10974698D01*
X55285647Y10974699D01*
X55285647Y10974700D01*
X55305492Y11099997D01*
X55305492Y11100004D01*
X55285647Y11225301D01*
X55285646Y11225304D01*
X55278746Y11238846D01*
X55265849Y11307516D01*
X55292125Y11372256D01*
X55349231Y11412514D01*
X55389280Y11419142D01*
X58088914Y11417976D01*
X58155945Y11398262D01*
X58201677Y11345439D01*
X58211590Y11276276D01*
X58211333Y11274579D01*
X58194494Y11168259D01*
X58194494Y11168252D01*
X58214338Y11042955D01*
X58214338Y11042954D01*
X58232791Y11006738D01*
X58271936Y10929913D01*
X58271938Y10929911D01*
X58271940Y10929908D01*
X58361638Y10840210D01*
X58361640Y10840209D01*
X58361644Y10840205D01*
X58474682Y10782609D01*
X58474683Y10782609D01*
X58474685Y10782608D01*
X58599983Y10762763D01*
X58599986Y10762763D01*
X58599989Y10762763D01*
X58725286Y10782608D01*
X58725287Y10782608D01*
X58725288Y10782609D01*
X58725290Y10782609D01*
X58838328Y10840205D01*
X58928036Y10929913D01*
X58985632Y11042951D01*
X58985632Y11042953D01*
X58985633Y11042954D01*
X58985633Y11042955D01*
X59005478Y11168252D01*
X59005478Y11168257D01*
X58988708Y11274137D01*
X58997662Y11343430D01*
X59042659Y11396882D01*
X59109410Y11417522D01*
X59111231Y11417535D01*
X59811965Y11417232D01*
X59837122Y11414642D01*
X59955798Y11389998D01*
X59981419Y11381689D01*
X60055172Y11348538D01*
X60089963Y11332900D01*
X60113187Y11319254D01*
X60208645Y11248166D01*
X60228366Y11229833D01*
X60285362Y11163927D01*
X60306215Y11139814D01*
X60321515Y11117650D01*
X60356181Y11053487D01*
X60378086Y11012943D01*
X60388240Y10987994D01*
X60420863Y10873546D01*
X60425390Y10846989D01*
X60432782Y10723931D01*
X60433005Y10716536D01*
X60433007Y10710316D01*
X60432859Y10704229D01*
X60431047Y10667133D01*
X60432102Y10657430D01*
X60431163Y10657329D01*
X60433037Y10643319D01*
X60433279Y10082080D01*
X60413623Y10015033D01*
X60360839Y9969255D01*
X60291685Y9959282D01*
X60252985Y9971542D01*
X60225304Y9985646D01*
X60225303Y9985647D01*
X60225300Y9985648D01*
X60100003Y10005492D01*
X60099997Y10005492D01*
X59974699Y9985648D01*
X59974698Y9985648D01*
X59899337Y9947249D01*
X59861658Y9928050D01*
X59861657Y9928049D01*
X59861652Y9928046D01*
X59771954Y9838348D01*
X59771951Y9838343D01*
X59771950Y9838342D01*
X59752751Y9800663D01*
X59714352Y9725302D01*
X59714352Y9725301D01*
X59694508Y9600004D01*
X59694508Y9599997D01*
X59714352Y9474700D01*
X59714352Y9474699D01*
X59714354Y9474696D01*
X59771950Y9361658D01*
X59771952Y9361656D01*
X59771954Y9361653D01*
X59861652Y9271955D01*
X59861654Y9271954D01*
X59861658Y9271950D01*
X59974696Y9214354D01*
X59974697Y9214354D01*
X59974699Y9214353D01*
X60099997Y9194508D01*
X60100000Y9194508D01*
X60100003Y9194508D01*
X60225300Y9214353D01*
X60225302Y9214354D01*
X60225304Y9214354D01*
X60253402Y9228672D01*
X60322071Y9241568D01*
X60386812Y9215292D01*
X60427069Y9158187D01*
X60433698Y9118241D01*
X60435013Y6081197D01*
X60415357Y6014149D01*
X60362573Y5968371D01*
X60293419Y5958398D01*
X60254718Y5970659D01*
X60244533Y5975848D01*
X60225303Y5985647D01*
X60225300Y5985648D01*
X60100003Y6005492D01*
X60099997Y6005492D01*
X59974699Y5985648D01*
X59974698Y5985648D01*
X59899337Y5947249D01*
X59861658Y5928050D01*
X59861657Y5928049D01*
X59861652Y5928046D01*
X59771954Y5838348D01*
X59771951Y5838343D01*
X59771950Y5838342D01*
X59765177Y5825049D01*
X59714352Y5725302D01*
X59714352Y5725301D01*
X59694508Y5600004D01*
X59694508Y5599997D01*
X59714352Y5474700D01*
X59714352Y5474699D01*
X59730306Y5443389D01*
X59743202Y5374720D01*
X59716926Y5309979D01*
X59659819Y5269722D01*
X59618909Y5263097D01*
X57148522Y5281262D01*
X57081629Y5301439D01*
X57036264Y5354578D01*
X57026829Y5423808D01*
X57038948Y5461552D01*
X57045646Y5474696D01*
X57045647Y5474700D01*
X57065492Y5599997D01*
X57065492Y5600004D01*
X57045647Y5725301D01*
X57045647Y5725302D01*
X57039000Y5738348D01*
X56988050Y5838342D01*
X56988046Y5838346D01*
X56988045Y5838348D01*
X56898347Y5928046D01*
X56898344Y5928048D01*
X56898342Y5928050D01*
X56785304Y5985646D01*
X56785303Y5985647D01*
X56785300Y5985648D01*
X56660003Y6005492D01*
X56659997Y6005492D01*
X56534699Y5985648D01*
X56534698Y5985648D01*
X56459337Y5947249D01*
X56421658Y5928050D01*
X56421657Y5928049D01*
X56421652Y5928046D01*
X56331954Y5838348D01*
X56331951Y5838343D01*
X56331950Y5838342D01*
X56325177Y5825049D01*
X56274352Y5725302D01*
X56274352Y5725301D01*
X56254508Y5600004D01*
X56254508Y5599997D01*
X56274352Y5474700D01*
X56274354Y5474696D01*
X56277369Y5468778D01*
X56290265Y5400108D01*
X56263988Y5335368D01*
X56206881Y5295112D01*
X56165972Y5288487D01*
X54600000Y5300000D01*
X54600000Y3198984D01*
X54580315Y3131945D01*
X54527511Y3086190D01*
X54458353Y3076246D01*
X54434921Y3083674D01*
X54434583Y3082631D01*
X54425300Y3085648D01*
X54300003Y3105492D01*
X54299997Y3105492D01*
X54174699Y3085648D01*
X54174698Y3085648D01*
X54099337Y3047249D01*
X54061658Y3028050D01*
X54061657Y3028049D01*
X54061652Y3028046D01*
X53971954Y2938348D01*
X53971951Y2938343D01*
X53914352Y2825302D01*
X53914352Y2825301D01*
X53894508Y2700004D01*
X53894508Y2699997D01*
X53914352Y2574700D01*
X53914352Y2574699D01*
X53914354Y2574696D01*
X53971950Y2461658D01*
X53971952Y2461656D01*
X53971954Y2461653D01*
X54061652Y2371955D01*
X54061654Y2371954D01*
X54061658Y2371950D01*
X54174696Y2314354D01*
X54174697Y2314354D01*
X54174699Y2314353D01*
X54299997Y2294508D01*
X54300000Y2294508D01*
X54300003Y2294508D01*
X54425300Y2314353D01*
X54425302Y2314354D01*
X54425304Y2314354D01*
X54425305Y2314355D01*
X54434583Y2317369D01*
X54435525Y2314471D01*
X54488358Y2324400D01*
X54553102Y2298132D01*
X54593367Y2241031D01*
X54600000Y2201017D01*
X54600000Y-241016D01*
X54580315Y-308055D01*
X54527511Y-353810D01*
X54458353Y-363754D01*
X54434921Y-356326D01*
X54434583Y-357369D01*
X54425300Y-354352D01*
X54300003Y-334508D01*
X54299997Y-334508D01*
X54174699Y-354352D01*
X54174698Y-354352D01*
X54113282Y-385646D01*
X54061658Y-411950D01*
X54061657Y-411951D01*
X54061652Y-411954D01*
X53971954Y-501652D01*
X53971951Y-501657D01*
X53971950Y-501658D01*
X53958505Y-528045D01*
X53914352Y-614698D01*
X53914352Y-614699D01*
X53894508Y-739996D01*
X53894508Y-740003D01*
X53914352Y-865300D01*
X53914352Y-865301D01*
X53917742Y-871954D01*
X53971950Y-978342D01*
X53971952Y-978344D01*
X53971954Y-978347D01*
X54061652Y-1068045D01*
X54061654Y-1068046D01*
X54061658Y-1068050D01*
X54174696Y-1125646D01*
X54174697Y-1125646D01*
X54174699Y-1125647D01*
X54299997Y-1145492D01*
X54300000Y-1145492D01*
X54300003Y-1145492D01*
X54425300Y-1125647D01*
X54425302Y-1125646D01*
X54425304Y-1125646D01*
X54425305Y-1125645D01*
X54434583Y-1122631D01*
X54435525Y-1125529D01*
X54488358Y-1115600D01*
X54553102Y-1141868D01*
X54593367Y-1198969D01*
X54600000Y-1238983D01*
X54600000Y-3801016D01*
X54580315Y-3868055D01*
X54527511Y-3913810D01*
X54458353Y-3923754D01*
X54434921Y-3916326D01*
X54434583Y-3917369D01*
X54425300Y-3914352D01*
X54300003Y-3894508D01*
X54299997Y-3894508D01*
X54174699Y-3914352D01*
X54174698Y-3914352D01*
X54125344Y-3939500D01*
X54061658Y-3971950D01*
X54061657Y-3971951D01*
X54061652Y-3971954D01*
X53971954Y-4061652D01*
X53971951Y-4061657D01*
X53971950Y-4061658D01*
X53952751Y-4099337D01*
X53914352Y-4174698D01*
X53914352Y-4174699D01*
X53894508Y-4299996D01*
X53894508Y-4300003D01*
X53914352Y-4425300D01*
X53914352Y-4425301D01*
X53923664Y-4443576D01*
X53971950Y-4538342D01*
X53971952Y-4538344D01*
X53971954Y-4538347D01*
X54061652Y-4628045D01*
X54061654Y-4628046D01*
X54061658Y-4628050D01*
X54174696Y-4685646D01*
X54174697Y-4685646D01*
X54174699Y-4685647D01*
X54299997Y-4705492D01*
X54300000Y-4705492D01*
X54300003Y-4705492D01*
X54425300Y-4685647D01*
X54425302Y-4685646D01*
X54425304Y-4685646D01*
X54425305Y-4685645D01*
X54434583Y-4682631D01*
X54435525Y-4685529D01*
X54488358Y-4675600D01*
X54553102Y-4701868D01*
X54593367Y-4758969D01*
X54600000Y-4798983D01*
X54600000Y-8800000D01*
X54673500Y-8800000D01*
X54740539Y-8819685D01*
X54786294Y-8872489D01*
X54797500Y-8924000D01*
X54797500Y-9145109D01*
X54793275Y-9177201D01*
X54774500Y-9247271D01*
X54774500Y-9352726D01*
X54793275Y-9422796D01*
X54797500Y-9454889D01*
X54797500Y-9676000D01*
X54777815Y-9743039D01*
X54725011Y-9788794D01*
X54673500Y-9800000D01*
X54650000Y-9800000D01*
X54650000Y-10550205D01*
X54655755Y-10550000D01*
X57384245Y-10550000D01*
X57451284Y-10569685D01*
X57497039Y-10622489D01*
X57506983Y-10691647D01*
X57477958Y-10755203D01*
X57471926Y-10761681D01*
X57411954Y-10821652D01*
X57411951Y-10821657D01*
X57411950Y-10821658D01*
X57393063Y-10858725D01*
X57354352Y-10934698D01*
X57354352Y-10934699D01*
X57334508Y-11059996D01*
X57334508Y-11060003D01*
X57354352Y-11185300D01*
X57354352Y-11185301D01*
X57369155Y-11214352D01*
X57411950Y-11298342D01*
X57411952Y-11298344D01*
X57411954Y-11298347D01*
X57501652Y-11388045D01*
X57501654Y-11388046D01*
X57501658Y-11388050D01*
X57614696Y-11445646D01*
X57614697Y-11445646D01*
X57614699Y-11445647D01*
X57739997Y-11465492D01*
X57740000Y-11465492D01*
X57740003Y-11465492D01*
X57865300Y-11445647D01*
X57865301Y-11445647D01*
X57865302Y-11445646D01*
X57865304Y-11445646D01*
X57978342Y-11388050D01*
X58068050Y-11298342D01*
X58125646Y-11185304D01*
X58125646Y-11185302D01*
X58125647Y-11185301D01*
X58125647Y-11185300D01*
X58145492Y-11060003D01*
X58145492Y-11059996D01*
X58125647Y-10934699D01*
X58125647Y-10934698D01*
X58125646Y-10934696D01*
X58068050Y-10821658D01*
X58068046Y-10821654D01*
X58068045Y-10821652D01*
X58008074Y-10761681D01*
X57974589Y-10700358D01*
X57979573Y-10630666D01*
X58021445Y-10574733D01*
X58086909Y-10550316D01*
X58095755Y-10550000D01*
X60318274Y-10550000D01*
X60385313Y-10569685D01*
X60431068Y-10622489D01*
X60442273Y-10673944D01*
X60442398Y-10960853D01*
X60442668Y-11587137D01*
X60441711Y-11602565D01*
X60425794Y-11729950D01*
X60419757Y-11755633D01*
X60387311Y-11848099D01*
X60346539Y-11904839D01*
X60281564Y-11930530D01*
X60213014Y-11917014D01*
X60162654Y-11868582D01*
X60159820Y-11863337D01*
X60147087Y-11838347D01*
X60108012Y-11761658D01*
X60108008Y-11761654D01*
X60108007Y-11761652D01*
X60018309Y-11671954D01*
X60018306Y-11671952D01*
X60018304Y-11671950D01*
X59905266Y-11614354D01*
X59905265Y-11614353D01*
X59905262Y-11614352D01*
X59779965Y-11594508D01*
X59779959Y-11594508D01*
X59654661Y-11614352D01*
X59654660Y-11614352D01*
X59600596Y-11641900D01*
X59541620Y-11671950D01*
X59541619Y-11671951D01*
X59541614Y-11671954D01*
X59451916Y-11761652D01*
X59451913Y-11761657D01*
X59394314Y-11874698D01*
X59394314Y-11874699D01*
X59374470Y-11999996D01*
X59374470Y-12000003D01*
X59395842Y-12134944D01*
X59393707Y-12135281D01*
X59395335Y-12192128D01*
X59359258Y-12251963D01*
X59296559Y-12282795D01*
X59275513Y-12284612D01*
X56843948Y-12286688D01*
X56776892Y-12267061D01*
X56731092Y-12214296D01*
X56721089Y-12145146D01*
X56725422Y-12126477D01*
X56725609Y-12125300D01*
X56736706Y-12055236D01*
X56745454Y-12000003D01*
X56745454Y-11999996D01*
X56725609Y-11874699D01*
X56725609Y-11874698D01*
X56707087Y-11838347D01*
X56668012Y-11761658D01*
X56668008Y-11761654D01*
X56668007Y-11761652D01*
X56578309Y-11671954D01*
X56578306Y-11671952D01*
X56578304Y-11671950D01*
X56465266Y-11614354D01*
X56465265Y-11614353D01*
X56465262Y-11614352D01*
X56339965Y-11594508D01*
X56339959Y-11594508D01*
X56214661Y-11614352D01*
X56214660Y-11614352D01*
X56160596Y-11641900D01*
X56101620Y-11671950D01*
X56101619Y-11671951D01*
X56101614Y-11671954D01*
X56011916Y-11761652D01*
X56011913Y-11761657D01*
X55954314Y-11874698D01*
X55954314Y-11874699D01*
X55934470Y-11999996D01*
X55934470Y-12000003D01*
X55955842Y-12134944D01*
X55954575Y-12135144D01*
X55956285Y-12195077D01*
X55920201Y-12254908D01*
X55857498Y-12285733D01*
X55836466Y-12287548D01*
X52111201Y-12290729D01*
X52044145Y-12271102D01*
X51998345Y-12218337D01*
X51988342Y-12149187D01*
X51988622Y-12147331D01*
X52005357Y-12041668D01*
X52005357Y-12041662D01*
X51985512Y-11916365D01*
X51985512Y-11916364D01*
X51969252Y-11884453D01*
X51927915Y-11803324D01*
X51927911Y-11803320D01*
X51927910Y-11803318D01*
X51838212Y-11713620D01*
X51838209Y-11713618D01*
X51838207Y-11713616D01*
X51725169Y-11656020D01*
X51725168Y-11656019D01*
X51725165Y-11656018D01*
X51599868Y-11636174D01*
X51599862Y-11636174D01*
X51474564Y-11656018D01*
X51474563Y-11656018D01*
X51414101Y-11686826D01*
X51361523Y-11713616D01*
X51361522Y-11713617D01*
X51361517Y-11713620D01*
X51271819Y-11803318D01*
X51271816Y-11803323D01*
X51214217Y-11916364D01*
X51214217Y-11916365D01*
X51194373Y-12041662D01*
X51194373Y-12041669D01*
X51211246Y-12148204D01*
X51202291Y-12217497D01*
X51157295Y-12270949D01*
X51090543Y-12291588D01*
X51088879Y-12291601D01*
X46521084Y-12295501D01*
X46454028Y-12275874D01*
X46408228Y-12223109D01*
X46398225Y-12153959D01*
X46403050Y-12133174D01*
X46405604Y-12125310D01*
X46405608Y-12125304D01*
X46416706Y-12055236D01*
X46425454Y-12000003D01*
X46425454Y-11999996D01*
X46405609Y-11874699D01*
X46405609Y-11874698D01*
X46387087Y-11838347D01*
X46348012Y-11761658D01*
X46348008Y-11761654D01*
X46348007Y-11761652D01*
X46258309Y-11671954D01*
X46258306Y-11671952D01*
X46258304Y-11671950D01*
X46145266Y-11614354D01*
X46145265Y-11614353D01*
X46145262Y-11614352D01*
X46054617Y-11599996D01*
X47994508Y-11599996D01*
X47994508Y-11600003D01*
X48014352Y-11725300D01*
X48014352Y-11725301D01*
X48014354Y-11725304D01*
X48071950Y-11838342D01*
X48071952Y-11838344D01*
X48071954Y-11838347D01*
X48161652Y-11928045D01*
X48161654Y-11928046D01*
X48161658Y-11928050D01*
X48274696Y-11985646D01*
X48274697Y-11985646D01*
X48274699Y-11985647D01*
X48399997Y-12005492D01*
X48400000Y-12005492D01*
X48400003Y-12005492D01*
X48525300Y-11985647D01*
X48525301Y-11985647D01*
X48525302Y-11985646D01*
X48525304Y-11985646D01*
X48638342Y-11928050D01*
X48728050Y-11838342D01*
X48785646Y-11725304D01*
X48785646Y-11725302D01*
X48785647Y-11725301D01*
X48785647Y-11725300D01*
X48805492Y-11600003D01*
X48805492Y-11599996D01*
X48785647Y-11474699D01*
X48785647Y-11474698D01*
X48776422Y-11456593D01*
X48728050Y-11361658D01*
X48728046Y-11361654D01*
X48728045Y-11361652D01*
X48638347Y-11271954D01*
X48638344Y-11271952D01*
X48638342Y-11271950D01*
X48525304Y-11214354D01*
X48525303Y-11214353D01*
X48525300Y-11214352D01*
X48400003Y-11194508D01*
X48399997Y-11194508D01*
X48274699Y-11214352D01*
X48274698Y-11214352D01*
X48219278Y-11242591D01*
X48161658Y-11271950D01*
X48161657Y-11271951D01*
X48161652Y-11271954D01*
X48071954Y-11361652D01*
X48071951Y-11361657D01*
X48014352Y-11474698D01*
X48014352Y-11474699D01*
X47994508Y-11599996D01*
X46054617Y-11599996D01*
X46019965Y-11594508D01*
X46019959Y-11594508D01*
X45894661Y-11614352D01*
X45894660Y-11614352D01*
X45840596Y-11641900D01*
X45781620Y-11671950D01*
X45781619Y-11671951D01*
X45781614Y-11671954D01*
X45691916Y-11761652D01*
X45691913Y-11761657D01*
X45634314Y-11874698D01*
X45634314Y-11874699D01*
X45614470Y-11999996D01*
X45614470Y-12000003D01*
X45634314Y-12125300D01*
X45637153Y-12134035D01*
X45639150Y-12203876D01*
X45603071Y-12263709D01*
X45540371Y-12294539D01*
X45519329Y-12296356D01*
X42999849Y-12298507D01*
X42932793Y-12278880D01*
X42886993Y-12226115D01*
X42876990Y-12156965D01*
X42883947Y-12135010D01*
X42882631Y-12134583D01*
X42885647Y-12125300D01*
X42905492Y-12000003D01*
X42905492Y-11999996D01*
X42885647Y-11874699D01*
X42885647Y-11874698D01*
X42867125Y-11838347D01*
X42828050Y-11761658D01*
X42828046Y-11761654D01*
X42828045Y-11761652D01*
X42738347Y-11671954D01*
X42738344Y-11671952D01*
X42738342Y-11671950D01*
X42625304Y-11614354D01*
X42625303Y-11614353D01*
X42625300Y-11614352D01*
X42500003Y-11594508D01*
X42499997Y-11594508D01*
X42374699Y-11614352D01*
X42374698Y-11614352D01*
X42320634Y-11641900D01*
X42261658Y-11671950D01*
X42261657Y-11671951D01*
X42261652Y-11671954D01*
X42171954Y-11761652D01*
X42171951Y-11761657D01*
X42114352Y-11874698D01*
X42114352Y-11874699D01*
X42094508Y-11999996D01*
X42094508Y-12000003D01*
X42114352Y-12125300D01*
X42117369Y-12134583D01*
X42114279Y-12135586D01*
X42124069Y-12187750D01*
X42097785Y-12252487D01*
X42040673Y-12292737D01*
X42000796Y-12299360D01*
X39655009Y-12301363D01*
X39587953Y-12281736D01*
X39542153Y-12228971D01*
X39532150Y-12159821D01*
X39551801Y-12108472D01*
X39606079Y-12027239D01*
X39606079Y-12027238D01*
X39606083Y-12027233D01*
X39653385Y-11913035D01*
X39672508Y-11816898D01*
X39677500Y-11791805D01*
X39677500Y-11668194D01*
X39653386Y-11546970D01*
X39653385Y-11546969D01*
X39653385Y-11546965D01*
X39623452Y-11474699D01*
X39606086Y-11432773D01*
X39606079Y-11432760D01*
X39537411Y-11329992D01*
X39537408Y-11329988D01*
X39450011Y-11242591D01*
X39450007Y-11242588D01*
X39347239Y-11173920D01*
X39347226Y-11173913D01*
X39233039Y-11126616D01*
X39233029Y-11126613D01*
X39111805Y-11102500D01*
X39111803Y-11102500D01*
X38189782Y-11102500D01*
X38122743Y-11082815D01*
X38102970Y-11059996D01*
X53894508Y-11059996D01*
X53894508Y-11060003D01*
X53914352Y-11185300D01*
X53914352Y-11185301D01*
X53929155Y-11214352D01*
X53971950Y-11298342D01*
X53971952Y-11298344D01*
X53971954Y-11298347D01*
X54061652Y-11388045D01*
X54061654Y-11388046D01*
X54061658Y-11388050D01*
X54174696Y-11445646D01*
X54174697Y-11445646D01*
X54174699Y-11445647D01*
X54299997Y-11465492D01*
X54300000Y-11465492D01*
X54300003Y-11465492D01*
X54425300Y-11445647D01*
X54425301Y-11445647D01*
X54425302Y-11445646D01*
X54425304Y-11445646D01*
X54538342Y-11388050D01*
X54628050Y-11298342D01*
X54685646Y-11185304D01*
X54685646Y-11185302D01*
X54685647Y-11185301D01*
X54685647Y-11185300D01*
X54705492Y-11060003D01*
X54705492Y-11059996D01*
X54685647Y-10934699D01*
X54685647Y-10934698D01*
X54685646Y-10934696D01*
X54628050Y-10821658D01*
X54628046Y-10821654D01*
X54628045Y-10821652D01*
X54568074Y-10761681D01*
X54537171Y-10705087D01*
X54508353Y-10709231D01*
X54469707Y-10696978D01*
X54425304Y-10674354D01*
X54425303Y-10674353D01*
X54425300Y-10674352D01*
X54300003Y-10654508D01*
X54299997Y-10654508D01*
X54174699Y-10674352D01*
X54174698Y-10674352D01*
X54114379Y-10705087D01*
X54061658Y-10731950D01*
X54061657Y-10731951D01*
X54061652Y-10731954D01*
X53971954Y-10821652D01*
X53971951Y-10821657D01*
X53971950Y-10821658D01*
X53953063Y-10858725D01*
X53914352Y-10934698D01*
X53914352Y-10934699D01*
X53894508Y-11059996D01*
X38102970Y-11059996D01*
X38076988Y-11030011D01*
X38067044Y-10960853D01*
X38096069Y-10897297D01*
X38154847Y-10859523D01*
X38157668Y-10858730D01*
X38224065Y-10840940D01*
X38356435Y-10764516D01*
X38464516Y-10656435D01*
X38540940Y-10524065D01*
X38574184Y-10399996D01*
X44494508Y-10399996D01*
X44494508Y-10400003D01*
X44514352Y-10525300D01*
X44514352Y-10525301D01*
X44514354Y-10525304D01*
X44571950Y-10638342D01*
X44571952Y-10638344D01*
X44571954Y-10638347D01*
X44661652Y-10728045D01*
X44661654Y-10728046D01*
X44661658Y-10728050D01*
X44774696Y-10785646D01*
X44774697Y-10785646D01*
X44774699Y-10785647D01*
X44899997Y-10805492D01*
X44900000Y-10805492D01*
X44900003Y-10805492D01*
X45025300Y-10785647D01*
X45025301Y-10785647D01*
X45025302Y-10785646D01*
X45025304Y-10785646D01*
X45138342Y-10728050D01*
X45228050Y-10638342D01*
X45285646Y-10525304D01*
X45285646Y-10525302D01*
X45285647Y-10525301D01*
X45285647Y-10525300D01*
X45305492Y-10400003D01*
X45305492Y-10399996D01*
X45285647Y-10274699D01*
X45285647Y-10274698D01*
X45267125Y-10238347D01*
X45228050Y-10161658D01*
X45228046Y-10161654D01*
X45228045Y-10161652D01*
X45138347Y-10071954D01*
X45138344Y-10071952D01*
X45138342Y-10071950D01*
X45025304Y-10014354D01*
X45025303Y-10014353D01*
X45025300Y-10014352D01*
X44900003Y-9994508D01*
X44899997Y-9994508D01*
X44774699Y-10014352D01*
X44774698Y-10014352D01*
X44727607Y-10038347D01*
X44661658Y-10071950D01*
X44661657Y-10071951D01*
X44661652Y-10071954D01*
X44571954Y-10161652D01*
X44571951Y-10161657D01*
X44571950Y-10161658D01*
X44553803Y-10197273D01*
X44514352Y-10274698D01*
X44514352Y-10274699D01*
X44494508Y-10399996D01*
X38574184Y-10399996D01*
X38580500Y-10376424D01*
X38580500Y-10223576D01*
X38540940Y-10075935D01*
X38464516Y-9943565D01*
X38356435Y-9835484D01*
X38294968Y-9799996D01*
X50994508Y-9799996D01*
X50994508Y-9800003D01*
X51014352Y-9925300D01*
X51014352Y-9925301D01*
X51014354Y-9925304D01*
X51071950Y-10038342D01*
X51071952Y-10038344D01*
X51071954Y-10038347D01*
X51161652Y-10128045D01*
X51161656Y-10128048D01*
X51161658Y-10128050D01*
X51272170Y-10184358D01*
X51322964Y-10232332D01*
X51339759Y-10300153D01*
X51326358Y-10351136D01*
X51314353Y-10374695D01*
X51314352Y-10374699D01*
X51294508Y-10499996D01*
X51294508Y-10500003D01*
X51314352Y-10625300D01*
X51314352Y-10625301D01*
X51329234Y-10654508D01*
X51371950Y-10738342D01*
X51371952Y-10738344D01*
X51371954Y-10738347D01*
X51461652Y-10828045D01*
X51461654Y-10828046D01*
X51461658Y-10828050D01*
X51574696Y-10885646D01*
X51574697Y-10885646D01*
X51574699Y-10885647D01*
X51699997Y-10905492D01*
X51700000Y-10905492D01*
X51700003Y-10905492D01*
X51825300Y-10885647D01*
X51825301Y-10885647D01*
X51825302Y-10885646D01*
X51825304Y-10885646D01*
X51938342Y-10828050D01*
X52028050Y-10738342D01*
X52085646Y-10625304D01*
X52085646Y-10625302D01*
X52085647Y-10625301D01*
X52085647Y-10625300D01*
X52105492Y-10500003D01*
X52105492Y-10499996D01*
X52085647Y-10374699D01*
X52085647Y-10374698D01*
X52073872Y-10351588D01*
X52028050Y-10261658D01*
X52028046Y-10261654D01*
X52028045Y-10261652D01*
X51938347Y-10171954D01*
X51938343Y-10171951D01*
X51938342Y-10171950D01*
X51918131Y-10161652D01*
X51827831Y-10115641D01*
X51777036Y-10067667D01*
X51760241Y-9999846D01*
X51773643Y-9948861D01*
X51776340Y-9943568D01*
X51785646Y-9925304D01*
X51785646Y-9925302D01*
X51785647Y-9925300D01*
X51805492Y-9800003D01*
X51805492Y-9799996D01*
X51785647Y-9674699D01*
X51785647Y-9674698D01*
X51759761Y-9623895D01*
X51728050Y-9561658D01*
X51728046Y-9561654D01*
X51728045Y-9561652D01*
X51638347Y-9471954D01*
X51638344Y-9471952D01*
X51638342Y-9471950D01*
X51525304Y-9414354D01*
X51525303Y-9414353D01*
X51525300Y-9414352D01*
X51400003Y-9394508D01*
X51399997Y-9394508D01*
X51274699Y-9414352D01*
X51274698Y-9414352D01*
X51227179Y-9438565D01*
X51161658Y-9471950D01*
X51161657Y-9471951D01*
X51161652Y-9471954D01*
X51071954Y-9561652D01*
X51071951Y-9561657D01*
X51014352Y-9674698D01*
X51014352Y-9674699D01*
X50994508Y-9799996D01*
X38294968Y-9799996D01*
X38228563Y-9761657D01*
X38224067Y-9759061D01*
X38224066Y-9759060D01*
X38224065Y-9759060D01*
X38076424Y-9719500D01*
X37923576Y-9719500D01*
X37775935Y-9759060D01*
X37775932Y-9759061D01*
X37643568Y-9835482D01*
X37643562Y-9835486D01*
X37535486Y-9943562D01*
X37535482Y-9943568D01*
X37459061Y-10075932D01*
X37459060Y-10075935D01*
X37419500Y-10223576D01*
X37419500Y-10376424D01*
X37421972Y-10385647D01*
X37459060Y-10524064D01*
X37459061Y-10524067D01*
X37459775Y-10525304D01*
X37535484Y-10656435D01*
X37643565Y-10764516D01*
X37775935Y-10840940D01*
X37870332Y-10866233D01*
X37929991Y-10902596D01*
X37960521Y-10965443D01*
X37952227Y-11034819D01*
X37907742Y-11088697D01*
X37862431Y-11107624D01*
X37766969Y-11126613D01*
X37766960Y-11126616D01*
X37652773Y-11173913D01*
X37652760Y-11173920D01*
X37549992Y-11242588D01*
X37549988Y-11242591D01*
X37462591Y-11329988D01*
X37462588Y-11329992D01*
X37393920Y-11432760D01*
X37393913Y-11432773D01*
X37346616Y-11546960D01*
X37346613Y-11546970D01*
X37322500Y-11668194D01*
X37322500Y-11668197D01*
X37322500Y-11791803D01*
X37322500Y-11791805D01*
X37322499Y-11791805D01*
X37346613Y-11913029D01*
X37346616Y-11913039D01*
X37393913Y-12027226D01*
X37393923Y-12027244D01*
X37449515Y-12110444D01*
X37470393Y-12177121D01*
X37451908Y-12244501D01*
X37399929Y-12291191D01*
X37346519Y-12303334D01*
X36211336Y-12304303D01*
X36144280Y-12284676D01*
X36098480Y-12231911D01*
X36088477Y-12162761D01*
X36088757Y-12160905D01*
X36105492Y-12055242D01*
X36105492Y-12055236D01*
X36085647Y-11929939D01*
X36085647Y-11929938D01*
X36078731Y-11916365D01*
X36028050Y-11816898D01*
X36028046Y-11816894D01*
X36028045Y-11816892D01*
X35938347Y-11727194D01*
X35938344Y-11727192D01*
X35938342Y-11727190D01*
X35825304Y-11669594D01*
X35825303Y-11669593D01*
X35825300Y-11669592D01*
X35700003Y-11649748D01*
X35699997Y-11649748D01*
X35574699Y-11669592D01*
X35574695Y-11669593D01*
X35514613Y-11700207D01*
X35445944Y-11713103D01*
X35381203Y-11686826D01*
X35340947Y-11629719D01*
X35336702Y-11613913D01*
X35333935Y-11600003D01*
X35323385Y-11546965D01*
X35293452Y-11474699D01*
X35276086Y-11432773D01*
X35276079Y-11432760D01*
X35207411Y-11329992D01*
X35207408Y-11329988D01*
X35120011Y-11242591D01*
X35120007Y-11242588D01*
X35017239Y-11173920D01*
X35017226Y-11173913D01*
X34903039Y-11126616D01*
X34903029Y-11126613D01*
X34781805Y-11102500D01*
X34781803Y-11102500D01*
X33858197Y-11102500D01*
X33858195Y-11102500D01*
X33736970Y-11126613D01*
X33736960Y-11126616D01*
X33622773Y-11173913D01*
X33622760Y-11173920D01*
X33546135Y-11225120D01*
X33479457Y-11245998D01*
X33412077Y-11227513D01*
X33365387Y-11175534D01*
X33353244Y-11122318D01*
X33351689Y-10474662D01*
X33371213Y-10407579D01*
X33423907Y-10361698D01*
X33493041Y-10351588D01*
X33531983Y-10363882D01*
X33574696Y-10385646D01*
X33574697Y-10385646D01*
X33574699Y-10385647D01*
X33699997Y-10405492D01*
X33700000Y-10405492D01*
X33700003Y-10405492D01*
X33825300Y-10385647D01*
X33825301Y-10385647D01*
X33825302Y-10385646D01*
X33825304Y-10385646D01*
X33938342Y-10328050D01*
X34028050Y-10238342D01*
X34085646Y-10125304D01*
X34085646Y-10125302D01*
X34085647Y-10125301D01*
X34085647Y-10125300D01*
X34105492Y-10000003D01*
X34105492Y-9999996D01*
X34085647Y-9874699D01*
X34085647Y-9874698D01*
X34065665Y-9835482D01*
X34028050Y-9761658D01*
X34028046Y-9761654D01*
X34028045Y-9761652D01*
X33938347Y-9671954D01*
X33938344Y-9671952D01*
X33938342Y-9671950D01*
X33825304Y-9614354D01*
X33825303Y-9614353D01*
X33825300Y-9614352D01*
X33700003Y-9594508D01*
X33699997Y-9594508D01*
X33574699Y-9614352D01*
X33574695Y-9614353D01*
X33529708Y-9637276D01*
X33461039Y-9650172D01*
X33396299Y-9623895D01*
X33356042Y-9566789D01*
X33349414Y-9527093D01*
X33343372Y-7010327D01*
X33362896Y-6943243D01*
X33415590Y-6897362D01*
X33484724Y-6887252D01*
X33486769Y-6887559D01*
X33599997Y-6905492D01*
X33600000Y-6905492D01*
X33600003Y-6905492D01*
X33725300Y-6885647D01*
X33725301Y-6885647D01*
X33725302Y-6885646D01*
X33725304Y-6885646D01*
X33838342Y-6828050D01*
X33928050Y-6738342D01*
X33985646Y-6625304D01*
X33985646Y-6625302D01*
X33985647Y-6625301D01*
X33985647Y-6625300D01*
X34005492Y-6500003D01*
X34005492Y-6499996D01*
X33985647Y-6374699D01*
X33985647Y-6374698D01*
X33985646Y-6374696D01*
X33928050Y-6261658D01*
X33928046Y-6261654D01*
X33928045Y-6261652D01*
X33838347Y-6171954D01*
X33838344Y-6171952D01*
X33838342Y-6171950D01*
X33725304Y-6114354D01*
X33725303Y-6114353D01*
X33725300Y-6114352D01*
X33600003Y-6094508D01*
X33600001Y-6094508D01*
X33600000Y-6094508D01*
X33547180Y-6102873D01*
X33484321Y-6112829D01*
X33415027Y-6103873D01*
X33361576Y-6058876D01*
X33340937Y-5992124D01*
X33340924Y-5990653D01*
X33340466Y-5799996D01*
X43694508Y-5799996D01*
X43694508Y-5800003D01*
X43714352Y-5925300D01*
X43714352Y-5925301D01*
X43714354Y-5925304D01*
X43771950Y-6038342D01*
X43771952Y-6038344D01*
X43771954Y-6038347D01*
X43861652Y-6128045D01*
X43861654Y-6128046D01*
X43861658Y-6128050D01*
X43974696Y-6185646D01*
X43974697Y-6185646D01*
X43974699Y-6185647D01*
X44099997Y-6205492D01*
X44100000Y-6205492D01*
X44109898Y-6203924D01*
X44179191Y-6212875D01*
X44216981Y-6238714D01*
X44921509Y-6943243D01*
X45571132Y-7592866D01*
X45571134Y-7592868D01*
X45635801Y-7619652D01*
X45654747Y-7627500D01*
X45745253Y-7627500D01*
X45961512Y-7627500D01*
X46028551Y-7647185D01*
X46049193Y-7663819D01*
X46636842Y-8251468D01*
X46670327Y-8312791D01*
X46665343Y-8382483D01*
X46623471Y-8438416D01*
X46605457Y-8449633D01*
X46561659Y-8471949D01*
X46561652Y-8471954D01*
X46471954Y-8561652D01*
X46471951Y-8561657D01*
X46471950Y-8561658D01*
X46459727Y-8585647D01*
X46414352Y-8674698D01*
X46414352Y-8674699D01*
X46394508Y-8799996D01*
X46394508Y-8800003D01*
X46414352Y-8925300D01*
X46414352Y-8925301D01*
X46414354Y-8925304D01*
X46471950Y-9038342D01*
X46471952Y-9038344D01*
X46471954Y-9038347D01*
X46561652Y-9128045D01*
X46561654Y-9128046D01*
X46561658Y-9128050D01*
X46674696Y-9185646D01*
X46674697Y-9185646D01*
X46674699Y-9185647D01*
X46799997Y-9205492D01*
X46800000Y-9205492D01*
X46800003Y-9205492D01*
X46925300Y-9185647D01*
X46925301Y-9185647D01*
X46925302Y-9185646D01*
X46925304Y-9185646D01*
X47038342Y-9128050D01*
X47062319Y-9104072D01*
X47123640Y-9070588D01*
X47193332Y-9075572D01*
X47237680Y-9104072D01*
X47261658Y-9128050D01*
X47374696Y-9185646D01*
X47374697Y-9185646D01*
X47374699Y-9185647D01*
X47499997Y-9205492D01*
X47500000Y-9205492D01*
X47500003Y-9205492D01*
X47625300Y-9185647D01*
X47625301Y-9185647D01*
X47625302Y-9185646D01*
X47625304Y-9185646D01*
X47738342Y-9128050D01*
X47828050Y-9038342D01*
X47885646Y-8925304D01*
X47885646Y-8925302D01*
X47885647Y-8925301D01*
X47885647Y-8925300D01*
X47905492Y-8800003D01*
X47905492Y-8799996D01*
X47885647Y-8674699D01*
X47885647Y-8674698D01*
X47885646Y-8674696D01*
X47828050Y-8561658D01*
X47828046Y-8561654D01*
X47828045Y-8561652D01*
X47738347Y-8471954D01*
X47738344Y-8471952D01*
X47738342Y-8471950D01*
X47625304Y-8414354D01*
X47625303Y-8414353D01*
X47625300Y-8414352D01*
X47500003Y-8394508D01*
X47499995Y-8394508D01*
X47496224Y-8395105D01*
X47491606Y-8394508D01*
X47490242Y-8394508D01*
X47490242Y-8394331D01*
X47426931Y-8386147D01*
X47389152Y-8360312D01*
X47228836Y-8199996D01*
X51694508Y-8199996D01*
X51694508Y-8200003D01*
X51714352Y-8325300D01*
X51714352Y-8325301D01*
X51714354Y-8325304D01*
X51771950Y-8438342D01*
X51771952Y-8438344D01*
X51771954Y-8438347D01*
X51861652Y-8528045D01*
X51861654Y-8528046D01*
X51861658Y-8528050D01*
X51974696Y-8585646D01*
X51974697Y-8585646D01*
X51974699Y-8585647D01*
X52099997Y-8605492D01*
X52100000Y-8605492D01*
X52100003Y-8605492D01*
X52225300Y-8585647D01*
X52225301Y-8585647D01*
X52225302Y-8585646D01*
X52225304Y-8585646D01*
X52338342Y-8528050D01*
X52428050Y-8438342D01*
X52485646Y-8325304D01*
X52485646Y-8325302D01*
X52485647Y-8325301D01*
X52485647Y-8325300D01*
X52505492Y-8200003D01*
X52505492Y-8199996D01*
X53094508Y-8199996D01*
X53094508Y-8200003D01*
X53114352Y-8325300D01*
X53114352Y-8325301D01*
X53114354Y-8325304D01*
X53171950Y-8438342D01*
X53171952Y-8438344D01*
X53171954Y-8438347D01*
X53261652Y-8528045D01*
X53261654Y-8528046D01*
X53261658Y-8528050D01*
X53374696Y-8585646D01*
X53374697Y-8585646D01*
X53374699Y-8585647D01*
X53499997Y-8605492D01*
X53500000Y-8605492D01*
X53500003Y-8605492D01*
X53625300Y-8585647D01*
X53625301Y-8585647D01*
X53625302Y-8585646D01*
X53625304Y-8585646D01*
X53738342Y-8528050D01*
X53828050Y-8438342D01*
X53885646Y-8325304D01*
X53885646Y-8325302D01*
X53885647Y-8325301D01*
X53885647Y-8325300D01*
X53905492Y-8200003D01*
X53905492Y-8199996D01*
X53885647Y-8074699D01*
X53885647Y-8074698D01*
X53885646Y-8074696D01*
X53828050Y-7961658D01*
X53828046Y-7961654D01*
X53828045Y-7961652D01*
X53738347Y-7871954D01*
X53738344Y-7871952D01*
X53738342Y-7871950D01*
X53625304Y-7814354D01*
X53625303Y-7814353D01*
X53625300Y-7814352D01*
X53500003Y-7794508D01*
X53499997Y-7794508D01*
X53374699Y-7814352D01*
X53374698Y-7814352D01*
X53299337Y-7852751D01*
X53261658Y-7871950D01*
X53261657Y-7871951D01*
X53261652Y-7871954D01*
X53171954Y-7961652D01*
X53171951Y-7961657D01*
X53114352Y-8074698D01*
X53114352Y-8074699D01*
X53094508Y-8199996D01*
X52505492Y-8199996D01*
X52485647Y-8074699D01*
X52485647Y-8074698D01*
X52485646Y-8074696D01*
X52428050Y-7961658D01*
X52428046Y-7961654D01*
X52428045Y-7961652D01*
X52338347Y-7871954D01*
X52338344Y-7871952D01*
X52338342Y-7871950D01*
X52225304Y-7814354D01*
X52225303Y-7814353D01*
X52225300Y-7814352D01*
X52100003Y-7794508D01*
X52099997Y-7794508D01*
X51974699Y-7814352D01*
X51974698Y-7814352D01*
X51899337Y-7852751D01*
X51861658Y-7871950D01*
X51861657Y-7871951D01*
X51861652Y-7871954D01*
X51771954Y-7961652D01*
X51771951Y-7961657D01*
X51714352Y-8074698D01*
X51714352Y-8074699D01*
X51694508Y-8199996D01*
X47228836Y-8199996D01*
X46472573Y-7443733D01*
X46439088Y-7382410D01*
X46444072Y-7312718D01*
X46485944Y-7256785D01*
X46503948Y-7245574D01*
X46538342Y-7228050D01*
X46628050Y-7138342D01*
X46685646Y-7025304D01*
X46685646Y-7025302D01*
X46685647Y-7025301D01*
X46685647Y-7025300D01*
X46705492Y-6900003D01*
X46705492Y-6899996D01*
X46685647Y-6774699D01*
X46685647Y-6774698D01*
X46667125Y-6738347D01*
X46628050Y-6661658D01*
X46628046Y-6661654D01*
X46628045Y-6661652D01*
X46538347Y-6571954D01*
X46538343Y-6571951D01*
X46538342Y-6571950D01*
X46515839Y-6560484D01*
X46465043Y-6512511D01*
X46448248Y-6444690D01*
X46470785Y-6378555D01*
X46515838Y-6339515D01*
X46538342Y-6328050D01*
X46628050Y-6238342D01*
X46685646Y-6125304D01*
X46685646Y-6125302D01*
X46685647Y-6125301D01*
X46685647Y-6125300D01*
X46705492Y-6000003D01*
X46705492Y-5999996D01*
X46685647Y-5874699D01*
X46685647Y-5874698D01*
X46675946Y-5855659D01*
X46628050Y-5761658D01*
X46628046Y-5761654D01*
X46628045Y-5761652D01*
X46538347Y-5671954D01*
X46538343Y-5671951D01*
X46538342Y-5671950D01*
X46515839Y-5660484D01*
X46465043Y-5612511D01*
X46448248Y-5544690D01*
X46470785Y-5478555D01*
X46515838Y-5439515D01*
X46538342Y-5428050D01*
X46628050Y-5338342D01*
X46685646Y-5225304D01*
X46685646Y-5225302D01*
X46685647Y-5225301D01*
X46685647Y-5225300D01*
X46705492Y-5100003D01*
X46705492Y-5099996D01*
X46685647Y-4974699D01*
X46685647Y-4974698D01*
X46667125Y-4938347D01*
X46628050Y-4861658D01*
X46628046Y-4861654D01*
X46628045Y-4861652D01*
X46538347Y-4771954D01*
X46538343Y-4771951D01*
X46538342Y-4771950D01*
X46515839Y-4760484D01*
X46465043Y-4712511D01*
X46448248Y-4644690D01*
X46470785Y-4578555D01*
X46515838Y-4539515D01*
X46538342Y-4528050D01*
X46628050Y-4438342D01*
X46685646Y-4325304D01*
X46685646Y-4325302D01*
X46685647Y-4325301D01*
X46685647Y-4325300D01*
X46705492Y-4200003D01*
X46705492Y-4199996D01*
X47294508Y-4199996D01*
X47294508Y-4200003D01*
X47314352Y-4325300D01*
X47314352Y-4325301D01*
X47332805Y-4361517D01*
X47371950Y-4438342D01*
X47371952Y-4438344D01*
X47371954Y-4438347D01*
X47461652Y-4528045D01*
X47461655Y-4528047D01*
X47461658Y-4528050D01*
X47480574Y-4537688D01*
X47484161Y-4539516D01*
X47534956Y-4587490D01*
X47551751Y-4655312D01*
X47529213Y-4721446D01*
X47484161Y-4760484D01*
X47461659Y-4771949D01*
X47461652Y-4771954D01*
X47371954Y-4861652D01*
X47371951Y-4861657D01*
X47371950Y-4861658D01*
X47366704Y-4871954D01*
X47314352Y-4974698D01*
X47314352Y-4974699D01*
X47294508Y-5099996D01*
X47294508Y-5100003D01*
X47314352Y-5225300D01*
X47314352Y-5225301D01*
X47314354Y-5225304D01*
X47371950Y-5338342D01*
X47371952Y-5338344D01*
X47371954Y-5338347D01*
X47461652Y-5428045D01*
X47461655Y-5428047D01*
X47461658Y-5428050D01*
X47480574Y-5437688D01*
X47484161Y-5439516D01*
X47534956Y-5487490D01*
X47551751Y-5555312D01*
X47529213Y-5621446D01*
X47484161Y-5660484D01*
X47461659Y-5671949D01*
X47461652Y-5671954D01*
X47371954Y-5761652D01*
X47371951Y-5761657D01*
X47314352Y-5874698D01*
X47314352Y-5874699D01*
X47294508Y-5999996D01*
X47294508Y-6000003D01*
X47314352Y-6125300D01*
X47314352Y-6125301D01*
X47315752Y-6128048D01*
X47371950Y-6238342D01*
X47371952Y-6238344D01*
X47371954Y-6238347D01*
X47461652Y-6328045D01*
X47461655Y-6328047D01*
X47461658Y-6328050D01*
X47480574Y-6337688D01*
X47484161Y-6339516D01*
X47534956Y-6387490D01*
X47551751Y-6455312D01*
X47529213Y-6521446D01*
X47484161Y-6560484D01*
X47461659Y-6571949D01*
X47461652Y-6571954D01*
X47371954Y-6661652D01*
X47371951Y-6661657D01*
X47314352Y-6774698D01*
X47314352Y-6774699D01*
X47294508Y-6899996D01*
X47294508Y-6900003D01*
X47314352Y-7025300D01*
X47314352Y-7025301D01*
X47332805Y-7061517D01*
X47371950Y-7138342D01*
X47371952Y-7138344D01*
X47371954Y-7138347D01*
X47461652Y-7228045D01*
X47461654Y-7228046D01*
X47461658Y-7228050D01*
X47574696Y-7285646D01*
X47574697Y-7285646D01*
X47574699Y-7285647D01*
X47699997Y-7305492D01*
X47700000Y-7305492D01*
X47700003Y-7305492D01*
X47825300Y-7285647D01*
X47825301Y-7285647D01*
X47825302Y-7285646D01*
X47825304Y-7285646D01*
X47938342Y-7228050D01*
X48028050Y-7138342D01*
X48085646Y-7025304D01*
X48085646Y-7025302D01*
X48085647Y-7025301D01*
X48085647Y-7025300D01*
X48105492Y-6900003D01*
X48105492Y-6899996D01*
X48085647Y-6774699D01*
X48085647Y-6774698D01*
X48067125Y-6738347D01*
X48028050Y-6661658D01*
X48028046Y-6661654D01*
X48028045Y-6661652D01*
X47938347Y-6571954D01*
X47938343Y-6571951D01*
X47938342Y-6571950D01*
X47915839Y-6560484D01*
X47865043Y-6512511D01*
X47848248Y-6444690D01*
X47870785Y-6378555D01*
X47915838Y-6339515D01*
X47938342Y-6328050D01*
X48028050Y-6238342D01*
X48085646Y-6125304D01*
X48085646Y-6125302D01*
X48085647Y-6125301D01*
X48085647Y-6125300D01*
X48105492Y-6000003D01*
X48105492Y-5999996D01*
X48085647Y-5874699D01*
X48085647Y-5874698D01*
X48075946Y-5855659D01*
X48028050Y-5761658D01*
X48028046Y-5761654D01*
X48028045Y-5761652D01*
X47938347Y-5671954D01*
X47938343Y-5671951D01*
X47938342Y-5671950D01*
X47915839Y-5660484D01*
X47865043Y-5612511D01*
X47848248Y-5544690D01*
X47870785Y-5478555D01*
X47915838Y-5439515D01*
X47938342Y-5428050D01*
X48028050Y-5338342D01*
X48085646Y-5225304D01*
X48085646Y-5225302D01*
X48085647Y-5225301D01*
X48085647Y-5225300D01*
X48105492Y-5100003D01*
X48105492Y-5099996D01*
X48085647Y-4974699D01*
X48085647Y-4974698D01*
X48067125Y-4938347D01*
X48028050Y-4861658D01*
X48028046Y-4861654D01*
X48028045Y-4861652D01*
X47938347Y-4771954D01*
X47938343Y-4771951D01*
X47938342Y-4771950D01*
X47915839Y-4760484D01*
X47865043Y-4712511D01*
X47848248Y-4644690D01*
X47870785Y-4578555D01*
X47915838Y-4539515D01*
X47938342Y-4528050D01*
X48028050Y-4438342D01*
X48085646Y-4325304D01*
X48085646Y-4325302D01*
X48085647Y-4325301D01*
X48085647Y-4325300D01*
X48105492Y-4200003D01*
X48105492Y-4199996D01*
X48494508Y-4199996D01*
X48494508Y-4200003D01*
X48514352Y-4325300D01*
X48514352Y-4325301D01*
X48532805Y-4361517D01*
X48571950Y-4438342D01*
X48571952Y-4438344D01*
X48571954Y-4438347D01*
X48661652Y-4528045D01*
X48661655Y-4528047D01*
X48661658Y-4528050D01*
X48680574Y-4537688D01*
X48684161Y-4539516D01*
X48734956Y-4587490D01*
X48751751Y-4655312D01*
X48729213Y-4721446D01*
X48684161Y-4760484D01*
X48661659Y-4771949D01*
X48661652Y-4771954D01*
X48571954Y-4861652D01*
X48571951Y-4861657D01*
X48571950Y-4861658D01*
X48566704Y-4871954D01*
X48514352Y-4974698D01*
X48514352Y-4974699D01*
X48494508Y-5099996D01*
X48494508Y-5100003D01*
X48514352Y-5225300D01*
X48514352Y-5225301D01*
X48514354Y-5225304D01*
X48571950Y-5338342D01*
X48571952Y-5338344D01*
X48571954Y-5338347D01*
X48661652Y-5428045D01*
X48661655Y-5428047D01*
X48661658Y-5428050D01*
X48680574Y-5437688D01*
X48684161Y-5439516D01*
X48734956Y-5487490D01*
X48751751Y-5555312D01*
X48729213Y-5621446D01*
X48684161Y-5660484D01*
X48661659Y-5671949D01*
X48661652Y-5671954D01*
X48571954Y-5761652D01*
X48571951Y-5761657D01*
X48514352Y-5874698D01*
X48514352Y-5874699D01*
X48494508Y-5999996D01*
X48494508Y-6000003D01*
X48514352Y-6125300D01*
X48514352Y-6125301D01*
X48515752Y-6128048D01*
X48571950Y-6238342D01*
X48571952Y-6238344D01*
X48571954Y-6238347D01*
X48661652Y-6328045D01*
X48661655Y-6328047D01*
X48661658Y-6328050D01*
X48680574Y-6337688D01*
X48684161Y-6339516D01*
X48734956Y-6387490D01*
X48751751Y-6455312D01*
X48729213Y-6521446D01*
X48684161Y-6560484D01*
X48661659Y-6571949D01*
X48661652Y-6571954D01*
X48571954Y-6661652D01*
X48571951Y-6661657D01*
X48514352Y-6774698D01*
X48514352Y-6774699D01*
X48494508Y-6899996D01*
X48494508Y-6900003D01*
X48514352Y-7025300D01*
X48514352Y-7025301D01*
X48532805Y-7061517D01*
X48571950Y-7138342D01*
X48571952Y-7138344D01*
X48571954Y-7138347D01*
X48661652Y-7228045D01*
X48661654Y-7228046D01*
X48661658Y-7228050D01*
X48774696Y-7285646D01*
X48774697Y-7285646D01*
X48774699Y-7285647D01*
X48899997Y-7305492D01*
X48900000Y-7305492D01*
X48900003Y-7305492D01*
X49025300Y-7285647D01*
X49025301Y-7285647D01*
X49025302Y-7285646D01*
X49025304Y-7285646D01*
X49138342Y-7228050D01*
X49228050Y-7138342D01*
X49285646Y-7025304D01*
X49285646Y-7025302D01*
X49285647Y-7025301D01*
X49285647Y-7025300D01*
X49305492Y-6900003D01*
X49305492Y-6899996D01*
X49285647Y-6774699D01*
X49285647Y-6774698D01*
X49267125Y-6738347D01*
X49228050Y-6661658D01*
X49228046Y-6661654D01*
X49228045Y-6661652D01*
X49138347Y-6571954D01*
X49138343Y-6571951D01*
X49138342Y-6571950D01*
X49115839Y-6560484D01*
X49065043Y-6512511D01*
X49048248Y-6444690D01*
X49070785Y-6378555D01*
X49115838Y-6339515D01*
X49138342Y-6328050D01*
X49228050Y-6238342D01*
X49285646Y-6125304D01*
X49285646Y-6125302D01*
X49285647Y-6125301D01*
X49285647Y-6125300D01*
X49305492Y-6000003D01*
X49305492Y-5999996D01*
X49285647Y-5874699D01*
X49285647Y-5874698D01*
X49275946Y-5855659D01*
X49228050Y-5761658D01*
X49228046Y-5761654D01*
X49228045Y-5761652D01*
X49138347Y-5671954D01*
X49138343Y-5671951D01*
X49138342Y-5671950D01*
X49115839Y-5660484D01*
X49065043Y-5612511D01*
X49048248Y-5544690D01*
X49070785Y-5478555D01*
X49115838Y-5439515D01*
X49138342Y-5428050D01*
X49228050Y-5338342D01*
X49285646Y-5225304D01*
X49285646Y-5225302D01*
X49285647Y-5225301D01*
X49285647Y-5225300D01*
X49289655Y-5199996D01*
X52494508Y-5199996D01*
X52494508Y-5200003D01*
X52514352Y-5325300D01*
X52514352Y-5325301D01*
X52521720Y-5339761D01*
X52571950Y-5438342D01*
X52571952Y-5438344D01*
X52571954Y-5438347D01*
X52661652Y-5528045D01*
X52661654Y-5528046D01*
X52661658Y-5528050D01*
X52774696Y-5585646D01*
X52774697Y-5585646D01*
X52774699Y-5585647D01*
X52899997Y-5605492D01*
X52900000Y-5605492D01*
X52900003Y-5605492D01*
X53025300Y-5585647D01*
X53025301Y-5585647D01*
X53025302Y-5585646D01*
X53025304Y-5585646D01*
X53138342Y-5528050D01*
X53228050Y-5438342D01*
X53285646Y-5325304D01*
X53285646Y-5325302D01*
X53285647Y-5325301D01*
X53285647Y-5325300D01*
X53305492Y-5200003D01*
X53305492Y-5199996D01*
X53285647Y-5074699D01*
X53285647Y-5074698D01*
X53278636Y-5060938D01*
X53228050Y-4961658D01*
X53228046Y-4961654D01*
X53228045Y-4961652D01*
X53138347Y-4871954D01*
X53138344Y-4871952D01*
X53138342Y-4871950D01*
X53025304Y-4814354D01*
X53025303Y-4814353D01*
X53025300Y-4814352D01*
X52900003Y-4794508D01*
X52899997Y-4794508D01*
X52774699Y-4814352D01*
X52774698Y-4814352D01*
X52699337Y-4852751D01*
X52661658Y-4871950D01*
X52661657Y-4871951D01*
X52661652Y-4871954D01*
X52571954Y-4961652D01*
X52571951Y-4961657D01*
X52571950Y-4961658D01*
X52560305Y-4984513D01*
X52514352Y-5074698D01*
X52514352Y-5074699D01*
X52494508Y-5199996D01*
X49289655Y-5199996D01*
X49305492Y-5100003D01*
X49305492Y-5099996D01*
X49285647Y-4974699D01*
X49285647Y-4974698D01*
X49267125Y-4938347D01*
X49228050Y-4861658D01*
X49228046Y-4861654D01*
X49228045Y-4861652D01*
X49138347Y-4771954D01*
X49138343Y-4771951D01*
X49138342Y-4771950D01*
X49115839Y-4760484D01*
X49065043Y-4712511D01*
X49061944Y-4699996D01*
X50394508Y-4699996D01*
X50394508Y-4700003D01*
X50414352Y-4825300D01*
X50414352Y-4825301D01*
X50414354Y-4825304D01*
X50471950Y-4938342D01*
X50471952Y-4938344D01*
X50471954Y-4938347D01*
X50561652Y-5028045D01*
X50561654Y-5028046D01*
X50561658Y-5028050D01*
X50674696Y-5085646D01*
X50674697Y-5085646D01*
X50674699Y-5085647D01*
X50799997Y-5105492D01*
X50800000Y-5105492D01*
X50800003Y-5105492D01*
X50925300Y-5085647D01*
X50925301Y-5085647D01*
X50925302Y-5085646D01*
X50925304Y-5085646D01*
X51038342Y-5028050D01*
X51128050Y-4938342D01*
X51185646Y-4825304D01*
X51185646Y-4825302D01*
X51185647Y-4825301D01*
X51185647Y-4825300D01*
X51205492Y-4700003D01*
X51205492Y-4699996D01*
X51185647Y-4574699D01*
X51185647Y-4574698D01*
X51181415Y-4566392D01*
X51128050Y-4461658D01*
X51128046Y-4461654D01*
X51128045Y-4461652D01*
X51038347Y-4371954D01*
X51038344Y-4371952D01*
X51038342Y-4371950D01*
X50925304Y-4314354D01*
X50925303Y-4314353D01*
X50925300Y-4314352D01*
X50800003Y-4294508D01*
X50799997Y-4294508D01*
X50674699Y-4314352D01*
X50674698Y-4314352D01*
X50627607Y-4338347D01*
X50561658Y-4371950D01*
X50561657Y-4371951D01*
X50561652Y-4371954D01*
X50471954Y-4461652D01*
X50471951Y-4461657D01*
X50471950Y-4461658D01*
X50459727Y-4485647D01*
X50414352Y-4574698D01*
X50414352Y-4574699D01*
X50394508Y-4699996D01*
X49061944Y-4699996D01*
X49048248Y-4644690D01*
X49070785Y-4578555D01*
X49115838Y-4539515D01*
X49138342Y-4528050D01*
X49228050Y-4438342D01*
X49285646Y-4325304D01*
X49285646Y-4325302D01*
X49285647Y-4325301D01*
X49285647Y-4325300D01*
X49305492Y-4200003D01*
X49305492Y-4199996D01*
X49285647Y-4074699D01*
X49285647Y-4074698D01*
X49275856Y-4055482D01*
X49228050Y-3961658D01*
X49228046Y-3961654D01*
X49228045Y-3961652D01*
X49138347Y-3871954D01*
X49138344Y-3871952D01*
X49138342Y-3871950D01*
X49025304Y-3814354D01*
X49025303Y-3814353D01*
X49025300Y-3814352D01*
X48900003Y-3794508D01*
X48899997Y-3794508D01*
X48774699Y-3814352D01*
X48774698Y-3814352D01*
X48699337Y-3852751D01*
X48661658Y-3871950D01*
X48661657Y-3871951D01*
X48661652Y-3871954D01*
X48571954Y-3961652D01*
X48571951Y-3961657D01*
X48571950Y-3961658D01*
X48563083Y-3979060D01*
X48514352Y-4074698D01*
X48514352Y-4074699D01*
X48494508Y-4199996D01*
X48105492Y-4199996D01*
X48085647Y-4074699D01*
X48085647Y-4074698D01*
X48075856Y-4055482D01*
X48028050Y-3961658D01*
X48028046Y-3961654D01*
X48028045Y-3961652D01*
X47938347Y-3871954D01*
X47938344Y-3871952D01*
X47938342Y-3871950D01*
X47825304Y-3814354D01*
X47825303Y-3814353D01*
X47825300Y-3814352D01*
X47700003Y-3794508D01*
X47699997Y-3794508D01*
X47574699Y-3814352D01*
X47574698Y-3814352D01*
X47499337Y-3852751D01*
X47461658Y-3871950D01*
X47461657Y-3871951D01*
X47461652Y-3871954D01*
X47371954Y-3961652D01*
X47371951Y-3961657D01*
X47371950Y-3961658D01*
X47363083Y-3979060D01*
X47314352Y-4074698D01*
X47314352Y-4074699D01*
X47294508Y-4199996D01*
X46705492Y-4199996D01*
X46685647Y-4074699D01*
X46685647Y-4074698D01*
X46675856Y-4055482D01*
X46628050Y-3961658D01*
X46628046Y-3961654D01*
X46628045Y-3961652D01*
X46538347Y-3871954D01*
X46538344Y-3871952D01*
X46538342Y-3871950D01*
X46425304Y-3814354D01*
X46425303Y-3814353D01*
X46425300Y-3814352D01*
X46300003Y-3794508D01*
X46299997Y-3794508D01*
X46174699Y-3814352D01*
X46174698Y-3814352D01*
X46099337Y-3852751D01*
X46061658Y-3871950D01*
X46061657Y-3871951D01*
X46061652Y-3871954D01*
X45971954Y-3961652D01*
X45971951Y-3961657D01*
X45971950Y-3961658D01*
X45963083Y-3979060D01*
X45914352Y-4074698D01*
X45914352Y-4074699D01*
X45894508Y-4199996D01*
X45894508Y-4200003D01*
X45914352Y-4325300D01*
X45914352Y-4325301D01*
X45932805Y-4361517D01*
X45971950Y-4438342D01*
X45971952Y-4438344D01*
X45971954Y-4438347D01*
X46061652Y-4528045D01*
X46061655Y-4528047D01*
X46061658Y-4528050D01*
X46080574Y-4537688D01*
X46084161Y-4539516D01*
X46134956Y-4587490D01*
X46151751Y-4655312D01*
X46129213Y-4721446D01*
X46084161Y-4760484D01*
X46061659Y-4771949D01*
X46061652Y-4771954D01*
X45971954Y-4861652D01*
X45971951Y-4861657D01*
X45971950Y-4861658D01*
X45966704Y-4871954D01*
X45914352Y-4974698D01*
X45914352Y-4974699D01*
X45894508Y-5099996D01*
X45894508Y-5100003D01*
X45914352Y-5225300D01*
X45914352Y-5225301D01*
X45914354Y-5225304D01*
X45971950Y-5338342D01*
X45971952Y-5338344D01*
X45971954Y-5338347D01*
X46061652Y-5428045D01*
X46061655Y-5428047D01*
X46061658Y-5428050D01*
X46080574Y-5437688D01*
X46084161Y-5439516D01*
X46134956Y-5487490D01*
X46151751Y-5555312D01*
X46129213Y-5621446D01*
X46084161Y-5660484D01*
X46061659Y-5671949D01*
X46061652Y-5671954D01*
X45971954Y-5761652D01*
X45971951Y-5761657D01*
X45914352Y-5874698D01*
X45914352Y-5874699D01*
X45894508Y-5999996D01*
X45894508Y-6000003D01*
X45914352Y-6125300D01*
X45914352Y-6125301D01*
X45915752Y-6128048D01*
X45971950Y-6238342D01*
X45971952Y-6238344D01*
X45971954Y-6238347D01*
X46061652Y-6328045D01*
X46061655Y-6328047D01*
X46061658Y-6328050D01*
X46080574Y-6337688D01*
X46084161Y-6339516D01*
X46134956Y-6387490D01*
X46151751Y-6455312D01*
X46129213Y-6521446D01*
X46084161Y-6560484D01*
X46061659Y-6571949D01*
X46061652Y-6571954D01*
X45971954Y-6661652D01*
X45971951Y-6661657D01*
X45914352Y-6774698D01*
X45914352Y-6774699D01*
X45894508Y-6899996D01*
X45894508Y-6899997D01*
X45894508Y-6900000D01*
X45895378Y-6905492D01*
X45904960Y-6965993D01*
X45896004Y-7035287D01*
X45851007Y-7088738D01*
X45784255Y-7109377D01*
X45716942Y-7090651D01*
X45694805Y-7073071D01*
X44538715Y-5916982D01*
X44505230Y-5855659D01*
X44503924Y-5809897D01*
X44505492Y-5800000D01*
X44505492Y-5799996D01*
X44485647Y-5674699D01*
X44485647Y-5674698D01*
X44478405Y-5660484D01*
X44428050Y-5561658D01*
X44428049Y-5561657D01*
X44427326Y-5560238D01*
X44414430Y-5491569D01*
X44440706Y-5426828D01*
X44450121Y-5416270D01*
X44528050Y-5338342D01*
X44585646Y-5225304D01*
X44585646Y-5225302D01*
X44585647Y-5225301D01*
X44585647Y-5225300D01*
X44605492Y-5100003D01*
X44605492Y-5099996D01*
X44585647Y-4974699D01*
X44585647Y-4974698D01*
X44567125Y-4938347D01*
X44528050Y-4861658D01*
X44528046Y-4861654D01*
X44528045Y-4861652D01*
X44438347Y-4771954D01*
X44438344Y-4771952D01*
X44438342Y-4771950D01*
X44325304Y-4714354D01*
X44325303Y-4714353D01*
X44325300Y-4714352D01*
X44200003Y-4694508D01*
X44199997Y-4694508D01*
X44074699Y-4714352D01*
X44074698Y-4714352D01*
X44016387Y-4744064D01*
X43961658Y-4771950D01*
X43961657Y-4771951D01*
X43961652Y-4771954D01*
X43871954Y-4861652D01*
X43871951Y-4861657D01*
X43871950Y-4861658D01*
X43866704Y-4871954D01*
X43814352Y-4974698D01*
X43814352Y-4974699D01*
X43794508Y-5099996D01*
X43794508Y-5100003D01*
X43814352Y-5225300D01*
X43814352Y-5225301D01*
X43872673Y-5339761D01*
X43885569Y-5408430D01*
X43859293Y-5473171D01*
X43849870Y-5483737D01*
X43771951Y-5561656D01*
X43771951Y-5561657D01*
X43771950Y-5561658D01*
X43759727Y-5585647D01*
X43714352Y-5674698D01*
X43714352Y-5674699D01*
X43694508Y-5799996D01*
X33340466Y-5799996D01*
X33340374Y-5761652D01*
X33335391Y-3686347D01*
X33354915Y-3619263D01*
X33407609Y-3573382D01*
X33476743Y-3563272D01*
X33528281Y-3582949D01*
X33622767Y-3646083D01*
X33622769Y-3646084D01*
X33622773Y-3646086D01*
X33719981Y-3686350D01*
X33736965Y-3693385D01*
X33736969Y-3693385D01*
X33736970Y-3693386D01*
X33858194Y-3717500D01*
X33858197Y-3717500D01*
X34781805Y-3717500D01*
X34897389Y-3694508D01*
X34903035Y-3693385D01*
X35017233Y-3646083D01*
X35120008Y-3577411D01*
X35207411Y-3490008D01*
X35276083Y-3387233D01*
X35323385Y-3273035D01*
X35347500Y-3151805D01*
X37322499Y-3151805D01*
X37346613Y-3273029D01*
X37346616Y-3273039D01*
X37393913Y-3387226D01*
X37393920Y-3387239D01*
X37462588Y-3490007D01*
X37462591Y-3490011D01*
X37549988Y-3577408D01*
X37549992Y-3577411D01*
X37652760Y-3646079D01*
X37652773Y-3646086D01*
X37749981Y-3686350D01*
X37766965Y-3693385D01*
X37766969Y-3693385D01*
X37766970Y-3693386D01*
X37862430Y-3712375D01*
X37924341Y-3744760D01*
X37958915Y-3805476D01*
X37955175Y-3875246D01*
X37914308Y-3931917D01*
X37870333Y-3953766D01*
X37775935Y-3979060D01*
X37775933Y-3979061D01*
X37775932Y-3979061D01*
X37643568Y-4055482D01*
X37643562Y-4055486D01*
X37535486Y-4163562D01*
X37535482Y-4163568D01*
X37459061Y-4295932D01*
X37459060Y-4295935D01*
X37419500Y-4443576D01*
X37419500Y-4596424D01*
X37453000Y-4721446D01*
X37459060Y-4744064D01*
X37459061Y-4744067D01*
X37468540Y-4760485D01*
X37535484Y-4876435D01*
X37643565Y-4984516D01*
X37775935Y-5060940D01*
X37923576Y-5100500D01*
X37923578Y-5100500D01*
X38076422Y-5100500D01*
X38076424Y-5100500D01*
X38224065Y-5060940D01*
X38356435Y-4984516D01*
X38464516Y-4876435D01*
X38540940Y-4744065D01*
X38580500Y-4596424D01*
X38580500Y-4443576D01*
X38540940Y-4295935D01*
X38464516Y-4163565D01*
X38356435Y-4055484D01*
X38224065Y-3979060D01*
X38157688Y-3961274D01*
X38098028Y-3924910D01*
X38067499Y-3862063D01*
X38075794Y-3792687D01*
X38120279Y-3738810D01*
X38186831Y-3717535D01*
X38189782Y-3717500D01*
X39111805Y-3717500D01*
X39227389Y-3694508D01*
X39233035Y-3693385D01*
X39347233Y-3646083D01*
X39450008Y-3577411D01*
X39537411Y-3490008D01*
X39597555Y-3399996D01*
X41394508Y-3399996D01*
X41394508Y-3400003D01*
X41414352Y-3525300D01*
X41414352Y-3525301D01*
X41414354Y-3525304D01*
X41471950Y-3638342D01*
X41471952Y-3638344D01*
X41471954Y-3638347D01*
X41561652Y-3728045D01*
X41561656Y-3728048D01*
X41561658Y-3728050D01*
X41672170Y-3784358D01*
X41722964Y-3832332D01*
X41739759Y-3900153D01*
X41726358Y-3951136D01*
X41714353Y-3974695D01*
X41714352Y-3974699D01*
X41694508Y-4099996D01*
X41694508Y-4100003D01*
X41714352Y-4225300D01*
X41714352Y-4225301D01*
X41714354Y-4225304D01*
X41771950Y-4338342D01*
X41771952Y-4338344D01*
X41771954Y-4338347D01*
X41861652Y-4428045D01*
X41861654Y-4428046D01*
X41861658Y-4428050D01*
X41974696Y-4485646D01*
X41974697Y-4485646D01*
X41974699Y-4485647D01*
X42099997Y-4505492D01*
X42100000Y-4505492D01*
X42100003Y-4505492D01*
X42225300Y-4485647D01*
X42225301Y-4485647D01*
X42225302Y-4485646D01*
X42225304Y-4485646D01*
X42338342Y-4428050D01*
X42428050Y-4338342D01*
X42485646Y-4225304D01*
X42485646Y-4225302D01*
X42485647Y-4225301D01*
X42485647Y-4225300D01*
X42505492Y-4100003D01*
X42505492Y-4099996D01*
X42485647Y-3974699D01*
X42485647Y-3974698D01*
X42479000Y-3961652D01*
X42428050Y-3861658D01*
X42428046Y-3861654D01*
X42428045Y-3861652D01*
X42338347Y-3771954D01*
X42338343Y-3771951D01*
X42338342Y-3771950D01*
X42284979Y-3744760D01*
X42227831Y-3715641D01*
X42177036Y-3667667D01*
X42160241Y-3599846D01*
X42173643Y-3548861D01*
X42185646Y-3525304D01*
X42185646Y-3525302D01*
X42185647Y-3525300D01*
X42205492Y-3400003D01*
X42205492Y-3399996D01*
X42185647Y-3274699D01*
X42185647Y-3274698D01*
X42184797Y-3273029D01*
X42128050Y-3161658D01*
X42128046Y-3161654D01*
X42128045Y-3161652D01*
X42038347Y-3071954D01*
X42038344Y-3071952D01*
X42038342Y-3071950D01*
X41925304Y-3014354D01*
X41925303Y-3014353D01*
X41925300Y-3014352D01*
X41800003Y-2994508D01*
X41799997Y-2994508D01*
X41674699Y-3014352D01*
X41674698Y-3014352D01*
X41599337Y-3052751D01*
X41561658Y-3071950D01*
X41561657Y-3071951D01*
X41561652Y-3071954D01*
X41471954Y-3161652D01*
X41471951Y-3161657D01*
X41414352Y-3274698D01*
X41414352Y-3274699D01*
X41394508Y-3399996D01*
X39597555Y-3399996D01*
X39606083Y-3387233D01*
X39653385Y-3273035D01*
X39677500Y-3151803D01*
X39677500Y-3028197D01*
X39677500Y-3028194D01*
X39653386Y-2906970D01*
X39653385Y-2906969D01*
X39653385Y-2906965D01*
X39644555Y-2885647D01*
X39606086Y-2792773D01*
X39606079Y-2792760D01*
X39537411Y-2689992D01*
X39537408Y-2689988D01*
X39450011Y-2602591D01*
X39450007Y-2602588D01*
X39347239Y-2533920D01*
X39347226Y-2533913D01*
X39265342Y-2499996D01*
X44694508Y-2499996D01*
X44694508Y-2500003D01*
X44714352Y-2625300D01*
X44714352Y-2625301D01*
X44714354Y-2625304D01*
X44771950Y-2738342D01*
X44771952Y-2738344D01*
X44771954Y-2738347D01*
X44861652Y-2828045D01*
X44861654Y-2828046D01*
X44861658Y-2828050D01*
X44974696Y-2885646D01*
X44974697Y-2885646D01*
X44974699Y-2885647D01*
X45099997Y-2905492D01*
X45100000Y-2905492D01*
X45100003Y-2905492D01*
X45225300Y-2885647D01*
X45225301Y-2885647D01*
X45225302Y-2885646D01*
X45225304Y-2885646D01*
X45338342Y-2828050D01*
X45428050Y-2738342D01*
X45485646Y-2625304D01*
X45493532Y-2575511D01*
X45523460Y-2512379D01*
X45582771Y-2475447D01*
X45652633Y-2476443D01*
X45672300Y-2484426D01*
X45674695Y-2485646D01*
X45674696Y-2485646D01*
X45674698Y-2485647D01*
X45799996Y-2505492D01*
X45799999Y-2505492D01*
X45800002Y-2505492D01*
X45925299Y-2485647D01*
X45925300Y-2485647D01*
X45925301Y-2485646D01*
X45925303Y-2485646D01*
X46038341Y-2428050D01*
X46128049Y-2338342D01*
X46185645Y-2225304D01*
X46185645Y-2225302D01*
X46185646Y-2225301D01*
X46185646Y-2225300D01*
X46205491Y-2100003D01*
X46205491Y-2099996D01*
X46185646Y-1974699D01*
X46185646Y-1974698D01*
X46185645Y-1974696D01*
X46128049Y-1861658D01*
X46128045Y-1861654D01*
X46128044Y-1861652D01*
X46038346Y-1771954D01*
X46038343Y-1771952D01*
X46038341Y-1771950D01*
X45925303Y-1714354D01*
X45925302Y-1714353D01*
X45925299Y-1714352D01*
X45800002Y-1694508D01*
X45799996Y-1694508D01*
X45674698Y-1714352D01*
X45674697Y-1714352D01*
X45599336Y-1752751D01*
X45561657Y-1771950D01*
X45561656Y-1771951D01*
X45561651Y-1771954D01*
X45471953Y-1861652D01*
X45471950Y-1861657D01*
X45414351Y-1974698D01*
X45414351Y-1974699D01*
X45406466Y-2024487D01*
X45376537Y-2087622D01*
X45317225Y-2124553D01*
X45247362Y-2123555D01*
X45227699Y-2115574D01*
X45225304Y-2114353D01*
X45225300Y-2114352D01*
X45100003Y-2094508D01*
X45099997Y-2094508D01*
X44974699Y-2114352D01*
X44974698Y-2114352D01*
X44927607Y-2138347D01*
X44861658Y-2171950D01*
X44861657Y-2171951D01*
X44861652Y-2171954D01*
X44771954Y-2261652D01*
X44771951Y-2261657D01*
X44771950Y-2261658D01*
X44759727Y-2285647D01*
X44714352Y-2374698D01*
X44714352Y-2374699D01*
X44694508Y-2499996D01*
X39265342Y-2499996D01*
X39233039Y-2486616D01*
X39233029Y-2486613D01*
X39111805Y-2462500D01*
X39111803Y-2462500D01*
X37888197Y-2462500D01*
X37888195Y-2462500D01*
X37766970Y-2486613D01*
X37766960Y-2486616D01*
X37652773Y-2533913D01*
X37652760Y-2533920D01*
X37549992Y-2602588D01*
X37549988Y-2602591D01*
X37462591Y-2689988D01*
X37462588Y-2689992D01*
X37393920Y-2792760D01*
X37393913Y-2792773D01*
X37346616Y-2906960D01*
X37346613Y-2906970D01*
X37322500Y-3028194D01*
X37322500Y-3028197D01*
X37322500Y-3151803D01*
X37322500Y-3151805D01*
X37322499Y-3151805D01*
X35347500Y-3151805D01*
X35347500Y-3151803D01*
X35347500Y-3028197D01*
X35347500Y-3028194D01*
X35323386Y-2906970D01*
X35323385Y-2906969D01*
X35323385Y-2906965D01*
X35314555Y-2885647D01*
X35276086Y-2792773D01*
X35276079Y-2792760D01*
X35207411Y-2689992D01*
X35207408Y-2689988D01*
X35120011Y-2602591D01*
X35120007Y-2602588D01*
X35017239Y-2533920D01*
X35017226Y-2533913D01*
X34903039Y-2486616D01*
X34903029Y-2486613D01*
X34781805Y-2462500D01*
X34781803Y-2462500D01*
X33858197Y-2462500D01*
X33858195Y-2462500D01*
X33736970Y-2486613D01*
X33736960Y-2486616D01*
X33622773Y-2533913D01*
X33622760Y-2533920D01*
X33525425Y-2598958D01*
X33458747Y-2619836D01*
X33391367Y-2601351D01*
X33344677Y-2549372D01*
X33332534Y-2496154D01*
X33332487Y-2476443D01*
X33329422Y-1199996D01*
X44394508Y-1199996D01*
X44394508Y-1200003D01*
X44414352Y-1325300D01*
X44414352Y-1325301D01*
X44432805Y-1361517D01*
X44471950Y-1438342D01*
X44471952Y-1438344D01*
X44471954Y-1438347D01*
X44561652Y-1528045D01*
X44561654Y-1528046D01*
X44561658Y-1528050D01*
X44674696Y-1585646D01*
X44674697Y-1585646D01*
X44674699Y-1585647D01*
X44799997Y-1605492D01*
X44800000Y-1605492D01*
X44800003Y-1605492D01*
X44925300Y-1585647D01*
X44925301Y-1585647D01*
X44925302Y-1585646D01*
X44925304Y-1585646D01*
X45038342Y-1528050D01*
X45128050Y-1438342D01*
X45185646Y-1325304D01*
X45185646Y-1325302D01*
X45185647Y-1325301D01*
X45185647Y-1325300D01*
X45205492Y-1200003D01*
X45205492Y-1199996D01*
X45185647Y-1074699D01*
X45185647Y-1074698D01*
X45180497Y-1064590D01*
X45128050Y-961658D01*
X45128046Y-961654D01*
X45128045Y-961652D01*
X45038347Y-871954D01*
X45038344Y-871952D01*
X45038342Y-871950D01*
X44925304Y-814354D01*
X44925303Y-814353D01*
X44925300Y-814352D01*
X44800003Y-794508D01*
X44799997Y-794508D01*
X44674699Y-814352D01*
X44674698Y-814352D01*
X44599337Y-852751D01*
X44561658Y-871950D01*
X44561657Y-871951D01*
X44561652Y-871954D01*
X44471954Y-961652D01*
X44471951Y-961657D01*
X44471950Y-961658D01*
X44452751Y-999337D01*
X44414352Y-1074698D01*
X44414352Y-1074699D01*
X44394508Y-1199996D01*
X33329422Y-1199996D01*
X33326952Y-171159D01*
X33346476Y-104076D01*
X33351162Y-99996D01*
X45194508Y-99996D01*
X45194508Y-100003D01*
X45214352Y-225300D01*
X45214352Y-225301D01*
X45232805Y-261517D01*
X45271950Y-338342D01*
X45271952Y-338344D01*
X45271954Y-338347D01*
X45361652Y-428045D01*
X45361654Y-428046D01*
X45361658Y-428050D01*
X45474696Y-485646D01*
X45474697Y-485646D01*
X45474699Y-485647D01*
X45599997Y-505492D01*
X45600000Y-505492D01*
X45600003Y-505492D01*
X45725300Y-485647D01*
X45725301Y-485647D01*
X45725302Y-485646D01*
X45725304Y-485646D01*
X45838342Y-428050D01*
X45928050Y-338342D01*
X45985646Y-225304D01*
X45985646Y-225302D01*
X45985647Y-225301D01*
X45985647Y-225300D01*
X46005492Y-100003D01*
X46005492Y-99996D01*
X45989654Y4D01*
X46294508Y4D01*
X46294508Y-3D01*
X46314352Y-125300D01*
X46314352Y-125301D01*
X46314354Y-125304D01*
X46371950Y-238342D01*
X46371952Y-238344D01*
X46371954Y-238347D01*
X46461652Y-328045D01*
X46461654Y-328046D01*
X46461658Y-328050D01*
X46574696Y-385646D01*
X46574697Y-385646D01*
X46574699Y-385647D01*
X46699997Y-405492D01*
X46700000Y-405492D01*
X46700003Y-405492D01*
X46825300Y-385647D01*
X46825301Y-385647D01*
X46825302Y-385646D01*
X46825304Y-385646D01*
X46938342Y-328050D01*
X46962319Y-304072D01*
X47023640Y-270588D01*
X47093332Y-275572D01*
X47137680Y-304072D01*
X47161658Y-328050D01*
X47274696Y-385646D01*
X47274697Y-385646D01*
X47274699Y-385647D01*
X47399997Y-405492D01*
X47400000Y-405492D01*
X47400003Y-405492D01*
X47525300Y-385647D01*
X47525301Y-385647D01*
X47525302Y-385646D01*
X47525304Y-385646D01*
X47638342Y-328050D01*
X47728050Y-238342D01*
X47785646Y-125304D01*
X47785646Y-125302D01*
X47785647Y-125301D01*
X47785647Y-125300D01*
X47789655Y-99996D01*
X48294508Y-99996D01*
X48294508Y-100003D01*
X48314352Y-225300D01*
X48314352Y-225301D01*
X48332805Y-261517D01*
X48371950Y-338342D01*
X48371952Y-338344D01*
X48371954Y-338347D01*
X48461652Y-428045D01*
X48461654Y-428046D01*
X48461658Y-428050D01*
X48574696Y-485646D01*
X48574697Y-485646D01*
X48574699Y-485647D01*
X48699997Y-505492D01*
X48700000Y-505492D01*
X48700003Y-505492D01*
X48825300Y-485647D01*
X48825301Y-485647D01*
X48825302Y-485646D01*
X48825304Y-485646D01*
X48938342Y-428050D01*
X49028050Y-338342D01*
X49085646Y-225304D01*
X49085646Y-225302D01*
X49085647Y-225301D01*
X49085647Y-225300D01*
X49089655Y-199996D01*
X49394508Y-199996D01*
X49394508Y-200003D01*
X49414352Y-325300D01*
X49414352Y-325301D01*
X49429155Y-354352D01*
X49471950Y-438342D01*
X49471952Y-438344D01*
X49471954Y-438347D01*
X49561652Y-528045D01*
X49561654Y-528046D01*
X49561658Y-528050D01*
X49674696Y-585646D01*
X49674697Y-585646D01*
X49674699Y-585647D01*
X49799997Y-605492D01*
X49800000Y-605492D01*
X49800003Y-605492D01*
X49925300Y-585647D01*
X49925301Y-585647D01*
X49925302Y-585646D01*
X49925304Y-585646D01*
X50038342Y-528050D01*
X50128050Y-438342D01*
X50185646Y-325304D01*
X50185646Y-325302D01*
X50185647Y-325301D01*
X50185647Y-325300D01*
X50205492Y-200003D01*
X50205492Y-199996D01*
X50185647Y-74699D01*
X50185647Y-74698D01*
X50172087Y-48085D01*
X50128050Y38342D01*
X50128046Y38346D01*
X50128045Y38348D01*
X50038347Y128046D01*
X50038344Y128048D01*
X50038342Y128050D01*
X49925304Y185646D01*
X49925303Y185647D01*
X49925300Y185648D01*
X49800003Y205492D01*
X49799997Y205492D01*
X49674699Y185648D01*
X49674698Y185648D01*
X49599337Y147249D01*
X49561658Y128050D01*
X49561657Y128049D01*
X49561652Y128046D01*
X49471954Y38348D01*
X49471951Y38343D01*
X49471950Y38342D01*
X49456755Y8521D01*
X49414352Y-74698D01*
X49414352Y-74699D01*
X49394508Y-199996D01*
X49089655Y-199996D01*
X49105492Y-100003D01*
X49105492Y-99996D01*
X49085647Y25301D01*
X49085647Y25302D01*
X49076254Y43737D01*
X49028050Y138342D01*
X49028046Y138346D01*
X49028045Y138348D01*
X48938347Y228046D01*
X48938344Y228048D01*
X48938342Y228050D01*
X48825304Y285646D01*
X48825303Y285647D01*
X48825300Y285648D01*
X48700003Y305492D01*
X48699997Y305492D01*
X48574699Y285648D01*
X48574698Y285648D01*
X48499337Y247249D01*
X48461658Y228050D01*
X48461657Y228049D01*
X48461652Y228046D01*
X48371954Y138348D01*
X48371951Y138343D01*
X48371950Y138342D01*
X48352751Y100663D01*
X48314352Y25302D01*
X48314352Y25301D01*
X48294508Y-99996D01*
X47789655Y-99996D01*
X47805492Y-3D01*
X47805492Y4D01*
X47785647Y125301D01*
X47785647Y125302D01*
X47779000Y138348D01*
X47728050Y238342D01*
X47728046Y238346D01*
X47728045Y238348D01*
X47638347Y328046D01*
X47638344Y328048D01*
X47638342Y328050D01*
X47525304Y385646D01*
X47525303Y385647D01*
X47525300Y385648D01*
X47400003Y405492D01*
X47399997Y405492D01*
X47274699Y385648D01*
X47274698Y385648D01*
X47199337Y347249D01*
X47161658Y328050D01*
X47161657Y328049D01*
X47161652Y328046D01*
X47137681Y304074D01*
X47076358Y270589D01*
X47006666Y275573D01*
X46962319Y304074D01*
X46938347Y328046D01*
X46938344Y328048D01*
X46938342Y328050D01*
X46825304Y385646D01*
X46825303Y385647D01*
X46825300Y385648D01*
X46700003Y405492D01*
X46699997Y405492D01*
X46574699Y385648D01*
X46574698Y385648D01*
X46499337Y347249D01*
X46461658Y328050D01*
X46461657Y328049D01*
X46461652Y328046D01*
X46371954Y238348D01*
X46371951Y238343D01*
X46371950Y238342D01*
X46366704Y228046D01*
X46314352Y125302D01*
X46314352Y125301D01*
X46294508Y4D01*
X45989654Y4D01*
X45985647Y25301D01*
X45985647Y25302D01*
X45976254Y43737D01*
X45928050Y138342D01*
X45928046Y138346D01*
X45928045Y138348D01*
X45838347Y228046D01*
X45838344Y228048D01*
X45838342Y228050D01*
X45725304Y285646D01*
X45725303Y285647D01*
X45725300Y285648D01*
X45600003Y305492D01*
X45599997Y305492D01*
X45474699Y285648D01*
X45474698Y285648D01*
X45399337Y247249D01*
X45361658Y228050D01*
X45361657Y228049D01*
X45361652Y228046D01*
X45271954Y138348D01*
X45271951Y138343D01*
X45271950Y138342D01*
X45252751Y100663D01*
X45214352Y25302D01*
X45214352Y25301D01*
X45194508Y-99996D01*
X33351162Y-99996D01*
X33399170Y-58195D01*
X33468304Y-48085D01*
X33470350Y-48392D01*
X33599998Y-68926D01*
X33600000Y-68926D01*
X33600003Y-68926D01*
X33725300Y-49081D01*
X33725301Y-49081D01*
X33725302Y-49080D01*
X33725304Y-49080D01*
X33838342Y8516D01*
X33928050Y98224D01*
X33985646Y211262D01*
X33985646Y211264D01*
X33985647Y211265D01*
X33985647Y211266D01*
X34005492Y336563D01*
X34005492Y336570D01*
X33985647Y461867D01*
X33985647Y461868D01*
X33975858Y481079D01*
X33928050Y574908D01*
X33928046Y574912D01*
X33928045Y574914D01*
X33838347Y664612D01*
X33838344Y664614D01*
X33838342Y664616D01*
X33725304Y722212D01*
X33725303Y722213D01*
X33725300Y722214D01*
X33600003Y742058D01*
X33599997Y742058D01*
X33467914Y721139D01*
X33398621Y730094D01*
X33345169Y775090D01*
X33324530Y841842D01*
X33324517Y843314D01*
X33323353Y1328050D01*
X33322220Y1800004D01*
X41394508Y1800004D01*
X41394508Y1799997D01*
X41414352Y1674700D01*
X41414352Y1674699D01*
X41414354Y1674696D01*
X41471950Y1561658D01*
X41471952Y1561656D01*
X41471954Y1561653D01*
X41495926Y1537681D01*
X41529411Y1476358D01*
X41524427Y1406666D01*
X41495926Y1362319D01*
X41471954Y1338348D01*
X41471951Y1338343D01*
X41471950Y1338342D01*
X41459727Y1314353D01*
X41414352Y1225302D01*
X41414352Y1225301D01*
X41394508Y1100004D01*
X41394508Y1099997D01*
X41414352Y974700D01*
X41414352Y974699D01*
X41432805Y938483D01*
X41471950Y861658D01*
X41471952Y861656D01*
X41471954Y861653D01*
X41561652Y771955D01*
X41561654Y771954D01*
X41561658Y771950D01*
X41674696Y714354D01*
X41674697Y714354D01*
X41674699Y714353D01*
X41799997Y694508D01*
X41800000Y694508D01*
X41800003Y694508D01*
X41925300Y714353D01*
X41925301Y714353D01*
X41925302Y714354D01*
X41925304Y714354D01*
X42038342Y771950D01*
X42128050Y861658D01*
X42139515Y884161D01*
X42187489Y934957D01*
X42255310Y951752D01*
X42321445Y929215D01*
X42360485Y884160D01*
X42371949Y861660D01*
X42371954Y861653D01*
X42461652Y771955D01*
X42461654Y771954D01*
X42461658Y771950D01*
X42574696Y714354D01*
X42574697Y714354D01*
X42574699Y714353D01*
X42699997Y694508D01*
X42700000Y694508D01*
X42700003Y694508D01*
X42825300Y714353D01*
X42825301Y714353D01*
X42825302Y714354D01*
X42825304Y714354D01*
X42938342Y771950D01*
X43028050Y861658D01*
X43085646Y974696D01*
X43085646Y974698D01*
X43085647Y974699D01*
X43085647Y974700D01*
X43105492Y1099997D01*
X43105492Y1100004D01*
X45194508Y1100004D01*
X45194508Y1099997D01*
X45214352Y974700D01*
X45214352Y974699D01*
X45232805Y938483D01*
X45271950Y861658D01*
X45271952Y861656D01*
X45271954Y861653D01*
X45361652Y771955D01*
X45361654Y771954D01*
X45361658Y771950D01*
X45474696Y714354D01*
X45474697Y714354D01*
X45474699Y714353D01*
X45599997Y694508D01*
X45600000Y694508D01*
X45600003Y694508D01*
X45725300Y714353D01*
X45725301Y714353D01*
X45725302Y714354D01*
X45725304Y714354D01*
X45838342Y771950D01*
X45928050Y861658D01*
X45985646Y974696D01*
X45985646Y974698D01*
X45985647Y974699D01*
X45985647Y974700D01*
X46005492Y1099997D01*
X46005492Y1100004D01*
X46294508Y1100004D01*
X46294508Y1099997D01*
X46314352Y974700D01*
X46314352Y974699D01*
X46332805Y938483D01*
X46371950Y861658D01*
X46371952Y861656D01*
X46371954Y861653D01*
X46461652Y771955D01*
X46461654Y771954D01*
X46461658Y771950D01*
X46574696Y714354D01*
X46574697Y714354D01*
X46574699Y714353D01*
X46699997Y694508D01*
X46700000Y694508D01*
X46700003Y694508D01*
X46825300Y714353D01*
X46825301Y714353D01*
X46825302Y714354D01*
X46825304Y714354D01*
X46938342Y771950D01*
X46962319Y795928D01*
X47023640Y829412D01*
X47093332Y824428D01*
X47137680Y795928D01*
X47161658Y771950D01*
X47274696Y714354D01*
X47274697Y714354D01*
X47274699Y714353D01*
X47399997Y694508D01*
X47400000Y694508D01*
X47400003Y694508D01*
X47525300Y714353D01*
X47525301Y714353D01*
X47525302Y714354D01*
X47525304Y714354D01*
X47638342Y771950D01*
X47728050Y861658D01*
X47785646Y974696D01*
X47785646Y974698D01*
X47785647Y974699D01*
X47785647Y974700D01*
X47805492Y1099997D01*
X47805492Y1100004D01*
X48294508Y1100004D01*
X48294508Y1099997D01*
X48314352Y974700D01*
X48314352Y974699D01*
X48332805Y938483D01*
X48371950Y861658D01*
X48371952Y861656D01*
X48371954Y861653D01*
X48461652Y771955D01*
X48461654Y771954D01*
X48461658Y771950D01*
X48574696Y714354D01*
X48574697Y714354D01*
X48574699Y714353D01*
X48699997Y694508D01*
X48700000Y694508D01*
X48700003Y694508D01*
X48825300Y714353D01*
X48825301Y714353D01*
X48825302Y714354D01*
X48825304Y714354D01*
X48938342Y771950D01*
X49028050Y861658D01*
X49085646Y974696D01*
X49085646Y974698D01*
X49085647Y974699D01*
X49085647Y974700D01*
X49089655Y1000004D01*
X50094508Y1000004D01*
X50094508Y999997D01*
X50114352Y874700D01*
X50114352Y874699D01*
X50130344Y843314D01*
X50171950Y761658D01*
X50171952Y761656D01*
X50171954Y761653D01*
X50261652Y671955D01*
X50261654Y671954D01*
X50261658Y671950D01*
X50374696Y614354D01*
X50442899Y603552D01*
X50506032Y573624D01*
X50542964Y514313D01*
X50547500Y481079D01*
X50547500Y-850226D01*
X50585941Y-943030D01*
X51458189Y-1815278D01*
X51491674Y-1876601D01*
X51493518Y-1893755D01*
X51514352Y-2025300D01*
X51514352Y-2025301D01*
X51514354Y-2025304D01*
X51571950Y-2138342D01*
X51571952Y-2138344D01*
X51571954Y-2138347D01*
X51661652Y-2228045D01*
X51661654Y-2228046D01*
X51661658Y-2228050D01*
X51774696Y-2285646D01*
X51774697Y-2285646D01*
X51774699Y-2285647D01*
X51899997Y-2305492D01*
X51900000Y-2305492D01*
X51900003Y-2305492D01*
X52025300Y-2285647D01*
X52025301Y-2285647D01*
X52025302Y-2285646D01*
X52025304Y-2285646D01*
X52138342Y-2228050D01*
X52228050Y-2138342D01*
X52285646Y-2025304D01*
X52285646Y-2025302D01*
X52285647Y-2025301D01*
X52285647Y-2025300D01*
X52305492Y-1900003D01*
X52305492Y-1899996D01*
X52285647Y-1774699D01*
X52285647Y-1774698D01*
X52284247Y-1771950D01*
X52228050Y-1661658D01*
X52228045Y-1661653D01*
X52222311Y-1653759D01*
X52224357Y-1652272D01*
X52197720Y-1603489D01*
X52202704Y-1533797D01*
X52244576Y-1477864D01*
X52262585Y-1466650D01*
X52338342Y-1428050D01*
X52428050Y-1338342D01*
X52485646Y-1225304D01*
X52485646Y-1225302D01*
X52485647Y-1225301D01*
X52485647Y-1225300D01*
X52505492Y-1100003D01*
X52505492Y-1099996D01*
X52485647Y-974699D01*
X52485647Y-974698D01*
X52469511Y-943030D01*
X52428050Y-861658D01*
X52428046Y-861654D01*
X52428045Y-861652D01*
X52338347Y-771954D01*
X52338344Y-771952D01*
X52338342Y-771950D01*
X52225304Y-714354D01*
X52225303Y-714353D01*
X52225300Y-714352D01*
X52100003Y-694508D01*
X52099997Y-694508D01*
X51974699Y-714352D01*
X51974698Y-714352D01*
X51924357Y-740003D01*
X51861658Y-771950D01*
X51861657Y-771951D01*
X51861652Y-771954D01*
X51771954Y-861652D01*
X51771951Y-861657D01*
X51771950Y-861658D01*
X51766704Y-871954D01*
X51714353Y-974698D01*
X51700115Y-1064590D01*
X51670185Y-1127724D01*
X51610874Y-1164655D01*
X51541011Y-1163657D01*
X51489961Y-1132872D01*
X51088819Y-731730D01*
X51055334Y-670407D01*
X51052500Y-644049D01*
X51052500Y750224D01*
X51052499Y750227D01*
X51043499Y771955D01*
X51014059Y843030D01*
X50943030Y914059D01*
X50941811Y915278D01*
X50908326Y976601D01*
X50906481Y993753D01*
X50885647Y1125301D01*
X50885647Y1125302D01*
X50866672Y1162542D01*
X50828050Y1238342D01*
X50828046Y1238346D01*
X50828045Y1238348D01*
X50738347Y1328046D01*
X50738344Y1328048D01*
X50738342Y1328050D01*
X50625304Y1385646D01*
X50625303Y1385647D01*
X50625300Y1385648D01*
X50500003Y1405492D01*
X50499997Y1405492D01*
X50374699Y1385648D01*
X50374698Y1385648D01*
X50327607Y1361653D01*
X50261658Y1328050D01*
X50261657Y1328049D01*
X50261652Y1328046D01*
X50171954Y1238348D01*
X50171951Y1238343D01*
X50171950Y1238342D01*
X50159727Y1214353D01*
X50114352Y1125302D01*
X50114352Y1125301D01*
X50094508Y1000004D01*
X49089655Y1000004D01*
X49105492Y1099997D01*
X49105492Y1100001D01*
X49095586Y1162542D01*
X49104540Y1231836D01*
X49149536Y1285288D01*
X49216288Y1305928D01*
X49237453Y1304415D01*
X49282935Y1297211D01*
X49299999Y1294508D01*
X49300000Y1294508D01*
X49300003Y1294508D01*
X49425300Y1314353D01*
X49425301Y1314353D01*
X49425302Y1314354D01*
X49425304Y1314354D01*
X49538342Y1371950D01*
X49628050Y1461658D01*
X49685646Y1574696D01*
X49685646Y1574698D01*
X49685647Y1574699D01*
X49685647Y1574700D01*
X49689655Y1600004D01*
X52294508Y1600004D01*
X52294508Y1599997D01*
X52314352Y1474700D01*
X52314352Y1474699D01*
X52326937Y1450000D01*
X52371950Y1361658D01*
X52371952Y1361656D01*
X52371954Y1361653D01*
X52461652Y1271955D01*
X52461654Y1271954D01*
X52461658Y1271950D01*
X52574696Y1214354D01*
X52574697Y1214354D01*
X52574699Y1214353D01*
X52699997Y1194508D01*
X52700000Y1194508D01*
X52700003Y1194508D01*
X52825300Y1214353D01*
X52825301Y1214353D01*
X52825302Y1214354D01*
X52825304Y1214354D01*
X52938342Y1271950D01*
X53028050Y1361658D01*
X53085646Y1474696D01*
X53085646Y1474698D01*
X53085647Y1474699D01*
X53085647Y1474700D01*
X53105492Y1599997D01*
X53105492Y1600004D01*
X53085647Y1725301D01*
X53085647Y1725302D01*
X53085646Y1725304D01*
X53028050Y1838342D01*
X53028046Y1838346D01*
X53028045Y1838348D01*
X52938347Y1928046D01*
X52938344Y1928048D01*
X52938342Y1928050D01*
X52825304Y1985646D01*
X52825303Y1985647D01*
X52825300Y1985648D01*
X52700003Y2005492D01*
X52699997Y2005492D01*
X52574699Y1985648D01*
X52574698Y1985648D01*
X52534262Y1965044D01*
X52461658Y1928050D01*
X52461657Y1928049D01*
X52461652Y1928046D01*
X52371954Y1838348D01*
X52371951Y1838343D01*
X52371950Y1838342D01*
X52352751Y1800663D01*
X52314352Y1725302D01*
X52314352Y1725301D01*
X52294508Y1600004D01*
X49689655Y1600004D01*
X49705492Y1699997D01*
X49705492Y1700004D01*
X49685647Y1825301D01*
X49685647Y1825302D01*
X49679000Y1838348D01*
X49628050Y1938342D01*
X49628046Y1938346D01*
X49628045Y1938348D01*
X49538347Y2028046D01*
X49538344Y2028048D01*
X49538342Y2028050D01*
X49425304Y2085646D01*
X49425303Y2085647D01*
X49425300Y2085648D01*
X49300003Y2105492D01*
X49299997Y2105492D01*
X49174699Y2085648D01*
X49174698Y2085648D01*
X49099337Y2047249D01*
X49061658Y2028050D01*
X49061657Y2028049D01*
X49061652Y2028046D01*
X48971954Y1938348D01*
X48971951Y1938343D01*
X48971950Y1938342D01*
X48952751Y1900663D01*
X48914352Y1825302D01*
X48914352Y1825301D01*
X48894508Y1700004D01*
X48894508Y1699997D01*
X48904413Y1637457D01*
X48895458Y1568164D01*
X48850462Y1514712D01*
X48783710Y1494073D01*
X48762543Y1495587D01*
X48700003Y1505492D01*
X48699997Y1505492D01*
X48574699Y1485648D01*
X48574698Y1485648D01*
X48527607Y1461653D01*
X48461658Y1428050D01*
X48461657Y1428049D01*
X48461652Y1428046D01*
X48371954Y1338348D01*
X48371951Y1338343D01*
X48371950Y1338342D01*
X48359727Y1314353D01*
X48314352Y1225302D01*
X48314352Y1225301D01*
X48294508Y1100004D01*
X47805492Y1100004D01*
X47785647Y1225301D01*
X47785647Y1225302D01*
X47779000Y1238348D01*
X47728050Y1338342D01*
X47728046Y1338346D01*
X47728045Y1338348D01*
X47638347Y1428046D01*
X47638344Y1428048D01*
X47638342Y1428050D01*
X47525304Y1485646D01*
X47525303Y1485647D01*
X47525300Y1485648D01*
X47400003Y1505492D01*
X47399997Y1505492D01*
X47274699Y1485648D01*
X47274698Y1485648D01*
X47227607Y1461653D01*
X47161658Y1428050D01*
X47161657Y1428049D01*
X47161652Y1428046D01*
X47137681Y1404074D01*
X47076358Y1370589D01*
X47006666Y1375573D01*
X46962319Y1404074D01*
X46938347Y1428046D01*
X46938344Y1428048D01*
X46938342Y1428050D01*
X46825304Y1485646D01*
X46825303Y1485647D01*
X46825300Y1485648D01*
X46700003Y1505492D01*
X46699997Y1505492D01*
X46574699Y1485648D01*
X46574698Y1485648D01*
X46527607Y1461653D01*
X46461658Y1428050D01*
X46461657Y1428049D01*
X46461652Y1428046D01*
X46371954Y1338348D01*
X46371951Y1338343D01*
X46371950Y1338342D01*
X46359727Y1314353D01*
X46314352Y1225302D01*
X46314352Y1225301D01*
X46294508Y1100004D01*
X46005492Y1100004D01*
X45985647Y1225301D01*
X45985647Y1225302D01*
X45979000Y1238348D01*
X45928050Y1338342D01*
X45928046Y1338346D01*
X45928045Y1338348D01*
X45838347Y1428046D01*
X45838344Y1428048D01*
X45838342Y1428050D01*
X45725304Y1485646D01*
X45725303Y1485647D01*
X45725300Y1485648D01*
X45600003Y1505492D01*
X45599997Y1505492D01*
X45474699Y1485648D01*
X45474698Y1485648D01*
X45427607Y1461653D01*
X45361658Y1428050D01*
X45361657Y1428049D01*
X45361652Y1428046D01*
X45271954Y1338348D01*
X45271951Y1338343D01*
X45271950Y1338342D01*
X45259727Y1314353D01*
X45214352Y1225302D01*
X45214352Y1225301D01*
X45194508Y1100004D01*
X43105492Y1100004D01*
X43085647Y1225301D01*
X43085647Y1225302D01*
X43079000Y1238348D01*
X43028050Y1338342D01*
X43004072Y1362320D01*
X42970588Y1423640D01*
X42975572Y1493332D01*
X43004072Y1537681D01*
X43028050Y1561658D01*
X43085646Y1674696D01*
X43085646Y1674698D01*
X43085647Y1674699D01*
X43085647Y1674700D01*
X43105492Y1799997D01*
X43105492Y1800004D01*
X43085647Y1925301D01*
X43085647Y1925302D01*
X43062471Y1970787D01*
X43028050Y2038342D01*
X43028046Y2038346D01*
X43028045Y2038348D01*
X42938347Y2128046D01*
X42938344Y2128048D01*
X42938342Y2128050D01*
X42825304Y2185646D01*
X42825303Y2185647D01*
X42825300Y2185648D01*
X42700003Y2205492D01*
X42699997Y2205492D01*
X42574699Y2185648D01*
X42574698Y2185648D01*
X42499337Y2147249D01*
X42461658Y2128050D01*
X42461657Y2128049D01*
X42461652Y2128046D01*
X42371954Y2038348D01*
X42371949Y2038341D01*
X42360484Y2015839D01*
X42312510Y1965044D01*
X42244688Y1948249D01*
X42178554Y1970787D01*
X42139516Y2015839D01*
X42133296Y2028046D01*
X42128050Y2038342D01*
X42128047Y2038345D01*
X42128045Y2038348D01*
X42038347Y2128046D01*
X42038344Y2128048D01*
X42038342Y2128050D01*
X41925304Y2185646D01*
X41925303Y2185647D01*
X41925300Y2185648D01*
X41800003Y2205492D01*
X41799997Y2205492D01*
X41674699Y2185648D01*
X41674698Y2185648D01*
X41599337Y2147249D01*
X41561658Y2128050D01*
X41561657Y2128049D01*
X41561652Y2128046D01*
X41471954Y2038348D01*
X41471951Y2038343D01*
X41471950Y2038342D01*
X41466704Y2028046D01*
X41414352Y1925302D01*
X41414352Y1925301D01*
X41394508Y1800004D01*
X33322220Y1800004D01*
X33317514Y3760004D01*
X35294508Y3760004D01*
X35294508Y3759997D01*
X35314352Y3634700D01*
X35314352Y3634699D01*
X35314354Y3634696D01*
X35371950Y3521658D01*
X35371952Y3521656D01*
X35371954Y3521653D01*
X35461652Y3431955D01*
X35461654Y3431954D01*
X35461658Y3431950D01*
X35574696Y3374354D01*
X35574697Y3374354D01*
X35574699Y3374353D01*
X35699997Y3354508D01*
X35700000Y3354508D01*
X35700003Y3354508D01*
X35825300Y3374353D01*
X35825301Y3374353D01*
X35825302Y3374354D01*
X35825304Y3374354D01*
X35938342Y3431950D01*
X36028050Y3521658D01*
X36085646Y3634696D01*
X36085646Y3634698D01*
X36085647Y3634699D01*
X36085647Y3634700D01*
X36095990Y3700004D01*
X52694508Y3700004D01*
X52694508Y3699997D01*
X52714352Y3574700D01*
X52714352Y3574699D01*
X52714354Y3574696D01*
X52771950Y3461658D01*
X52771952Y3461656D01*
X52771954Y3461653D01*
X52861652Y3371955D01*
X52861654Y3371954D01*
X52861658Y3371950D01*
X52974696Y3314354D01*
X52974697Y3314354D01*
X52974699Y3314353D01*
X53099997Y3294508D01*
X53100000Y3294508D01*
X53100003Y3294508D01*
X53225300Y3314353D01*
X53225301Y3314353D01*
X53225302Y3314354D01*
X53225304Y3314354D01*
X53338342Y3371950D01*
X53428050Y3461658D01*
X53485646Y3574696D01*
X53485646Y3574698D01*
X53485647Y3574699D01*
X53485647Y3574700D01*
X53505492Y3699997D01*
X53505492Y3700004D01*
X53485647Y3825301D01*
X53485647Y3825302D01*
X53485646Y3825304D01*
X53428050Y3938342D01*
X53428046Y3938346D01*
X53428045Y3938348D01*
X53338347Y4028046D01*
X53338344Y4028048D01*
X53338342Y4028050D01*
X53225304Y4085646D01*
X53225303Y4085647D01*
X53225300Y4085648D01*
X53100003Y4105492D01*
X53099997Y4105492D01*
X52974699Y4085648D01*
X52974698Y4085648D01*
X52899337Y4047249D01*
X52861658Y4028050D01*
X52861657Y4028049D01*
X52861652Y4028046D01*
X52771954Y3938348D01*
X52771951Y3938343D01*
X52714352Y3825302D01*
X52714352Y3825301D01*
X52694508Y3700004D01*
X36095990Y3700004D01*
X36105492Y3759997D01*
X36105492Y3760004D01*
X36085647Y3885301D01*
X36085647Y3885302D01*
X36085646Y3885304D01*
X36028050Y3998342D01*
X36028044Y3998348D01*
X36022311Y4006241D01*
X36024357Y4007728D01*
X35997720Y4056511D01*
X36002704Y4126203D01*
X36044576Y4182136D01*
X36062585Y4193350D01*
X36138342Y4231950D01*
X36228050Y4321658D01*
X36285646Y4434696D01*
X36285646Y4434698D01*
X36285647Y4434699D01*
X36285647Y4434700D01*
X36305492Y4559997D01*
X36305492Y4560004D01*
X36285647Y4685301D01*
X36285647Y4685302D01*
X36285646Y4685304D01*
X36228050Y4798342D01*
X36228046Y4798346D01*
X36228045Y4798348D01*
X36134073Y4892320D01*
X36100588Y4953643D01*
X36105572Y5023335D01*
X36124245Y5052354D01*
X36122311Y5053759D01*
X36128042Y5061651D01*
X36128050Y5061658D01*
X36185646Y5174696D01*
X36185646Y5174698D01*
X36185647Y5174699D01*
X36185647Y5174700D01*
X36205492Y5299997D01*
X36205492Y5300004D01*
X36185647Y5425301D01*
X36185647Y5425302D01*
X36176431Y5443389D01*
X36128050Y5538342D01*
X36128046Y5538346D01*
X36128045Y5538348D01*
X36038347Y5628046D01*
X36038343Y5628049D01*
X36038342Y5628050D01*
X36038340Y5628051D01*
X36036099Y5629679D01*
X36034026Y5632367D01*
X36031442Y5634951D01*
X36031775Y5635285D01*
X35993432Y5685007D01*
X35987450Y5754621D01*
X36020053Y5816417D01*
X36036099Y5830321D01*
X36038335Y5831947D01*
X36038342Y5831950D01*
X36128050Y5921658D01*
X36185646Y6034696D01*
X36185646Y6034698D01*
X36185647Y6034699D01*
X36185647Y6034700D01*
X36205492Y6159997D01*
X36205492Y6160004D01*
X36199157Y6200004D01*
X37694508Y6200004D01*
X37694508Y6199997D01*
X37714352Y6074700D01*
X37714352Y6074699D01*
X37714354Y6074696D01*
X37771950Y5961658D01*
X37771952Y5961656D01*
X37771954Y5961653D01*
X37795926Y5937681D01*
X37829411Y5876358D01*
X37824427Y5806666D01*
X37795926Y5762319D01*
X37771954Y5738348D01*
X37771951Y5738343D01*
X37771950Y5738342D01*
X37755212Y5705492D01*
X37714352Y5625302D01*
X37714352Y5625301D01*
X37694508Y5500004D01*
X37694508Y5499997D01*
X37714352Y5374700D01*
X37714352Y5374699D01*
X37732805Y5338483D01*
X37771950Y5261658D01*
X37771952Y5261656D01*
X37771954Y5261653D01*
X37795926Y5237681D01*
X37829411Y5176358D01*
X37824427Y5106666D01*
X37795926Y5062319D01*
X37771954Y5038348D01*
X37771951Y5038343D01*
X37714352Y4925302D01*
X37714352Y4925301D01*
X37694508Y4800004D01*
X37694508Y4799997D01*
X37714352Y4674700D01*
X37714352Y4674699D01*
X37714354Y4674696D01*
X37771950Y4561658D01*
X37771952Y4561656D01*
X37771954Y4561653D01*
X37861652Y4471955D01*
X37861654Y4471954D01*
X37861658Y4471950D01*
X37974696Y4414354D01*
X37974697Y4414354D01*
X37974699Y4414353D01*
X38099997Y4394508D01*
X38100000Y4394508D01*
X38100003Y4394508D01*
X38225300Y4414353D01*
X38225301Y4414353D01*
X38225302Y4414354D01*
X38225304Y4414354D01*
X38338342Y4471950D01*
X38428050Y4561658D01*
X38485646Y4674696D01*
X38485646Y4674698D01*
X38485647Y4674699D01*
X38485647Y4674700D01*
X38505492Y4799997D01*
X38505492Y4800004D01*
X38485647Y4925301D01*
X38485647Y4925302D01*
X38467125Y4961653D01*
X38428050Y5038342D01*
X38404072Y5062320D01*
X38370588Y5123640D01*
X38375572Y5193332D01*
X38379860Y5200004D01*
X45694508Y5200004D01*
X45694508Y5199997D01*
X45714352Y5074700D01*
X45714352Y5074699D01*
X45725022Y5053759D01*
X45771950Y4961658D01*
X45771952Y4961656D01*
X45771954Y4961653D01*
X45861652Y4871955D01*
X45861654Y4871954D01*
X45861658Y4871950D01*
X45974696Y4814354D01*
X45974697Y4814354D01*
X45974699Y4814353D01*
X46099997Y4794508D01*
X46100000Y4794508D01*
X46100003Y4794508D01*
X46225300Y4814353D01*
X46225301Y4814353D01*
X46225302Y4814354D01*
X46225304Y4814354D01*
X46338342Y4871950D01*
X46428050Y4961658D01*
X46485646Y5074696D01*
X46485646Y5074698D01*
X46485647Y5074699D01*
X46485647Y5074700D01*
X46505492Y5199997D01*
X46505492Y5200004D01*
X46485647Y5325301D01*
X46485647Y5325302D01*
X46470730Y5354578D01*
X46428050Y5438342D01*
X46428046Y5438346D01*
X46428045Y5438348D01*
X46338347Y5528046D01*
X46338344Y5528048D01*
X46338342Y5528050D01*
X46225304Y5585646D01*
X46225303Y5585647D01*
X46225300Y5585648D01*
X46100003Y5605492D01*
X46099997Y5605492D01*
X45974699Y5585648D01*
X45974698Y5585648D01*
X45899337Y5547249D01*
X45861658Y5528050D01*
X45861657Y5528049D01*
X45861652Y5528046D01*
X45771954Y5438348D01*
X45771951Y5438343D01*
X45771950Y5438342D01*
X45764545Y5423808D01*
X45714352Y5325302D01*
X45714352Y5325301D01*
X45694508Y5200004D01*
X38379860Y5200004D01*
X38404072Y5237681D01*
X38428050Y5261658D01*
X38485646Y5374696D01*
X38485646Y5374698D01*
X38485647Y5374699D01*
X38485647Y5374700D01*
X38505492Y5499997D01*
X38505492Y5500004D01*
X38485647Y5625301D01*
X38485647Y5625302D01*
X38482047Y5632367D01*
X38428050Y5738342D01*
X38404072Y5762320D01*
X38370588Y5823640D01*
X38375572Y5893332D01*
X38404072Y5937681D01*
X38428050Y5961658D01*
X38485646Y6074696D01*
X38485646Y6074698D01*
X38485647Y6074699D01*
X38485647Y6074700D01*
X38505492Y6199997D01*
X38505492Y6200004D01*
X38485647Y6325301D01*
X38485647Y6325302D01*
X38485646Y6325304D01*
X38428050Y6438342D01*
X38428046Y6438346D01*
X38428045Y6438348D01*
X38338347Y6528046D01*
X38338344Y6528048D01*
X38338342Y6528050D01*
X38225304Y6585646D01*
X38225303Y6585647D01*
X38225300Y6585648D01*
X38100003Y6605492D01*
X38099997Y6605492D01*
X37974699Y6585648D01*
X37974698Y6585648D01*
X37899337Y6547249D01*
X37861658Y6528050D01*
X37861657Y6528049D01*
X37861652Y6528046D01*
X37771954Y6438348D01*
X37771951Y6438343D01*
X37714352Y6325302D01*
X37714352Y6325301D01*
X37694508Y6200004D01*
X36199157Y6200004D01*
X36185647Y6285301D01*
X36185647Y6285302D01*
X36180956Y6294508D01*
X36128050Y6398342D01*
X36128046Y6398346D01*
X36128045Y6398348D01*
X36038347Y6488046D01*
X36038344Y6488048D01*
X36038342Y6488050D01*
X35925304Y6545646D01*
X35925303Y6545647D01*
X35925300Y6545648D01*
X35800003Y6565492D01*
X35799997Y6565492D01*
X35674699Y6545648D01*
X35674698Y6545648D01*
X35599337Y6507249D01*
X35561658Y6488050D01*
X35561657Y6488049D01*
X35561652Y6488046D01*
X35471954Y6398348D01*
X35471951Y6398343D01*
X35414352Y6285302D01*
X35414352Y6285301D01*
X35394508Y6160004D01*
X35394508Y6159997D01*
X35414352Y6034700D01*
X35414352Y6034699D01*
X35414354Y6034696D01*
X35471950Y5921658D01*
X35471952Y5921656D01*
X35471954Y5921653D01*
X35561658Y5831949D01*
X35563904Y5830317D01*
X35565972Y5827635D01*
X35568558Y5825049D01*
X35568223Y5824715D01*
X35606570Y5774987D01*
X35612548Y5705374D01*
X35579942Y5643579D01*
X35563904Y5629683D01*
X35561658Y5628052D01*
X35471954Y5538348D01*
X35471951Y5538343D01*
X35471950Y5538342D01*
X35466704Y5528046D01*
X35414352Y5425302D01*
X35414352Y5425301D01*
X35394508Y5300004D01*
X35394508Y5299997D01*
X35414352Y5174700D01*
X35414352Y5174699D01*
X35414354Y5174696D01*
X35471950Y5061658D01*
X35471952Y5061656D01*
X35471954Y5061653D01*
X35565926Y4967681D01*
X35599411Y4906358D01*
X35594427Y4836666D01*
X35575769Y4807636D01*
X35577689Y4806241D01*
X35571951Y4798343D01*
X35571950Y4798342D01*
X35552751Y4760663D01*
X35514352Y4685302D01*
X35514352Y4685301D01*
X35494508Y4560004D01*
X35494508Y4559997D01*
X35514352Y4434700D01*
X35514352Y4434699D01*
X35514354Y4434696D01*
X35571950Y4321658D01*
X35571953Y4321655D01*
X35577689Y4313759D01*
X35575641Y4312272D01*
X35602279Y4263490D01*
X35597295Y4193798D01*
X35555423Y4137865D01*
X35537409Y4126648D01*
X35461659Y4088051D01*
X35461652Y4088046D01*
X35371954Y3998348D01*
X35371951Y3998343D01*
X35314352Y3885302D01*
X35314352Y3885301D01*
X35294508Y3760004D01*
X33317514Y3760004D01*
X33310455Y6700004D01*
X45394508Y6700004D01*
X45394508Y6699997D01*
X45414352Y6574700D01*
X45414352Y6574699D01*
X45429155Y6545648D01*
X45471950Y6461658D01*
X45471952Y6461656D01*
X45471954Y6461653D01*
X45561652Y6371955D01*
X45561654Y6371954D01*
X45561658Y6371950D01*
X45674696Y6314354D01*
X45674697Y6314354D01*
X45674699Y6314353D01*
X45799997Y6294508D01*
X45800000Y6294508D01*
X45800003Y6294508D01*
X45925300Y6314353D01*
X45925301Y6314353D01*
X45925302Y6314354D01*
X45925304Y6314354D01*
X46038342Y6371950D01*
X46128050Y6461658D01*
X46185646Y6574696D01*
X46185646Y6574698D01*
X46185647Y6574699D01*
X46185647Y6574700D01*
X46205492Y6699997D01*
X46205492Y6700004D01*
X46185647Y6825301D01*
X46185647Y6825302D01*
X46185646Y6825304D01*
X46128050Y6938342D01*
X46128046Y6938346D01*
X46128045Y6938348D01*
X46038347Y7028046D01*
X46038344Y7028048D01*
X46038342Y7028050D01*
X45925304Y7085646D01*
X45925303Y7085647D01*
X45925300Y7085648D01*
X45800003Y7105492D01*
X45799997Y7105492D01*
X45674699Y7085648D01*
X45674698Y7085648D01*
X45599337Y7047249D01*
X45561658Y7028050D01*
X45561657Y7028049D01*
X45561652Y7028046D01*
X45471954Y6938348D01*
X45471951Y6938343D01*
X45414352Y6825302D01*
X45414352Y6825301D01*
X45394508Y6700004D01*
X33310455Y6700004D01*
X33308534Y7500004D01*
X56394508Y7500004D01*
X56394508Y7499997D01*
X56414352Y7374700D01*
X56414352Y7374699D01*
X56414354Y7374696D01*
X56471950Y7261658D01*
X56471952Y7261656D01*
X56471954Y7261653D01*
X56561652Y7171955D01*
X56561654Y7171954D01*
X56561658Y7171950D01*
X56674696Y7114354D01*
X56674697Y7114354D01*
X56674699Y7114353D01*
X56799997Y7094508D01*
X56800000Y7094508D01*
X56800003Y7094508D01*
X56925300Y7114353D01*
X56925301Y7114353D01*
X56925302Y7114354D01*
X56925304Y7114354D01*
X57038342Y7171950D01*
X57128050Y7261658D01*
X57185646Y7374696D01*
X57185646Y7374698D01*
X57185647Y7374699D01*
X57185647Y7374700D01*
X57205492Y7499997D01*
X57205492Y7500004D01*
X57185647Y7625301D01*
X57185647Y7625302D01*
X57185646Y7625304D01*
X57128050Y7738342D01*
X57128046Y7738346D01*
X57128045Y7738348D01*
X57038347Y7828046D01*
X57038344Y7828048D01*
X57038342Y7828050D01*
X56925304Y7885646D01*
X56925303Y7885647D01*
X56925300Y7885648D01*
X56800003Y7905492D01*
X56799997Y7905492D01*
X56674699Y7885648D01*
X56674698Y7885648D01*
X56611045Y7853214D01*
X56561658Y7828050D01*
X56561657Y7828049D01*
X56561652Y7828046D01*
X56471954Y7738348D01*
X56471951Y7738343D01*
X56471950Y7738342D01*
X56463729Y7722207D01*
X56414352Y7625302D01*
X56414352Y7625301D01*
X56394508Y7500004D01*
X33308534Y7500004D01*
X33304684Y9103847D01*
X44099500Y9103847D01*
X44099500Y8396154D01*
X44130261Y8241511D01*
X44130264Y8241499D01*
X44190602Y8095828D01*
X44190609Y8095815D01*
X44278210Y7964712D01*
X44278213Y7964708D01*
X44389707Y7853214D01*
X44389711Y7853211D01*
X44520814Y7765610D01*
X44520827Y7765603D01*
X44625596Y7722207D01*
X44666503Y7705263D01*
X44806810Y7677354D01*
X44821153Y7674501D01*
X44821156Y7674500D01*
X44821158Y7674500D01*
X44978844Y7674500D01*
X44978845Y7674501D01*
X45133497Y7705263D01*
X45279179Y7765606D01*
X45410289Y7853211D01*
X45521789Y7964711D01*
X45609394Y8095821D01*
X45669737Y8241503D01*
X45700500Y8396158D01*
X45700500Y9103842D01*
X45700500Y9103845D01*
X45700499Y9103847D01*
X45678518Y9214353D01*
X45669737Y9258497D01*
X45627007Y9361658D01*
X45609397Y9404173D01*
X45609390Y9404186D01*
X45592629Y9429270D01*
X46099500Y9429270D01*
X46099500Y8070731D01*
X46102353Y8040301D01*
X46102353Y8040299D01*
X46147206Y7912120D01*
X46147207Y7912118D01*
X46227850Y7802850D01*
X46337118Y7722207D01*
X46379845Y7707256D01*
X46465299Y7677354D01*
X46495730Y7674500D01*
X46495734Y7674500D01*
X47304270Y7674500D01*
X47334699Y7677354D01*
X47334701Y7677354D01*
X47398790Y7699781D01*
X47462882Y7722207D01*
X47572150Y7802850D01*
X47652793Y7912118D01*
X47683546Y8000004D01*
X51994508Y8000004D01*
X51994508Y7999997D01*
X52014352Y7874700D01*
X52014352Y7874699D01*
X52025301Y7853211D01*
X52071950Y7761658D01*
X52071952Y7761656D01*
X52071954Y7761653D01*
X52161652Y7671955D01*
X52161654Y7671954D01*
X52161658Y7671950D01*
X52274696Y7614354D01*
X52274697Y7614354D01*
X52274699Y7614353D01*
X52399997Y7594508D01*
X52400000Y7594508D01*
X52400003Y7594508D01*
X52525300Y7614353D01*
X52525301Y7614353D01*
X52525302Y7614354D01*
X52525304Y7614354D01*
X52638342Y7671950D01*
X52728050Y7761658D01*
X52785646Y7874696D01*
X52785646Y7874698D01*
X52789515Y7882290D01*
X52837490Y7933086D01*
X52905311Y7949881D01*
X52971446Y7927343D01*
X53010485Y7882290D01*
X53014353Y7874698D01*
X53014354Y7874696D01*
X53071950Y7761658D01*
X53071952Y7761656D01*
X53071954Y7761653D01*
X53161652Y7671955D01*
X53161654Y7671954D01*
X53161658Y7671950D01*
X53274696Y7614354D01*
X53274697Y7614354D01*
X53274699Y7614353D01*
X53399997Y7594508D01*
X53400000Y7594508D01*
X53400003Y7594508D01*
X53525300Y7614353D01*
X53525301Y7614353D01*
X53525302Y7614354D01*
X53525304Y7614354D01*
X53638342Y7671950D01*
X53728050Y7761658D01*
X53785646Y7874696D01*
X53785646Y7874698D01*
X53785647Y7874699D01*
X53785647Y7874700D01*
X53805492Y7999997D01*
X53805492Y8000004D01*
X53785647Y8125301D01*
X53785647Y8125302D01*
X53785646Y8125304D01*
X53728050Y8238342D01*
X53728046Y8238346D01*
X53728045Y8238348D01*
X53638347Y8328046D01*
X53638344Y8328048D01*
X53638342Y8328050D01*
X53525304Y8385646D01*
X53525303Y8385647D01*
X53525300Y8385648D01*
X53400003Y8405492D01*
X53399997Y8405492D01*
X53274699Y8385648D01*
X53274698Y8385648D01*
X53199337Y8347249D01*
X53161658Y8328050D01*
X53161657Y8328049D01*
X53161652Y8328046D01*
X53071954Y8238348D01*
X53071949Y8238341D01*
X53010484Y8117710D01*
X52962510Y8066915D01*
X52894689Y8050120D01*
X52828554Y8072658D01*
X52789516Y8117710D01*
X52755150Y8185155D01*
X52728050Y8238342D01*
X52728047Y8238345D01*
X52728045Y8238348D01*
X52638347Y8328046D01*
X52638344Y8328048D01*
X52638342Y8328050D01*
X52525304Y8385646D01*
X52525303Y8385647D01*
X52525300Y8385648D01*
X52400003Y8405492D01*
X52399997Y8405492D01*
X52274699Y8385648D01*
X52274698Y8385648D01*
X52199337Y8347249D01*
X52161658Y8328050D01*
X52161657Y8328049D01*
X52161652Y8328046D01*
X52071954Y8238348D01*
X52071951Y8238343D01*
X52071950Y8238342D01*
X52052751Y8200663D01*
X52014352Y8125302D01*
X52014352Y8125301D01*
X51994508Y8000004D01*
X47683546Y8000004D01*
X47697646Y8040299D01*
X47697646Y8040301D01*
X47700500Y8070731D01*
X47700500Y9429270D01*
X47697646Y9459700D01*
X47697646Y9459702D01*
X47652793Y9587881D01*
X47652792Y9587883D01*
X47572150Y9697150D01*
X47462882Y9777793D01*
X47462880Y9777794D01*
X47334700Y9822647D01*
X47304270Y9825500D01*
X47304266Y9825500D01*
X46495734Y9825500D01*
X46495730Y9825500D01*
X46465300Y9822647D01*
X46465298Y9822647D01*
X46337119Y9777794D01*
X46337117Y9777793D01*
X46227850Y9697150D01*
X46147207Y9587883D01*
X46147206Y9587881D01*
X46102353Y9459702D01*
X46102353Y9459700D01*
X46099500Y9429270D01*
X45592629Y9429270D01*
X45521789Y9535289D01*
X45521786Y9535293D01*
X45410292Y9646787D01*
X45410288Y9646790D01*
X45279185Y9734391D01*
X45279172Y9734398D01*
X45133501Y9794736D01*
X45133489Y9794739D01*
X44978845Y9825500D01*
X44978842Y9825500D01*
X44821158Y9825500D01*
X44821155Y9825500D01*
X44666510Y9794739D01*
X44666498Y9794736D01*
X44520827Y9734398D01*
X44520814Y9734391D01*
X44389711Y9646790D01*
X44389707Y9646787D01*
X44278213Y9535293D01*
X44278210Y9535289D01*
X44190609Y9404186D01*
X44190602Y9404173D01*
X44130264Y9258502D01*
X44130261Y9258490D01*
X44099500Y9103847D01*
X33304684Y9103847D01*
X33302184Y10144917D01*
X33321708Y10212001D01*
X33374402Y10257882D01*
X33443536Y10267992D01*
X33445547Y10267691D01*
X33495317Y10259808D01*
X33550457Y10251074D01*
X33550459Y10251074D01*
X33550462Y10251074D01*
X33675759Y10270919D01*
X33675760Y10270919D01*
X33675761Y10270920D01*
X33675763Y10270920D01*
X33788801Y10328516D01*
X33878509Y10418224D01*
X33936105Y10531262D01*
X33936105Y10531264D01*
X33936106Y10531265D01*
X33936106Y10531266D01*
X33955951Y10656563D01*
X33955951Y10666325D01*
X33959880Y10666325D01*
X33966293Y10716500D01*
X34011214Y10770015D01*
X34077937Y10790748D01*
X34099279Y10789236D01*
X34199902Y10773299D01*
X34199904Y10773299D01*
X34199907Y10773299D01*
X34325204Y10793144D01*
X34325205Y10793144D01*
X34325206Y10793145D01*
X34325208Y10793145D01*
X34438246Y10850741D01*
X34527954Y10940449D01*
X34585550Y11053487D01*
X34585550Y11053489D01*
X34585551Y11053490D01*
X34585551Y11053491D01*
X34605396Y11178788D01*
X34605396Y11178793D01*
X34589465Y11279375D01*
X34588626Y11284674D01*
X34597580Y11353966D01*
X34642577Y11407418D01*
X34709328Y11428058D01*
X34711041Y11428071D01*
X36988918Y11427087D01*
G37*
G04 #@! TD.AperFunction*
G04 #@! TD*
M02*
