G04 #@! TF.GenerationSoftware,KiCad,Pcbnew,8.0.4*
G04 #@! TF.CreationDate,2024-07-24T18:14:05+02:00*
G04 #@! TF.ProjectId,ESP32-C3-V3,45535033-322d-4433-932d-56332e6b6963,rev?*
G04 #@! TF.SameCoordinates,Original*
G04 #@! TF.FileFunction,Paste,Top*
G04 #@! TF.FilePolarity,Positive*
%FSLAX46Y46*%
G04 Gerber Fmt 4.6, Leading zero omitted, Abs format (unit mm)*
G04 Created by KiCad (PCBNEW 8.0.4) date 2024-07-24 18:14:05*
%MOMM*%
%LPD*%
G01*
G04 APERTURE LIST*
G04 Aperture macros list*
%AMRoundRect*
0 Rectangle with rounded corners*
0 $1 Rounding radius*
0 $2 $3 $4 $5 $6 $7 $8 $9 X,Y pos of 4 corners*
0 Add a 4 corners polygon primitive as box body*
4,1,4,$2,$3,$4,$5,$6,$7,$8,$9,$2,$3,0*
0 Add four circle primitives for the rounded corners*
1,1,$1+$1,$2,$3*
1,1,$1+$1,$4,$5*
1,1,$1+$1,$6,$7*
1,1,$1+$1,$8,$9*
0 Add four rect primitives between the rounded corners*
20,1,$1+$1,$2,$3,$4,$5,0*
20,1,$1+$1,$4,$5,$6,$7,0*
20,1,$1+$1,$6,$7,$8,$9,0*
20,1,$1+$1,$8,$9,$2,$3,0*%
G04 Aperture macros list end*
%ADD10RoundRect,0.140000X-0.170000X0.140000X-0.170000X-0.140000X0.170000X-0.140000X0.170000X0.140000X0*%
%ADD11RoundRect,0.135000X-0.185000X0.135000X-0.185000X-0.135000X0.185000X-0.135000X0.185000X0.135000X0*%
%ADD12RoundRect,0.140000X-0.140000X-0.170000X0.140000X-0.170000X0.140000X0.170000X-0.140000X0.170000X0*%
%ADD13RoundRect,0.140000X0.170000X-0.140000X0.170000X0.140000X-0.170000X0.140000X-0.170000X-0.140000X0*%
%ADD14RoundRect,0.200000X0.200000X0.275000X-0.200000X0.275000X-0.200000X-0.275000X0.200000X-0.275000X0*%
%ADD15R,0.700000X0.600000*%
%ADD16RoundRect,0.218750X-0.256250X0.218750X-0.256250X-0.218750X0.256250X-0.218750X0.256250X0.218750X0*%
%ADD17R,1.140000X0.600000*%
%ADD18R,1.140000X0.300000*%
%ADD19RoundRect,0.135000X-0.135000X-0.185000X0.135000X-0.185000X0.135000X0.185000X-0.135000X0.185000X0*%
%ADD20RoundRect,0.135000X0.135000X0.185000X-0.135000X0.185000X-0.135000X-0.185000X0.135000X-0.185000X0*%
%ADD21RoundRect,0.135000X0.185000X-0.135000X0.185000X0.135000X-0.185000X0.135000X-0.185000X-0.135000X0*%
%ADD22RoundRect,0.140000X0.140000X0.170000X-0.140000X0.170000X-0.140000X-0.170000X0.140000X-0.170000X0*%
%ADD23RoundRect,0.250000X-0.250000X0.250000X-0.250000X-0.250000X0.250000X-0.250000X0.250000X0.250000X0*%
%ADD24RoundRect,0.150000X0.150000X0.700000X-0.150000X0.700000X-0.150000X-0.700000X0.150000X-0.700000X0*%
%ADD25RoundRect,0.250000X0.250000X1.100000X-0.250000X1.100000X-0.250000X-1.100000X0.250000X-1.100000X0*%
%ADD26RoundRect,0.150000X-0.587500X-0.150000X0.587500X-0.150000X0.587500X0.150000X-0.587500X0.150000X0*%
%ADD27R,1.500000X1.500000*%
%ADD28R,1.400000X1.600000*%
%ADD29RoundRect,0.150000X-0.150000X0.512500X-0.150000X-0.512500X0.150000X-0.512500X0.150000X0.512500X0*%
%ADD30RoundRect,0.250000X0.495000X0.495000X-0.495000X0.495000X-0.495000X-0.495000X0.495000X-0.495000X0*%
%ADD31RoundRect,0.062500X0.337500X0.062500X-0.337500X0.062500X-0.337500X-0.062500X0.337500X-0.062500X0*%
%ADD32RoundRect,0.062500X0.062500X0.337500X-0.062500X0.337500X-0.062500X-0.337500X0.062500X-0.337500X0*%
%ADD33R,1.400000X1.200000*%
%ADD34RoundRect,0.150000X0.150000X-0.675000X0.150000X0.675000X-0.150000X0.675000X-0.150000X-0.675000X0*%
%ADD35RoundRect,0.150000X0.512500X0.150000X-0.512500X0.150000X-0.512500X-0.150000X0.512500X-0.150000X0*%
G04 APERTURE END LIST*
D10*
G04 #@! TO.C,C3*
X54200000Y-7320000D03*
X54200000Y-8280000D03*
G04 #@! TD*
D11*
G04 #@! TO.C,R3*
X40400000Y-10890000D03*
X40400000Y-11910000D03*
G04 #@! TD*
D10*
G04 #@! TO.C,C5*
X48400000Y-920000D03*
X48400000Y-1880000D03*
G04 #@! TD*
D11*
G04 #@! TO.C,R14*
X34400000Y360000D03*
X34400000Y-660000D03*
G04 #@! TD*
G04 #@! TO.C,R9*
X59300000Y9710000D03*
X59300000Y8690000D03*
G04 #@! TD*
G04 #@! TO.C,R5*
X51700000Y-2790000D03*
X51700000Y-3810000D03*
G04 #@! TD*
D12*
G04 #@! TO.C,C1*
X50920000Y-9200000D03*
X51880000Y-9200000D03*
G04 #@! TD*
D13*
G04 #@! TO.C,C12*
X45700000Y-11180000D03*
X45700000Y-10220000D03*
G04 #@! TD*
D14*
G04 #@! TO.C,R20*
X39725000Y10700000D03*
X38075000Y10700000D03*
G04 #@! TD*
D11*
G04 #@! TO.C,R12*
X42800000Y-3590000D03*
X42800000Y-4610000D03*
G04 #@! TD*
D10*
G04 #@! TO.C,C11*
X44000000Y-3620000D03*
X44000000Y-4580000D03*
G04 #@! TD*
D13*
G04 #@! TO.C,C13*
X52700000Y-3760000D03*
X52700000Y-2800000D03*
G04 #@! TD*
D15*
G04 #@! TO.C,D1*
X41900000Y-5790000D03*
X40900000Y-5790000D03*
X40900000Y-7190000D03*
X41900000Y-7190000D03*
G04 #@! TD*
D16*
G04 #@! TO.C,D2*
X35660000Y9447500D03*
X35660000Y7872500D03*
G04 #@! TD*
D10*
G04 #@! TO.C,C6*
X51200000Y-7320000D03*
X51200000Y-8280000D03*
G04 #@! TD*
D17*
G04 #@! TO.C,U1*
X39070000Y-4210000D03*
X39070000Y-5010000D03*
D18*
X39070000Y-6160000D03*
X39070000Y-7160000D03*
X39070000Y-7660000D03*
X39070000Y-8660000D03*
D17*
X39070000Y-9810000D03*
X39070000Y-10610000D03*
X39070000Y-10610000D03*
X39070000Y-9810000D03*
D18*
X39070000Y-9160000D03*
X39070000Y-8160000D03*
X39070000Y-6660000D03*
X39070000Y-5660000D03*
D17*
X39070000Y-5010000D03*
X39070000Y-4210000D03*
G04 #@! TD*
D19*
G04 #@! TO.C,R4*
X45490000Y4350000D03*
X46510000Y4350000D03*
G04 #@! TD*
D20*
G04 #@! TO.C,R8*
X44000000Y-7800000D03*
X42980000Y-7800000D03*
G04 #@! TD*
D21*
G04 #@! TO.C,R1*
X52500000Y-11500000D03*
X52500000Y-10480000D03*
G04 #@! TD*
D22*
G04 #@! TO.C,C8*
X43680000Y-1700000D03*
X42720000Y-1700000D03*
G04 #@! TD*
D20*
G04 #@! TO.C,R16*
X41810000Y-1700000D03*
X40790000Y-1700000D03*
G04 #@! TD*
G04 #@! TO.C,R13*
X41910000Y10500000D03*
X40890000Y10500000D03*
G04 #@! TD*
D21*
G04 #@! TO.C,R19*
X53700000Y-6410000D03*
X53700000Y-5390000D03*
G04 #@! TD*
D20*
G04 #@! TO.C,L1*
X53210000Y-7400000D03*
X52190000Y-7400000D03*
G04 #@! TD*
D23*
G04 #@! TO.C,D4*
X37900000Y2150000D03*
X37900000Y-350000D03*
G04 #@! TD*
D24*
G04 #@! TO.C,J1*
X55900000Y6800000D03*
X54650000Y6800000D03*
X53400000Y6800000D03*
X52150000Y6800000D03*
D25*
X57750000Y10000000D03*
X50300000Y10000000D03*
G04 #@! TD*
D20*
G04 #@! TO.C,R15*
X38410000Y-1700000D03*
X37390000Y-1700000D03*
G04 #@! TD*
D21*
G04 #@! TO.C,R2*
X40990000Y-4610000D03*
X40990000Y-3590000D03*
G04 #@! TD*
D16*
G04 #@! TO.C,D3*
X35700000Y1187500D03*
X35700000Y-387500D03*
G04 #@! TD*
D11*
G04 #@! TO.C,R11*
X34400000Y8620000D03*
X34400000Y7600000D03*
G04 #@! TD*
D21*
G04 #@! TO.C,R10*
X59300000Y6690000D03*
X59300000Y7710000D03*
G04 #@! TD*
D26*
G04 #@! TO.C,Q1*
X39525000Y9200000D03*
X39525000Y7300000D03*
X41400000Y8250000D03*
G04 #@! TD*
D27*
G04 #@! TO.C,SW2*
X53100000Y4700000D03*
D28*
X53100000Y-1300000D03*
X49800000Y4700000D03*
X49800000Y-1300000D03*
G04 #@! TD*
D13*
G04 #@! TO.C,C14*
X53700000Y-3760000D03*
X53700000Y-2800000D03*
G04 #@! TD*
D11*
G04 #@! TO.C,R6*
X46600000Y-890000D03*
X46600000Y-1910000D03*
G04 #@! TD*
D12*
G04 #@! TO.C,C9*
X44820000Y5800000D03*
X45780000Y5800000D03*
G04 #@! TD*
D20*
G04 #@! TO.C,R7*
X44010000Y-6490000D03*
X42990000Y-6490000D03*
G04 #@! TD*
G04 #@! TO.C,R18*
X38010000Y7100000D03*
X36990000Y7100000D03*
G04 #@! TD*
D29*
G04 #@! TO.C,U5*
X48050000Y2887500D03*
X47100000Y2887500D03*
X46150000Y2887500D03*
X46150000Y612500D03*
X48050000Y612500D03*
G04 #@! TD*
D10*
G04 #@! TO.C,C7*
X51250000Y-5420000D03*
X51250000Y-6380000D03*
G04 #@! TD*
D30*
G04 #@! TO.C,U3*
X48525000Y-6425000D03*
X48525000Y-4575000D03*
X46675000Y-6425000D03*
X46675000Y-4575000D03*
D31*
X50050000Y-7250000D03*
X50050000Y-6750000D03*
X50050000Y-6250000D03*
X50050000Y-5750000D03*
X50050000Y-5250000D03*
X50050000Y-4750000D03*
X50050000Y-4250000D03*
X50050000Y-3750000D03*
D32*
X49350000Y-3050000D03*
X48850000Y-3050000D03*
X48350000Y-3050000D03*
X47850000Y-3050000D03*
X47350000Y-3050000D03*
X46850000Y-3050000D03*
X46350000Y-3050000D03*
X45850000Y-3050000D03*
D31*
X45150000Y-3750000D03*
X45150000Y-4250000D03*
X45150000Y-4750000D03*
X45150000Y-5250000D03*
X45150000Y-5750000D03*
X45150000Y-6250000D03*
X45150000Y-6750000D03*
X45150000Y-7250000D03*
D32*
X45850000Y-7950000D03*
X46350000Y-7950000D03*
X46850000Y-7950000D03*
X47350000Y-7950000D03*
X47850000Y-7950000D03*
X48350000Y-7950000D03*
X48850000Y-7950000D03*
X49350000Y-7950000D03*
G04 #@! TD*
D10*
G04 #@! TO.C,C2*
X52200000Y-5420000D03*
X52200000Y-6380000D03*
G04 #@! TD*
D12*
G04 #@! TO.C,C4*
X47400000Y4350000D03*
X48360000Y4350000D03*
G04 #@! TD*
D33*
G04 #@! TO.C,Y1*
X49400000Y-9850000D03*
X47200000Y-9850000D03*
X47200000Y-11550000D03*
X49400000Y-11550000D03*
G04 #@! TD*
D10*
G04 #@! TO.C,C10*
X50900000Y-10520000D03*
X50900000Y-11480000D03*
G04 #@! TD*
D34*
G04 #@! TO.C,U4*
X39695000Y-25000D03*
X40965000Y-25000D03*
X42235000Y-25000D03*
X43505000Y-25000D03*
X43505000Y5225000D03*
X42235000Y5225000D03*
X40965000Y5225000D03*
X39695000Y5225000D03*
G04 #@! TD*
D35*
G04 #@! TO.C,U2*
X36837500Y3860000D03*
X36837500Y4810000D03*
X36837500Y5760000D03*
X34562500Y5760000D03*
X34562500Y3860000D03*
G04 #@! TD*
M02*
