G04 #@! TF.GenerationSoftware,KiCad,Pcbnew,8.0.4*
G04 #@! TF.CreationDate,2024-07-24T18:14:05+02:00*
G04 #@! TF.ProjectId,ESP32-C3-V3,45535033-322d-4433-932d-56332e6b6963,rev?*
G04 #@! TF.SameCoordinates,Original*
G04 #@! TF.FileFunction,Copper,L4,Bot*
G04 #@! TF.FilePolarity,Positive*
%FSLAX46Y46*%
G04 Gerber Fmt 4.6, Leading zero omitted, Abs format (unit mm)*
G04 Created by KiCad (PCBNEW 8.0.4) date 2024-07-24 18:14:05*
%MOMM*%
%LPD*%
G01*
G04 APERTURE LIST*
G04 Aperture macros list*
%AMRoundRect*
0 Rectangle with rounded corners*
0 $1 Rounding radius*
0 $2 $3 $4 $5 $6 $7 $8 $9 X,Y pos of 4 corners*
0 Add a 4 corners polygon primitive as box body*
4,1,4,$2,$3,$4,$5,$6,$7,$8,$9,$2,$3,0*
0 Add four circle primitives for the rounded corners*
1,1,$1+$1,$2,$3*
1,1,$1+$1,$4,$5*
1,1,$1+$1,$6,$7*
1,1,$1+$1,$8,$9*
0 Add four rect primitives between the rounded corners*
20,1,$1+$1,$2,$3,$4,$5,0*
20,1,$1+$1,$4,$5,$6,$7,0*
20,1,$1+$1,$6,$7,$8,$9,0*
20,1,$1+$1,$8,$9,$2,$3,0*%
G04 Aperture macros list end*
G04 #@! TA.AperFunction,ComponentPad*
%ADD10O,2.100000X1.000000*%
G04 #@! TD*
G04 #@! TA.AperFunction,ComponentPad*
%ADD11O,1.800000X1.000000*%
G04 #@! TD*
G04 #@! TA.AperFunction,ComponentPad*
%ADD12RoundRect,0.250000X0.350000X0.625000X-0.350000X0.625000X-0.350000X-0.625000X0.350000X-0.625000X0*%
G04 #@! TD*
G04 #@! TA.AperFunction,ComponentPad*
%ADD13O,1.200000X1.750000*%
G04 #@! TD*
G04 #@! TA.AperFunction,ComponentPad*
%ADD14R,0.500000X0.900000*%
G04 #@! TD*
G04 #@! TA.AperFunction,ViaPad*
%ADD15C,0.500000*%
G04 #@! TD*
G04 #@! TA.AperFunction,Conductor*
%ADD16C,0.200000*%
G04 #@! TD*
G04 APERTURE END LIST*
D10*
G04 #@! TO.P,U1,S1,SHIELD*
G04 #@! TO.N,GND*
X38500000Y-3090000D03*
D11*
X34320000Y-3090000D03*
D10*
X38500000Y-11730000D03*
D11*
X34320000Y-11730000D03*
G04 #@! TD*
D12*
G04 #@! TO.P,J2,1,Pin_1*
G04 #@! TO.N,Earth*
X46900000Y8750000D03*
D13*
G04 #@! TO.P,J2,2,Pin_2*
G04 #@! TO.N,+BATT*
X44900000Y8750000D03*
G04 #@! TD*
D14*
G04 #@! TO.P,AE1,2,GND*
G04 #@! TO.N,GND*
X55175000Y-9300000D03*
G04 #@! TD*
D15*
G04 #@! TO.N,GND*
X42500000Y-12000000D03*
X51400000Y10300000D03*
X47400000Y1100000D03*
X33600000Y-6500000D03*
X57740000Y-11060000D03*
X47700000Y-6900000D03*
X35700000Y-12055240D03*
X42700000Y1100000D03*
X33550459Y10656566D03*
X46300000Y-6000000D03*
X46300000Y-4200000D03*
X47400000Y0D03*
X47700000Y-5100000D03*
X48700000Y-100000D03*
X38100000Y5500000D03*
X46100000Y5200000D03*
X54300000Y2700000D03*
X48700000Y1100000D03*
X53500000Y-8200000D03*
X46700000Y1100000D03*
X48900000Y-6000000D03*
X37499990Y11177366D03*
X48900000Y-6900000D03*
X48900000Y-4200000D03*
X56339962Y-12000000D03*
X52100000Y-1100000D03*
X52400000Y8000000D03*
X58599986Y11168255D03*
X44519904Y11100000D03*
X35800000Y5300000D03*
X46300000Y-5100000D03*
X41800000Y1100000D03*
X35900000Y4560000D03*
X59779962Y-12000000D03*
X34199904Y11178791D03*
X35700000Y3760000D03*
X44200000Y-5100000D03*
X46700000Y0D03*
X52100000Y-8200000D03*
X45800000Y6700000D03*
X45600000Y1100000D03*
X33600000Y336566D03*
X47700000Y-4200000D03*
X54900000Y11100000D03*
X35800000Y6160000D03*
X41800000Y1800000D03*
X48000000Y11100000D03*
X51599865Y-12041666D03*
X46019962Y-12000000D03*
X54300000Y-11060000D03*
X45600000Y-100000D03*
X56660000Y5600000D03*
X53100000Y3700000D03*
X42700000Y1800000D03*
X46300000Y-6900000D03*
X54300000Y-740000D03*
X48900000Y-5100000D03*
X52900000Y-5200000D03*
X60100000Y5600000D03*
X38100000Y4800000D03*
X44900000Y-10400000D03*
X48400000Y-11600000D03*
X54300000Y-4300000D03*
X33700000Y-10000000D03*
X38100000Y6200000D03*
X51400000Y-9800000D03*
X51400000Y11100000D03*
X41800000Y-3400000D03*
X47700000Y-6000000D03*
X60100000Y9600000D03*
G04 #@! TO.N,EXTI*
X51700000Y-10500000D03*
X50800000Y-4700000D03*
G04 #@! TO.N,+3.3V*
X35000000Y4600000D03*
X40500000Y-6400000D03*
X34300000Y3000000D03*
X34300000Y2300000D03*
X47400000Y-900000D03*
X35000000Y2300000D03*
X60000000Y8200000D03*
X46100000Y-600000D03*
X34300000Y4600000D03*
X35700000Y3000000D03*
X44600000Y-3300000D03*
X35000000Y3000000D03*
X52900000Y-6200000D03*
X34300000Y1600000D03*
X51700000Y-11200000D03*
X35700000Y2300000D03*
X50100000Y-8400000D03*
G04 #@! TO.N,MCU_SCL*
X53400000Y8000000D03*
X56800000Y7500000D03*
G04 #@! TO.N,Net-(U3-GPIO9)*
X49800000Y-200000D03*
X45799999Y-2100000D03*
G04 #@! TO.N,Blau*
X44100000Y-5800000D03*
X47500000Y-8800000D03*
G04 #@! TO.N,Rot*
X46800000Y-8800000D03*
X42100000Y-4100000D03*
G04 #@! TO.N,VCC_Sensor*
X49300000Y1700000D03*
X45100000Y-2500000D03*
X52700000Y1600000D03*
X44800000Y-1200000D03*
G04 #@! TO.N,Net-(R13-Pad2)*
X51900000Y-1900000D03*
X50500000Y1000000D03*
G04 #@! TD*
D16*
G04 #@! TO.N,EXTI*
X49600000Y-5900000D02*
X50800000Y-4700000D01*
X51200000Y-10500000D02*
X49600000Y-8900000D01*
X51700000Y-10500000D02*
X51200000Y-10500000D01*
X49600000Y-8900000D02*
X49600000Y-5900000D01*
G04 #@! TO.N,MCU_SCL*
X56800000Y7500000D02*
X56300000Y8000000D01*
X56300000Y8000000D02*
X53400000Y8000000D01*
G04 #@! TO.N,Net-(U3-GPIO9)*
X46399999Y-1500000D02*
X48500000Y-1500000D01*
X45799999Y-2100000D02*
X46399999Y-1500000D01*
X48500000Y-1500000D02*
X49800000Y-200000D01*
G04 #@! TO.N,Rot*
X42100000Y-4100000D02*
X42100000Y-4507107D01*
X46392893Y-8800000D02*
X46800000Y-8800000D01*
X42100000Y-4507107D02*
X46392893Y-8800000D01*
G04 #@! TO.N,VCC_Sensor*
X52600000Y1700000D02*
X52700000Y1600000D01*
X45100000Y-2500000D02*
X45100000Y-1500000D01*
X49300000Y1700000D02*
X52600000Y1700000D01*
X45100000Y-1500000D02*
X44800000Y-1200000D01*
G04 #@! TD*
G04 #@! TA.AperFunction,Conductor*
G04 #@! TO.N,GND*
G36*
X59811965Y11417232D02*
G01*
X59837122Y11414642D01*
X59955798Y11389998D01*
X59981419Y11381689D01*
X60008042Y11369722D01*
X60089963Y11332900D01*
X60113187Y11319254D01*
X60208645Y11248166D01*
X60228366Y11229833D01*
X60261533Y11191481D01*
X60306215Y11139814D01*
X60321515Y11117650D01*
X60336640Y11089656D01*
X60378086Y11012943D01*
X60388240Y10987994D01*
X60420863Y10873546D01*
X60425390Y10846989D01*
X60432782Y10723931D01*
X60433005Y10716536D01*
X60433007Y10710316D01*
X60432859Y10704229D01*
X60431047Y10667133D01*
X60432102Y10657430D01*
X60431164Y10657329D01*
X60433037Y10643320D01*
X60433886Y8683813D01*
X60414230Y8616765D01*
X60361446Y8570987D01*
X60292292Y8561014D01*
X60242848Y8579443D01*
X60189066Y8614006D01*
X60064774Y8650500D01*
X60064772Y8650500D01*
X59935228Y8650500D01*
X59935226Y8650500D01*
X59810935Y8614006D01*
X59810932Y8614005D01*
X59810931Y8614004D01*
X59759677Y8581066D01*
X59701950Y8543967D01*
X59617118Y8446063D01*
X59617117Y8446062D01*
X59563302Y8328226D01*
X59544867Y8200000D01*
X59563302Y8071775D01*
X59612199Y7964708D01*
X59617118Y7953937D01*
X59701951Y7856033D01*
X59810931Y7785996D01*
X59920117Y7753937D01*
X59935225Y7749501D01*
X59935227Y7749500D01*
X59935228Y7749500D01*
X60064773Y7749500D01*
X60064773Y7749501D01*
X60189069Y7785996D01*
X60243269Y7820829D01*
X60310304Y7840512D01*
X60377343Y7820828D01*
X60423099Y7768025D01*
X60434305Y7716566D01*
X60435316Y5382063D01*
X60415660Y5315015D01*
X60362876Y5269237D01*
X60310404Y5258012D01*
X54600000Y5300000D01*
X54600000Y-8800000D01*
X55326000Y-8800000D01*
X55393039Y-8819685D01*
X55438794Y-8872489D01*
X55450000Y-8924000D01*
X55450000Y-9676000D01*
X55430315Y-9743039D01*
X55377511Y-9788794D01*
X55326000Y-9800000D01*
X54650000Y-9800000D01*
X54650000Y-10550000D01*
X60318274Y-10550000D01*
X60385313Y-10569685D01*
X60431068Y-10622489D01*
X60442273Y-10673944D01*
X60442360Y-10872989D01*
X60442668Y-11587137D01*
X60441711Y-11602565D01*
X60425794Y-11729950D01*
X60419756Y-11755633D01*
X60378944Y-11871939D01*
X60367612Y-11895761D01*
X60303126Y-12000793D01*
X60287008Y-12021680D01*
X60201758Y-12110696D01*
X60181589Y-12127700D01*
X60079436Y-12196669D01*
X60056124Y-12209021D01*
X59941699Y-12254816D01*
X59916302Y-12261958D01*
X59795135Y-12282450D01*
X59774564Y-12284186D01*
X33995528Y-12306194D01*
X33965404Y-12302506D01*
X33851135Y-12273996D01*
X33826288Y-12264886D01*
X33708281Y-12206663D01*
X33685933Y-12192487D01*
X33582968Y-12110548D01*
X33564137Y-12091954D01*
X33480903Y-11990029D01*
X33466447Y-11967862D01*
X33406741Y-11850603D01*
X33397318Y-11825874D01*
X33363850Y-11698601D01*
X33359892Y-11672452D01*
X33354360Y-11544821D01*
X33354247Y-11539838D01*
X33354203Y-11521840D01*
X33354453Y-11513710D01*
X33356590Y-11480179D01*
X33356588Y-11480172D01*
X33355679Y-11470465D01*
X33356017Y-11470433D01*
X33354043Y-11454920D01*
X33351087Y-10223576D01*
X37419500Y-10223576D01*
X37419500Y-10376424D01*
X37459060Y-10524065D01*
X37535484Y-10656435D01*
X37643565Y-10764516D01*
X37775935Y-10840940D01*
X37923576Y-10880500D01*
X37923578Y-10880500D01*
X38076422Y-10880500D01*
X38076424Y-10880500D01*
X38224065Y-10840940D01*
X38356435Y-10764516D01*
X38464516Y-10656435D01*
X38540940Y-10524065D01*
X38580500Y-10376424D01*
X38580500Y-10223576D01*
X38540940Y-10075935D01*
X38464516Y-9943565D01*
X38356435Y-9835484D01*
X38224065Y-9759060D01*
X38076424Y-9719500D01*
X37923576Y-9719500D01*
X37775935Y-9759060D01*
X37775932Y-9759061D01*
X37643568Y-9835482D01*
X37643562Y-9835486D01*
X37535486Y-9943562D01*
X37535482Y-9943568D01*
X37459061Y-10075932D01*
X37459060Y-10075935D01*
X37419500Y-10223576D01*
X33351087Y-10223576D01*
X33341906Y-6400000D01*
X40044867Y-6400000D01*
X40063302Y-6528225D01*
X40102477Y-6614004D01*
X40117118Y-6646063D01*
X40201951Y-6743967D01*
X40310931Y-6814004D01*
X40435225Y-6850499D01*
X40435227Y-6850500D01*
X40435228Y-6850500D01*
X40564773Y-6850500D01*
X40564773Y-6850499D01*
X40689069Y-6814004D01*
X40798049Y-6743967D01*
X40882882Y-6646063D01*
X40936697Y-6528226D01*
X40955133Y-6400000D01*
X40936697Y-6271774D01*
X40882882Y-6153937D01*
X40798049Y-6056033D01*
X40689069Y-5985996D01*
X40689065Y-5985994D01*
X40689064Y-5985994D01*
X40564774Y-5949500D01*
X40564772Y-5949500D01*
X40435228Y-5949500D01*
X40435226Y-5949500D01*
X40310935Y-5985994D01*
X40310932Y-5985995D01*
X40310931Y-5985996D01*
X40275457Y-6008794D01*
X40201950Y-6056033D01*
X40117118Y-6153937D01*
X40117117Y-6153938D01*
X40063302Y-6271774D01*
X40044867Y-6400000D01*
X33341906Y-6400000D01*
X33337209Y-4443576D01*
X37419500Y-4443576D01*
X37419500Y-4596424D01*
X37445008Y-4691619D01*
X37459060Y-4744064D01*
X37459061Y-4744067D01*
X37470806Y-4764409D01*
X37535484Y-4876435D01*
X37643565Y-4984516D01*
X37775935Y-5060940D01*
X37923576Y-5100500D01*
X37923578Y-5100500D01*
X38076422Y-5100500D01*
X38076424Y-5100500D01*
X38224065Y-5060940D01*
X38356435Y-4984516D01*
X38464516Y-4876435D01*
X38540940Y-4744065D01*
X38580500Y-4596424D01*
X38580500Y-4443576D01*
X38540940Y-4295935D01*
X38464516Y-4163565D01*
X38400951Y-4100000D01*
X41644867Y-4100000D01*
X41663302Y-4228225D01*
X41694225Y-4295935D01*
X41717118Y-4346063D01*
X41769214Y-4406186D01*
X41798238Y-4469738D01*
X41799500Y-4487386D01*
X41799500Y-4546669D01*
X41806227Y-4571774D01*
X41819979Y-4623097D01*
X41819982Y-4623102D01*
X41859535Y-4691611D01*
X41859539Y-4691616D01*
X41859540Y-4691618D01*
X46208382Y-9040460D01*
X46276905Y-9080022D01*
X46353331Y-9100500D01*
X46407657Y-9100500D01*
X46474696Y-9120185D01*
X46501369Y-9143296D01*
X46501949Y-9143965D01*
X46501951Y-9143967D01*
X46610931Y-9214004D01*
X46735225Y-9250499D01*
X46735227Y-9250500D01*
X46735228Y-9250500D01*
X46864773Y-9250500D01*
X46864773Y-9250499D01*
X46989069Y-9214004D01*
X47082962Y-9153662D01*
X47150001Y-9133979D01*
X47217037Y-9153662D01*
X47310931Y-9214004D01*
X47435225Y-9250499D01*
X47435227Y-9250500D01*
X47435228Y-9250500D01*
X47564773Y-9250500D01*
X47564773Y-9250499D01*
X47689069Y-9214004D01*
X47798049Y-9143967D01*
X47882882Y-9046063D01*
X47936697Y-8928226D01*
X47955133Y-8800000D01*
X47936697Y-8671774D01*
X47882882Y-8553937D01*
X47798049Y-8456033D01*
X47689069Y-8385996D01*
X47689065Y-8385994D01*
X47689064Y-8385994D01*
X47564774Y-8349500D01*
X47564772Y-8349500D01*
X47435228Y-8349500D01*
X47435226Y-8349500D01*
X47310933Y-8385994D01*
X47310932Y-8385994D01*
X47217038Y-8446336D01*
X47149999Y-8466020D01*
X47082962Y-8446336D01*
X46989066Y-8385994D01*
X46864774Y-8349500D01*
X46864772Y-8349500D01*
X46735228Y-8349500D01*
X46735226Y-8349500D01*
X46610933Y-8385994D01*
X46568932Y-8412986D01*
X46501892Y-8432669D01*
X46434853Y-8412983D01*
X46414214Y-8396350D01*
X44363052Y-6345188D01*
X44329567Y-6283865D01*
X44334551Y-6214173D01*
X44376423Y-6158240D01*
X44383682Y-6153199D01*
X44398049Y-6143967D01*
X44482882Y-6046063D01*
X44536697Y-5928226D01*
X44546443Y-5860438D01*
X49299500Y-5860438D01*
X49299500Y-8939562D01*
X49310315Y-8979923D01*
X49319979Y-9015990D01*
X49319980Y-9015991D01*
X49337342Y-9046063D01*
X49359540Y-9084511D01*
X51015489Y-10740460D01*
X51084012Y-10780022D01*
X51160438Y-10800500D01*
X51194242Y-10800500D01*
X51261281Y-10820185D01*
X51307036Y-10872989D01*
X51316980Y-10942147D01*
X51307036Y-10976011D01*
X51263303Y-11071772D01*
X51263302Y-11071773D01*
X51244867Y-11200000D01*
X51263302Y-11328225D01*
X51317117Y-11446061D01*
X51317118Y-11446063D01*
X51364032Y-11500205D01*
X51400532Y-11542330D01*
X51401951Y-11543967D01*
X51510931Y-11614004D01*
X51635225Y-11650499D01*
X51635227Y-11650500D01*
X51635228Y-11650500D01*
X51764773Y-11650500D01*
X51764773Y-11650499D01*
X51889069Y-11614004D01*
X51998049Y-11543967D01*
X52082882Y-11446063D01*
X52136697Y-11328226D01*
X52155133Y-11200000D01*
X52136697Y-11071774D01*
X52082882Y-10953937D01*
X52063181Y-10931201D01*
X52034157Y-10867649D01*
X52044100Y-10798490D01*
X52063179Y-10768800D01*
X52082882Y-10746063D01*
X52136697Y-10628226D01*
X52155133Y-10500000D01*
X52136697Y-10371774D01*
X52082882Y-10253937D01*
X51998049Y-10156033D01*
X51889069Y-10085996D01*
X51889065Y-10085994D01*
X51889064Y-10085994D01*
X51764774Y-10049500D01*
X51764772Y-10049500D01*
X51635228Y-10049500D01*
X51635226Y-10049500D01*
X51510935Y-10085994D01*
X51510932Y-10085995D01*
X51510931Y-10085996D01*
X51438269Y-10132693D01*
X51412384Y-10149328D01*
X51345344Y-10169012D01*
X51278305Y-10149327D01*
X51257664Y-10132693D01*
X50166217Y-9041246D01*
X50132732Y-8979923D01*
X50137716Y-8910231D01*
X50179588Y-8854298D01*
X50218960Y-8834589D01*
X50289069Y-8814004D01*
X50398049Y-8743967D01*
X50482882Y-8646063D01*
X50536697Y-8528226D01*
X50555133Y-8400000D01*
X50536697Y-8271774D01*
X50482882Y-8153937D01*
X50398049Y-8056033D01*
X50289069Y-7985996D01*
X50289065Y-7985994D01*
X50289064Y-7985994D01*
X50164774Y-7949500D01*
X50164772Y-7949500D01*
X50035228Y-7949500D01*
X50026360Y-7949500D01*
X50026360Y-7946239D01*
X49972963Y-7938550D01*
X49920169Y-7892783D01*
X49900500Y-7825767D01*
X49900500Y-6200000D01*
X52444867Y-6200000D01*
X52463302Y-6328225D01*
X52471049Y-6345188D01*
X52517118Y-6446063D01*
X52601951Y-6543967D01*
X52710931Y-6614004D01*
X52820117Y-6646063D01*
X52835225Y-6650499D01*
X52835227Y-6650500D01*
X52835228Y-6650500D01*
X52964773Y-6650500D01*
X52964773Y-6650499D01*
X53089069Y-6614004D01*
X53198049Y-6543967D01*
X53282882Y-6446063D01*
X53336697Y-6328226D01*
X53355133Y-6200000D01*
X53336697Y-6071774D01*
X53282882Y-5953937D01*
X53198049Y-5856033D01*
X53089069Y-5785996D01*
X53089065Y-5785994D01*
X53089064Y-5785994D01*
X52964774Y-5749500D01*
X52964772Y-5749500D01*
X52835228Y-5749500D01*
X52835226Y-5749500D01*
X52710935Y-5785994D01*
X52710932Y-5785995D01*
X52710931Y-5785996D01*
X52659677Y-5818934D01*
X52601950Y-5856033D01*
X52517118Y-5953937D01*
X52517117Y-5953938D01*
X52463302Y-6071774D01*
X52444867Y-6200000D01*
X49900500Y-6200000D01*
X49900500Y-6075833D01*
X49920185Y-6008794D01*
X49936819Y-5988152D01*
X50738152Y-5186819D01*
X50799475Y-5153334D01*
X50825833Y-5150500D01*
X50864773Y-5150500D01*
X50864773Y-5150499D01*
X50989069Y-5114004D01*
X51098049Y-5043967D01*
X51182882Y-4946063D01*
X51236697Y-4828226D01*
X51255133Y-4700000D01*
X51236697Y-4571774D01*
X51182882Y-4453937D01*
X51098049Y-4356033D01*
X50989069Y-4285996D01*
X50989065Y-4285994D01*
X50989064Y-4285994D01*
X50864774Y-4249500D01*
X50864772Y-4249500D01*
X50735228Y-4249500D01*
X50735226Y-4249500D01*
X50610935Y-4285994D01*
X50610932Y-4285995D01*
X50610931Y-4285996D01*
X50595466Y-4295935D01*
X50501950Y-4356033D01*
X50417118Y-4453937D01*
X50417117Y-4453938D01*
X50363302Y-4571774D01*
X50345675Y-4694376D01*
X50316650Y-4757931D01*
X50310618Y-4764409D01*
X49415489Y-5659540D01*
X49359541Y-5715487D01*
X49359535Y-5715495D01*
X49319982Y-5784004D01*
X49319979Y-5784009D01*
X49306326Y-5834962D01*
X49299500Y-5860438D01*
X44546443Y-5860438D01*
X44555133Y-5800000D01*
X44536697Y-5671774D01*
X44482882Y-5553937D01*
X44398049Y-5456033D01*
X44289069Y-5385996D01*
X44289065Y-5385994D01*
X44289064Y-5385994D01*
X44164774Y-5349500D01*
X44164772Y-5349500D01*
X44035228Y-5349500D01*
X44035226Y-5349500D01*
X43910935Y-5385994D01*
X43910932Y-5385995D01*
X43910931Y-5385996D01*
X43859677Y-5418934D01*
X43801950Y-5456033D01*
X43736873Y-5531137D01*
X43678095Y-5568911D01*
X43608225Y-5568911D01*
X43555479Y-5537615D01*
X42506466Y-4488602D01*
X42472981Y-4427279D01*
X42477965Y-4357587D01*
X42481353Y-4349408D01*
X42482879Y-4346066D01*
X42482882Y-4346063D01*
X42536697Y-4228226D01*
X42555133Y-4100000D01*
X42536697Y-3971774D01*
X42482882Y-3853937D01*
X42398049Y-3756033D01*
X42289069Y-3685996D01*
X42289065Y-3685994D01*
X42289064Y-3685994D01*
X42164774Y-3649500D01*
X42164772Y-3649500D01*
X42035228Y-3649500D01*
X42035226Y-3649500D01*
X41910935Y-3685994D01*
X41910932Y-3685995D01*
X41910931Y-3685996D01*
X41867350Y-3714004D01*
X41801950Y-3756033D01*
X41717118Y-3853937D01*
X41717117Y-3853938D01*
X41663302Y-3971774D01*
X41644867Y-4100000D01*
X38400951Y-4100000D01*
X38356435Y-4055484D01*
X38224065Y-3979060D01*
X38076424Y-3939500D01*
X37923576Y-3939500D01*
X37775935Y-3979060D01*
X37775932Y-3979061D01*
X37643568Y-4055482D01*
X37643562Y-4055486D01*
X37535486Y-4163562D01*
X37535482Y-4163568D01*
X37459061Y-4295932D01*
X37459060Y-4295935D01*
X37419500Y-4443576D01*
X33337209Y-4443576D01*
X33334463Y-3300000D01*
X44144867Y-3300000D01*
X44163302Y-3428225D01*
X44217117Y-3546061D01*
X44217118Y-3546063D01*
X44301951Y-3643967D01*
X44410931Y-3714004D01*
X44535225Y-3750499D01*
X44535227Y-3750500D01*
X44535228Y-3750500D01*
X44664773Y-3750500D01*
X44664773Y-3750499D01*
X44789069Y-3714004D01*
X44898049Y-3643967D01*
X44982882Y-3546063D01*
X45036697Y-3428226D01*
X45055133Y-3300000D01*
X45036697Y-3171774D01*
X45015798Y-3126012D01*
X45005854Y-3056853D01*
X45034879Y-2993297D01*
X45093657Y-2955523D01*
X45128592Y-2950500D01*
X45164773Y-2950500D01*
X45164773Y-2950499D01*
X45289069Y-2914004D01*
X45398049Y-2843967D01*
X45482882Y-2746063D01*
X45536697Y-2628226D01*
X45536698Y-2628218D01*
X45538531Y-2621978D01*
X45576307Y-2563201D01*
X45639863Y-2534177D01*
X45692442Y-2537938D01*
X45735224Y-2550499D01*
X45735226Y-2550500D01*
X45735227Y-2550500D01*
X45864772Y-2550500D01*
X45864772Y-2550499D01*
X45989068Y-2514004D01*
X46098048Y-2443967D01*
X46182881Y-2346063D01*
X46236696Y-2228226D01*
X46254323Y-2105621D01*
X46283348Y-2042067D01*
X46289351Y-2035617D01*
X46424968Y-1900000D01*
X51444867Y-1900000D01*
X51463302Y-2028225D01*
X51469624Y-2042067D01*
X51517118Y-2146063D01*
X51601951Y-2243967D01*
X51710931Y-2314004D01*
X51820117Y-2346063D01*
X51835225Y-2350499D01*
X51835227Y-2350500D01*
X51835228Y-2350500D01*
X51964773Y-2350500D01*
X51964773Y-2350499D01*
X52089069Y-2314004D01*
X52198049Y-2243967D01*
X52282882Y-2146063D01*
X52336697Y-2028226D01*
X52355133Y-1900000D01*
X52336697Y-1771774D01*
X52282882Y-1653937D01*
X52198049Y-1556033D01*
X52089069Y-1485996D01*
X52089065Y-1485994D01*
X52089064Y-1485994D01*
X51964774Y-1449500D01*
X51964772Y-1449500D01*
X51835228Y-1449500D01*
X51835226Y-1449500D01*
X51710935Y-1485994D01*
X51710932Y-1485995D01*
X51710931Y-1485996D01*
X51659677Y-1518934D01*
X51601950Y-1556033D01*
X51517118Y-1653937D01*
X51517117Y-1653938D01*
X51463302Y-1771774D01*
X51444867Y-1900000D01*
X46424968Y-1900000D01*
X46488152Y-1836816D01*
X46549475Y-1803334D01*
X46575832Y-1800500D01*
X48539560Y-1800500D01*
X48539562Y-1800500D01*
X48615989Y-1780021D01*
X48684511Y-1740460D01*
X48740460Y-1684511D01*
X49738152Y-686819D01*
X49799475Y-653334D01*
X49825833Y-650500D01*
X49864773Y-650500D01*
X49864773Y-650499D01*
X49989069Y-614004D01*
X50098049Y-543967D01*
X50182882Y-446063D01*
X50236697Y-328226D01*
X50255133Y-200000D01*
X50236697Y-71774D01*
X50182882Y46063D01*
X50098049Y143967D01*
X49989069Y214004D01*
X49989065Y214006D01*
X49989064Y214006D01*
X49864774Y250500D01*
X49864772Y250500D01*
X49735228Y250500D01*
X49735226Y250500D01*
X49610935Y214006D01*
X49610932Y214005D01*
X49610931Y214004D01*
X49559677Y181066D01*
X49501950Y143967D01*
X49417118Y46063D01*
X49417117Y46062D01*
X49363302Y-71774D01*
X49345675Y-194376D01*
X49316650Y-257931D01*
X49310618Y-264409D01*
X48411848Y-1163181D01*
X48350525Y-1196666D01*
X48324167Y-1199500D01*
X47951426Y-1199500D01*
X47884387Y-1179815D01*
X47838632Y-1127011D01*
X47828688Y-1057853D01*
X47834835Y-1036919D01*
X47834199Y-1036733D01*
X47836697Y-1028226D01*
X47844898Y-971184D01*
X47855133Y-900000D01*
X47836697Y-771774D01*
X47782882Y-653937D01*
X47698049Y-556033D01*
X47589069Y-485996D01*
X47589065Y-485994D01*
X47589064Y-485994D01*
X47464774Y-449500D01*
X47464772Y-449500D01*
X47335228Y-449500D01*
X47335226Y-449500D01*
X47210935Y-485994D01*
X47210932Y-485995D01*
X47210931Y-485996D01*
X47159677Y-518934D01*
X47101950Y-556033D01*
X47017118Y-653937D01*
X47017117Y-653938D01*
X46963302Y-771774D01*
X46944867Y-900000D01*
X46963302Y-1028226D01*
X46965801Y-1036733D01*
X46963304Y-1037466D01*
X46971313Y-1093138D01*
X46942293Y-1156696D01*
X46883518Y-1194474D01*
X46848574Y-1199500D01*
X46422737Y-1199500D01*
X46355698Y-1179815D01*
X46309943Y-1127011D01*
X46299999Y-1057853D01*
X46329024Y-994297D01*
X46355698Y-971184D01*
X46398049Y-943967D01*
X46482882Y-846063D01*
X46536697Y-728226D01*
X46555133Y-600000D01*
X46536697Y-471774D01*
X46482882Y-353937D01*
X46398049Y-256033D01*
X46289069Y-185996D01*
X46289065Y-185994D01*
X46289064Y-185994D01*
X46164774Y-149500D01*
X46164772Y-149500D01*
X46035228Y-149500D01*
X46035226Y-149500D01*
X45910935Y-185994D01*
X45910932Y-185995D01*
X45910931Y-185996D01*
X45859677Y-218934D01*
X45801950Y-256033D01*
X45717118Y-353937D01*
X45717117Y-353938D01*
X45663302Y-471774D01*
X45644867Y-600000D01*
X45663302Y-728225D01*
X45683191Y-771774D01*
X45717118Y-846063D01*
X45801951Y-943967D01*
X45910931Y-1014004D01*
X46035225Y-1050499D01*
X46035227Y-1050500D01*
X46125166Y-1050500D01*
X46192205Y-1070185D01*
X46237960Y-1122989D01*
X46247904Y-1192147D01*
X46218879Y-1255703D01*
X46212847Y-1262181D01*
X45861847Y-1613181D01*
X45800524Y-1646666D01*
X45774166Y-1649500D01*
X45735225Y-1649500D01*
X45610933Y-1685994D01*
X45591537Y-1698459D01*
X45524498Y-1718142D01*
X45457459Y-1698456D01*
X45411705Y-1645651D01*
X45400500Y-1594142D01*
X45400500Y-1460439D01*
X45396648Y-1446062D01*
X45380021Y-1384011D01*
X45347814Y-1328226D01*
X45340464Y-1315495D01*
X45340458Y-1315487D01*
X45289381Y-1264410D01*
X45255896Y-1203087D01*
X45254324Y-1194375D01*
X45244060Y-1122989D01*
X45236697Y-1071774D01*
X45182882Y-953937D01*
X45098049Y-856033D01*
X44989069Y-785996D01*
X44989065Y-785994D01*
X44989064Y-785994D01*
X44864774Y-749500D01*
X44864772Y-749500D01*
X44735228Y-749500D01*
X44735226Y-749500D01*
X44610935Y-785994D01*
X44610932Y-785995D01*
X44610931Y-785996D01*
X44559677Y-818934D01*
X44501950Y-856033D01*
X44417118Y-953937D01*
X44417117Y-953938D01*
X44363302Y-1071774D01*
X44344867Y-1200000D01*
X44363302Y-1328225D01*
X44388779Y-1384011D01*
X44417118Y-1446063D01*
X44501951Y-1543967D01*
X44610931Y-1614004D01*
X44710435Y-1643220D01*
X44769212Y-1680993D01*
X44798238Y-1744548D01*
X44799500Y-1762197D01*
X44799500Y-2112611D01*
X44779815Y-2179650D01*
X44769214Y-2193812D01*
X44717120Y-2253932D01*
X44717117Y-2253938D01*
X44663302Y-2371774D01*
X44644867Y-2500000D01*
X44663302Y-2628225D01*
X44684202Y-2673988D01*
X44694146Y-2743147D01*
X44665121Y-2806703D01*
X44606343Y-2844477D01*
X44571408Y-2849500D01*
X44535226Y-2849500D01*
X44410935Y-2885994D01*
X44410932Y-2885995D01*
X44410931Y-2885996D01*
X44367350Y-2914004D01*
X44301950Y-2956033D01*
X44217118Y-3053937D01*
X44217117Y-3053938D01*
X44163302Y-3171774D01*
X44144867Y-3300000D01*
X33334463Y-3300000D01*
X33319338Y3000000D01*
X33844867Y3000000D01*
X33863302Y2871775D01*
X33917117Y2753939D01*
X33917120Y2753933D01*
X33936817Y2731202D01*
X33965842Y2667646D01*
X33955898Y2598488D01*
X33936817Y2568798D01*
X33917120Y2546068D01*
X33917117Y2546062D01*
X33863302Y2428226D01*
X33844867Y2300000D01*
X33863302Y2171775D01*
X33917117Y2053939D01*
X33917120Y2053933D01*
X33936817Y2031202D01*
X33965842Y1967646D01*
X33955898Y1898488D01*
X33936817Y1868798D01*
X33917120Y1846068D01*
X33917117Y1846062D01*
X33863302Y1728226D01*
X33844867Y1600000D01*
X33863302Y1471775D01*
X33871449Y1453937D01*
X33917118Y1353937D01*
X34001951Y1256033D01*
X34110931Y1185996D01*
X34235225Y1149501D01*
X34235227Y1149500D01*
X34235228Y1149500D01*
X34364773Y1149500D01*
X34364773Y1149501D01*
X34489069Y1185996D01*
X34598049Y1256033D01*
X34682882Y1353937D01*
X34736697Y1471774D01*
X34755133Y1600000D01*
X34740755Y1700000D01*
X48844867Y1700000D01*
X48863302Y1571775D01*
X48908972Y1471774D01*
X48917118Y1453937D01*
X48968640Y1394477D01*
X49001369Y1356704D01*
X49001951Y1356033D01*
X49110931Y1285996D01*
X49235225Y1249501D01*
X49235227Y1249500D01*
X49235228Y1249500D01*
X49364773Y1249500D01*
X49364773Y1249501D01*
X49489069Y1285996D01*
X49598049Y1356033D01*
X49598630Y1356703D01*
X49598631Y1356704D01*
X49599379Y1357185D01*
X49604754Y1361842D01*
X49605423Y1361070D01*
X49657409Y1394477D01*
X49692343Y1399500D01*
X49994242Y1399500D01*
X50061281Y1379815D01*
X50107036Y1327011D01*
X50116980Y1257853D01*
X50107036Y1223989D01*
X50063303Y1128228D01*
X50063302Y1128227D01*
X50044867Y1000000D01*
X50063302Y871775D01*
X50117117Y753939D01*
X50117118Y753937D01*
X50201951Y656033D01*
X50310931Y585996D01*
X50435225Y549501D01*
X50435227Y549500D01*
X50435228Y549500D01*
X50564773Y549500D01*
X50564773Y549501D01*
X50689069Y585996D01*
X50798049Y656033D01*
X50882882Y753937D01*
X50936697Y871774D01*
X50955133Y1000000D01*
X50936697Y1128226D01*
X50933276Y1135717D01*
X50892964Y1223989D01*
X50883020Y1293147D01*
X50912045Y1356703D01*
X50970823Y1394477D01*
X51005758Y1399500D01*
X52221008Y1399500D01*
X52288047Y1379815D01*
X52314722Y1356702D01*
X52317118Y1353937D01*
X52401951Y1256033D01*
X52510931Y1185996D01*
X52635225Y1149501D01*
X52635227Y1149500D01*
X52635228Y1149500D01*
X52764773Y1149500D01*
X52764773Y1149501D01*
X52889069Y1185996D01*
X52998049Y1256033D01*
X53082882Y1353937D01*
X53136697Y1471774D01*
X53155133Y1600000D01*
X53136697Y1728226D01*
X53082882Y1846063D01*
X52998049Y1943967D01*
X52889069Y2014004D01*
X52889065Y2014006D01*
X52889064Y2014006D01*
X52764774Y2050500D01*
X52764772Y2050500D01*
X52635228Y2050500D01*
X52635226Y2050500D01*
X52510932Y2014005D01*
X52505894Y2011704D01*
X52454386Y2000500D01*
X49692343Y2000500D01*
X49625304Y2020185D01*
X49598631Y2043296D01*
X49598050Y2043966D01*
X49598049Y2043967D01*
X49489069Y2114004D01*
X49489065Y2114006D01*
X49489064Y2114006D01*
X49364774Y2150500D01*
X49364772Y2150500D01*
X49235228Y2150500D01*
X49235226Y2150500D01*
X49110935Y2114006D01*
X49110932Y2114005D01*
X49110931Y2114004D01*
X49059677Y2081066D01*
X49001950Y2043967D01*
X48917118Y1946063D01*
X48917117Y1946062D01*
X48863302Y1828226D01*
X48844867Y1700000D01*
X34740755Y1700000D01*
X34737200Y1724727D01*
X34747144Y1793883D01*
X34792898Y1846687D01*
X34859938Y1866372D01*
X34894873Y1861349D01*
X34935227Y1849500D01*
X34935228Y1849500D01*
X35064773Y1849500D01*
X35064773Y1849501D01*
X35189069Y1885996D01*
X35282962Y1946338D01*
X35350001Y1966021D01*
X35417037Y1946338D01*
X35510931Y1885996D01*
X35577766Y1866372D01*
X35635225Y1849501D01*
X35635227Y1849500D01*
X35635228Y1849500D01*
X35764773Y1849500D01*
X35764773Y1849501D01*
X35889069Y1885996D01*
X35998049Y1956033D01*
X36082882Y2053937D01*
X36136697Y2171774D01*
X36155133Y2300000D01*
X36136697Y2428226D01*
X36082882Y2546063D01*
X36063181Y2568799D01*
X36034157Y2632351D01*
X36044100Y2701510D01*
X36063182Y2731202D01*
X36082882Y2753937D01*
X36136697Y2871774D01*
X36155133Y3000000D01*
X36136697Y3128226D01*
X36082882Y3246063D01*
X35998049Y3343967D01*
X35889069Y3414004D01*
X35889065Y3414006D01*
X35889064Y3414006D01*
X35764774Y3450500D01*
X35764772Y3450500D01*
X35635228Y3450500D01*
X35635226Y3450500D01*
X35510933Y3414006D01*
X35510932Y3414006D01*
X35417038Y3353664D01*
X35349999Y3333980D01*
X35282962Y3353664D01*
X35189066Y3414006D01*
X35064774Y3450500D01*
X35064772Y3450500D01*
X34935228Y3450500D01*
X34935226Y3450500D01*
X34810933Y3414006D01*
X34810932Y3414006D01*
X34717038Y3353664D01*
X34649999Y3333980D01*
X34582962Y3353664D01*
X34489066Y3414006D01*
X34364774Y3450500D01*
X34364772Y3450500D01*
X34235228Y3450500D01*
X34235226Y3450500D01*
X34110935Y3414006D01*
X34110932Y3414005D01*
X34110931Y3414004D01*
X34059677Y3381066D01*
X34001950Y3343967D01*
X33917118Y3246063D01*
X33917117Y3246062D01*
X33863302Y3128226D01*
X33844867Y3000000D01*
X33319338Y3000000D01*
X33315497Y4600000D01*
X33844867Y4600000D01*
X33863302Y4471775D01*
X33917117Y4353939D01*
X33917118Y4353937D01*
X34001951Y4256033D01*
X34110931Y4185996D01*
X34235225Y4149501D01*
X34235227Y4149500D01*
X34235228Y4149500D01*
X34364773Y4149500D01*
X34364773Y4149501D01*
X34489069Y4185996D01*
X34582962Y4246338D01*
X34650001Y4266021D01*
X34717037Y4246338D01*
X34810931Y4185996D01*
X34935225Y4149501D01*
X34935227Y4149500D01*
X34935228Y4149500D01*
X35064773Y4149500D01*
X35064773Y4149501D01*
X35189069Y4185996D01*
X35298049Y4256033D01*
X35382882Y4353937D01*
X35436697Y4471774D01*
X35455133Y4600000D01*
X35436697Y4728226D01*
X35382882Y4846063D01*
X35298049Y4943967D01*
X35189069Y5014004D01*
X35189065Y5014006D01*
X35189064Y5014006D01*
X35064774Y5050500D01*
X35064772Y5050500D01*
X34935228Y5050500D01*
X34935226Y5050500D01*
X34810933Y5014006D01*
X34810932Y5014006D01*
X34717038Y4953664D01*
X34649999Y4933980D01*
X34582962Y4953664D01*
X34489066Y5014006D01*
X34364774Y5050500D01*
X34364772Y5050500D01*
X34235228Y5050500D01*
X34235226Y5050500D01*
X34110935Y5014006D01*
X34110932Y5014005D01*
X34110931Y5014004D01*
X34059677Y4981066D01*
X34001950Y4943967D01*
X33917118Y4846063D01*
X33917117Y4846062D01*
X33863302Y4728226D01*
X33844867Y4600000D01*
X33315497Y4600000D01*
X33304684Y9103847D01*
X44099500Y9103847D01*
X44099500Y8396154D01*
X44130261Y8241511D01*
X44130264Y8241499D01*
X44190602Y8095828D01*
X44190609Y8095815D01*
X44278210Y7964712D01*
X44278213Y7964708D01*
X44389707Y7853214D01*
X44389711Y7853211D01*
X44520814Y7765610D01*
X44520827Y7765603D01*
X44625596Y7722207D01*
X44666503Y7705263D01*
X44794438Y7679815D01*
X44821153Y7674501D01*
X44821156Y7674500D01*
X44821158Y7674500D01*
X44978844Y7674500D01*
X44978845Y7674501D01*
X45133497Y7705263D01*
X45279179Y7765606D01*
X45410289Y7853211D01*
X45521789Y7964711D01*
X45609394Y8095821D01*
X45669737Y8241503D01*
X45700500Y8396158D01*
X45700500Y9103842D01*
X45700500Y9103845D01*
X45700499Y9103847D01*
X45669738Y9258490D01*
X45669737Y9258497D01*
X45669735Y9258502D01*
X45609397Y9404173D01*
X45609390Y9404186D01*
X45592629Y9429270D01*
X46099500Y9429270D01*
X46099500Y8070731D01*
X46102353Y8040301D01*
X46102353Y8040299D01*
X46146546Y7914006D01*
X46147207Y7912118D01*
X46227850Y7802850D01*
X46337118Y7722207D01*
X46379845Y7707256D01*
X46465299Y7677354D01*
X46495730Y7674500D01*
X46495734Y7674500D01*
X47304270Y7674500D01*
X47334699Y7677354D01*
X47334701Y7677354D01*
X47398790Y7699781D01*
X47462882Y7722207D01*
X47572150Y7802850D01*
X47652793Y7912118D01*
X47683544Y8000000D01*
X52944867Y8000000D01*
X52963302Y7871775D01*
X52986570Y7820827D01*
X53017118Y7753937D01*
X53090624Y7669105D01*
X53101369Y7656704D01*
X53101951Y7656033D01*
X53210931Y7585996D01*
X53284445Y7564411D01*
X53335225Y7549501D01*
X53335227Y7549500D01*
X53335228Y7549500D01*
X53464773Y7549500D01*
X53464773Y7549501D01*
X53589069Y7585996D01*
X53698049Y7656033D01*
X53698374Y7656409D01*
X53698631Y7656704D01*
X53699379Y7657185D01*
X53704754Y7661842D01*
X53705423Y7661070D01*
X53757409Y7694477D01*
X53792343Y7699500D01*
X56124167Y7699500D01*
X56191206Y7679815D01*
X56211848Y7663181D01*
X56310618Y7564411D01*
X56344103Y7503088D01*
X56345675Y7494377D01*
X56363302Y7371775D01*
X56417117Y7253939D01*
X56417118Y7253937D01*
X56501951Y7156033D01*
X56610931Y7085996D01*
X56735225Y7049501D01*
X56735227Y7049500D01*
X56735228Y7049500D01*
X56864773Y7049500D01*
X56864773Y7049501D01*
X56989069Y7085996D01*
X57098049Y7156033D01*
X57182882Y7253937D01*
X57236697Y7371774D01*
X57255133Y7500000D01*
X57236697Y7628226D01*
X57182882Y7746063D01*
X57098049Y7843967D01*
X56989069Y7914004D01*
X56989065Y7914006D01*
X56989064Y7914006D01*
X56864774Y7950500D01*
X56864772Y7950500D01*
X56825833Y7950500D01*
X56758794Y7970185D01*
X56738152Y7986819D01*
X56484512Y8240459D01*
X56484504Y8240465D01*
X56443492Y8264143D01*
X56443488Y8264144D01*
X56433893Y8269684D01*
X56415990Y8280021D01*
X56415991Y8280021D01*
X56377775Y8290261D01*
X56339562Y8300500D01*
X56339560Y8300500D01*
X53792343Y8300500D01*
X53725304Y8320185D01*
X53698631Y8343296D01*
X53698050Y8343966D01*
X53698049Y8343967D01*
X53589069Y8414004D01*
X53589065Y8414006D01*
X53589064Y8414006D01*
X53464774Y8450500D01*
X53464772Y8450500D01*
X53335228Y8450500D01*
X53335226Y8450500D01*
X53210935Y8414006D01*
X53210932Y8414005D01*
X53210931Y8414004D01*
X53183162Y8396158D01*
X53101950Y8343967D01*
X53017118Y8246063D01*
X53017117Y8246062D01*
X52963302Y8128226D01*
X52944867Y8000000D01*
X47683544Y8000000D01*
X47697646Y8040299D01*
X47697646Y8040301D01*
X47700500Y8070731D01*
X47700500Y9429270D01*
X47697646Y9459700D01*
X47697646Y9459702D01*
X47652793Y9587881D01*
X47652792Y9587883D01*
X47609319Y9646787D01*
X47572150Y9697150D01*
X47462882Y9777793D01*
X47462880Y9777794D01*
X47334700Y9822647D01*
X47304270Y9825500D01*
X47304266Y9825500D01*
X46495734Y9825500D01*
X46495730Y9825500D01*
X46465300Y9822647D01*
X46465298Y9822647D01*
X46337119Y9777794D01*
X46337117Y9777793D01*
X46227850Y9697150D01*
X46147207Y9587883D01*
X46147206Y9587881D01*
X46102353Y9459702D01*
X46102353Y9459700D01*
X46099500Y9429270D01*
X45592629Y9429270D01*
X45521789Y9535289D01*
X45521786Y9535293D01*
X45410292Y9646787D01*
X45410288Y9646790D01*
X45279185Y9734391D01*
X45279172Y9734398D01*
X45133501Y9794736D01*
X45133489Y9794739D01*
X44978845Y9825500D01*
X44978842Y9825500D01*
X44821158Y9825500D01*
X44821155Y9825500D01*
X44666510Y9794739D01*
X44666498Y9794736D01*
X44520827Y9734398D01*
X44520814Y9734391D01*
X44389711Y9646790D01*
X44389707Y9646787D01*
X44278213Y9535293D01*
X44278210Y9535289D01*
X44190609Y9404186D01*
X44190602Y9404173D01*
X44130264Y9258502D01*
X44130261Y9258490D01*
X44099500Y9103847D01*
X33304684Y9103847D01*
X33300625Y10794602D01*
X33304148Y10824248D01*
X33311237Y10853348D01*
X33331195Y10935276D01*
X33339569Y10958923D01*
X33391223Y11068176D01*
X33404178Y11089643D01*
X33476781Y11186274D01*
X33493793Y11204692D01*
X33584350Y11284718D01*
X33604729Y11299341D01*
X33709548Y11359501D01*
X33732454Y11369721D01*
X33847230Y11407544D01*
X33871727Y11412944D01*
X33997439Y11427545D01*
X34011794Y11428373D01*
X59811965Y11417232D01*
G37*
G04 #@! TD.AperFunction*
G04 #@! TD*
M02*
