G04 #@! TF.GenerationSoftware,KiCad,Pcbnew,8.0.4*
G04 #@! TF.CreationDate,2024-07-24T18:14:05+02:00*
G04 #@! TF.ProjectId,ESP32-C3-V3,45535033-322d-4433-932d-56332e6b6963,rev?*
G04 #@! TF.SameCoordinates,Original*
G04 #@! TF.FileFunction,Legend,Bot*
G04 #@! TF.FilePolarity,Positive*
%FSLAX46Y46*%
G04 Gerber Fmt 4.6, Leading zero omitted, Abs format (unit mm)*
G04 Created by KiCad (PCBNEW 8.0.4) date 2024-07-24 18:14:05*
%MOMM*%
%LPD*%
G01*
G04 APERTURE LIST*
%ADD10C,0.200000*%
%ADD11C,0.300000*%
G04 APERTURE END LIST*
D10*
X52980400Y8522055D02*
X52932780Y8664912D01*
X52932780Y8664912D02*
X52932780Y8903007D01*
X52932780Y8903007D02*
X52980400Y8998245D01*
X52980400Y8998245D02*
X53028019Y9045864D01*
X53028019Y9045864D02*
X53123257Y9093483D01*
X53123257Y9093483D02*
X53218495Y9093483D01*
X53218495Y9093483D02*
X53313733Y9045864D01*
X53313733Y9045864D02*
X53361352Y8998245D01*
X53361352Y8998245D02*
X53408971Y8903007D01*
X53408971Y8903007D02*
X53456590Y8712531D01*
X53456590Y8712531D02*
X53504209Y8617293D01*
X53504209Y8617293D02*
X53551828Y8569674D01*
X53551828Y8569674D02*
X53647066Y8522055D01*
X53647066Y8522055D02*
X53742304Y8522055D01*
X53742304Y8522055D02*
X53837542Y8569674D01*
X53837542Y8569674D02*
X53885161Y8617293D01*
X53885161Y8617293D02*
X53932780Y8712531D01*
X53932780Y8712531D02*
X53932780Y8950626D01*
X53932780Y8950626D02*
X53885161Y9093483D01*
X53028019Y10093483D02*
X52980400Y10045864D01*
X52980400Y10045864D02*
X52932780Y9903007D01*
X52932780Y9903007D02*
X52932780Y9807769D01*
X52932780Y9807769D02*
X52980400Y9664912D01*
X52980400Y9664912D02*
X53075638Y9569674D01*
X53075638Y9569674D02*
X53170876Y9522055D01*
X53170876Y9522055D02*
X53361352Y9474436D01*
X53361352Y9474436D02*
X53504209Y9474436D01*
X53504209Y9474436D02*
X53694685Y9522055D01*
X53694685Y9522055D02*
X53789923Y9569674D01*
X53789923Y9569674D02*
X53885161Y9664912D01*
X53885161Y9664912D02*
X53932780Y9807769D01*
X53932780Y9807769D02*
X53932780Y9903007D01*
X53932780Y9903007D02*
X53885161Y10045864D01*
X53885161Y10045864D02*
X53837542Y10093483D01*
X52932780Y10998245D02*
X52932780Y10522055D01*
X52932780Y10522055D02*
X53932780Y10522055D01*
D11*
G36*
X47387267Y5440726D02*
G01*
X46753933Y5440726D01*
X46753933Y6897368D01*
X46920600Y6897368D01*
X46920600Y5754511D01*
X46923482Y5725247D01*
X46945880Y5671175D01*
X46987264Y5629791D01*
X47041336Y5607393D01*
X47099864Y5607393D01*
X47153936Y5629791D01*
X47195320Y5671175D01*
X47217718Y5725247D01*
X47220600Y5754511D01*
X47220600Y6897368D01*
X47217718Y6926632D01*
X47195320Y6980704D01*
X47153936Y7022088D01*
X47099864Y7044486D01*
X47041336Y7044486D01*
X46987264Y7022088D01*
X46945880Y6980704D01*
X46923482Y6926632D01*
X46920600Y6897368D01*
X46753933Y6897368D01*
X46753933Y7211153D01*
X47387267Y7211153D01*
X47387267Y5440726D01*
G37*
D10*
G36*
X36178306Y-1888703D02*
G01*
X36202975Y-1913371D01*
X36232780Y-1972981D01*
X36232780Y-2230326D01*
X35908971Y-2230326D01*
X35908971Y-1972981D01*
X35938776Y-1913371D01*
X35963444Y-1888702D01*
X36023054Y-1858898D01*
X36118697Y-1858898D01*
X36178306Y-1888703D01*
G37*
G36*
X35844973Y-983941D02*
G01*
X35869642Y-1008609D01*
X35899447Y-1068219D01*
X35899447Y-1163862D01*
X35869642Y-1223471D01*
X35844973Y-1248139D01*
X35785364Y-1277945D01*
X35546864Y-1277945D01*
X35487254Y-1248140D01*
X35462583Y-1223469D01*
X35432780Y-1163862D01*
X35432780Y-1068218D01*
X35462583Y-1008611D01*
X35487254Y-983940D01*
X35546864Y-954136D01*
X35785364Y-954136D01*
X35844973Y-983941D01*
G37*
G36*
X35877292Y928471D02*
G01*
X35899447Y884162D01*
X35899447Y740900D01*
X35877292Y696592D01*
X35832983Y674436D01*
X35788094Y674436D01*
X35842391Y945922D01*
X35877292Y928471D01*
G37*
G36*
X36543891Y-2541437D02*
G01*
X35121669Y-2541437D01*
X35121669Y-2310817D01*
X35234701Y-2310817D01*
X35234701Y-2349835D01*
X35249633Y-2385883D01*
X35277223Y-2413473D01*
X35313271Y-2428405D01*
X35332780Y-2430326D01*
X36332780Y-2430326D01*
X36352289Y-2428405D01*
X36388337Y-2413473D01*
X36415927Y-2385883D01*
X36430859Y-2349835D01*
X36432780Y-2330326D01*
X36432780Y-1949374D01*
X36430859Y-1929865D01*
X36429483Y-1926544D01*
X36429229Y-1922961D01*
X36422223Y-1904652D01*
X36374604Y-1809415D01*
X36369318Y-1801018D01*
X36368308Y-1798578D01*
X36366054Y-1795832D01*
X36364161Y-1792824D01*
X36362163Y-1791091D01*
X36355871Y-1783425D01*
X36308253Y-1735806D01*
X36300582Y-1729511D01*
X36298853Y-1727517D01*
X36295845Y-1725623D01*
X36293099Y-1723370D01*
X36290659Y-1722359D01*
X36282263Y-1717074D01*
X36187025Y-1669455D01*
X36168717Y-1662449D01*
X36165133Y-1662194D01*
X36161813Y-1660819D01*
X36142304Y-1658898D01*
X35999447Y-1658898D01*
X35979938Y-1660819D01*
X35976617Y-1662194D01*
X35973034Y-1662449D01*
X35954725Y-1669455D01*
X35859488Y-1717074D01*
X35851091Y-1722359D01*
X35848651Y-1723370D01*
X35845905Y-1725623D01*
X35842897Y-1727517D01*
X35841164Y-1729514D01*
X35833498Y-1735807D01*
X35785879Y-1783425D01*
X35779584Y-1791095D01*
X35777590Y-1792825D01*
X35775696Y-1795832D01*
X35773443Y-1798579D01*
X35772432Y-1801018D01*
X35767147Y-1809415D01*
X35719528Y-1904653D01*
X35712522Y-1922961D01*
X35712267Y-1926544D01*
X35710892Y-1929865D01*
X35708971Y-1949374D01*
X35708971Y-2230326D01*
X35332780Y-2230326D01*
X35313271Y-2232247D01*
X35277223Y-2247179D01*
X35249633Y-2274769D01*
X35234701Y-2310817D01*
X35121669Y-2310817D01*
X35121669Y-1044612D01*
X35232780Y-1044612D01*
X35232780Y-1187469D01*
X35234701Y-1206978D01*
X35236076Y-1210297D01*
X35236331Y-1213883D01*
X35243338Y-1232191D01*
X35290958Y-1327429D01*
X35296242Y-1335824D01*
X35297253Y-1338264D01*
X35299506Y-1341009D01*
X35301401Y-1344020D01*
X35303397Y-1345751D01*
X35309689Y-1353418D01*
X35357308Y-1401036D01*
X35364974Y-1407328D01*
X35366707Y-1409326D01*
X35369715Y-1411219D01*
X35372461Y-1413473D01*
X35374901Y-1414483D01*
X35383298Y-1419769D01*
X35478535Y-1467388D01*
X35496844Y-1474394D01*
X35500427Y-1474648D01*
X35503748Y-1476024D01*
X35523257Y-1477945D01*
X35808971Y-1477945D01*
X35828480Y-1476024D01*
X35831800Y-1474648D01*
X35835384Y-1474394D01*
X35853692Y-1467388D01*
X35948930Y-1419769D01*
X35957326Y-1414483D01*
X35959766Y-1413473D01*
X35962512Y-1411219D01*
X35965520Y-1409326D01*
X35967249Y-1407331D01*
X35974920Y-1401037D01*
X36022538Y-1353418D01*
X36028830Y-1345751D01*
X36030828Y-1344019D01*
X36032721Y-1341010D01*
X36034975Y-1338265D01*
X36035985Y-1335824D01*
X36041271Y-1327428D01*
X36088890Y-1232191D01*
X36095896Y-1213882D01*
X36096150Y-1210298D01*
X36097526Y-1206978D01*
X36099447Y-1187469D01*
X36099447Y-1044612D01*
X36097526Y-1025103D01*
X36096150Y-1021782D01*
X36095896Y-1018199D01*
X36088890Y-999890D01*
X36041271Y-904653D01*
X36035985Y-896256D01*
X36034975Y-893816D01*
X36032721Y-891070D01*
X36030828Y-888062D01*
X36028830Y-886329D01*
X36022538Y-878663D01*
X35974920Y-831044D01*
X35967249Y-824749D01*
X35965520Y-822755D01*
X35962512Y-820861D01*
X35959766Y-818608D01*
X35957326Y-817597D01*
X35948930Y-812312D01*
X35853692Y-764693D01*
X35835384Y-757687D01*
X35831800Y-757432D01*
X35828480Y-756057D01*
X35808971Y-754136D01*
X35523257Y-754136D01*
X35503748Y-756057D01*
X35500427Y-757432D01*
X35496844Y-757687D01*
X35478535Y-764693D01*
X35383298Y-812312D01*
X35374901Y-817597D01*
X35372461Y-818608D01*
X35369715Y-820861D01*
X35366707Y-822755D01*
X35364974Y-824752D01*
X35357308Y-831045D01*
X35309689Y-878663D01*
X35303397Y-886329D01*
X35301401Y-888061D01*
X35299506Y-891071D01*
X35297253Y-893817D01*
X35296242Y-896256D01*
X35290958Y-904652D01*
X35243338Y-999890D01*
X35236331Y-1018198D01*
X35236076Y-1021783D01*
X35234701Y-1025103D01*
X35232780Y-1044612D01*
X35121669Y-1044612D01*
X35121669Y42440D01*
X35233115Y42440D01*
X35234869Y36301D01*
X35234947Y29923D01*
X35240179Y17713D01*
X35243834Y4923D01*
X35247804Y-78D01*
X35250317Y-5941D01*
X35259828Y-15223D01*
X35268095Y-25636D01*
X35273672Y-28734D01*
X35278241Y-33193D01*
X35295641Y-42222D01*
X35539711Y-139850D01*
X35295641Y-237478D01*
X35278241Y-246507D01*
X35273672Y-250965D01*
X35268095Y-254064D01*
X35259828Y-264476D01*
X35250317Y-273759D01*
X35247804Y-279621D01*
X35243834Y-284623D01*
X35240179Y-297412D01*
X35234947Y-309623D01*
X35234869Y-316000D01*
X35233115Y-322140D01*
X35234632Y-335346D01*
X35234470Y-348638D01*
X35236840Y-354564D01*
X35237569Y-360903D01*
X35244022Y-372520D01*
X35248961Y-384865D01*
X35253419Y-389433D01*
X35256518Y-395011D01*
X35266930Y-403277D01*
X35276213Y-412789D01*
X35282075Y-415301D01*
X35287077Y-419272D01*
X35305308Y-426478D01*
X35971975Y-616954D01*
X35991261Y-620467D01*
X36030024Y-616012D01*
X36064132Y-597064D01*
X36088393Y-566505D01*
X36099112Y-528988D01*
X36094657Y-490225D01*
X36075709Y-456117D01*
X36045150Y-431856D01*
X36026919Y-424650D01*
X35641516Y-314535D01*
X35846110Y-232698D01*
X35863510Y-223669D01*
X35864399Y-222800D01*
X35865538Y-222313D01*
X35878318Y-209216D01*
X35891434Y-196417D01*
X35891922Y-195276D01*
X35892789Y-194389D01*
X35899591Y-177383D01*
X35906804Y-160554D01*
X35906819Y-159314D01*
X35907280Y-158162D01*
X35907056Y-139850D01*
X35907280Y-121538D01*
X35906819Y-120385D01*
X35906804Y-119146D01*
X35899591Y-102316D01*
X35892789Y-85311D01*
X35891922Y-84423D01*
X35891434Y-83283D01*
X35878318Y-70483D01*
X35865538Y-57387D01*
X35864399Y-56899D01*
X35863510Y-56031D01*
X35846110Y-47002D01*
X35641516Y34836D01*
X36026919Y144950D01*
X36045150Y152156D01*
X36075709Y176417D01*
X36094657Y210525D01*
X36099112Y249288D01*
X36088393Y286805D01*
X36064132Y317364D01*
X36030024Y336312D01*
X35991261Y340767D01*
X35971975Y337254D01*
X35305308Y146778D01*
X35287077Y139572D01*
X35282075Y135602D01*
X35276213Y133089D01*
X35266930Y123578D01*
X35256518Y115311D01*
X35253419Y109734D01*
X35248961Y105165D01*
X35244022Y92821D01*
X35237569Y81203D01*
X35236840Y74865D01*
X35234470Y68938D01*
X35234632Y55647D01*
X35233115Y42440D01*
X35121669Y42440D01*
X35121669Y907769D01*
X35232780Y907769D01*
X35232780Y717293D01*
X35234701Y697784D01*
X35236076Y694465D01*
X35236331Y690879D01*
X35243338Y672571D01*
X35290958Y577333D01*
X35293010Y574072D01*
X35293524Y572532D01*
X35295186Y570615D01*
X35301401Y560742D01*
X35310873Y552528D01*
X35319088Y543055D01*
X35328960Y536841D01*
X35330878Y535178D01*
X35332417Y534665D01*
X35335679Y532612D01*
X35430916Y484993D01*
X35449225Y477987D01*
X35452808Y477733D01*
X35456129Y476357D01*
X35475638Y474436D01*
X35666009Y474436D01*
X35856590Y474436D01*
X35876099Y476357D01*
X35879419Y477733D01*
X35883003Y477987D01*
X35901311Y484993D01*
X35996549Y532612D01*
X35999812Y534666D01*
X36001351Y535179D01*
X36003267Y536842D01*
X36013139Y543055D01*
X36021352Y552526D01*
X36030828Y560743D01*
X36037042Y570617D01*
X36038704Y572532D01*
X36039216Y574071D01*
X36041271Y577334D01*
X36088890Y672571D01*
X36095896Y690880D01*
X36096150Y694464D01*
X36097526Y697784D01*
X36099447Y717293D01*
X36099447Y907769D01*
X36097526Y927278D01*
X36096150Y930599D01*
X36095896Y934182D01*
X36088890Y952491D01*
X36041271Y1047728D01*
X36039216Y1050992D01*
X36038704Y1052530D01*
X36037042Y1054446D01*
X36030828Y1064319D01*
X36021352Y1072537D01*
X36013139Y1082007D01*
X36003267Y1088221D01*
X36001351Y1089883D01*
X35999812Y1090397D01*
X35996549Y1092450D01*
X35901311Y1140069D01*
X35883003Y1147075D01*
X35879419Y1147330D01*
X35876099Y1148705D01*
X35856590Y1150626D01*
X35761352Y1150626D01*
X35741843Y1148705D01*
X35732790Y1144956D01*
X35723180Y1143054D01*
X35714942Y1137563D01*
X35705795Y1133773D01*
X35698866Y1126845D01*
X35690715Y1121410D01*
X35685206Y1113185D01*
X35678205Y1106183D01*
X35674455Y1097132D01*
X35669004Y1088991D01*
X35663294Y1070237D01*
X35663274Y1070138D01*
X35663273Y1070135D01*
X35663273Y1070133D01*
X35584134Y674436D01*
X35499245Y674436D01*
X35454934Y696592D01*
X35432780Y740900D01*
X35432780Y884163D01*
X35469842Y958285D01*
X35476849Y976594D01*
X35479615Y1015514D01*
X35467277Y1052530D01*
X35441712Y1082007D01*
X35406814Y1099456D01*
X35367894Y1102222D01*
X35330878Y1089884D01*
X35301401Y1064320D01*
X35290958Y1047729D01*
X35243338Y952491D01*
X35236331Y934183D01*
X35236076Y930598D01*
X35234701Y927278D01*
X35232780Y907769D01*
X35121669Y907769D01*
X35121669Y1498707D01*
X35234701Y1498707D01*
X35234701Y1459689D01*
X35249633Y1423641D01*
X35277223Y1396051D01*
X35313271Y1381119D01*
X35332780Y1379198D01*
X35999447Y1379198D01*
X36018956Y1381119D01*
X36055004Y1396051D01*
X36082594Y1423641D01*
X36097526Y1459689D01*
X36097526Y1498707D01*
X36082594Y1534755D01*
X36056725Y1560624D01*
X36088890Y1624952D01*
X36095896Y1643261D01*
X36096150Y1646845D01*
X36097526Y1650165D01*
X36099447Y1669674D01*
X36099447Y1764912D01*
X36097526Y1784421D01*
X36082594Y1820469D01*
X36055004Y1848059D01*
X36018956Y1862991D01*
X35979938Y1862991D01*
X35943890Y1848059D01*
X35916300Y1820469D01*
X35901368Y1784421D01*
X35899447Y1764912D01*
X35899447Y1693281D01*
X35869642Y1633672D01*
X35844973Y1609004D01*
X35785364Y1579198D01*
X35332780Y1579198D01*
X35313271Y1577277D01*
X35277223Y1562345D01*
X35249633Y1534755D01*
X35234701Y1498707D01*
X35121669Y1498707D01*
X35121669Y1974102D01*
X36543891Y1974102D01*
X36543891Y-2541437D01*
G37*
X56532780Y8426817D02*
X55532780Y8760150D01*
X55532780Y8760150D02*
X56532780Y9093483D01*
X55628019Y9998245D02*
X55580400Y9950626D01*
X55580400Y9950626D02*
X55532780Y9807769D01*
X55532780Y9807769D02*
X55532780Y9712531D01*
X55532780Y9712531D02*
X55580400Y9569674D01*
X55580400Y9569674D02*
X55675638Y9474436D01*
X55675638Y9474436D02*
X55770876Y9426817D01*
X55770876Y9426817D02*
X55961352Y9379198D01*
X55961352Y9379198D02*
X56104209Y9379198D01*
X56104209Y9379198D02*
X56294685Y9426817D01*
X56294685Y9426817D02*
X56389923Y9474436D01*
X56389923Y9474436D02*
X56485161Y9569674D01*
X56485161Y9569674D02*
X56532780Y9712531D01*
X56532780Y9712531D02*
X56532780Y9807769D01*
X56532780Y9807769D02*
X56485161Y9950626D01*
X56485161Y9950626D02*
X56437542Y9998245D01*
X55628019Y10998245D02*
X55580400Y10950626D01*
X55580400Y10950626D02*
X55532780Y10807769D01*
X55532780Y10807769D02*
X55532780Y10712531D01*
X55532780Y10712531D02*
X55580400Y10569674D01*
X55580400Y10569674D02*
X55675638Y10474436D01*
X55675638Y10474436D02*
X55770876Y10426817D01*
X55770876Y10426817D02*
X55961352Y10379198D01*
X55961352Y10379198D02*
X56104209Y10379198D01*
X56104209Y10379198D02*
X56294685Y10426817D01*
X56294685Y10426817D02*
X56389923Y10474436D01*
X56389923Y10474436D02*
X56485161Y10569674D01*
X56485161Y10569674D02*
X56532780Y10712531D01*
X56532780Y10712531D02*
X56532780Y10807769D01*
X56532780Y10807769D02*
X56485161Y10950626D01*
X56485161Y10950626D02*
X56437542Y10998245D01*
X54280400Y8522055D02*
X54232780Y8664912D01*
X54232780Y8664912D02*
X54232780Y8903007D01*
X54232780Y8903007D02*
X54280400Y8998245D01*
X54280400Y8998245D02*
X54328019Y9045864D01*
X54328019Y9045864D02*
X54423257Y9093483D01*
X54423257Y9093483D02*
X54518495Y9093483D01*
X54518495Y9093483D02*
X54613733Y9045864D01*
X54613733Y9045864D02*
X54661352Y8998245D01*
X54661352Y8998245D02*
X54708971Y8903007D01*
X54708971Y8903007D02*
X54756590Y8712531D01*
X54756590Y8712531D02*
X54804209Y8617293D01*
X54804209Y8617293D02*
X54851828Y8569674D01*
X54851828Y8569674D02*
X54947066Y8522055D01*
X54947066Y8522055D02*
X55042304Y8522055D01*
X55042304Y8522055D02*
X55137542Y8569674D01*
X55137542Y8569674D02*
X55185161Y8617293D01*
X55185161Y8617293D02*
X55232780Y8712531D01*
X55232780Y8712531D02*
X55232780Y8950626D01*
X55232780Y8950626D02*
X55185161Y9093483D01*
X54232780Y9522055D02*
X55232780Y9522055D01*
X55232780Y9522055D02*
X55232780Y9760150D01*
X55232780Y9760150D02*
X55185161Y9903007D01*
X55185161Y9903007D02*
X55089923Y9998245D01*
X55089923Y9998245D02*
X54994685Y10045864D01*
X54994685Y10045864D02*
X54804209Y10093483D01*
X54804209Y10093483D02*
X54661352Y10093483D01*
X54661352Y10093483D02*
X54470876Y10045864D01*
X54470876Y10045864D02*
X54375638Y9998245D01*
X54375638Y9998245D02*
X54280400Y9903007D01*
X54280400Y9903007D02*
X54232780Y9760150D01*
X54232780Y9760150D02*
X54232780Y9522055D01*
X54518495Y10474436D02*
X54518495Y10950626D01*
X54232780Y10379198D02*
X55232780Y10712531D01*
X55232780Y10712531D02*
X54232780Y11045864D01*
G36*
X60026496Y-9139850D02*
G01*
X59728439Y-9239202D01*
X59728439Y-9040497D01*
X60026496Y-9139850D01*
G37*
G36*
X58013733Y-4925767D02*
G01*
X57991578Y-4970075D01*
X57947269Y-4992231D01*
X57899245Y-4992231D01*
X57854934Y-4970075D01*
X57832780Y-4925767D01*
X57832780Y-4734885D01*
X57842202Y-4716041D01*
X58013733Y-4716041D01*
X58013733Y-4925767D01*
G37*
G36*
X58299447Y-3211076D02*
G01*
X58299447Y-3354338D01*
X58269642Y-3413947D01*
X58244973Y-3438615D01*
X58185364Y-3468421D01*
X57946864Y-3468421D01*
X57887254Y-3438616D01*
X57862583Y-3413945D01*
X57832780Y-3354338D01*
X57832780Y-3211075D01*
X57842202Y-3192231D01*
X58290024Y-3192231D01*
X58299447Y-3211076D01*
G37*
G36*
X58277292Y-2309624D02*
G01*
X58299447Y-2353933D01*
X58299447Y-2497195D01*
X58277292Y-2541503D01*
X58232983Y-2563659D01*
X58188094Y-2563659D01*
X58242391Y-2292173D01*
X58277292Y-2309624D01*
G37*
G36*
X58507399Y765800D02*
G01*
X58578306Y730346D01*
X58602975Y705678D01*
X58632780Y646068D01*
X58632780Y598044D01*
X58602975Y538435D01*
X58578306Y513767D01*
X58507399Y478313D01*
X58339518Y436342D01*
X58126042Y436342D01*
X57958161Y478313D01*
X57887254Y513766D01*
X57862583Y538437D01*
X57832780Y598044D01*
X57832780Y646069D01*
X57862583Y705676D01*
X57887254Y730347D01*
X57958161Y765800D01*
X58126042Y807770D01*
X58339518Y807770D01*
X58507399Y765800D01*
G37*
G36*
X60553835Y-9683509D02*
G01*
X57188336Y-9683509D01*
X57188336Y-8810256D01*
X57632849Y-8810256D01*
X57636214Y-8824390D01*
X57638126Y-8838774D01*
X57640696Y-8843214D01*
X57641887Y-8848213D01*
X57650402Y-8859979D01*
X57657675Y-8872542D01*
X57661752Y-8875662D01*
X57664762Y-8879822D01*
X57677124Y-8887429D01*
X57688658Y-8896258D01*
X57695858Y-8898957D01*
X57697992Y-8900271D01*
X57700382Y-8900654D01*
X57707014Y-8903141D01*
X58058959Y-8996993D01*
X57707014Y-9090845D01*
X57700382Y-9093331D01*
X57697992Y-9093715D01*
X57695858Y-9095028D01*
X57688658Y-9097728D01*
X57677124Y-9106556D01*
X57664762Y-9114164D01*
X57661752Y-9118323D01*
X57657675Y-9121444D01*
X57650402Y-9134006D01*
X57641887Y-9145773D01*
X57640696Y-9150771D01*
X57638126Y-9155212D01*
X57636214Y-9169595D01*
X57632849Y-9183730D01*
X57633662Y-9188801D01*
X57632986Y-9193890D01*
X57636727Y-9207922D01*
X57639026Y-9222257D01*
X57641715Y-9226627D01*
X57643039Y-9231591D01*
X57651867Y-9243124D01*
X57659475Y-9255487D01*
X57663634Y-9258496D01*
X57666755Y-9262574D01*
X57679317Y-9269846D01*
X57691084Y-9278362D01*
X57698355Y-9280868D01*
X57700523Y-9282123D01*
X57702920Y-9282441D01*
X57709618Y-9284750D01*
X58709618Y-9522845D01*
X58729041Y-9525495D01*
X58767568Y-9519318D01*
X58800798Y-9498869D01*
X58823673Y-9467260D01*
X58832711Y-9429303D01*
X58826534Y-9390776D01*
X58806085Y-9357546D01*
X58774476Y-9334671D01*
X58755942Y-9328283D01*
X58141468Y-9181980D01*
X58472833Y-9093616D01*
X58477400Y-9091903D01*
X58479324Y-9091648D01*
X58481606Y-9090326D01*
X58491188Y-9086734D01*
X58501670Y-9078709D01*
X58513091Y-9072098D01*
X58517027Y-9066954D01*
X58522171Y-9063018D01*
X58528782Y-9051598D01*
X58536807Y-9041115D01*
X58538476Y-9034854D01*
X58541721Y-9029250D01*
X58543459Y-9016167D01*
X58546860Y-9003414D01*
X58546006Y-8996993D01*
X58546860Y-8990572D01*
X58543459Y-8977818D01*
X58541721Y-8964736D01*
X58538476Y-8959131D01*
X58536807Y-8952871D01*
X58528782Y-8942387D01*
X58522171Y-8930968D01*
X58517027Y-8927031D01*
X58513091Y-8921888D01*
X58501670Y-8915276D01*
X58491188Y-8907252D01*
X58481606Y-8903659D01*
X58479324Y-8902338D01*
X58477400Y-8902082D01*
X58472833Y-8900370D01*
X58141468Y-8812005D01*
X58217048Y-8794010D01*
X59243509Y-8794010D01*
X59246275Y-8832930D01*
X59263725Y-8867829D01*
X59293201Y-8893394D01*
X59311101Y-8901385D01*
X59528439Y-8973830D01*
X59528439Y-9305869D01*
X59311101Y-9378315D01*
X59293201Y-9386306D01*
X59263725Y-9411871D01*
X59246275Y-9446770D01*
X59243509Y-9485690D01*
X59255847Y-9522706D01*
X59281412Y-9552182D01*
X59316311Y-9569632D01*
X59355231Y-9572398D01*
X59374347Y-9568051D01*
X60374346Y-9234718D01*
X60392247Y-9226727D01*
X60397648Y-9222042D01*
X60404035Y-9218849D01*
X60412247Y-9209380D01*
X60421723Y-9201162D01*
X60424918Y-9194770D01*
X60429600Y-9189373D01*
X60433566Y-9177475D01*
X60439172Y-9166263D01*
X60439678Y-9159138D01*
X60441939Y-9152357D01*
X60441049Y-9139850D01*
X60441939Y-9127343D01*
X60439678Y-9120561D01*
X60439172Y-9113437D01*
X60433566Y-9102224D01*
X60429600Y-9090327D01*
X60424918Y-9084929D01*
X60421723Y-9078538D01*
X60412247Y-9070319D01*
X60404035Y-9060851D01*
X60397648Y-9057657D01*
X60392247Y-9052973D01*
X60374346Y-9044982D01*
X59374347Y-8711649D01*
X59355231Y-8707302D01*
X59316311Y-8710068D01*
X59281412Y-8727518D01*
X59255847Y-8756994D01*
X59243509Y-8794010D01*
X58217048Y-8794010D01*
X58755942Y-8665703D01*
X58774476Y-8659315D01*
X58806085Y-8636440D01*
X58826534Y-8603210D01*
X58832711Y-8564683D01*
X58823673Y-8526726D01*
X58800798Y-8495117D01*
X58767568Y-8474668D01*
X58729041Y-8468491D01*
X58709618Y-8471141D01*
X57709618Y-8709236D01*
X57702920Y-8711544D01*
X57700523Y-8711863D01*
X57698355Y-8713117D01*
X57691084Y-8715624D01*
X57679317Y-8724139D01*
X57666755Y-8731412D01*
X57663634Y-8735489D01*
X57659475Y-8738499D01*
X57651867Y-8750861D01*
X57643039Y-8762395D01*
X57641715Y-8767358D01*
X57639026Y-8771729D01*
X57636727Y-8786063D01*
X57632986Y-8800096D01*
X57633662Y-8805184D01*
X57632849Y-8810256D01*
X57188336Y-8810256D01*
X57188336Y-8453674D01*
X59244645Y-8453674D01*
X59244645Y-8492692D01*
X59246129Y-8496275D01*
X59259576Y-8528740D01*
X59259577Y-8528741D01*
X59272014Y-8543894D01*
X59319634Y-8591513D01*
X59334787Y-8603950D01*
X59360277Y-8614507D01*
X59370835Y-8618881D01*
X59370836Y-8618881D01*
X59409853Y-8618881D01*
X59430970Y-8610133D01*
X59445902Y-8603949D01*
X59445906Y-8603944D01*
X59461055Y-8591513D01*
X59508673Y-8543894D01*
X59521110Y-8528741D01*
X59532479Y-8501293D01*
X59536042Y-8492692D01*
X59536042Y-8453674D01*
X59521110Y-8417626D01*
X59521110Y-8417625D01*
X59508673Y-8402472D01*
X59461055Y-8354853D01*
X59445906Y-8342421D01*
X59445902Y-8342417D01*
X59430970Y-8336232D01*
X59409853Y-8327485D01*
X59370835Y-8327485D01*
X59360277Y-8331858D01*
X59334787Y-8342416D01*
X59319634Y-8354853D01*
X59272014Y-8402472D01*
X59259577Y-8417625D01*
X59259576Y-8417626D01*
X59249018Y-8443116D01*
X59244645Y-8453674D01*
X57188336Y-8453674D01*
X57188336Y-7425565D01*
X58013733Y-7425565D01*
X58013733Y-8187469D01*
X58015654Y-8206978D01*
X58030586Y-8243026D01*
X58058176Y-8270616D01*
X58094224Y-8285548D01*
X58133242Y-8285548D01*
X58169290Y-8270616D01*
X58196880Y-8243026D01*
X58211812Y-8206978D01*
X58213733Y-8187469D01*
X58213733Y-7663660D01*
X59242724Y-7663660D01*
X59242724Y-7901755D01*
X59243696Y-7911628D01*
X59243509Y-7914263D01*
X59244296Y-7917726D01*
X59244645Y-7921264D01*
X59245656Y-7923705D01*
X59247856Y-7933378D01*
X59295476Y-8076236D01*
X59303468Y-8094136D01*
X59329033Y-8123612D01*
X59363932Y-8141061D01*
X59402852Y-8143827D01*
X59439868Y-8131488D01*
X59469344Y-8105923D01*
X59486793Y-8071024D01*
X59489559Y-8032104D01*
X59485212Y-8012989D01*
X59442724Y-7885527D01*
X59442724Y-7687266D01*
X59472527Y-7627659D01*
X59497198Y-7602988D01*
X59556808Y-7573184D01*
X59604832Y-7573184D01*
X59664441Y-7602989D01*
X59689110Y-7627657D01*
X59724563Y-7698564D01*
X59769520Y-7878389D01*
X59770033Y-7879826D01*
X59770085Y-7880549D01*
X59773193Y-7888673D01*
X59776115Y-7896850D01*
X59776545Y-7897430D01*
X59777091Y-7898857D01*
X59824710Y-7994095D01*
X59829995Y-8002491D01*
X59831006Y-8004931D01*
X59833259Y-8007677D01*
X59835153Y-8010685D01*
X59837147Y-8012414D01*
X59843442Y-8020085D01*
X59891061Y-8067703D01*
X59898727Y-8073995D01*
X59900460Y-8075993D01*
X59903468Y-8077886D01*
X59906214Y-8080140D01*
X59908654Y-8081150D01*
X59917051Y-8086436D01*
X60012288Y-8134055D01*
X60030597Y-8141061D01*
X60034180Y-8141315D01*
X60037501Y-8142691D01*
X60057010Y-8144612D01*
X60152248Y-8144612D01*
X60171757Y-8142691D01*
X60175077Y-8141315D01*
X60178661Y-8141061D01*
X60196969Y-8134055D01*
X60292207Y-8086436D01*
X60300603Y-8081150D01*
X60303043Y-8080140D01*
X60305789Y-8077886D01*
X60308797Y-8075993D01*
X60310526Y-8073998D01*
X60318197Y-8067704D01*
X60365815Y-8020085D01*
X60372107Y-8012418D01*
X60374105Y-8010686D01*
X60375998Y-8007677D01*
X60378252Y-8004932D01*
X60379262Y-8002491D01*
X60384548Y-7994095D01*
X60432167Y-7898858D01*
X60439173Y-7880549D01*
X60439427Y-7876965D01*
X60440803Y-7873645D01*
X60442724Y-7854136D01*
X60442724Y-7616041D01*
X60441751Y-7606167D01*
X60441939Y-7603533D01*
X60441151Y-7600069D01*
X60440803Y-7596532D01*
X60439791Y-7594090D01*
X60437592Y-7584418D01*
X60389973Y-7441561D01*
X60381982Y-7423661D01*
X60356417Y-7394185D01*
X60321518Y-7376735D01*
X60282598Y-7373969D01*
X60245582Y-7386307D01*
X60216106Y-7411872D01*
X60198656Y-7446771D01*
X60195890Y-7485691D01*
X60200237Y-7504807D01*
X60242724Y-7632267D01*
X60242724Y-7830529D01*
X60212919Y-7890138D01*
X60188250Y-7914806D01*
X60128641Y-7944612D01*
X60080617Y-7944612D01*
X60021007Y-7914807D01*
X59996339Y-7890138D01*
X59960885Y-7819231D01*
X59915929Y-7639406D01*
X59915415Y-7637967D01*
X59915364Y-7637247D01*
X59912255Y-7629122D01*
X59909334Y-7620946D01*
X59908904Y-7620366D01*
X59908358Y-7618938D01*
X59860739Y-7523701D01*
X59855453Y-7515304D01*
X59854443Y-7512864D01*
X59852189Y-7510118D01*
X59850296Y-7507110D01*
X59848298Y-7505377D01*
X59842006Y-7497711D01*
X59794388Y-7450092D01*
X59786717Y-7443797D01*
X59784988Y-7441803D01*
X59781980Y-7439909D01*
X59779234Y-7437656D01*
X59776794Y-7436645D01*
X59768398Y-7431360D01*
X59673160Y-7383741D01*
X59654852Y-7376735D01*
X59651268Y-7376480D01*
X59647948Y-7375105D01*
X59628439Y-7373184D01*
X59533201Y-7373184D01*
X59513692Y-7375105D01*
X59510371Y-7376480D01*
X59506788Y-7376735D01*
X59488479Y-7383741D01*
X59393242Y-7431360D01*
X59384845Y-7436645D01*
X59382405Y-7437656D01*
X59379659Y-7439909D01*
X59376651Y-7441803D01*
X59374918Y-7443800D01*
X59367252Y-7450093D01*
X59319633Y-7497711D01*
X59313341Y-7505377D01*
X59311345Y-7507109D01*
X59309450Y-7510119D01*
X59307197Y-7512865D01*
X59306186Y-7515304D01*
X59300902Y-7523700D01*
X59253282Y-7618938D01*
X59246275Y-7637246D01*
X59246020Y-7640831D01*
X59244645Y-7644151D01*
X59242724Y-7663660D01*
X58213733Y-7663660D01*
X58213733Y-7425565D01*
X58211812Y-7406056D01*
X58196880Y-7370008D01*
X58169290Y-7342418D01*
X58133242Y-7327486D01*
X58094224Y-7327486D01*
X58058176Y-7342418D01*
X58030586Y-7370008D01*
X58015654Y-7406056D01*
X58013733Y-7425565D01*
X57188336Y-7425565D01*
X57188336Y-6568422D01*
X57632780Y-6568422D01*
X57632780Y-6663660D01*
X57633752Y-6673533D01*
X57633565Y-6676168D01*
X57634352Y-6679631D01*
X57634701Y-6683169D01*
X57635712Y-6685610D01*
X57637912Y-6695283D01*
X57685532Y-6838141D01*
X57693524Y-6856041D01*
X57695878Y-6858755D01*
X57697253Y-6862074D01*
X57709689Y-6877228D01*
X57804927Y-6972466D01*
X57812593Y-6978757D01*
X57814326Y-6980755D01*
X57817337Y-6982650D01*
X57820081Y-6984902D01*
X57822518Y-6985911D01*
X57830917Y-6991198D01*
X57926154Y-7038817D01*
X57927582Y-7039363D01*
X57928162Y-7039793D01*
X57936338Y-7042714D01*
X57944463Y-7045823D01*
X57945183Y-7045874D01*
X57946622Y-7046388D01*
X58137098Y-7094007D01*
X58140479Y-7094507D01*
X58141843Y-7095072D01*
X58149193Y-7095795D01*
X58156491Y-7096875D01*
X58157949Y-7096657D01*
X58161352Y-7096993D01*
X58304209Y-7096993D01*
X58307611Y-7096657D01*
X58309070Y-7096875D01*
X58316367Y-7095795D01*
X58323718Y-7095072D01*
X58325081Y-7094507D01*
X58328463Y-7094007D01*
X58518938Y-7046388D01*
X58520375Y-7045874D01*
X58521098Y-7045823D01*
X58529222Y-7042714D01*
X58537399Y-7039793D01*
X58537979Y-7039362D01*
X58539406Y-7038817D01*
X58566834Y-7025103D01*
X59244645Y-7025103D01*
X59244645Y-7064121D01*
X59246129Y-7067704D01*
X59259576Y-7100169D01*
X59259577Y-7100170D01*
X59272014Y-7115323D01*
X59319634Y-7162942D01*
X59334787Y-7175379D01*
X59360277Y-7185936D01*
X59370835Y-7190310D01*
X59370836Y-7190310D01*
X59409853Y-7190310D01*
X59430970Y-7181562D01*
X59445902Y-7175378D01*
X59445906Y-7175373D01*
X59461055Y-7162942D01*
X59508673Y-7115323D01*
X59521110Y-7100170D01*
X59525483Y-7089611D01*
X59536042Y-7064121D01*
X59536042Y-7025103D01*
X59521110Y-6989055D01*
X59521110Y-6989054D01*
X59508673Y-6973901D01*
X59461055Y-6926282D01*
X59445906Y-6913850D01*
X59445902Y-6913846D01*
X59428345Y-6906574D01*
X59409853Y-6898914D01*
X59370835Y-6898914D01*
X59361053Y-6902966D01*
X59334787Y-6913845D01*
X59319634Y-6926282D01*
X59272014Y-6973901D01*
X59259577Y-6989054D01*
X59259576Y-6989055D01*
X59254275Y-7001854D01*
X59244645Y-7025103D01*
X58566834Y-7025103D01*
X58634644Y-6991198D01*
X58643040Y-6985912D01*
X58645480Y-6984902D01*
X58648226Y-6982648D01*
X58651234Y-6980755D01*
X58652963Y-6978760D01*
X58660634Y-6972466D01*
X58755872Y-6877228D01*
X58768308Y-6862074D01*
X58769682Y-6858755D01*
X58772038Y-6856040D01*
X58780029Y-6838140D01*
X58827648Y-6695283D01*
X58829847Y-6685610D01*
X58830859Y-6683169D01*
X58831207Y-6679631D01*
X58831995Y-6676168D01*
X58831807Y-6673533D01*
X58832780Y-6663660D01*
X58832780Y-6568422D01*
X58831807Y-6558548D01*
X58831995Y-6555914D01*
X58831207Y-6552450D01*
X58830859Y-6548913D01*
X58829847Y-6546471D01*
X58827648Y-6536799D01*
X58780029Y-6393942D01*
X58772038Y-6376042D01*
X58769682Y-6373326D01*
X58768308Y-6370007D01*
X58755871Y-6354854D01*
X58708253Y-6307235D01*
X58693099Y-6294799D01*
X58657051Y-6279867D01*
X58618033Y-6279867D01*
X58581985Y-6294799D01*
X58554395Y-6322389D01*
X58539463Y-6358437D01*
X58539463Y-6397455D01*
X58554395Y-6433503D01*
X58566831Y-6448657D01*
X58597758Y-6479583D01*
X58632780Y-6584648D01*
X58632780Y-6647433D01*
X58597758Y-6752497D01*
X58530686Y-6819569D01*
X58459780Y-6855022D01*
X58291899Y-6896993D01*
X58173661Y-6896993D01*
X58005780Y-6855022D01*
X57934875Y-6819570D01*
X57867802Y-6752497D01*
X57832780Y-6647432D01*
X57832780Y-6584649D01*
X57867802Y-6479584D01*
X57898729Y-6448657D01*
X57911166Y-6433504D01*
X57926097Y-6397455D01*
X57926097Y-6358437D01*
X57911166Y-6322389D01*
X57883576Y-6294799D01*
X57847528Y-6279868D01*
X57808510Y-6279868D01*
X57772461Y-6294799D01*
X57757308Y-6307236D01*
X57709689Y-6354854D01*
X57697253Y-6370008D01*
X57695878Y-6373326D01*
X57693524Y-6376041D01*
X57685532Y-6393941D01*
X57637912Y-6536799D01*
X57635712Y-6546471D01*
X57634701Y-6548913D01*
X57634352Y-6552450D01*
X57633565Y-6555914D01*
X57633752Y-6558548D01*
X57632780Y-6568422D01*
X57188336Y-6568422D01*
X57188336Y-5501294D01*
X57634701Y-5501294D01*
X57634701Y-5540312D01*
X57649633Y-5576360D01*
X57677223Y-5603950D01*
X57713271Y-5618882D01*
X57732780Y-5620803D01*
X58232983Y-5620803D01*
X58277292Y-5642958D01*
X58299447Y-5687267D01*
X58299447Y-5782910D01*
X58269642Y-5842519D01*
X58262788Y-5849374D01*
X57732780Y-5849374D01*
X57713271Y-5851295D01*
X57677223Y-5866227D01*
X57649633Y-5893817D01*
X57634701Y-5929865D01*
X57634701Y-5968883D01*
X57649633Y-6004931D01*
X57677223Y-6032521D01*
X57713271Y-6047453D01*
X57732780Y-6049374D01*
X58732780Y-6049374D01*
X58752289Y-6047453D01*
X58788337Y-6032521D01*
X58815927Y-6004931D01*
X58830859Y-5968883D01*
X58830859Y-5929865D01*
X58815927Y-5893817D01*
X58788337Y-5866227D01*
X58752289Y-5851295D01*
X58732780Y-5849374D01*
X58489604Y-5849374D01*
X58495896Y-5832930D01*
X58496150Y-5829346D01*
X58497526Y-5826026D01*
X58499447Y-5806517D01*
X58499447Y-5663660D01*
X58497526Y-5644151D01*
X58496150Y-5640830D01*
X58495896Y-5637247D01*
X58488890Y-5618938D01*
X58441271Y-5523701D01*
X58439216Y-5520437D01*
X58438704Y-5518899D01*
X58437042Y-5516983D01*
X58430828Y-5507110D01*
X58421352Y-5498892D01*
X58413139Y-5489422D01*
X58403267Y-5483208D01*
X58401351Y-5481546D01*
X58399812Y-5481032D01*
X58396549Y-5478979D01*
X58301311Y-5431360D01*
X58283003Y-5424354D01*
X58279419Y-5424099D01*
X58276099Y-5422724D01*
X58256590Y-5420803D01*
X57732780Y-5420803D01*
X57713271Y-5422724D01*
X57677223Y-5437656D01*
X57649633Y-5465246D01*
X57634701Y-5501294D01*
X57188336Y-5501294D01*
X57188336Y-4711279D01*
X57632780Y-4711279D01*
X57632780Y-4949374D01*
X57634701Y-4968883D01*
X57636076Y-4972202D01*
X57636331Y-4975788D01*
X57643338Y-4994096D01*
X57690958Y-5089334D01*
X57693010Y-5092595D01*
X57693524Y-5094135D01*
X57695186Y-5096052D01*
X57701401Y-5105925D01*
X57710873Y-5114139D01*
X57719088Y-5123612D01*
X57728960Y-5129826D01*
X57730878Y-5131489D01*
X57732417Y-5132002D01*
X57735679Y-5134055D01*
X57830916Y-5181674D01*
X57849225Y-5188680D01*
X57852808Y-5188934D01*
X57856129Y-5190310D01*
X57875638Y-5192231D01*
X57970876Y-5192231D01*
X57990385Y-5190310D01*
X57993705Y-5188934D01*
X57997289Y-5188680D01*
X58015597Y-5181674D01*
X58110835Y-5134055D01*
X58114098Y-5132001D01*
X58115637Y-5131488D01*
X58117553Y-5129825D01*
X58127425Y-5123612D01*
X58135638Y-5114141D01*
X58145114Y-5105924D01*
X58151328Y-5096050D01*
X58152990Y-5094135D01*
X58153502Y-5092596D01*
X58155557Y-5089333D01*
X58203176Y-4994096D01*
X58210182Y-4975787D01*
X58210436Y-4972203D01*
X58211812Y-4968883D01*
X58213733Y-4949374D01*
X58213733Y-4734886D01*
X58223156Y-4716041D01*
X58232983Y-4716041D01*
X58277292Y-4738196D01*
X58299447Y-4782505D01*
X58299447Y-4925767D01*
X58262385Y-4999891D01*
X58255379Y-5018199D01*
X58252613Y-5057119D01*
X58264952Y-5094135D01*
X58290516Y-5123612D01*
X58325415Y-5141061D01*
X58364335Y-5143827D01*
X58401351Y-5131488D01*
X58430828Y-5105924D01*
X58441271Y-5089333D01*
X58488890Y-4994096D01*
X58495896Y-4975787D01*
X58496150Y-4972203D01*
X58497526Y-4968883D01*
X58499447Y-4949374D01*
X58499447Y-4758898D01*
X58497526Y-4739389D01*
X58496150Y-4736068D01*
X58495896Y-4732485D01*
X58488890Y-4714176D01*
X58441271Y-4618939D01*
X58439216Y-4615675D01*
X58438704Y-4614137D01*
X58437042Y-4612221D01*
X58430828Y-4602348D01*
X58421352Y-4594130D01*
X58413139Y-4584660D01*
X58403267Y-4578446D01*
X58401351Y-4576784D01*
X58399812Y-4576270D01*
X58396549Y-4574217D01*
X58301311Y-4526598D01*
X58283003Y-4519592D01*
X58279419Y-4519337D01*
X58276099Y-4517962D01*
X58256590Y-4516041D01*
X57732780Y-4516041D01*
X57713271Y-4517962D01*
X57677223Y-4532894D01*
X57649633Y-4560484D01*
X57634701Y-4596532D01*
X57634701Y-4635550D01*
X57645638Y-4661955D01*
X57643338Y-4666557D01*
X57636331Y-4684865D01*
X57636076Y-4688450D01*
X57634701Y-4691770D01*
X57632780Y-4711279D01*
X57188336Y-4711279D01*
X57188336Y-4120341D01*
X57634701Y-4120341D01*
X57634701Y-4159359D01*
X57649633Y-4195407D01*
X57677223Y-4222997D01*
X57713271Y-4237929D01*
X57732780Y-4239850D01*
X58399447Y-4239850D01*
X58418956Y-4237929D01*
X58455004Y-4222997D01*
X58482594Y-4195407D01*
X58497526Y-4159359D01*
X58497526Y-4120341D01*
X58482594Y-4084293D01*
X58456725Y-4058424D01*
X58488890Y-3994096D01*
X58495896Y-3975787D01*
X58496150Y-3972203D01*
X58497526Y-3968883D01*
X58499447Y-3949374D01*
X58499447Y-3854136D01*
X58497526Y-3834627D01*
X58482594Y-3798579D01*
X58455004Y-3770989D01*
X58418956Y-3756057D01*
X58379938Y-3756057D01*
X58343890Y-3770989D01*
X58316300Y-3798579D01*
X58301368Y-3834627D01*
X58299447Y-3854136D01*
X58299447Y-3925767D01*
X58269642Y-3985376D01*
X58244973Y-4010044D01*
X58185364Y-4039850D01*
X57732780Y-4039850D01*
X57713271Y-4041771D01*
X57677223Y-4056703D01*
X57649633Y-4084293D01*
X57634701Y-4120341D01*
X57188336Y-4120341D01*
X57188336Y-3282707D01*
X57299447Y-3282707D01*
X57299447Y-3425564D01*
X57301368Y-3445073D01*
X57302743Y-3448393D01*
X57302998Y-3451977D01*
X57310004Y-3470285D01*
X57357623Y-3565523D01*
X57368066Y-3582113D01*
X57397543Y-3607678D01*
X57434559Y-3620016D01*
X57473479Y-3617251D01*
X57508377Y-3599802D01*
X57533942Y-3570325D01*
X57546281Y-3533309D01*
X57543515Y-3494389D01*
X57536509Y-3476080D01*
X57499447Y-3401956D01*
X57499447Y-3306314D01*
X57529252Y-3246704D01*
X57553920Y-3222035D01*
X57613530Y-3192231D01*
X57632780Y-3192231D01*
X57632780Y-3377945D01*
X57634701Y-3397454D01*
X57636076Y-3400773D01*
X57636331Y-3404359D01*
X57643338Y-3422667D01*
X57690958Y-3517905D01*
X57696242Y-3526300D01*
X57697253Y-3528740D01*
X57699506Y-3531485D01*
X57701401Y-3534496D01*
X57703397Y-3536227D01*
X57709689Y-3543894D01*
X57757308Y-3591512D01*
X57764974Y-3597804D01*
X57766707Y-3599802D01*
X57769715Y-3601695D01*
X57772461Y-3603949D01*
X57774901Y-3604959D01*
X57783298Y-3610245D01*
X57878535Y-3657864D01*
X57896844Y-3664870D01*
X57900427Y-3665124D01*
X57903748Y-3666500D01*
X57923257Y-3668421D01*
X58208971Y-3668421D01*
X58228480Y-3666500D01*
X58231800Y-3665124D01*
X58235384Y-3664870D01*
X58253692Y-3657864D01*
X58348930Y-3610245D01*
X58357326Y-3604959D01*
X58359766Y-3603949D01*
X58362512Y-3601695D01*
X58365520Y-3599802D01*
X58367249Y-3597807D01*
X58374920Y-3591513D01*
X58422538Y-3543894D01*
X58428830Y-3536227D01*
X58430828Y-3534495D01*
X58432721Y-3531486D01*
X58434975Y-3528741D01*
X58435985Y-3526300D01*
X58441271Y-3517904D01*
X58488890Y-3422667D01*
X58495896Y-3404358D01*
X58496150Y-3400774D01*
X58497526Y-3397454D01*
X58499447Y-3377945D01*
X58499447Y-3187469D01*
X58497526Y-3167960D01*
X58496150Y-3164639D01*
X58495896Y-3161056D01*
X58488890Y-3142747D01*
X58486588Y-3138144D01*
X58497526Y-3111740D01*
X58497526Y-3072722D01*
X58482594Y-3036674D01*
X58455004Y-3009084D01*
X58418956Y-2994152D01*
X58399447Y-2992231D01*
X57589923Y-2992231D01*
X57570414Y-2994152D01*
X57567093Y-2995527D01*
X57563510Y-2995782D01*
X57545201Y-3002788D01*
X57449964Y-3050407D01*
X57441567Y-3055692D01*
X57439127Y-3056703D01*
X57436381Y-3058956D01*
X57433373Y-3060850D01*
X57431640Y-3062847D01*
X57423974Y-3069140D01*
X57376355Y-3116758D01*
X57370060Y-3124428D01*
X57368066Y-3126158D01*
X57366172Y-3129165D01*
X57363919Y-3131912D01*
X57362908Y-3134351D01*
X57357623Y-3142748D01*
X57310004Y-3237986D01*
X57302998Y-3256294D01*
X57302743Y-3259877D01*
X57301368Y-3263198D01*
X57299447Y-3282707D01*
X57188336Y-3282707D01*
X57188336Y-2330326D01*
X57632780Y-2330326D01*
X57632780Y-2520802D01*
X57634701Y-2540311D01*
X57636076Y-2543630D01*
X57636331Y-2547216D01*
X57643338Y-2565524D01*
X57690958Y-2660762D01*
X57693010Y-2664023D01*
X57693524Y-2665563D01*
X57695186Y-2667480D01*
X57701401Y-2677353D01*
X57710873Y-2685567D01*
X57719088Y-2695040D01*
X57728960Y-2701254D01*
X57730878Y-2702917D01*
X57732417Y-2703430D01*
X57735679Y-2705483D01*
X57830916Y-2753102D01*
X57849225Y-2760108D01*
X57852808Y-2760362D01*
X57856129Y-2761738D01*
X57875638Y-2763659D01*
X58066009Y-2763659D01*
X58256590Y-2763659D01*
X58276099Y-2761738D01*
X58279419Y-2760362D01*
X58283003Y-2760108D01*
X58301311Y-2753102D01*
X58396549Y-2705483D01*
X58399812Y-2703429D01*
X58401351Y-2702916D01*
X58403267Y-2701253D01*
X58413139Y-2695040D01*
X58421352Y-2685569D01*
X58430828Y-2677352D01*
X58437042Y-2667478D01*
X58438704Y-2665563D01*
X58439216Y-2664024D01*
X58441271Y-2660761D01*
X58488890Y-2565524D01*
X58495896Y-2547215D01*
X58496150Y-2543631D01*
X58497526Y-2540311D01*
X58499447Y-2520802D01*
X58499447Y-2330326D01*
X58497526Y-2310817D01*
X58496150Y-2307496D01*
X58495896Y-2303913D01*
X58488890Y-2285604D01*
X58441271Y-2190367D01*
X58439216Y-2187103D01*
X58438704Y-2185565D01*
X58437042Y-2183649D01*
X58430828Y-2173776D01*
X58421352Y-2165558D01*
X58413139Y-2156088D01*
X58403267Y-2149874D01*
X58401351Y-2148212D01*
X58399812Y-2147698D01*
X58396549Y-2145645D01*
X58301311Y-2098026D01*
X58283003Y-2091020D01*
X58279419Y-2090765D01*
X58276099Y-2089390D01*
X58256590Y-2087469D01*
X58161352Y-2087469D01*
X58141843Y-2089390D01*
X58132790Y-2093139D01*
X58123180Y-2095041D01*
X58114942Y-2100532D01*
X58105795Y-2104322D01*
X58098866Y-2111250D01*
X58090715Y-2116685D01*
X58085206Y-2124910D01*
X58078205Y-2131912D01*
X58074455Y-2140963D01*
X58069004Y-2149104D01*
X58063294Y-2167858D01*
X58063274Y-2167957D01*
X58063273Y-2167960D01*
X58063273Y-2167962D01*
X57984134Y-2563659D01*
X57899245Y-2563659D01*
X57854934Y-2541503D01*
X57832780Y-2497195D01*
X57832780Y-2353932D01*
X57869842Y-2279810D01*
X57876849Y-2261501D01*
X57879615Y-2222581D01*
X57867277Y-2185565D01*
X57841712Y-2156088D01*
X57806814Y-2138639D01*
X57767894Y-2135873D01*
X57730878Y-2148211D01*
X57701401Y-2173775D01*
X57690958Y-2190366D01*
X57643338Y-2285604D01*
X57636331Y-2303912D01*
X57636076Y-2307497D01*
X57634701Y-2310817D01*
X57632780Y-2330326D01*
X57188336Y-2330326D01*
X57188336Y-1739388D01*
X57634701Y-1739388D01*
X57634701Y-1778406D01*
X57649633Y-1814454D01*
X57677223Y-1842044D01*
X57713271Y-1856976D01*
X57732780Y-1858897D01*
X58399447Y-1858897D01*
X58418956Y-1856976D01*
X58455004Y-1842044D01*
X58482594Y-1814454D01*
X58497526Y-1778406D01*
X58497526Y-1739388D01*
X58482594Y-1703340D01*
X58456725Y-1677471D01*
X58488890Y-1613143D01*
X58495896Y-1594834D01*
X58496150Y-1591250D01*
X58497526Y-1587930D01*
X58499447Y-1568421D01*
X58499447Y-1473183D01*
X58497526Y-1453674D01*
X58482594Y-1417626D01*
X58455004Y-1390036D01*
X58418956Y-1375104D01*
X58379938Y-1375104D01*
X58343890Y-1390036D01*
X58316300Y-1417626D01*
X58301368Y-1453674D01*
X58299447Y-1473183D01*
X58299447Y-1544814D01*
X58269642Y-1604423D01*
X58244973Y-1629091D01*
X58185364Y-1658897D01*
X57732780Y-1658897D01*
X57713271Y-1660818D01*
X57677223Y-1675750D01*
X57649633Y-1703340D01*
X57634701Y-1739388D01*
X57188336Y-1739388D01*
X57188336Y669675D01*
X57632780Y669675D01*
X57632780Y574437D01*
X57634701Y554928D01*
X57636076Y551609D01*
X57636331Y548023D01*
X57643338Y529715D01*
X57690958Y434477D01*
X57696242Y426082D01*
X57697253Y423642D01*
X57699506Y420897D01*
X57701401Y417886D01*
X57703397Y416155D01*
X57709689Y408488D01*
X57757308Y360870D01*
X57764974Y354578D01*
X57766707Y352580D01*
X57769715Y350687D01*
X57772461Y348433D01*
X57774901Y347423D01*
X57783298Y342137D01*
X57878535Y294518D01*
X57879963Y293972D01*
X57880543Y293542D01*
X57888719Y290621D01*
X57896844Y287512D01*
X57897564Y287461D01*
X57899003Y286947D01*
X58089479Y239328D01*
X58092860Y238828D01*
X58094224Y238263D01*
X58101574Y237540D01*
X58108872Y236460D01*
X58110330Y236678D01*
X58113733Y236342D01*
X58351828Y236342D01*
X58355230Y236678D01*
X58356689Y236460D01*
X58363986Y237540D01*
X58371337Y238263D01*
X58372700Y238828D01*
X58376082Y239328D01*
X58566557Y286947D01*
X58567994Y287461D01*
X58568717Y287512D01*
X58576841Y290621D01*
X58585018Y293542D01*
X58585598Y293973D01*
X58587025Y294518D01*
X58682263Y342137D01*
X58690659Y347423D01*
X58693099Y348433D01*
X58695845Y350687D01*
X58698853Y352580D01*
X58700582Y354575D01*
X58708253Y360869D01*
X58755871Y408488D01*
X58762163Y416155D01*
X58764161Y417887D01*
X58766054Y420896D01*
X58768308Y423641D01*
X58769318Y426082D01*
X58774604Y434478D01*
X58822223Y529715D01*
X58829229Y548024D01*
X58829483Y551608D01*
X58830859Y554928D01*
X58832780Y574437D01*
X58832780Y669675D01*
X58830859Y689184D01*
X58829483Y692505D01*
X58829229Y696088D01*
X58822223Y714397D01*
X58774604Y809634D01*
X58769318Y818031D01*
X58768308Y820471D01*
X58766054Y823217D01*
X58764161Y826225D01*
X58762163Y827958D01*
X58755871Y835624D01*
X58708253Y883243D01*
X58700582Y889538D01*
X58698853Y891532D01*
X58695845Y893426D01*
X58693099Y895679D01*
X58690659Y896690D01*
X58682263Y901975D01*
X58587025Y949594D01*
X58585598Y950140D01*
X58585018Y950570D01*
X58576841Y953492D01*
X58568717Y956600D01*
X58567994Y956652D01*
X58566557Y957165D01*
X58376082Y1004784D01*
X58372700Y1005285D01*
X58371337Y1005849D01*
X58363986Y1006573D01*
X58356689Y1007652D01*
X58355230Y1007435D01*
X58351828Y1007770D01*
X58113733Y1007770D01*
X58110330Y1007435D01*
X58108872Y1007652D01*
X58101574Y1006573D01*
X58094224Y1005849D01*
X58092860Y1005285D01*
X58089479Y1004784D01*
X57899003Y957165D01*
X57897564Y956652D01*
X57896844Y956600D01*
X57888719Y953492D01*
X57880543Y950570D01*
X57879963Y950141D01*
X57878535Y949594D01*
X57783298Y901975D01*
X57774901Y896690D01*
X57772461Y895679D01*
X57769715Y893426D01*
X57766707Y891532D01*
X57764974Y889535D01*
X57757308Y883242D01*
X57709689Y835624D01*
X57703397Y827958D01*
X57701401Y826226D01*
X57699506Y823216D01*
X57697253Y820470D01*
X57696242Y818031D01*
X57690958Y809635D01*
X57643338Y714397D01*
X57636331Y696089D01*
X57636076Y692504D01*
X57634701Y689184D01*
X57632780Y669675D01*
X57188336Y669675D01*
X57188336Y1497511D01*
X57634471Y1497511D01*
X57634946Y1458495D01*
X57650316Y1422632D01*
X57678241Y1395381D01*
X57714468Y1380890D01*
X57753484Y1381365D01*
X57772172Y1387284D01*
X58632780Y1756116D01*
X58632780Y1241104D01*
X58634701Y1221595D01*
X58649633Y1185547D01*
X58677223Y1157957D01*
X58713271Y1143025D01*
X58752289Y1143025D01*
X58788337Y1157957D01*
X58815927Y1185547D01*
X58830859Y1221595D01*
X58832780Y1241104D01*
X58832780Y1907770D01*
X58830859Y1927279D01*
X58830620Y1927855D01*
X58830613Y1928473D01*
X58823182Y1945811D01*
X58815927Y1963327D01*
X58815487Y1963767D01*
X58815243Y1964337D01*
X58801716Y1977538D01*
X58788337Y1990917D01*
X58787762Y1991155D01*
X58787319Y1991588D01*
X58769799Y1998596D01*
X58752289Y2005849D01*
X58751666Y2005849D01*
X58751091Y2006079D01*
X58732200Y2005849D01*
X58713271Y2005849D01*
X58712697Y2005612D01*
X58712076Y2005604D01*
X58693388Y1999684D01*
X57693388Y1571114D01*
X57676213Y1561663D01*
X57648962Y1533738D01*
X57634471Y1497511D01*
X57188336Y1497511D01*
X57188336Y2308232D01*
X57634701Y2308232D01*
X57634701Y2269214D01*
X57636185Y2265631D01*
X57649632Y2233166D01*
X57649633Y2233165D01*
X57662070Y2218012D01*
X57709690Y2170393D01*
X57724843Y2157956D01*
X57750333Y2147399D01*
X57760891Y2143025D01*
X57760892Y2143025D01*
X57799909Y2143025D01*
X57821026Y2151773D01*
X57835958Y2157957D01*
X57835962Y2157962D01*
X57851111Y2170393D01*
X57898729Y2218012D01*
X57911166Y2233165D01*
X57922535Y2260613D01*
X57926098Y2269214D01*
X57926098Y2308232D01*
X57914955Y2335132D01*
X57911166Y2344281D01*
X57898729Y2359434D01*
X57851111Y2407053D01*
X57835962Y2419485D01*
X57835958Y2419489D01*
X57821026Y2425674D01*
X57799909Y2434421D01*
X57760891Y2434421D01*
X57750333Y2430048D01*
X57724843Y2419490D01*
X57709690Y2407053D01*
X57662070Y2359434D01*
X57649633Y2344281D01*
X57649632Y2344280D01*
X57639074Y2318790D01*
X57634701Y2308232D01*
X57188336Y2308232D01*
X57188336Y3288722D01*
X57632780Y3288722D01*
X57632780Y2669675D01*
X57634701Y2650166D01*
X57649633Y2614118D01*
X57677223Y2586528D01*
X57713271Y2571596D01*
X57752289Y2571596D01*
X57788337Y2586528D01*
X57803491Y2598964D01*
X58358228Y3153701D01*
X58463292Y3188722D01*
X58518697Y3188722D01*
X58578306Y3158917D01*
X58602975Y3134249D01*
X58632780Y3074639D01*
X58632780Y2883758D01*
X58602975Y2824149D01*
X58566831Y2788005D01*
X58554395Y2772851D01*
X58539463Y2736803D01*
X58539463Y2697785D01*
X58554395Y2661737D01*
X58581985Y2634147D01*
X58618033Y2619215D01*
X58657051Y2619215D01*
X58693099Y2634147D01*
X58708253Y2646583D01*
X58755871Y2694202D01*
X58762163Y2701869D01*
X58764161Y2703601D01*
X58766054Y2706610D01*
X58768308Y2709355D01*
X58769318Y2711796D01*
X58774604Y2720192D01*
X58803219Y2777421D01*
X59243509Y2777421D01*
X59244397Y2764914D01*
X59243509Y2752407D01*
X59245768Y2745629D01*
X59246275Y2738501D01*
X59251881Y2727289D01*
X59255847Y2715391D01*
X59260530Y2709992D01*
X59263725Y2703602D01*
X59273196Y2695387D01*
X59281412Y2685915D01*
X59287801Y2682721D01*
X59293201Y2678037D01*
X59311101Y2670046D01*
X60311101Y2336713D01*
X60330216Y2332366D01*
X60369136Y2335132D01*
X60404035Y2352582D01*
X60429600Y2382058D01*
X60441939Y2419074D01*
X60439172Y2457994D01*
X60421723Y2492893D01*
X60392247Y2518458D01*
X60374346Y2526449D01*
X59658951Y2764914D01*
X60374346Y3003379D01*
X60392247Y3011370D01*
X60421723Y3036935D01*
X60439172Y3071834D01*
X60441939Y3110754D01*
X60429600Y3147770D01*
X60404035Y3177246D01*
X60369136Y3194696D01*
X60330216Y3197462D01*
X60311101Y3193115D01*
X59311101Y2859782D01*
X59293201Y2851791D01*
X59287801Y2847108D01*
X59281412Y2843913D01*
X59273196Y2834442D01*
X59263725Y2826226D01*
X59260530Y2819837D01*
X59255847Y2814437D01*
X59251881Y2802540D01*
X59246275Y2791327D01*
X59245768Y2784200D01*
X59243509Y2777421D01*
X58803219Y2777421D01*
X58822223Y2815429D01*
X58829229Y2833738D01*
X58829483Y2837322D01*
X58830859Y2840642D01*
X58832780Y2860151D01*
X58832780Y3098246D01*
X58830859Y3117755D01*
X58829483Y3121076D01*
X58829229Y3124659D01*
X58822223Y3142968D01*
X58774604Y3238205D01*
X58769318Y3246602D01*
X58768308Y3249042D01*
X58766054Y3251788D01*
X58764161Y3254796D01*
X58762163Y3256529D01*
X58755871Y3264195D01*
X58708253Y3311814D01*
X58700582Y3318109D01*
X58698853Y3320103D01*
X58695845Y3321997D01*
X58693099Y3324250D01*
X58690659Y3325261D01*
X58682263Y3330546D01*
X58587025Y3378165D01*
X58568717Y3385171D01*
X58565133Y3385426D01*
X58561813Y3386801D01*
X58542304Y3388722D01*
X58447066Y3388722D01*
X58437192Y3387750D01*
X58434558Y3387937D01*
X58431094Y3387150D01*
X58427557Y3386801D01*
X58425115Y3385790D01*
X58415443Y3383590D01*
X58272586Y3335971D01*
X58254686Y3327980D01*
X58251970Y3325625D01*
X58248652Y3324250D01*
X58233498Y3311814D01*
X57832780Y2911097D01*
X57832780Y3288722D01*
X57830859Y3308231D01*
X57815927Y3344279D01*
X57788337Y3371869D01*
X57752289Y3386801D01*
X57713271Y3386801D01*
X57677223Y3371869D01*
X57649633Y3344279D01*
X57634701Y3308231D01*
X57632780Y3288722D01*
X57188336Y3288722D01*
X57188336Y4165374D01*
X57634701Y4165374D01*
X57634701Y4126356D01*
X57649633Y4090308D01*
X57677223Y4062718D01*
X57713271Y4047786D01*
X57732780Y4045865D01*
X57966114Y4045865D01*
X57966114Y3669675D01*
X57967086Y3659802D01*
X57966899Y3657168D01*
X57967532Y3655267D01*
X57968035Y3650166D01*
X57974167Y3635362D01*
X57979237Y3620152D01*
X57981592Y3617437D01*
X57982967Y3614118D01*
X57994297Y3602788D01*
X58004802Y3590676D01*
X58008016Y3589069D01*
X58010557Y3586528D01*
X58025365Y3580394D01*
X58039701Y3573226D01*
X58043284Y3572972D01*
X58046605Y3571596D01*
X58062637Y3571596D01*
X58078621Y3570460D01*
X58083617Y3571596D01*
X58085623Y3571596D01*
X58088065Y3572608D01*
X58097737Y3574807D01*
X58668058Y3764914D01*
X59242724Y3764914D01*
X59242724Y3479200D01*
X59244645Y3459691D01*
X59246020Y3456372D01*
X59246275Y3452786D01*
X59253282Y3434478D01*
X59300902Y3339240D01*
X59306186Y3330845D01*
X59307197Y3328405D01*
X59309450Y3325660D01*
X59311345Y3322649D01*
X59313341Y3320918D01*
X59319633Y3313251D01*
X59367252Y3265633D01*
X59382405Y3253196D01*
X59418454Y3238265D01*
X59457472Y3238265D01*
X59493520Y3253196D01*
X59521110Y3280786D01*
X59536041Y3316834D01*
X59536041Y3355852D01*
X59521110Y3391901D01*
X59508673Y3407054D01*
X59472527Y3443200D01*
X59442724Y3502807D01*
X59442724Y3741308D01*
X59472527Y3800915D01*
X59497198Y3825586D01*
X59556808Y3855390D01*
X59747689Y3855390D01*
X59807298Y3825585D01*
X59831967Y3800917D01*
X59861772Y3741307D01*
X59861772Y3622057D01*
X59862787Y3611740D01*
X59862613Y3609115D01*
X59863224Y3607308D01*
X59863693Y3602548D01*
X59869908Y3587543D01*
X59875113Y3572154D01*
X59877334Y3569615D01*
X59878625Y3566500D01*
X59890109Y3555016D01*
X59900807Y3542790D01*
X59903830Y3541295D01*
X59906215Y3538910D01*
X59921221Y3532694D01*
X59935782Y3525493D01*
X59939147Y3525269D01*
X59942263Y3523978D01*
X59958511Y3523978D01*
X59974714Y3522898D01*
X59977907Y3523978D01*
X59981281Y3523978D01*
X59996286Y3530194D01*
X60011675Y3535398D01*
X60015565Y3538180D01*
X60017329Y3538910D01*
X60019188Y3540770D01*
X60027622Y3546799D01*
X60242724Y3735013D01*
X60242724Y3336343D01*
X60244645Y3316834D01*
X60259577Y3280786D01*
X60287167Y3253196D01*
X60323215Y3238264D01*
X60362233Y3238264D01*
X60398281Y3253196D01*
X60425871Y3280786D01*
X60440803Y3316834D01*
X60442724Y3336343D01*
X60442724Y3955390D01*
X60441708Y3965708D01*
X60441883Y3968332D01*
X60441271Y3970140D01*
X60440803Y3974899D01*
X60434588Y3989903D01*
X60429383Y4005294D01*
X60427160Y4007834D01*
X60425871Y4010947D01*
X60414393Y4022425D01*
X60403689Y4034658D01*
X60400664Y4036154D01*
X60398281Y4038537D01*
X60383279Y4044752D01*
X60368714Y4051954D01*
X60365348Y4052179D01*
X60362233Y4053469D01*
X60345985Y4053469D01*
X60329782Y4054549D01*
X60326589Y4053469D01*
X60323215Y4053469D01*
X60308209Y4047254D01*
X60292821Y4042049D01*
X60288930Y4039268D01*
X60287167Y4038537D01*
X60285307Y4036678D01*
X60276874Y4030648D01*
X60043020Y3826026D01*
X60003596Y3904873D01*
X59998310Y3913270D01*
X59997300Y3915710D01*
X59995046Y3918456D01*
X59993153Y3921464D01*
X59991155Y3923197D01*
X59984863Y3930863D01*
X59937245Y3978482D01*
X59929574Y3984777D01*
X59927845Y3986771D01*
X59924837Y3988665D01*
X59922091Y3990918D01*
X59919651Y3991929D01*
X59911255Y3997214D01*
X59816017Y4044833D01*
X59797709Y4051839D01*
X59794125Y4052094D01*
X59790805Y4053469D01*
X59771296Y4055390D01*
X59533201Y4055390D01*
X59513692Y4053469D01*
X59510371Y4052094D01*
X59506788Y4051839D01*
X59488479Y4044833D01*
X59393242Y3997214D01*
X59384845Y3991929D01*
X59382405Y3990918D01*
X59379659Y3988665D01*
X59376651Y3986771D01*
X59374918Y3984774D01*
X59367252Y3978481D01*
X59319633Y3930863D01*
X59313341Y3923197D01*
X59311345Y3921465D01*
X59309450Y3918455D01*
X59307197Y3915709D01*
X59306186Y3913270D01*
X59300902Y3904874D01*
X59253282Y3809636D01*
X59246275Y3791328D01*
X59246020Y3787743D01*
X59244645Y3784423D01*
X59242724Y3764914D01*
X58668058Y3764914D01*
X58812022Y3812902D01*
X58829923Y3820893D01*
X58859399Y3846458D01*
X58876848Y3881357D01*
X58879615Y3920277D01*
X58867276Y3957293D01*
X58841711Y3986769D01*
X58806812Y4004219D01*
X58767892Y4006985D01*
X58748777Y4002638D01*
X58166114Y3808418D01*
X58166114Y4045865D01*
X58399447Y4045865D01*
X58418956Y4047786D01*
X58455004Y4062718D01*
X58482594Y4090308D01*
X58497526Y4126356D01*
X58497526Y4165374D01*
X58482594Y4201422D01*
X58455004Y4229012D01*
X58418956Y4243944D01*
X58399447Y4245865D01*
X58166114Y4245865D01*
X58166114Y4288722D01*
X58164193Y4308231D01*
X58149261Y4344279D01*
X58121671Y4371869D01*
X58085623Y4386801D01*
X58046605Y4386801D01*
X58010557Y4371869D01*
X57982967Y4344279D01*
X57968035Y4308231D01*
X57966114Y4288722D01*
X57966114Y4245865D01*
X57732780Y4245865D01*
X57713271Y4243944D01*
X57677223Y4229012D01*
X57649633Y4201422D01*
X57634701Y4165374D01*
X57188336Y4165374D01*
X57188336Y4497912D01*
X60553835Y4497912D01*
X60553835Y-9683509D01*
G37*
G36*
X35613733Y8993281D02*
G01*
X35591578Y8948973D01*
X35547269Y8926817D01*
X35499245Y8926817D01*
X35454934Y8948973D01*
X35432780Y8993281D01*
X35432780Y9184163D01*
X35442202Y9203007D01*
X35613733Y9203007D01*
X35613733Y8993281D01*
G37*
G36*
X35899447Y10707972D02*
G01*
X35899447Y10564710D01*
X35869642Y10505101D01*
X35844973Y10480433D01*
X35785364Y10450627D01*
X35546864Y10450627D01*
X35487254Y10480432D01*
X35462583Y10505103D01*
X35432780Y10564710D01*
X35432780Y10707973D01*
X35442202Y10726817D01*
X35890024Y10726817D01*
X35899447Y10707972D01*
G37*
G36*
X36543891Y6710944D02*
G01*
X34788336Y6710944D01*
X34788336Y7350626D01*
X35232780Y7350626D01*
X35232780Y7255388D01*
X35233752Y7245515D01*
X35233565Y7242880D01*
X35234352Y7239417D01*
X35234701Y7235879D01*
X35235712Y7233438D01*
X35237912Y7223765D01*
X35285532Y7080907D01*
X35293524Y7063007D01*
X35295878Y7060293D01*
X35297253Y7056974D01*
X35309689Y7041820D01*
X35404927Y6946582D01*
X35412593Y6940291D01*
X35414326Y6938293D01*
X35417337Y6936398D01*
X35420081Y6934146D01*
X35422518Y6933137D01*
X35430917Y6927850D01*
X35526154Y6880231D01*
X35527582Y6879685D01*
X35528162Y6879255D01*
X35536338Y6876334D01*
X35544463Y6873225D01*
X35545183Y6873174D01*
X35546622Y6872660D01*
X35737098Y6825041D01*
X35740479Y6824541D01*
X35741843Y6823976D01*
X35749193Y6823253D01*
X35756491Y6822173D01*
X35757949Y6822391D01*
X35761352Y6822055D01*
X35904209Y6822055D01*
X35907611Y6822391D01*
X35909070Y6822173D01*
X35916367Y6823253D01*
X35923718Y6823976D01*
X35925081Y6824541D01*
X35928463Y6825041D01*
X36118938Y6872660D01*
X36120375Y6873174D01*
X36121098Y6873225D01*
X36129222Y6876334D01*
X36137399Y6879255D01*
X36137979Y6879686D01*
X36139406Y6880231D01*
X36234644Y6927850D01*
X36243040Y6933136D01*
X36245480Y6934146D01*
X36248226Y6936400D01*
X36251234Y6938293D01*
X36252963Y6940288D01*
X36260634Y6946582D01*
X36355872Y7041820D01*
X36368308Y7056974D01*
X36369682Y7060293D01*
X36372038Y7063008D01*
X36380029Y7080908D01*
X36427648Y7223765D01*
X36429847Y7233438D01*
X36430859Y7235879D01*
X36431207Y7239417D01*
X36431995Y7242880D01*
X36431807Y7245515D01*
X36432780Y7255388D01*
X36432780Y7350626D01*
X36431807Y7360500D01*
X36431995Y7363134D01*
X36431207Y7366598D01*
X36430859Y7370135D01*
X36429847Y7372577D01*
X36427648Y7382249D01*
X36380029Y7525106D01*
X36372038Y7543006D01*
X36369682Y7545722D01*
X36368308Y7549041D01*
X36355871Y7564194D01*
X36308253Y7611813D01*
X36293099Y7624249D01*
X36257051Y7639181D01*
X36218033Y7639181D01*
X36181985Y7624249D01*
X36154395Y7596659D01*
X36139463Y7560611D01*
X36139463Y7521593D01*
X36154395Y7485545D01*
X36166831Y7470391D01*
X36197758Y7439465D01*
X36232780Y7334400D01*
X36232780Y7271615D01*
X36197758Y7166551D01*
X36130686Y7099479D01*
X36059780Y7064026D01*
X35891899Y7022055D01*
X35773661Y7022055D01*
X35605780Y7064026D01*
X35534875Y7099478D01*
X35467802Y7166551D01*
X35432780Y7271616D01*
X35432780Y7334399D01*
X35467802Y7439464D01*
X35498729Y7470391D01*
X35511166Y7485544D01*
X35526097Y7521593D01*
X35526097Y7560611D01*
X35511166Y7596659D01*
X35483576Y7624249D01*
X35447528Y7639180D01*
X35408510Y7639180D01*
X35372461Y7624249D01*
X35357308Y7611812D01*
X35309689Y7564194D01*
X35297253Y7549040D01*
X35295878Y7545722D01*
X35293524Y7543007D01*
X35285532Y7525107D01*
X35237912Y7382249D01*
X35235712Y7372577D01*
X35234701Y7370135D01*
X35234352Y7366598D01*
X35233565Y7363134D01*
X35233752Y7360500D01*
X35232780Y7350626D01*
X34788336Y7350626D01*
X34788336Y8417754D01*
X35234701Y8417754D01*
X35234701Y8378736D01*
X35249633Y8342688D01*
X35277223Y8315098D01*
X35313271Y8300166D01*
X35332780Y8298245D01*
X35832983Y8298245D01*
X35877292Y8276090D01*
X35899447Y8231781D01*
X35899447Y8136138D01*
X35869642Y8076529D01*
X35862788Y8069674D01*
X35332780Y8069674D01*
X35313271Y8067753D01*
X35277223Y8052821D01*
X35249633Y8025231D01*
X35234701Y7989183D01*
X35234701Y7950165D01*
X35249633Y7914117D01*
X35277223Y7886527D01*
X35313271Y7871595D01*
X35332780Y7869674D01*
X36332780Y7869674D01*
X36352289Y7871595D01*
X36388337Y7886527D01*
X36415927Y7914117D01*
X36430859Y7950165D01*
X36430859Y7989183D01*
X36415927Y8025231D01*
X36388337Y8052821D01*
X36352289Y8067753D01*
X36332780Y8069674D01*
X36089604Y8069674D01*
X36095896Y8086118D01*
X36096150Y8089702D01*
X36097526Y8093022D01*
X36099447Y8112531D01*
X36099447Y8255388D01*
X36097526Y8274897D01*
X36096150Y8278218D01*
X36095896Y8281801D01*
X36088890Y8300110D01*
X36041271Y8395347D01*
X36039216Y8398611D01*
X36038704Y8400149D01*
X36037042Y8402065D01*
X36030828Y8411938D01*
X36021352Y8420156D01*
X36013139Y8429626D01*
X36003267Y8435840D01*
X36001351Y8437502D01*
X35999812Y8438016D01*
X35996549Y8440069D01*
X35901311Y8487688D01*
X35883003Y8494694D01*
X35879419Y8494949D01*
X35876099Y8496324D01*
X35856590Y8498245D01*
X35332780Y8498245D01*
X35313271Y8496324D01*
X35277223Y8481392D01*
X35249633Y8453802D01*
X35234701Y8417754D01*
X34788336Y8417754D01*
X34788336Y9207769D01*
X35232780Y9207769D01*
X35232780Y8969674D01*
X35234701Y8950165D01*
X35236076Y8946846D01*
X35236331Y8943260D01*
X35243338Y8924952D01*
X35290958Y8829714D01*
X35293010Y8826453D01*
X35293524Y8824913D01*
X35295186Y8822996D01*
X35301401Y8813123D01*
X35310873Y8804909D01*
X35319088Y8795436D01*
X35328960Y8789222D01*
X35330878Y8787559D01*
X35332417Y8787046D01*
X35335679Y8784993D01*
X35430916Y8737374D01*
X35449225Y8730368D01*
X35452808Y8730114D01*
X35456129Y8728738D01*
X35475638Y8726817D01*
X35570876Y8726817D01*
X35590385Y8728738D01*
X35593705Y8730114D01*
X35597289Y8730368D01*
X35615597Y8737374D01*
X35710835Y8784993D01*
X35714098Y8787047D01*
X35715637Y8787560D01*
X35717553Y8789223D01*
X35727425Y8795436D01*
X35735638Y8804907D01*
X35745114Y8813124D01*
X35751328Y8822998D01*
X35752990Y8824913D01*
X35753502Y8826452D01*
X35755557Y8829715D01*
X35803176Y8924952D01*
X35810182Y8943261D01*
X35810436Y8946845D01*
X35811812Y8950165D01*
X35813733Y8969674D01*
X35813733Y9184162D01*
X35823156Y9203007D01*
X35832983Y9203007D01*
X35877292Y9180852D01*
X35899447Y9136543D01*
X35899447Y8993281D01*
X35862385Y8919157D01*
X35855379Y8900849D01*
X35852613Y8861929D01*
X35864952Y8824913D01*
X35890516Y8795436D01*
X35925415Y8777987D01*
X35964335Y8775221D01*
X36001351Y8787560D01*
X36030828Y8813124D01*
X36041271Y8829715D01*
X36088890Y8924952D01*
X36095896Y8943261D01*
X36096150Y8946845D01*
X36097526Y8950165D01*
X36099447Y8969674D01*
X36099447Y9160150D01*
X36097526Y9179659D01*
X36096150Y9182980D01*
X36095896Y9186563D01*
X36088890Y9204872D01*
X36041271Y9300109D01*
X36039216Y9303373D01*
X36038704Y9304911D01*
X36037042Y9306827D01*
X36030828Y9316700D01*
X36021352Y9324918D01*
X36013139Y9334388D01*
X36003267Y9340602D01*
X36001351Y9342264D01*
X35999812Y9342778D01*
X35996549Y9344831D01*
X35901311Y9392450D01*
X35883003Y9399456D01*
X35879419Y9399711D01*
X35876099Y9401086D01*
X35856590Y9403007D01*
X35332780Y9403007D01*
X35313271Y9401086D01*
X35277223Y9386154D01*
X35249633Y9358564D01*
X35234701Y9322516D01*
X35234701Y9283498D01*
X35245638Y9257093D01*
X35243338Y9252491D01*
X35236331Y9234183D01*
X35236076Y9230598D01*
X35234701Y9227278D01*
X35232780Y9207769D01*
X34788336Y9207769D01*
X34788336Y9798707D01*
X35234701Y9798707D01*
X35234701Y9759689D01*
X35249633Y9723641D01*
X35277223Y9696051D01*
X35313271Y9681119D01*
X35332780Y9679198D01*
X35999447Y9679198D01*
X36018956Y9681119D01*
X36055004Y9696051D01*
X36082594Y9723641D01*
X36097526Y9759689D01*
X36097526Y9798707D01*
X36082594Y9834755D01*
X36056725Y9860624D01*
X36088890Y9924952D01*
X36095896Y9943261D01*
X36096150Y9946845D01*
X36097526Y9950165D01*
X36099447Y9969674D01*
X36099447Y10064912D01*
X36097526Y10084421D01*
X36082594Y10120469D01*
X36055004Y10148059D01*
X36018956Y10162991D01*
X35979938Y10162991D01*
X35943890Y10148059D01*
X35916300Y10120469D01*
X35901368Y10084421D01*
X35899447Y10064912D01*
X35899447Y9993281D01*
X35869642Y9933672D01*
X35844973Y9909004D01*
X35785364Y9879198D01*
X35332780Y9879198D01*
X35313271Y9877277D01*
X35277223Y9862345D01*
X35249633Y9834755D01*
X35234701Y9798707D01*
X34788336Y9798707D01*
X34788336Y10636341D01*
X34899447Y10636341D01*
X34899447Y10493484D01*
X34901368Y10473975D01*
X34902743Y10470655D01*
X34902998Y10467071D01*
X34910004Y10448763D01*
X34957623Y10353525D01*
X34968066Y10336935D01*
X34997543Y10311370D01*
X35034559Y10299032D01*
X35073479Y10301797D01*
X35108377Y10319246D01*
X35133942Y10348723D01*
X35146281Y10385739D01*
X35143515Y10424659D01*
X35136509Y10442968D01*
X35099447Y10517092D01*
X35099447Y10612734D01*
X35129252Y10672344D01*
X35153920Y10697013D01*
X35213530Y10726817D01*
X35232780Y10726817D01*
X35232780Y10541103D01*
X35234701Y10521594D01*
X35236076Y10518275D01*
X35236331Y10514689D01*
X35243338Y10496381D01*
X35290958Y10401143D01*
X35296242Y10392748D01*
X35297253Y10390308D01*
X35299506Y10387563D01*
X35301401Y10384552D01*
X35303397Y10382821D01*
X35309689Y10375154D01*
X35357308Y10327536D01*
X35364974Y10321244D01*
X35366707Y10319246D01*
X35369715Y10317353D01*
X35372461Y10315099D01*
X35374901Y10314089D01*
X35383298Y10308803D01*
X35478535Y10261184D01*
X35496844Y10254178D01*
X35500427Y10253924D01*
X35503748Y10252548D01*
X35523257Y10250627D01*
X35808971Y10250627D01*
X35828480Y10252548D01*
X35831800Y10253924D01*
X35835384Y10254178D01*
X35853692Y10261184D01*
X35948930Y10308803D01*
X35957326Y10314089D01*
X35959766Y10315099D01*
X35962512Y10317353D01*
X35965520Y10319246D01*
X35967249Y10321241D01*
X35974920Y10327535D01*
X36022538Y10375154D01*
X36028830Y10382821D01*
X36030828Y10384553D01*
X36032721Y10387562D01*
X36034975Y10390307D01*
X36035985Y10392748D01*
X36041271Y10401144D01*
X36088890Y10496381D01*
X36095896Y10514690D01*
X36096150Y10518274D01*
X36097526Y10521594D01*
X36099447Y10541103D01*
X36099447Y10731579D01*
X36097526Y10751088D01*
X36096150Y10754409D01*
X36095896Y10757992D01*
X36088890Y10776301D01*
X36086588Y10780904D01*
X36097526Y10807308D01*
X36097526Y10846326D01*
X36082594Y10882374D01*
X36055004Y10909964D01*
X36018956Y10924896D01*
X35999447Y10926817D01*
X35189923Y10926817D01*
X35170414Y10924896D01*
X35167093Y10923521D01*
X35163510Y10923266D01*
X35145201Y10916260D01*
X35049964Y10868641D01*
X35041567Y10863356D01*
X35039127Y10862345D01*
X35036381Y10860092D01*
X35033373Y10858198D01*
X35031640Y10856201D01*
X35023974Y10849908D01*
X34976355Y10802290D01*
X34970060Y10794620D01*
X34968066Y10792890D01*
X34966172Y10789883D01*
X34963919Y10787136D01*
X34962908Y10784697D01*
X34957623Y10776300D01*
X34910004Y10681062D01*
X34902998Y10662754D01*
X34902743Y10659171D01*
X34901368Y10655850D01*
X34899447Y10636341D01*
X34788336Y10636341D01*
X34788336Y11037928D01*
X36543891Y11037928D01*
X36543891Y6710944D01*
G37*
D11*
G36*
X45759274Y5485387D02*
G01*
X43988847Y5485387D01*
X43988847Y6399864D01*
X44155514Y6399864D01*
X44155514Y6341336D01*
X44177912Y6287264D01*
X44219296Y6245880D01*
X44273368Y6223482D01*
X44302632Y6220600D01*
X44724060Y6220600D01*
X44724060Y5799172D01*
X44726942Y5769908D01*
X44749340Y5715836D01*
X44790724Y5674452D01*
X44844796Y5652054D01*
X44903324Y5652054D01*
X44957396Y5674452D01*
X44998780Y5715836D01*
X45021178Y5769908D01*
X45024060Y5799172D01*
X45024060Y6220600D01*
X45445489Y6220600D01*
X45474753Y6223482D01*
X45528825Y6245880D01*
X45570209Y6287264D01*
X45592607Y6341336D01*
X45592607Y6399864D01*
X45570209Y6453936D01*
X45528825Y6495320D01*
X45474753Y6517718D01*
X45445489Y6520600D01*
X45024060Y6520600D01*
X45024060Y6942029D01*
X45021178Y6971293D01*
X44998780Y7025365D01*
X44957396Y7066749D01*
X44903324Y7089147D01*
X44844796Y7089147D01*
X44790724Y7066749D01*
X44749340Y7025365D01*
X44726942Y6971293D01*
X44724060Y6942029D01*
X44724060Y6520600D01*
X44302632Y6520600D01*
X44273368Y6517718D01*
X44219296Y6495320D01*
X44177912Y6453936D01*
X44155514Y6399864D01*
X43988847Y6399864D01*
X43988847Y7255814D01*
X45759274Y7255814D01*
X45759274Y5485387D01*
G37*
D10*
X52485161Y9093483D02*
X52532780Y8998245D01*
X52532780Y8998245D02*
X52532780Y8855388D01*
X52532780Y8855388D02*
X52485161Y8712531D01*
X52485161Y8712531D02*
X52389923Y8617293D01*
X52389923Y8617293D02*
X52294685Y8569674D01*
X52294685Y8569674D02*
X52104209Y8522055D01*
X52104209Y8522055D02*
X51961352Y8522055D01*
X51961352Y8522055D02*
X51770876Y8569674D01*
X51770876Y8569674D02*
X51675638Y8617293D01*
X51675638Y8617293D02*
X51580400Y8712531D01*
X51580400Y8712531D02*
X51532780Y8855388D01*
X51532780Y8855388D02*
X51532780Y8950626D01*
X51532780Y8950626D02*
X51580400Y9093483D01*
X51580400Y9093483D02*
X51628019Y9141102D01*
X51628019Y9141102D02*
X51961352Y9141102D01*
X51961352Y9141102D02*
X51961352Y8950626D01*
X51532780Y9569674D02*
X52532780Y9569674D01*
X52532780Y9569674D02*
X51532780Y10141102D01*
X51532780Y10141102D02*
X52532780Y10141102D01*
X51532780Y10617293D02*
X52532780Y10617293D01*
X52532780Y10617293D02*
X52532780Y10855388D01*
X52532780Y10855388D02*
X52485161Y10998245D01*
X52485161Y10998245D02*
X52389923Y11093483D01*
X52389923Y11093483D02*
X52294685Y11141102D01*
X52294685Y11141102D02*
X52104209Y11188721D01*
X52104209Y11188721D02*
X51961352Y11188721D01*
X51961352Y11188721D02*
X51770876Y11141102D01*
X51770876Y11141102D02*
X51675638Y11093483D01*
X51675638Y11093483D02*
X51580400Y10998245D01*
X51580400Y10998245D02*
X51532780Y10855388D01*
X51532780Y10855388D02*
X51532780Y10617293D01*
M02*
