M48
; DRILL file {KiCad 8.0.4} date 2024-07-24T18:14:05+0200
; FORMAT={-:-/ absolute / metric / decimal}
; #@! TF.CreationDate,2024-07-24T18:14:05+02:00
; #@! TF.GenerationSoftware,Kicad,Pcbnew,8.0.4
; #@! TF.FileFunction,MixedPlating,1,4
FMAT,2
METRIC
; #@! TA.AperFunction,Plated,PTH,ViaDrill
T1C0.300
; #@! TA.AperFunction,Plated,PTH,ComponentDrill
T2C0.300
; #@! TA.AperFunction,Plated,PTH,ComponentDrill
T3C0.600
; #@! TA.AperFunction,Plated,PTH,ComponentDrill
T4C0.750
; #@! TA.AperFunction,NonPlated,NPTH,ComponentDrill
T5C0.660
%
G90
G05
T1
X33.55Y10.657
X33.6Y0.337
X33.6Y-6.5
X33.7Y-10.0
X34.2Y11.179
X34.3Y4.6
X34.3Y3.0
X34.3Y2.3
X34.3Y1.6
X35.0Y4.6
X35.0Y3.0
X35.0Y2.3
X35.7Y3.76
X35.7Y3.0
X35.7Y2.3
X35.7Y-12.055
X35.8Y6.16
X35.8Y5.3
X35.9Y4.56
X37.5Y11.177
X38.1Y6.2
X38.1Y5.5
X38.1Y4.8
X40.5Y-6.4
X41.8Y1.8
X41.8Y1.1
X41.8Y-3.4
X42.1Y-4.1
X42.5Y-12.0
X42.7Y1.8
X42.7Y1.1
X44.1Y-5.8
X44.2Y-5.1
X44.52Y11.1
X44.6Y-3.3
X44.8Y-1.2
X44.9Y-10.4
X45.1Y-2.5
X45.6Y1.1
X45.6Y-0.1
X45.8Y-2.1
X45.8Y6.7
X46.02Y-12.0
X46.1Y5.2
X46.1Y-0.6
X46.3Y-4.2
X46.3Y-5.1
X46.3Y-6.0
X46.3Y-6.9
X46.7Y1.1
X46.7Y0.0
X46.8Y-8.8
X47.4Y1.1
X47.4Y0.0
X47.4Y-0.9
X47.5Y-8.8
X47.7Y-4.2
X47.7Y-5.1
X47.7Y-6.0
X47.7Y-6.9
X48.0Y11.1
X48.4Y-11.6
X48.7Y1.1
X48.7Y-0.1
X48.9Y-4.2
X48.9Y-5.1
X48.9Y-6.0
X48.9Y-6.9
X49.3Y1.7
X49.8Y-0.2
X50.1Y-8.4
X50.5Y1.0
X50.8Y-4.7
X51.4Y11.1
X51.4Y10.3
X51.4Y-9.8
X51.6Y-12.042
X51.7Y-10.5
X51.7Y-11.2
X51.9Y-1.9
X52.1Y-1.1
X52.1Y-8.2
X52.4Y8.0
X52.7Y1.6
X52.9Y-5.2
X52.9Y-6.2
X53.1Y3.7
X53.4Y8.0
X53.5Y-8.2
X54.3Y2.7
X54.3Y-0.74
X54.3Y-4.3
X54.3Y-11.06
X54.9Y11.1
X56.34Y-12.0
X56.66Y5.6
X56.8Y7.5
X57.74Y-11.06
X58.6Y11.168
X59.78Y-12.0
X60.0Y8.2
X60.1Y9.6
X60.1Y5.6
T2
X55.175Y-9.3
T4
X44.9Y8.75
X46.9Y8.75
T5
X38.0Y-4.52
X38.0Y-10.3
T3
X34.72Y-3.09G85X33.92Y-3.09
G05
X34.72Y-11.73G85X33.92Y-11.73
G05
X39.05Y-3.09G85X37.95Y-3.09
G05
X39.05Y-11.73G85X37.95Y-11.73
G05
M30
