G04 #@! TF.GenerationSoftware,KiCad,Pcbnew,8.0.3*
G04 #@! TF.CreationDate,2024-07-05T13:17:58+02:00*
G04 #@! TF.ProjectId,ESP32-C3-V2,45535033-322d-4433-932d-56322e6b6963,rev?*
G04 #@! TF.SameCoordinates,Original*
G04 #@! TF.FileFunction,Copper,L4,Bot*
G04 #@! TF.FilePolarity,Positive*
%FSLAX46Y46*%
G04 Gerber Fmt 4.6, Leading zero omitted, Abs format (unit mm)*
G04 Created by KiCad (PCBNEW 8.0.3) date 2024-07-05 13:17:58*
%MOMM*%
%LPD*%
G01*
G04 APERTURE LIST*
G04 Aperture macros list*
%AMRoundRect*
0 Rectangle with rounded corners*
0 $1 Rounding radius*
0 $2 $3 $4 $5 $6 $7 $8 $9 X,Y pos of 4 corners*
0 Add a 4 corners polygon primitive as box body*
4,1,4,$2,$3,$4,$5,$6,$7,$8,$9,$2,$3,0*
0 Add four circle primitives for the rounded corners*
1,1,$1+$1,$2,$3*
1,1,$1+$1,$4,$5*
1,1,$1+$1,$6,$7*
1,1,$1+$1,$8,$9*
0 Add four rect primitives between the rounded corners*
20,1,$1+$1,$2,$3,$4,$5,0*
20,1,$1+$1,$4,$5,$6,$7,0*
20,1,$1+$1,$6,$7,$8,$9,0*
20,1,$1+$1,$8,$9,$2,$3,0*%
G04 Aperture macros list end*
G04 #@! TA.AperFunction,ComponentPad*
%ADD10O,2.100000X1.000000*%
G04 #@! TD*
G04 #@! TA.AperFunction,ComponentPad*
%ADD11O,1.800000X1.000000*%
G04 #@! TD*
G04 #@! TA.AperFunction,ComponentPad*
%ADD12RoundRect,0.250000X0.350000X0.625000X-0.350000X0.625000X-0.350000X-0.625000X0.350000X-0.625000X0*%
G04 #@! TD*
G04 #@! TA.AperFunction,ComponentPad*
%ADD13O,1.200000X1.750000*%
G04 #@! TD*
G04 #@! TA.AperFunction,ComponentPad*
%ADD14R,0.500000X0.900000*%
G04 #@! TD*
G04 #@! TA.AperFunction,ViaPad*
%ADD15C,0.500000*%
G04 #@! TD*
G04 #@! TA.AperFunction,Conductor*
%ADD16C,0.200000*%
G04 #@! TD*
G04 #@! TA.AperFunction,Conductor*
%ADD17C,0.267200*%
G04 #@! TD*
G04 APERTURE END LIST*
D10*
G04 #@! TO.P,U1,S1,SHIELD*
G04 #@! TO.N,GND*
X38500000Y-3090000D03*
D11*
X34320000Y-3090000D03*
D10*
X38500000Y-11730000D03*
D11*
X34320000Y-11730000D03*
G04 #@! TD*
D12*
G04 #@! TO.P,J2,1,Pin_1*
G04 #@! TO.N,Earth*
X46900000Y8650000D03*
D13*
G04 #@! TO.P,J2,2,Pin_2*
G04 #@! TO.N,+BATT*
X44900000Y8650000D03*
G04 #@! TD*
D14*
G04 #@! TO.P,AE1,2,GND*
G04 #@! TO.N,GND*
X55175000Y-9300000D03*
G04 #@! TD*
D15*
G04 #@! TO.N,GND*
X51400000Y10300000D03*
X47400000Y1100000D03*
X33600000Y-7100000D03*
X47700000Y-6900000D03*
X42700000Y1100000D03*
X46300000Y-6000000D03*
X46300000Y-4200000D03*
X56800000Y-10900000D03*
X33600000Y-9100000D03*
X33600000Y-4200000D03*
X45300000Y-12000000D03*
X47400000Y0D03*
X47700000Y-5100000D03*
X48700000Y-100000D03*
X43300000Y-12000000D03*
X46100000Y5200000D03*
X59800000Y-10900000D03*
X48600000Y11100000D03*
X53800000Y-10900000D03*
X48700000Y1100000D03*
X33600000Y-8100000D03*
X44300000Y-12000000D03*
X42300000Y-12000000D03*
X53500000Y-8200000D03*
X46700000Y1100000D03*
X48900000Y-6000000D03*
X48900000Y-6900000D03*
X48900000Y-4200000D03*
X52000000Y-1600000D03*
X52400000Y8000000D03*
X46200000Y-9500000D03*
X45600000Y11100000D03*
X58800000Y10100000D03*
X41300000Y-2300000D03*
X35500000Y5200000D03*
X46300000Y-5100000D03*
X54800000Y-10900000D03*
X41800000Y1100000D03*
X35600000Y4500000D03*
X58800000Y-10900000D03*
X35400000Y3700000D03*
X46700000Y0D03*
X57800000Y-10900000D03*
X52100000Y-8200000D03*
X33600000Y-2100000D03*
X46000000Y6600000D03*
X33600000Y8800000D03*
X45600000Y1100000D03*
X40200000Y8100000D03*
X44600000Y11100000D03*
X41600000Y11100000D03*
X41300000Y-12000000D03*
X42600000Y11100000D03*
X47700000Y-4200000D03*
X46600000Y11100000D03*
X35500000Y6100000D03*
X50600000Y-11800000D03*
X53800000Y-9900000D03*
X45600000Y-100000D03*
X33600000Y-5100000D03*
X53900000Y-4900000D03*
X53100000Y3700000D03*
X33600292Y-10100000D03*
X40600000Y11100000D03*
X55800000Y-10900000D03*
X46300000Y-6900000D03*
X36500000Y7600000D03*
X48900000Y-5100000D03*
X52900000Y-5200000D03*
X33600000Y1700000D03*
X44600000Y-2700000D03*
X35600000Y2900000D03*
X53800000Y-8900000D03*
X47600000Y11100000D03*
X33600000Y7800000D03*
X45100000Y-10100000D03*
X48400000Y-11600000D03*
X33600000Y-6100000D03*
X53700000Y1400000D03*
X53700000Y400000D03*
X60100000Y5600000D03*
X51900000Y-9700000D03*
X43600000Y11100000D03*
X37100000Y8000000D03*
X41000000Y-3900000D03*
X53900000Y-5900000D03*
X47700000Y-6000000D03*
G04 #@! TO.N,VCC*
X38900000Y5700000D03*
X37300000Y9900000D03*
G04 #@! TO.N,+BATT*
X41000000Y1300000D03*
G04 #@! TO.N,+3.3V*
X33600000Y3000000D03*
X40500000Y-6400000D03*
X44600000Y-3400000D03*
X34900000Y3000000D03*
X33600000Y5000000D03*
X47400000Y-900000D03*
X33600000Y4300000D03*
X60000000Y6600000D03*
X34300000Y2600000D03*
X46100000Y-600000D03*
X59700000Y9700000D03*
X52000000Y-2300000D03*
X34900000Y4300000D03*
X52900000Y-5900000D03*
X34800000Y5000000D03*
X50100000Y-8400000D03*
G04 #@! TO.N,MCU_SCL*
X53400000Y8000000D03*
X56800000Y7500000D03*
G04 #@! TO.N,Net-(U3-GPIO9)*
X49800000Y-200000D03*
X45799999Y-2100000D03*
G04 #@! TO.N,EN_ADC*
X38500000Y-600000D03*
X39900000Y2500000D03*
G04 #@! TO.N,OUT*
X38000000Y5700000D03*
X38300000Y9495000D03*
G04 #@! TD*
D16*
G04 #@! TO.N,VCC*
X38900000Y9636397D02*
X38486397Y10050000D01*
X37450000Y10050000D02*
X37300000Y9900000D01*
X38900000Y5700000D02*
X38900000Y9636397D01*
X38486397Y10050000D02*
X37450000Y10050000D01*
G04 #@! TO.N,+BATT*
X44900000Y5200000D02*
X44900000Y8650000D01*
X41000000Y1300000D02*
X44900000Y5200000D01*
G04 #@! TO.N,MCU_SCL*
X56800000Y7500000D02*
X56300000Y8000000D01*
X56300000Y8000000D02*
X53400000Y8000000D01*
G04 #@! TO.N,Net-(U3-GPIO9)*
X46399999Y-1500000D02*
X48500000Y-1500000D01*
X45799999Y-2100000D02*
X46399999Y-1500000D01*
X48500000Y-1500000D02*
X49800000Y-200000D01*
G04 #@! TO.N,EN_ADC*
X39900000Y2500000D02*
X39900000Y800000D01*
X39900000Y800000D02*
X38500000Y-600000D01*
D17*
G04 #@! TO.N,OUT*
X38300000Y6000000D02*
X38000000Y5700000D01*
X38300000Y9495000D02*
X38300000Y6000000D01*
G04 #@! TD*
G04 #@! TA.AperFunction,Conductor*
G04 #@! TO.N,GND*
G36*
X59811965Y11417232D02*
G01*
X59837122Y11414642D01*
X59955798Y11389998D01*
X59981419Y11381689D01*
X60008042Y11369722D01*
X60089963Y11332900D01*
X60113187Y11319254D01*
X60208645Y11248166D01*
X60228366Y11229833D01*
X60261533Y11191481D01*
X60306215Y11139814D01*
X60321515Y11117650D01*
X60336640Y11089656D01*
X60378086Y11012943D01*
X60388240Y10987994D01*
X60420863Y10873546D01*
X60425390Y10846989D01*
X60432782Y10723931D01*
X60433005Y10716536D01*
X60433007Y10710316D01*
X60432859Y10704229D01*
X60431047Y10667133D01*
X60432102Y10657430D01*
X60431164Y10657329D01*
X60433037Y10643320D01*
X60434579Y7083367D01*
X60414923Y7016319D01*
X60362139Y6970541D01*
X60292985Y6960568D01*
X60243542Y6978997D01*
X60189069Y7014004D01*
X60189068Y7014005D01*
X60189064Y7014007D01*
X60064774Y7050500D01*
X60064772Y7050500D01*
X59935228Y7050500D01*
X59935226Y7050500D01*
X59810935Y7014006D01*
X59810932Y7014005D01*
X59810931Y7014004D01*
X59759677Y6981066D01*
X59701950Y6943967D01*
X59617118Y6846063D01*
X59617117Y6846062D01*
X59563302Y6728226D01*
X59544867Y6600000D01*
X59563302Y6471775D01*
X59565153Y6467723D01*
X59617118Y6353937D01*
X59701951Y6256033D01*
X59810931Y6185996D01*
X59935225Y6149501D01*
X59935227Y6149500D01*
X59935228Y6149500D01*
X60064773Y6149500D01*
X60064773Y6149501D01*
X60189069Y6185996D01*
X60243961Y6221273D01*
X60310997Y6240957D01*
X60378037Y6221273D01*
X60423792Y6168469D01*
X60434998Y6117011D01*
X60435316Y5382183D01*
X60415660Y5315135D01*
X60362876Y5269357D01*
X60310391Y5258132D01*
X54700000Y5300000D01*
X54700000Y-6476000D01*
X54680315Y-6543039D01*
X54627511Y-6588794D01*
X54606672Y-6593327D01*
X54600000Y-6600000D01*
X54600000Y-7050000D01*
X54600000Y-7100000D01*
X54600000Y-7900000D01*
X54600000Y-8800000D01*
X55326000Y-8800000D01*
X55393039Y-8819685D01*
X55438794Y-8872489D01*
X55450000Y-8924000D01*
X55450000Y-9676000D01*
X55430315Y-9743039D01*
X55377511Y-9788794D01*
X55326000Y-9800000D01*
X54750000Y-9800000D01*
X54750000Y-10550000D01*
X60318274Y-10550000D01*
X60385313Y-10569685D01*
X60431068Y-10622489D01*
X60442273Y-10673944D01*
X60442346Y-10840940D01*
X60442668Y-11587137D01*
X60441711Y-11602565D01*
X60425794Y-11729950D01*
X60419756Y-11755633D01*
X60378944Y-11871939D01*
X60367612Y-11895761D01*
X60303126Y-12000793D01*
X60287008Y-12021680D01*
X60201758Y-12110696D01*
X60181589Y-12127700D01*
X60079436Y-12196669D01*
X60056124Y-12209021D01*
X59941699Y-12254816D01*
X59916302Y-12261958D01*
X59795135Y-12282450D01*
X59774564Y-12284186D01*
X39862592Y-12301185D01*
X39795536Y-12281558D01*
X39749736Y-12228793D01*
X39739733Y-12159643D01*
X39756911Y-12114762D01*
X39756078Y-12114317D01*
X39758952Y-12108938D01*
X39812361Y-11980000D01*
X39216988Y-11980000D01*
X39234205Y-11970060D01*
X39290060Y-11914205D01*
X39329556Y-11845796D01*
X39350000Y-11769496D01*
X39350000Y-11690504D01*
X39329556Y-11614204D01*
X39290060Y-11545795D01*
X39234205Y-11489940D01*
X39216988Y-11480000D01*
X39812361Y-11480000D01*
X39812360Y-11479999D01*
X39758952Y-11351061D01*
X39758947Y-11351051D01*
X39671401Y-11220030D01*
X39671398Y-11220026D01*
X39559973Y-11108601D01*
X39559969Y-11108598D01*
X39428948Y-11021052D01*
X39428939Y-11021047D01*
X39283351Y-10960743D01*
X39283343Y-10960741D01*
X39128797Y-10930000D01*
X38750000Y-10930000D01*
X38750000Y-11430000D01*
X38250000Y-11430000D01*
X38250000Y-10897557D01*
X38269685Y-10830518D01*
X38311998Y-10790171D01*
X38356435Y-10764516D01*
X38464516Y-10656435D01*
X38540940Y-10524065D01*
X38580500Y-10376424D01*
X38580500Y-10223576D01*
X38540940Y-10075935D01*
X38464516Y-9943565D01*
X38356435Y-9835484D01*
X38224065Y-9759060D01*
X38076424Y-9719500D01*
X37923576Y-9719500D01*
X37775935Y-9759060D01*
X37775932Y-9759061D01*
X37643568Y-9835482D01*
X37643562Y-9835486D01*
X37535486Y-9943562D01*
X37535482Y-9943568D01*
X37459061Y-10075932D01*
X37459060Y-10075935D01*
X37419500Y-10223576D01*
X37419500Y-10376424D01*
X37459060Y-10524065D01*
X37535484Y-10656435D01*
X37643565Y-10764516D01*
X37654230Y-10770673D01*
X37702446Y-10821238D01*
X37715671Y-10889845D01*
X37689704Y-10954710D01*
X37639685Y-10992622D01*
X37571061Y-11021047D01*
X37571051Y-11021052D01*
X37440030Y-11108598D01*
X37440026Y-11108601D01*
X37328601Y-11220026D01*
X37328598Y-11220030D01*
X37241052Y-11351051D01*
X37241047Y-11351061D01*
X37187639Y-11479999D01*
X37187639Y-11480000D01*
X37783012Y-11480000D01*
X37765795Y-11489940D01*
X37709940Y-11545795D01*
X37670444Y-11614204D01*
X37650000Y-11690504D01*
X37650000Y-11769496D01*
X37670444Y-11845796D01*
X37709940Y-11914205D01*
X37765795Y-11970060D01*
X37783012Y-11980000D01*
X37187639Y-11980000D01*
X37241047Y-12108938D01*
X37241053Y-12108949D01*
X37242168Y-12110618D01*
X37242483Y-12111625D01*
X37243922Y-12114317D01*
X37243411Y-12114589D01*
X37263047Y-12177295D01*
X37244563Y-12244675D01*
X37192585Y-12291366D01*
X37139173Y-12303510D01*
X35530120Y-12304884D01*
X35463064Y-12285257D01*
X35417264Y-12232492D01*
X35407261Y-12163342D01*
X35426918Y-12111984D01*
X35428950Y-12108943D01*
X35428952Y-12108938D01*
X35482361Y-11980000D01*
X34886988Y-11980000D01*
X34904205Y-11970060D01*
X34960060Y-11914205D01*
X34999556Y-11845796D01*
X35020000Y-11769496D01*
X35020000Y-11690504D01*
X34999556Y-11614204D01*
X34960060Y-11545795D01*
X34904205Y-11489940D01*
X34886988Y-11480000D01*
X35482361Y-11480000D01*
X35482360Y-11479999D01*
X35428952Y-11351061D01*
X35428947Y-11351051D01*
X35341401Y-11220030D01*
X35341398Y-11220026D01*
X35229973Y-11108601D01*
X35229969Y-11108598D01*
X35098948Y-11021052D01*
X35098939Y-11021047D01*
X34953351Y-10960743D01*
X34953343Y-10960741D01*
X34798797Y-10930000D01*
X34570000Y-10930000D01*
X34570000Y-11430000D01*
X34070000Y-11430000D01*
X34070000Y-10930000D01*
X33841202Y-10930000D01*
X33686656Y-10960741D01*
X33686648Y-10960743D01*
X33541060Y-11021047D01*
X33535683Y-11023922D01*
X33534409Y-11021540D01*
X33478772Y-11038868D01*
X33411420Y-11020281D01*
X33364809Y-10968231D01*
X33352748Y-10915187D01*
X33346709Y-8400000D01*
X49644867Y-8400000D01*
X49663302Y-8528225D01*
X49717117Y-8646061D01*
X49717118Y-8646063D01*
X49801951Y-8743967D01*
X49910931Y-8814004D01*
X50035225Y-8850499D01*
X50035227Y-8850500D01*
X50035228Y-8850500D01*
X50164773Y-8850500D01*
X50164773Y-8850499D01*
X50289069Y-8814004D01*
X50398049Y-8743967D01*
X50482882Y-8646063D01*
X50536697Y-8528226D01*
X50555133Y-8400000D01*
X50536697Y-8271774D01*
X50482882Y-8153937D01*
X50398049Y-8056033D01*
X50289069Y-7985996D01*
X50289065Y-7985994D01*
X50289064Y-7985994D01*
X50164774Y-7949500D01*
X50164772Y-7949500D01*
X50035228Y-7949500D01*
X50035226Y-7949500D01*
X49910935Y-7985994D01*
X49910932Y-7985995D01*
X49910931Y-7985996D01*
X49859677Y-8018934D01*
X49801950Y-8056033D01*
X49717118Y-8153937D01*
X49717117Y-8153938D01*
X49663302Y-8271774D01*
X49644867Y-8400000D01*
X33346709Y-8400000D01*
X33341907Y-6400000D01*
X40044867Y-6400000D01*
X40063302Y-6528225D01*
X40090964Y-6588794D01*
X40117118Y-6646063D01*
X40201951Y-6743967D01*
X40310931Y-6814004D01*
X40435225Y-6850499D01*
X40435227Y-6850500D01*
X40435228Y-6850500D01*
X40564773Y-6850500D01*
X40564773Y-6850499D01*
X40689069Y-6814004D01*
X40798049Y-6743967D01*
X40882882Y-6646063D01*
X40936697Y-6528226D01*
X40955133Y-6400000D01*
X40936697Y-6271774D01*
X40882882Y-6153937D01*
X40798049Y-6056033D01*
X40689069Y-5985996D01*
X40689065Y-5985994D01*
X40689064Y-5985994D01*
X40564774Y-5949500D01*
X40564772Y-5949500D01*
X40435228Y-5949500D01*
X40435226Y-5949500D01*
X40310935Y-5985994D01*
X40310932Y-5985995D01*
X40310931Y-5985996D01*
X40259677Y-6018934D01*
X40201950Y-6056033D01*
X40117118Y-6153937D01*
X40117117Y-6153938D01*
X40063302Y-6271774D01*
X40044867Y-6400000D01*
X33341907Y-6400000D01*
X33340707Y-5900000D01*
X52444867Y-5900000D01*
X52463302Y-6028225D01*
X52476002Y-6056033D01*
X52517118Y-6146063D01*
X52601951Y-6243967D01*
X52710931Y-6314004D01*
X52835225Y-6350499D01*
X52835227Y-6350500D01*
X52835228Y-6350500D01*
X52964773Y-6350500D01*
X52964773Y-6350499D01*
X53089069Y-6314004D01*
X53198049Y-6243967D01*
X53282882Y-6146063D01*
X53336697Y-6028226D01*
X53355133Y-5900000D01*
X53336697Y-5771774D01*
X53282882Y-5653937D01*
X53198049Y-5556033D01*
X53089069Y-5485996D01*
X53089065Y-5485994D01*
X53089064Y-5485994D01*
X52964774Y-5449500D01*
X52964772Y-5449500D01*
X52835228Y-5449500D01*
X52835226Y-5449500D01*
X52710935Y-5485994D01*
X52710932Y-5485995D01*
X52710931Y-5485996D01*
X52659677Y-5518934D01*
X52601950Y-5556033D01*
X52517118Y-5653937D01*
X52517117Y-5653938D01*
X52463302Y-5771774D01*
X52444867Y-5900000D01*
X33340707Y-5900000D01*
X33335891Y-3894143D01*
X33355414Y-3827061D01*
X33408108Y-3781180D01*
X33477242Y-3771070D01*
X33528783Y-3790749D01*
X33541055Y-3798949D01*
X33541060Y-3798952D01*
X33686648Y-3859256D01*
X33686656Y-3859258D01*
X33841202Y-3889999D01*
X33841206Y-3890000D01*
X34070000Y-3890000D01*
X34070000Y-3390000D01*
X34570000Y-3390000D01*
X34570000Y-3890000D01*
X34798794Y-3890000D01*
X34798797Y-3889999D01*
X34953343Y-3859258D01*
X34953351Y-3859256D01*
X35098939Y-3798952D01*
X35098948Y-3798947D01*
X35229969Y-3711401D01*
X35229973Y-3711398D01*
X35341398Y-3599973D01*
X35341401Y-3599969D01*
X35428947Y-3468948D01*
X35428952Y-3468938D01*
X35482361Y-3340000D01*
X34886988Y-3340000D01*
X34904205Y-3330060D01*
X34960060Y-3274205D01*
X34999556Y-3205796D01*
X35020000Y-3129496D01*
X35020000Y-3050504D01*
X34999556Y-2974204D01*
X34960060Y-2905795D01*
X34904205Y-2849940D01*
X34886988Y-2840000D01*
X35482361Y-2840000D01*
X35482360Y-2839999D01*
X37187639Y-2839999D01*
X37187639Y-2840000D01*
X37783012Y-2840000D01*
X37765795Y-2849940D01*
X37709940Y-2905795D01*
X37670444Y-2974204D01*
X37650000Y-3050504D01*
X37650000Y-3129496D01*
X37670444Y-3205796D01*
X37709940Y-3274205D01*
X37765795Y-3330060D01*
X37783012Y-3340000D01*
X37187639Y-3340000D01*
X37241047Y-3468938D01*
X37241052Y-3468948D01*
X37328598Y-3599969D01*
X37328601Y-3599973D01*
X37440026Y-3711398D01*
X37440030Y-3711401D01*
X37571051Y-3798947D01*
X37571064Y-3798954D01*
X37639684Y-3827377D01*
X37694088Y-3871217D01*
X37716153Y-3937512D01*
X37698874Y-4005211D01*
X37654234Y-4049324D01*
X37643568Y-4055482D01*
X37643562Y-4055486D01*
X37535486Y-4163562D01*
X37535482Y-4163568D01*
X37459061Y-4295932D01*
X37459060Y-4295935D01*
X37419500Y-4443576D01*
X37419500Y-4596424D01*
X37459060Y-4744065D01*
X37535484Y-4876435D01*
X37643565Y-4984516D01*
X37775935Y-5060940D01*
X37923576Y-5100500D01*
X37923578Y-5100500D01*
X38076422Y-5100500D01*
X38076424Y-5100500D01*
X38224065Y-5060940D01*
X38356435Y-4984516D01*
X38464516Y-4876435D01*
X38540940Y-4744065D01*
X38580500Y-4596424D01*
X38580500Y-4443576D01*
X38540940Y-4295935D01*
X38464516Y-4163565D01*
X38356435Y-4055484D01*
X38311998Y-4029828D01*
X38263784Y-3979261D01*
X38250000Y-3922442D01*
X38250000Y-3390000D01*
X38750000Y-3390000D01*
X38750000Y-3890000D01*
X39128794Y-3890000D01*
X39128797Y-3889999D01*
X39283343Y-3859258D01*
X39283351Y-3859256D01*
X39428939Y-3798952D01*
X39428948Y-3798947D01*
X39559969Y-3711401D01*
X39559973Y-3711398D01*
X39671398Y-3599973D01*
X39671401Y-3599969D01*
X39758947Y-3468948D01*
X39758952Y-3468938D01*
X39787508Y-3400000D01*
X44144867Y-3400000D01*
X44163302Y-3528225D01*
X44196067Y-3599969D01*
X44217118Y-3646063D01*
X44301951Y-3743967D01*
X44410931Y-3814004D01*
X44535225Y-3850499D01*
X44535227Y-3850500D01*
X44535228Y-3850500D01*
X44664773Y-3850500D01*
X44664773Y-3850499D01*
X44789069Y-3814004D01*
X44898049Y-3743967D01*
X44982882Y-3646063D01*
X45036697Y-3528226D01*
X45055133Y-3400000D01*
X45036697Y-3271774D01*
X44982882Y-3153937D01*
X44898049Y-3056033D01*
X44789069Y-2985996D01*
X44789065Y-2985994D01*
X44789064Y-2985994D01*
X44664774Y-2949500D01*
X44664772Y-2949500D01*
X44535228Y-2949500D01*
X44535226Y-2949500D01*
X44410935Y-2985994D01*
X44410932Y-2985995D01*
X44410931Y-2985996D01*
X44359677Y-3018934D01*
X44301950Y-3056033D01*
X44217118Y-3153937D01*
X44217117Y-3153938D01*
X44163302Y-3271774D01*
X44144867Y-3400000D01*
X39787508Y-3400000D01*
X39812361Y-3340000D01*
X39216988Y-3340000D01*
X39234205Y-3330060D01*
X39290060Y-3274205D01*
X39329556Y-3205796D01*
X39350000Y-3129496D01*
X39350000Y-3050504D01*
X39329556Y-2974204D01*
X39290060Y-2905795D01*
X39234205Y-2849940D01*
X39216988Y-2840000D01*
X39812361Y-2840000D01*
X39812360Y-2839999D01*
X39758952Y-2711061D01*
X39758947Y-2711051D01*
X39671401Y-2580030D01*
X39671398Y-2580026D01*
X39559973Y-2468601D01*
X39559969Y-2468598D01*
X39428948Y-2381052D01*
X39428939Y-2381047D01*
X39283351Y-2320743D01*
X39283343Y-2320741D01*
X39128797Y-2290000D01*
X38750000Y-2290000D01*
X38750000Y-2790000D01*
X38250000Y-2790000D01*
X38250000Y-2290000D01*
X37871202Y-2290000D01*
X37716656Y-2320741D01*
X37716648Y-2320743D01*
X37571060Y-2381047D01*
X37571051Y-2381052D01*
X37440030Y-2468598D01*
X37440026Y-2468601D01*
X37328601Y-2580026D01*
X37328598Y-2580030D01*
X37241052Y-2711051D01*
X37241047Y-2711061D01*
X37187639Y-2839999D01*
X35482360Y-2839999D01*
X35428952Y-2711061D01*
X35428947Y-2711051D01*
X35341401Y-2580030D01*
X35341398Y-2580026D01*
X35229973Y-2468601D01*
X35229969Y-2468598D01*
X35098948Y-2381052D01*
X35098939Y-2381047D01*
X34953351Y-2320743D01*
X34953343Y-2320741D01*
X34798797Y-2290000D01*
X34570000Y-2290000D01*
X34570000Y-2790000D01*
X34070000Y-2790000D01*
X34070000Y-2290000D01*
X33841202Y-2290000D01*
X33686656Y-2320741D01*
X33686648Y-2320743D01*
X33541060Y-2381047D01*
X33541051Y-2381052D01*
X33524928Y-2391826D01*
X33458250Y-2412704D01*
X33390870Y-2394219D01*
X33344180Y-2342240D01*
X33332037Y-2289022D01*
X33331891Y-2228225D01*
X33331583Y-2100000D01*
X45344866Y-2100000D01*
X45363301Y-2228225D01*
X45415371Y-2342240D01*
X45417117Y-2346063D01*
X45501950Y-2443967D01*
X45610930Y-2514004D01*
X45720116Y-2546063D01*
X45735224Y-2550499D01*
X45735226Y-2550500D01*
X45735227Y-2550500D01*
X45864772Y-2550500D01*
X45864772Y-2550499D01*
X45989068Y-2514004D01*
X46098048Y-2443967D01*
X46182881Y-2346063D01*
X46203918Y-2300000D01*
X51544867Y-2300000D01*
X51563302Y-2428225D01*
X51602477Y-2514004D01*
X51617118Y-2546063D01*
X51701951Y-2643967D01*
X51810931Y-2714004D01*
X51935225Y-2750499D01*
X51935227Y-2750500D01*
X51935228Y-2750500D01*
X52064773Y-2750500D01*
X52064773Y-2750499D01*
X52189069Y-2714004D01*
X52298049Y-2643967D01*
X52382882Y-2546063D01*
X52436697Y-2428226D01*
X52455133Y-2300000D01*
X52436697Y-2171774D01*
X52382882Y-2053937D01*
X52298049Y-1956033D01*
X52189069Y-1885996D01*
X52189065Y-1885994D01*
X52189064Y-1885994D01*
X52064774Y-1849500D01*
X52064772Y-1849500D01*
X51935228Y-1849500D01*
X51935226Y-1849500D01*
X51810935Y-1885994D01*
X51810932Y-1885995D01*
X51810931Y-1885996D01*
X51759677Y-1918934D01*
X51701950Y-1956033D01*
X51617118Y-2053937D01*
X51617117Y-2053938D01*
X51563302Y-2171774D01*
X51544867Y-2300000D01*
X46203918Y-2300000D01*
X46236696Y-2228226D01*
X46254323Y-2105621D01*
X46283348Y-2042067D01*
X46289351Y-2035617D01*
X46488152Y-1836816D01*
X46549475Y-1803334D01*
X46575832Y-1800500D01*
X48539560Y-1800500D01*
X48539562Y-1800500D01*
X48615989Y-1780021D01*
X48684511Y-1740460D01*
X48740460Y-1684511D01*
X49738152Y-686819D01*
X49799475Y-653334D01*
X49825833Y-650500D01*
X49864773Y-650500D01*
X49864773Y-650499D01*
X49989069Y-614004D01*
X50098049Y-543967D01*
X50182882Y-446063D01*
X50236697Y-328226D01*
X50255133Y-200000D01*
X50236697Y-71774D01*
X50182882Y46063D01*
X50098049Y143967D01*
X49989069Y214004D01*
X49989065Y214006D01*
X49989064Y214006D01*
X49864774Y250500D01*
X49864772Y250500D01*
X49735228Y250500D01*
X49735226Y250500D01*
X49610935Y214006D01*
X49610932Y214005D01*
X49610931Y214004D01*
X49559677Y181066D01*
X49501950Y143967D01*
X49417118Y46063D01*
X49417117Y46062D01*
X49363302Y-71774D01*
X49345675Y-194376D01*
X49316650Y-257931D01*
X49310618Y-264409D01*
X48411848Y-1163181D01*
X48350525Y-1196666D01*
X48324167Y-1199500D01*
X47951426Y-1199500D01*
X47884387Y-1179815D01*
X47838632Y-1127011D01*
X47828688Y-1057853D01*
X47834835Y-1036919D01*
X47834199Y-1036733D01*
X47836697Y-1028226D01*
X47844898Y-971184D01*
X47855133Y-900000D01*
X47836697Y-771774D01*
X47782882Y-653937D01*
X47698049Y-556033D01*
X47589069Y-485996D01*
X47589065Y-485994D01*
X47589064Y-485994D01*
X47464774Y-449500D01*
X47464772Y-449500D01*
X47335228Y-449500D01*
X47335226Y-449500D01*
X47210935Y-485994D01*
X47210932Y-485995D01*
X47210931Y-485996D01*
X47159677Y-518934D01*
X47101950Y-556033D01*
X47017118Y-653937D01*
X47017117Y-653938D01*
X46963302Y-771774D01*
X46944867Y-900000D01*
X46963302Y-1028226D01*
X46965801Y-1036733D01*
X46963304Y-1037466D01*
X46971313Y-1093138D01*
X46942293Y-1156696D01*
X46883518Y-1194474D01*
X46848574Y-1199500D01*
X46422737Y-1199500D01*
X46355698Y-1179815D01*
X46309943Y-1127011D01*
X46299999Y-1057853D01*
X46329024Y-994297D01*
X46355698Y-971184D01*
X46398049Y-943967D01*
X46482882Y-846063D01*
X46536697Y-728226D01*
X46555133Y-600000D01*
X46536697Y-471774D01*
X46482882Y-353937D01*
X46398049Y-256033D01*
X46289069Y-185996D01*
X46289065Y-185994D01*
X46289064Y-185994D01*
X46164774Y-149500D01*
X46164772Y-149500D01*
X46035228Y-149500D01*
X46035226Y-149500D01*
X45910935Y-185994D01*
X45910932Y-185995D01*
X45910931Y-185996D01*
X45859677Y-218934D01*
X45801950Y-256033D01*
X45717118Y-353937D01*
X45717117Y-353938D01*
X45663302Y-471774D01*
X45644867Y-600000D01*
X45663302Y-728225D01*
X45683191Y-771774D01*
X45717118Y-846063D01*
X45801951Y-943967D01*
X45910931Y-1014004D01*
X46035225Y-1050499D01*
X46035227Y-1050500D01*
X46125166Y-1050500D01*
X46192205Y-1070185D01*
X46237960Y-1122989D01*
X46247904Y-1192147D01*
X46218879Y-1255703D01*
X46212847Y-1262181D01*
X45861847Y-1613181D01*
X45800524Y-1646666D01*
X45774166Y-1649500D01*
X45735225Y-1649500D01*
X45610934Y-1685994D01*
X45610931Y-1685995D01*
X45610930Y-1685996D01*
X45559676Y-1718934D01*
X45501949Y-1756033D01*
X45417117Y-1853937D01*
X45417116Y-1853938D01*
X45363301Y-1971774D01*
X45344866Y-2100000D01*
X33331583Y-2100000D01*
X33327982Y-600000D01*
X38044867Y-600000D01*
X38063302Y-728225D01*
X38083191Y-771774D01*
X38117118Y-846063D01*
X38201951Y-943967D01*
X38310931Y-1014004D01*
X38435225Y-1050499D01*
X38435227Y-1050500D01*
X38435228Y-1050500D01*
X38564773Y-1050500D01*
X38564773Y-1050499D01*
X38689069Y-1014004D01*
X38798049Y-943967D01*
X38882882Y-846063D01*
X38936697Y-728226D01*
X38954324Y-605621D01*
X38983349Y-542067D01*
X38989367Y-535602D01*
X40140460Y615489D01*
X40180021Y684011D01*
X40200500Y760438D01*
X40200500Y1300000D01*
X40544867Y1300000D01*
X40563302Y1171775D01*
X40617117Y1053939D01*
X40617118Y1053937D01*
X40701951Y956033D01*
X40810931Y885996D01*
X40935225Y849501D01*
X40935227Y849500D01*
X40935228Y849500D01*
X41064773Y849500D01*
X41064773Y849501D01*
X41189069Y885996D01*
X41298049Y956033D01*
X41382882Y1053937D01*
X41436697Y1171774D01*
X41454324Y1294379D01*
X41483349Y1357933D01*
X41489367Y1364398D01*
X45140460Y5015489D01*
X45180021Y5084011D01*
X45200500Y5160438D01*
X45200500Y7550163D01*
X45220185Y7617202D01*
X45272989Y7662957D01*
X45276986Y7664698D01*
X45279179Y7665606D01*
X45410289Y7753211D01*
X45521789Y7864711D01*
X45609394Y7995821D01*
X45669737Y8141503D01*
X45700500Y8296158D01*
X45700500Y9003842D01*
X45700500Y9003845D01*
X45700499Y9003847D01*
X45669738Y9158490D01*
X45669737Y9158497D01*
X45632276Y9248937D01*
X45609397Y9304173D01*
X45609390Y9304186D01*
X45592629Y9329270D01*
X46099500Y9329270D01*
X46099500Y7970731D01*
X46102353Y7940301D01*
X46102353Y7940299D01*
X46147206Y7812120D01*
X46147207Y7812118D01*
X46227850Y7702850D01*
X46337118Y7622207D01*
X46351422Y7617202D01*
X46465299Y7577354D01*
X46495730Y7574500D01*
X46495734Y7574500D01*
X47304270Y7574500D01*
X47334699Y7577354D01*
X47334701Y7577354D01*
X47398790Y7599781D01*
X47462882Y7622207D01*
X47572150Y7702850D01*
X47652793Y7812118D01*
X47675219Y7876210D01*
X47697646Y7940299D01*
X47697646Y7940301D01*
X47700500Y7970731D01*
X47700500Y8000000D01*
X52944867Y8000000D01*
X52963302Y7871775D01*
X52976002Y7843967D01*
X53017118Y7753937D01*
X53068640Y7694477D01*
X53101369Y7656704D01*
X53101951Y7656033D01*
X53210931Y7585996D01*
X53332970Y7550163D01*
X53335225Y7549501D01*
X53335227Y7549500D01*
X53335228Y7549500D01*
X53464773Y7549500D01*
X53464773Y7549501D01*
X53589069Y7585996D01*
X53698049Y7656033D01*
X53698374Y7656409D01*
X53698631Y7656704D01*
X53699379Y7657185D01*
X53704754Y7661842D01*
X53705423Y7661070D01*
X53757409Y7694477D01*
X53792343Y7699500D01*
X56124167Y7699500D01*
X56191206Y7679815D01*
X56211848Y7663181D01*
X56310618Y7564411D01*
X56344103Y7503088D01*
X56345675Y7494377D01*
X56363302Y7371775D01*
X56417117Y7253939D01*
X56417118Y7253937D01*
X56501951Y7156033D01*
X56610931Y7085996D01*
X56735225Y7049501D01*
X56735227Y7049500D01*
X56735228Y7049500D01*
X56864773Y7049500D01*
X56864773Y7049501D01*
X56989069Y7085996D01*
X57098049Y7156033D01*
X57182882Y7253937D01*
X57236697Y7371774D01*
X57255133Y7500000D01*
X57236697Y7628226D01*
X57182882Y7746063D01*
X57098049Y7843967D01*
X56989069Y7914004D01*
X56989065Y7914006D01*
X56989064Y7914006D01*
X56864774Y7950500D01*
X56864772Y7950500D01*
X56825833Y7950500D01*
X56758794Y7970185D01*
X56738152Y7986819D01*
X56484511Y8240460D01*
X56474806Y8246063D01*
X56441922Y8265049D01*
X56415990Y8280021D01*
X56390513Y8286848D01*
X56339562Y8300500D01*
X56339560Y8300500D01*
X53792343Y8300500D01*
X53725304Y8320185D01*
X53698631Y8343296D01*
X53698050Y8343966D01*
X53698049Y8343967D01*
X53589069Y8414004D01*
X53589065Y8414006D01*
X53589064Y8414006D01*
X53464774Y8450500D01*
X53464772Y8450500D01*
X53335228Y8450500D01*
X53335226Y8450500D01*
X53210935Y8414006D01*
X53210932Y8414005D01*
X53210931Y8414004D01*
X53159677Y8381066D01*
X53101950Y8343967D01*
X53017119Y8246064D01*
X53017118Y8246063D01*
X52963302Y8128226D01*
X52944867Y8000000D01*
X47700500Y8000000D01*
X47700500Y9329270D01*
X47697646Y9359700D01*
X47697646Y9359702D01*
X47652793Y9487881D01*
X47652792Y9487883D01*
X47572150Y9597150D01*
X47462882Y9677793D01*
X47462880Y9677794D01*
X47399420Y9700000D01*
X59244867Y9700000D01*
X59263302Y9571775D01*
X59301616Y9487881D01*
X59317118Y9453937D01*
X59390624Y9369105D01*
X59398773Y9359700D01*
X59401951Y9356033D01*
X59510931Y9285996D01*
X59635225Y9249501D01*
X59635227Y9249500D01*
X59635228Y9249500D01*
X59764773Y9249500D01*
X59764773Y9249501D01*
X59889069Y9285996D01*
X59998049Y9356033D01*
X60082882Y9453937D01*
X60136697Y9571774D01*
X60155133Y9700000D01*
X60136697Y9828226D01*
X60082882Y9946063D01*
X59998049Y10043967D01*
X59889069Y10114004D01*
X59889065Y10114006D01*
X59889064Y10114006D01*
X59764774Y10150500D01*
X59764772Y10150500D01*
X59635228Y10150500D01*
X59635226Y10150500D01*
X59510935Y10114006D01*
X59510932Y10114005D01*
X59510931Y10114004D01*
X59459677Y10081066D01*
X59401950Y10043967D01*
X59317118Y9946063D01*
X59317117Y9946062D01*
X59263302Y9828226D01*
X59244867Y9700000D01*
X47399420Y9700000D01*
X47334700Y9722647D01*
X47304270Y9725500D01*
X47304266Y9725500D01*
X46495734Y9725500D01*
X46495730Y9725500D01*
X46465300Y9722647D01*
X46465298Y9722647D01*
X46337119Y9677794D01*
X46337117Y9677793D01*
X46227850Y9597150D01*
X46147207Y9487883D01*
X46147206Y9487881D01*
X46102353Y9359702D01*
X46102353Y9359700D01*
X46099500Y9329270D01*
X45592629Y9329270D01*
X45521789Y9435289D01*
X45521786Y9435293D01*
X45410292Y9546787D01*
X45410288Y9546790D01*
X45279185Y9634391D01*
X45279172Y9634398D01*
X45133501Y9694736D01*
X45133489Y9694739D01*
X44978845Y9725500D01*
X44978842Y9725500D01*
X44821158Y9725500D01*
X44821155Y9725500D01*
X44666510Y9694739D01*
X44666498Y9694736D01*
X44520827Y9634398D01*
X44520814Y9634391D01*
X44389711Y9546790D01*
X44389707Y9546787D01*
X44278213Y9435293D01*
X44278210Y9435289D01*
X44190609Y9304186D01*
X44190602Y9304173D01*
X44130264Y9158502D01*
X44130261Y9158490D01*
X44099500Y9003847D01*
X44099500Y8296154D01*
X44130261Y8141511D01*
X44130264Y8141499D01*
X44190602Y7995828D01*
X44190609Y7995815D01*
X44278210Y7864712D01*
X44278213Y7864708D01*
X44389710Y7753211D01*
X44499556Y7679815D01*
X44520821Y7665606D01*
X44522945Y7664726D01*
X44523885Y7663969D01*
X44526192Y7662736D01*
X44525958Y7662299D01*
X44577349Y7620893D01*
X44599421Y7554601D01*
X44599500Y7550163D01*
X44599500Y5375833D01*
X44579815Y5308794D01*
X44563181Y5288152D01*
X41061848Y1786819D01*
X41000525Y1753334D01*
X40974167Y1750500D01*
X40935226Y1750500D01*
X40810935Y1714006D01*
X40810932Y1714005D01*
X40810931Y1714004D01*
X40759677Y1681066D01*
X40701950Y1643967D01*
X40617118Y1546063D01*
X40617117Y1546062D01*
X40563302Y1428226D01*
X40544867Y1300000D01*
X40200500Y1300000D01*
X40200500Y2112614D01*
X40220185Y2179653D01*
X40230778Y2193806D01*
X40282882Y2253937D01*
X40336697Y2371774D01*
X40355133Y2500000D01*
X40336697Y2628226D01*
X40282882Y2746063D01*
X40198049Y2843967D01*
X40089069Y2914004D01*
X40089065Y2914006D01*
X40089064Y2914006D01*
X39964774Y2950500D01*
X39964772Y2950500D01*
X39835228Y2950500D01*
X39835226Y2950500D01*
X39710935Y2914006D01*
X39710932Y2914005D01*
X39710931Y2914004D01*
X39659677Y2881066D01*
X39601950Y2843967D01*
X39517118Y2746063D01*
X39517117Y2746062D01*
X39463302Y2628226D01*
X39444867Y2500000D01*
X39463302Y2371775D01*
X39471449Y2353937D01*
X39517118Y2253937D01*
X39569214Y2193814D01*
X39598238Y2130262D01*
X39599500Y2112614D01*
X39599500Y975833D01*
X39579815Y908794D01*
X39563181Y888152D01*
X38561848Y-113181D01*
X38500525Y-146666D01*
X38474167Y-149500D01*
X38435226Y-149500D01*
X38310935Y-185994D01*
X38310932Y-185995D01*
X38310931Y-185996D01*
X38259677Y-218934D01*
X38201950Y-256033D01*
X38117118Y-353937D01*
X38117117Y-353938D01*
X38063302Y-471774D01*
X38044867Y-600000D01*
X33327982Y-600000D01*
X33320667Y2446561D01*
X33340191Y2513645D01*
X33392885Y2559526D01*
X33462019Y2569636D01*
X33479602Y2565833D01*
X33535227Y2549500D01*
X33535228Y2549500D01*
X33664771Y2549500D01*
X33664772Y2549500D01*
X33707558Y2562064D01*
X33777424Y2562064D01*
X33836203Y2524290D01*
X33861466Y2478028D01*
X33863302Y2471777D01*
X33863302Y2471776D01*
X33863303Y2471774D01*
X33917118Y2353937D01*
X34001951Y2256033D01*
X34110931Y2185996D01*
X34235225Y2149501D01*
X34235227Y2149500D01*
X34235228Y2149500D01*
X34364773Y2149500D01*
X34364773Y2149501D01*
X34489069Y2185996D01*
X34598049Y2256033D01*
X34682882Y2353937D01*
X34691028Y2371774D01*
X34739090Y2477012D01*
X34784845Y2529816D01*
X34851884Y2549500D01*
X34964773Y2549500D01*
X34964773Y2549501D01*
X35089069Y2585996D01*
X35198049Y2656033D01*
X35282882Y2753937D01*
X35336697Y2871774D01*
X35355133Y3000000D01*
X35336697Y3128226D01*
X35282882Y3246063D01*
X35198049Y3343967D01*
X35089069Y3414004D01*
X35089065Y3414006D01*
X35089064Y3414006D01*
X34964774Y3450500D01*
X34964772Y3450500D01*
X34835228Y3450500D01*
X34835226Y3450500D01*
X34710935Y3414006D01*
X34710932Y3414005D01*
X34710931Y3414004D01*
X34659677Y3381066D01*
X34601950Y3343967D01*
X34517118Y3246063D01*
X34517117Y3246062D01*
X34460911Y3122988D01*
X34415156Y3070184D01*
X34348117Y3050500D01*
X34235226Y3050500D01*
X34192442Y3037938D01*
X34122572Y3037938D01*
X34063794Y3075713D01*
X34038531Y3121978D01*
X34036697Y3128221D01*
X34036697Y3128226D01*
X33982882Y3246063D01*
X33898049Y3343967D01*
X33789069Y3414004D01*
X33789065Y3414006D01*
X33789064Y3414006D01*
X33664774Y3450500D01*
X33664772Y3450500D01*
X33535228Y3450500D01*
X33476946Y3433388D01*
X33407076Y3433390D01*
X33348299Y3471165D01*
X33319275Y3534721D01*
X33318013Y3552057D01*
X33317544Y3747477D01*
X33337068Y3814562D01*
X33389762Y3860443D01*
X33458896Y3870553D01*
X33476476Y3866751D01*
X33497104Y3860694D01*
X33535227Y3849500D01*
X33535228Y3849500D01*
X33664773Y3849500D01*
X33664773Y3849501D01*
X33789069Y3885996D01*
X33898049Y3956033D01*
X33982882Y4053937D01*
X34036697Y4171774D01*
X34055133Y4300000D01*
X34036697Y4428226D01*
X33982882Y4546063D01*
X33963181Y4568799D01*
X33934157Y4632351D01*
X33944100Y4701510D01*
X33963179Y4731200D01*
X33982882Y4753937D01*
X34036697Y4871774D01*
X34055133Y5000000D01*
X34344867Y5000000D01*
X34363302Y4871775D01*
X34411666Y4765874D01*
X34417118Y4753937D01*
X34462546Y4701510D01*
X34492586Y4666841D01*
X34521610Y4603285D01*
X34511667Y4534128D01*
X34463302Y4428224D01*
X34444867Y4300000D01*
X34463302Y4171775D01*
X34517117Y4053939D01*
X34517118Y4053937D01*
X34601951Y3956033D01*
X34710931Y3885996D01*
X34797959Y3860443D01*
X34835225Y3849501D01*
X34835227Y3849500D01*
X34835228Y3849500D01*
X34964773Y3849500D01*
X34964773Y3849501D01*
X35089069Y3885996D01*
X35198049Y3956033D01*
X35282882Y4053937D01*
X35336697Y4171774D01*
X35355133Y4300000D01*
X35336697Y4428226D01*
X35282882Y4546063D01*
X35207412Y4633161D01*
X35178389Y4696716D01*
X35188332Y4765873D01*
X35236697Y4871774D01*
X35255133Y5000000D01*
X35236697Y5128226D01*
X35182882Y5246063D01*
X35098049Y5343967D01*
X34989069Y5414004D01*
X34989065Y5414006D01*
X34989064Y5414006D01*
X34864774Y5450500D01*
X34864772Y5450500D01*
X34735228Y5450500D01*
X34735226Y5450500D01*
X34610935Y5414006D01*
X34610932Y5414005D01*
X34610931Y5414004D01*
X34561416Y5382183D01*
X34501950Y5343967D01*
X34417118Y5246063D01*
X34417117Y5246062D01*
X34363302Y5128226D01*
X34344867Y5000000D01*
X34055133Y5000000D01*
X34036697Y5128226D01*
X33982882Y5246063D01*
X33898049Y5343967D01*
X33789069Y5414004D01*
X33789065Y5414006D01*
X33789064Y5414006D01*
X33664774Y5450500D01*
X33664772Y5450500D01*
X33535228Y5450500D01*
X33472147Y5431979D01*
X33402277Y5431981D01*
X33343500Y5469756D01*
X33314476Y5533312D01*
X33313214Y5550647D01*
X33302773Y9900000D01*
X36844867Y9900000D01*
X36863302Y9771775D01*
X36885739Y9722646D01*
X36917118Y9653937D01*
X37001951Y9556033D01*
X37110931Y9485996D01*
X37220117Y9453937D01*
X37235225Y9449501D01*
X37235227Y9449500D01*
X37235228Y9449500D01*
X37364773Y9449500D01*
X37364773Y9449501D01*
X37489069Y9485996D01*
X37598049Y9556033D01*
X37627938Y9590528D01*
X37686714Y9628301D01*
X37756584Y9628303D01*
X37815362Y9590530D01*
X37844389Y9526974D01*
X37844390Y9503869D01*
X37844867Y9503869D01*
X37844867Y9495001D01*
X37863302Y9366775D01*
X37900194Y9285995D01*
X37917118Y9248937D01*
X37935613Y9227592D01*
X37964638Y9164037D01*
X37965900Y9146390D01*
X37965900Y6252333D01*
X37946215Y6185294D01*
X37893411Y6139539D01*
X37876835Y6133356D01*
X37810934Y6114006D01*
X37701950Y6043967D01*
X37617118Y5946063D01*
X37617117Y5946062D01*
X37563302Y5828226D01*
X37544867Y5700000D01*
X37563302Y5571775D01*
X37613883Y5461020D01*
X37617118Y5453937D01*
X37701951Y5356033D01*
X37810931Y5285996D01*
X37935225Y5249501D01*
X37935227Y5249500D01*
X37935228Y5249500D01*
X38064773Y5249500D01*
X38064773Y5249501D01*
X38189069Y5285996D01*
X38298049Y5356033D01*
X38348281Y5414004D01*
X38356286Y5423243D01*
X38415063Y5461019D01*
X38484933Y5461020D01*
X38543710Y5423247D01*
X38543713Y5423244D01*
X38543714Y5423243D01*
X38601948Y5356035D01*
X38601950Y5356034D01*
X38601951Y5356033D01*
X38710931Y5285996D01*
X38835225Y5249501D01*
X38835227Y5249500D01*
X38835228Y5249500D01*
X38964773Y5249500D01*
X38964773Y5249501D01*
X39089069Y5285996D01*
X39198049Y5356033D01*
X39282882Y5453937D01*
X39336697Y5571774D01*
X39355133Y5700000D01*
X39336697Y5828226D01*
X39282882Y5946063D01*
X39282880Y5946065D01*
X39282879Y5946068D01*
X39230786Y6006188D01*
X39201762Y6069744D01*
X39200500Y6087389D01*
X39200500Y9675958D01*
X39200500Y9675959D01*
X39180021Y9752386D01*
X39180017Y9752393D01*
X39140464Y9820902D01*
X39140458Y9820910D01*
X38670909Y10290459D01*
X38670901Y10290465D01*
X38602392Y10330018D01*
X38602387Y10330021D01*
X38576910Y10336848D01*
X38525959Y10350500D01*
X37410438Y10350500D01*
X37403523Y10349590D01*
X37369698Y10349792D01*
X37364773Y10350500D01*
X37364772Y10350500D01*
X37235228Y10350500D01*
X37235226Y10350500D01*
X37110935Y10314006D01*
X37110932Y10314005D01*
X37110931Y10314004D01*
X37074296Y10290460D01*
X37001950Y10243967D01*
X36917118Y10146063D01*
X36917117Y10146062D01*
X36863302Y10028226D01*
X36844867Y9900000D01*
X33302773Y9900000D01*
X33300625Y10794602D01*
X33304148Y10824248D01*
X33311237Y10853348D01*
X33331195Y10935276D01*
X33339569Y10958923D01*
X33391223Y11068176D01*
X33404178Y11089643D01*
X33476781Y11186274D01*
X33493793Y11204692D01*
X33584350Y11284718D01*
X33604729Y11299341D01*
X33709548Y11359501D01*
X33732454Y11369721D01*
X33847230Y11407544D01*
X33871727Y11412944D01*
X33997439Y11427545D01*
X34011794Y11428373D01*
X59811965Y11417232D01*
G37*
G04 #@! TD.AperFunction*
G04 #@! TD*
M02*
